%
M48
M72
T01C0.02362
T02C0.03150
T03C0.03200
T04C0.04000
T05C0.07480
%
T01
X98965Y164831
T02
X39555Y187587
X44280Y190736
X44280Y184437
X39555Y181287
X44280Y178138
T03
X68531Y193925
X68413Y177665
X78413Y177665
X108531Y193925
X130106Y155382
X130106Y145382
X146917Y145106
X146917Y155106
X143650Y121484
X133650Y121484
X123650Y121484
X113650Y121484
X103650Y121484
X93650Y121484
X83650Y121484
X73650Y121484
X63650Y121484
X63413Y136051
X73413Y136051
X73650Y91484
X83650Y91484
X93650Y91484
X103650Y91484
X113650Y91484
X123650Y91484
X133650Y91484
X143650Y91484
X153650Y91484
X163650Y91484
X173650Y91484
X183650Y91484
X193650Y91484
X197980Y78571
X187980Y78571
X186091Y68098
X173531Y68571
X173531Y78571
X161209Y67311
X186091Y28098
X161209Y27311
X76957Y34004
X43138Y37193
X43138Y47193
X21366Y47665
X21366Y37665
X21366Y61484
X21366Y71484
X28217Y87705
X20717Y92705
X28217Y97705
X63650Y91484
X76957Y74004
X153650Y121484
X163650Y121484
X173650Y121484
X183650Y121484
X193650Y121484
T04
X15500Y147508
X15500Y137508
X15500Y127508
X15500Y117508
X15500Y107508
X17075Y17587
X27075Y17587
X37075Y17587
X47075Y17587
X57075Y17587
X67075Y17587
X77075Y17587
X87075Y17587
X110421Y15736
X130421Y15736
X150028Y15500
X170028Y15500
X199634Y16484
X199634Y26484
X199634Y36484
X199634Y46484
X199634Y56484
X199634Y66484
X146248Y69831
X136248Y69831
X126248Y69831
X127311Y198689
X137311Y198689
X147311Y198689
X157311Y198689
X167311Y198689
X177311Y198689
X187311Y198689
X197311Y198689
T05
X24201Y198807
X24201Y170067
M30
