G75*
%MOIN*%
%OFA0B0*%
%FSLAX25Y25*%
%IPPOS*%
%LPD*%
%AMOC8*
5,1,8,0,0,1.08239X$1,22.5*
%
%ADD10C,0.00000*%
%ADD11OC8,0.04800*%
%ADD12C,0.06300*%
%ADD13OC8,0.06300*%
%ADD14C,0.04724*%
%ADD15C,0.11220*%
%ADD16C,0.07400*%
%ADD17C,0.04800*%
%ADD18C,0.01600*%
%ADD19R,0.03543X0.03543*%
D10*
X0009201Y0009713D02*
X0009201Y0206563D01*
X0206051Y0206563D01*
X0206051Y0009713D01*
X0009201Y0009713D01*
D11*
X0021366Y0037665D03*
X0021366Y0047665D03*
X0021366Y0061484D03*
X0021366Y0071484D03*
X0028217Y0087705D03*
X0020717Y0092705D03*
X0028217Y0097705D03*
X0063413Y0136051D03*
X0073413Y0136051D03*
X0068413Y0177665D03*
X0078413Y0177665D03*
X0068531Y0193925D03*
X0108531Y0193925D03*
X0130106Y0155382D03*
X0130106Y0145382D03*
X0173531Y0078571D03*
X0173531Y0068571D03*
X0161209Y0067311D03*
X0186091Y0068098D03*
X0187980Y0078571D03*
X0197980Y0078571D03*
X0186091Y0028098D03*
X0161209Y0027311D03*
X0076957Y0034004D03*
X0076957Y0074004D03*
D12*
X0043138Y0047193D03*
X0146917Y0145106D03*
D13*
X0146917Y0155106D03*
X0043138Y0037193D03*
D14*
X0044280Y0178138D03*
X0039555Y0181287D03*
X0044280Y0184437D03*
X0039555Y0187587D03*
X0044280Y0190736D03*
D15*
X0024201Y0198807D03*
X0024201Y0170067D03*
D16*
X0015500Y0147508D03*
X0015500Y0137508D03*
X0015500Y0127508D03*
X0015500Y0117508D03*
X0015500Y0107508D03*
X0017075Y0017587D03*
X0027075Y0017587D03*
X0037075Y0017587D03*
X0047075Y0017587D03*
X0057075Y0017587D03*
X0067075Y0017587D03*
X0077075Y0017587D03*
X0087075Y0017587D03*
X0110421Y0015736D03*
X0130421Y0015736D03*
X0150028Y0015500D03*
X0170028Y0015500D03*
X0199634Y0016484D03*
X0199634Y0026484D03*
X0199634Y0036484D03*
X0199634Y0046484D03*
X0199634Y0056484D03*
X0199634Y0066484D03*
X0146248Y0069831D03*
X0136248Y0069831D03*
X0126248Y0069831D03*
X0127311Y0198689D03*
X0137311Y0198689D03*
X0147311Y0198689D03*
X0157311Y0198689D03*
X0167311Y0198689D03*
X0177311Y0198689D03*
X0187311Y0198689D03*
X0197311Y0198689D03*
D17*
X0193650Y0123884D02*
X0193650Y0119084D01*
X0183650Y0119084D02*
X0183650Y0123884D01*
X0173650Y0123884D02*
X0173650Y0119084D01*
X0163650Y0119084D02*
X0163650Y0123884D01*
X0153650Y0123884D02*
X0153650Y0119084D01*
X0143650Y0119084D02*
X0143650Y0123884D01*
X0133650Y0123884D02*
X0133650Y0119084D01*
X0123650Y0119084D02*
X0123650Y0123884D01*
X0113650Y0123884D02*
X0113650Y0119084D01*
X0103650Y0119084D02*
X0103650Y0123884D01*
X0093650Y0123884D02*
X0093650Y0119084D01*
X0083650Y0119084D02*
X0083650Y0123884D01*
X0073650Y0123884D02*
X0073650Y0119084D01*
X0063650Y0119084D02*
X0063650Y0123884D01*
X0063650Y0093884D02*
X0063650Y0089084D01*
X0073650Y0089084D02*
X0073650Y0093884D01*
X0083650Y0093884D02*
X0083650Y0089084D01*
X0093650Y0089084D02*
X0093650Y0093884D01*
X0103650Y0093884D02*
X0103650Y0089084D01*
X0113650Y0089084D02*
X0113650Y0093884D01*
X0123650Y0093884D02*
X0123650Y0089084D01*
X0133650Y0089084D02*
X0133650Y0093884D01*
X0143650Y0093884D02*
X0143650Y0089084D01*
X0153650Y0089084D02*
X0153650Y0093884D01*
X0163650Y0093884D02*
X0163650Y0089084D01*
X0173650Y0089084D02*
X0173650Y0093884D01*
X0183650Y0093884D02*
X0183650Y0089084D01*
X0193650Y0089084D02*
X0193650Y0093884D01*
D18*
X0193453Y0091681D02*
X0193650Y0091484D01*
X0193453Y0091681D02*
X0193453Y0100264D01*
X0188728Y0104988D01*
X0050933Y0104988D01*
X0033610Y0122311D01*
X0033610Y0179004D01*
X0035972Y0181366D01*
X0039476Y0181366D01*
X0039555Y0181287D01*
X0036620Y0178916D02*
X0037429Y0178106D01*
X0038809Y0177535D01*
X0040302Y0177535D01*
X0040527Y0177628D01*
X0040527Y0177391D01*
X0041098Y0176012D01*
X0042154Y0174956D01*
X0043533Y0174385D01*
X0045026Y0174385D01*
X0046405Y0174956D01*
X0047461Y0176012D01*
X0048032Y0177391D01*
X0048032Y0178884D01*
X0047461Y0180264D01*
X0046437Y0181287D01*
X0047461Y0182311D01*
X0048032Y0183691D01*
X0048032Y0185183D01*
X0047461Y0186563D01*
X0046437Y0187587D01*
X0047461Y0188610D01*
X0048032Y0189990D01*
X0048032Y0191483D01*
X0047461Y0192862D01*
X0046405Y0193918D01*
X0045026Y0194489D01*
X0043533Y0194489D01*
X0042154Y0193918D01*
X0041098Y0192862D01*
X0040527Y0191483D01*
X0040527Y0191246D01*
X0040302Y0191339D01*
X0040121Y0191339D01*
X0037376Y0194085D01*
X0037376Y0195419D01*
X0040029Y0198073D01*
X0050813Y0198073D01*
X0057404Y0191482D01*
X0057404Y0166286D01*
X0064491Y0159199D01*
X0065774Y0157916D01*
X0090183Y0157916D01*
X0121183Y0126915D01*
X0121183Y0126779D01*
X0120436Y0126031D01*
X0119859Y0124638D01*
X0119859Y0118330D01*
X0120436Y0116937D01*
X0121502Y0115871D01*
X0122896Y0115294D01*
X0124404Y0115294D01*
X0125797Y0115871D01*
X0126863Y0116937D01*
X0127440Y0118330D01*
X0127440Y0124638D01*
X0126863Y0126031D01*
X0125797Y0127098D01*
X0125565Y0127194D01*
X0125565Y0128730D01*
X0124281Y0130013D01*
X0091998Y0162297D01*
X0067588Y0162297D01*
X0061785Y0168100D01*
X0061785Y0193297D01*
X0060502Y0194580D01*
X0060502Y0194580D01*
X0052628Y0202454D01*
X0038215Y0202454D01*
X0036931Y0201171D01*
X0034278Y0198517D01*
X0034278Y0198517D01*
X0032994Y0197234D01*
X0032994Y0192270D01*
X0034278Y0190987D01*
X0036133Y0189131D01*
X0035802Y0188333D01*
X0035802Y0186840D01*
X0036374Y0185461D01*
X0037398Y0184437D01*
X0036517Y0183557D01*
X0035065Y0183557D01*
X0033782Y0182273D01*
X0031420Y0179911D01*
X0031420Y0121404D01*
X0048743Y0104081D01*
X0050026Y0102798D01*
X0187821Y0102798D01*
X0191262Y0099356D01*
X0191262Y0096857D01*
X0190436Y0096031D01*
X0189859Y0094638D01*
X0189859Y0088330D01*
X0190436Y0086937D01*
X0191502Y0085871D01*
X0192896Y0085294D01*
X0194404Y0085294D01*
X0195797Y0085871D01*
X0196863Y0086937D01*
X0197440Y0088330D01*
X0197440Y0094638D01*
X0196863Y0096031D01*
X0195797Y0097098D01*
X0195643Y0097161D01*
X0195643Y0101171D01*
X0194360Y0102454D01*
X0189636Y0107179D01*
X0051840Y0107179D01*
X0035801Y0123218D01*
X0035801Y0178097D01*
X0036620Y0178916D01*
X0035801Y0177556D02*
X0038756Y0177556D01*
X0040354Y0177556D02*
X0040527Y0177556D01*
X0041152Y0175958D02*
X0035801Y0175958D01*
X0035801Y0174359D02*
X0057404Y0174359D01*
X0057404Y0172761D02*
X0035801Y0172761D01*
X0035801Y0171162D02*
X0057404Y0171162D01*
X0057404Y0169564D02*
X0035801Y0169564D01*
X0035801Y0167965D02*
X0057404Y0167965D01*
X0057404Y0166367D02*
X0035801Y0166367D01*
X0035801Y0164768D02*
X0058921Y0164768D01*
X0060520Y0163170D02*
X0035801Y0163170D01*
X0035801Y0161571D02*
X0062118Y0161571D01*
X0063717Y0159973D02*
X0035801Y0159973D01*
X0035801Y0158374D02*
X0065315Y0158374D01*
X0066681Y0160106D02*
X0091091Y0160106D01*
X0123374Y0127823D01*
X0123374Y0121760D01*
X0123650Y0121484D01*
X0127440Y0121608D02*
X0129859Y0121608D01*
X0129859Y0120010D02*
X0127440Y0120010D01*
X0127440Y0118411D02*
X0129859Y0118411D01*
X0129859Y0118330D02*
X0130436Y0116937D01*
X0131502Y0115871D01*
X0132896Y0115294D01*
X0134404Y0115294D01*
X0135797Y0115871D01*
X0136863Y0116937D01*
X0137440Y0118330D01*
X0137440Y0124638D01*
X0136863Y0126031D01*
X0135801Y0127094D01*
X0135801Y0131092D01*
X0134518Y0132376D01*
X0102127Y0164766D01*
X0102127Y0167178D01*
X0101312Y0167993D01*
X0096617Y0167993D01*
X0095802Y0167178D01*
X0095802Y0162483D01*
X0096617Y0161669D01*
X0099029Y0161669D01*
X0131420Y0129278D01*
X0131420Y0127015D01*
X0130436Y0126031D01*
X0129859Y0124638D01*
X0129859Y0118330D01*
X0130560Y0116813D02*
X0126739Y0116813D01*
X0120560Y0116813D02*
X0116928Y0116813D01*
X0116747Y0116542D02*
X0117183Y0117195D01*
X0117484Y0117921D01*
X0117637Y0118692D01*
X0117637Y0121484D01*
X0113650Y0121484D01*
X0113650Y0121484D01*
X0113650Y0115097D01*
X0114042Y0115097D01*
X0114813Y0115250D01*
X0115538Y0115551D01*
X0116191Y0115987D01*
X0116747Y0116542D01*
X0117581Y0118411D02*
X0119859Y0118411D01*
X0119859Y0120010D02*
X0117637Y0120010D01*
X0117637Y0121484D02*
X0117637Y0124277D01*
X0117484Y0125047D01*
X0117183Y0125773D01*
X0116747Y0126426D01*
X0116191Y0126981D01*
X0115538Y0127418D01*
X0114813Y0127718D01*
X0114042Y0127872D01*
X0113650Y0127872D01*
X0113650Y0121484D01*
X0113650Y0121484D01*
X0117637Y0121484D01*
X0117637Y0121608D02*
X0119859Y0121608D01*
X0119859Y0123207D02*
X0117637Y0123207D01*
X0117532Y0124805D02*
X0119928Y0124805D01*
X0120809Y0126404D02*
X0116762Y0126404D01*
X0118498Y0129601D02*
X0035801Y0129601D01*
X0035801Y0131199D02*
X0116899Y0131199D01*
X0115301Y0132798D02*
X0075521Y0132798D01*
X0074983Y0132261D02*
X0077204Y0134481D01*
X0077204Y0137621D01*
X0074983Y0139842D01*
X0071843Y0139842D01*
X0069623Y0137621D01*
X0069623Y0134481D01*
X0071843Y0132261D01*
X0074983Y0132261D01*
X0077119Y0134396D02*
X0113702Y0134396D01*
X0112104Y0135995D02*
X0077204Y0135995D01*
X0077204Y0137594D02*
X0110505Y0137594D01*
X0108907Y0139192D02*
X0075633Y0139192D01*
X0071194Y0139192D02*
X0065912Y0139192D01*
X0065065Y0140039D02*
X0063413Y0140039D01*
X0061762Y0140039D01*
X0059426Y0137703D01*
X0059426Y0136051D01*
X0059426Y0134400D01*
X0061762Y0132064D01*
X0063413Y0132064D01*
X0063413Y0136051D01*
X0059426Y0136051D01*
X0063413Y0136051D01*
X0063413Y0136051D01*
X0063413Y0136051D01*
X0063413Y0132064D01*
X0065065Y0132064D01*
X0067401Y0134400D01*
X0067401Y0136051D01*
X0063414Y0136051D01*
X0063414Y0136051D01*
X0067401Y0136051D01*
X0067401Y0137703D01*
X0065065Y0140039D01*
X0063413Y0140039D02*
X0063413Y0136051D01*
X0063413Y0140039D01*
X0063413Y0139192D02*
X0063413Y0139192D01*
X0063413Y0137594D02*
X0063413Y0137594D01*
X0063413Y0136051D02*
X0063413Y0136051D01*
X0063413Y0135995D02*
X0063413Y0135995D01*
X0063413Y0134396D02*
X0063413Y0134396D01*
X0063413Y0132798D02*
X0063413Y0132798D01*
X0061028Y0132798D02*
X0035801Y0132798D01*
X0035801Y0134396D02*
X0059429Y0134396D01*
X0059426Y0135995D02*
X0035801Y0135995D01*
X0035801Y0137594D02*
X0059426Y0137594D01*
X0060915Y0139192D02*
X0035801Y0139192D01*
X0035801Y0140791D02*
X0107308Y0140791D01*
X0105710Y0142389D02*
X0035801Y0142389D01*
X0035801Y0143988D02*
X0104111Y0143988D01*
X0102513Y0145586D02*
X0035801Y0145586D01*
X0035801Y0147185D02*
X0100914Y0147185D01*
X0099316Y0148783D02*
X0035801Y0148783D01*
X0035801Y0150382D02*
X0097717Y0150382D01*
X0096119Y0151980D02*
X0035801Y0151980D01*
X0035801Y0153579D02*
X0094520Y0153579D01*
X0092922Y0155177D02*
X0035801Y0155177D01*
X0035801Y0156776D02*
X0091323Y0156776D01*
X0094322Y0159973D02*
X0100725Y0159973D01*
X0099126Y0161571D02*
X0092724Y0161571D01*
X0095802Y0163170D02*
X0066716Y0163170D01*
X0065117Y0164768D02*
X0095802Y0164768D01*
X0095802Y0166367D02*
X0063519Y0166367D01*
X0061920Y0167965D02*
X0096589Y0167965D01*
X0098965Y0164831D02*
X0133610Y0130185D01*
X0133610Y0121524D01*
X0133650Y0121484D01*
X0137440Y0121608D02*
X0139859Y0121608D01*
X0139859Y0120010D02*
X0137440Y0120010D01*
X0137440Y0118411D02*
X0139859Y0118411D01*
X0139859Y0118330D02*
X0140436Y0116937D01*
X0141502Y0115871D01*
X0142896Y0115294D01*
X0144404Y0115294D01*
X0145797Y0115871D01*
X0146863Y0116937D01*
X0147440Y0118330D01*
X0147440Y0124638D01*
X0146863Y0126031D01*
X0145797Y0127098D01*
X0144404Y0127675D01*
X0142896Y0127675D01*
X0141502Y0127098D01*
X0140436Y0126031D01*
X0139859Y0124638D01*
X0139859Y0118330D01*
X0140560Y0116813D02*
X0136739Y0116813D01*
X0137440Y0123207D02*
X0139859Y0123207D01*
X0139928Y0124805D02*
X0137371Y0124805D01*
X0136491Y0126404D02*
X0140809Y0126404D01*
X0135801Y0128002D02*
X0204267Y0128002D01*
X0204267Y0126404D02*
X0196491Y0126404D01*
X0196863Y0126031D02*
X0195797Y0127098D01*
X0194404Y0127675D01*
X0192896Y0127675D01*
X0191502Y0127098D01*
X0190436Y0126031D01*
X0189859Y0124638D01*
X0189859Y0118330D01*
X0190436Y0116937D01*
X0191502Y0115871D01*
X0192896Y0115294D01*
X0194404Y0115294D01*
X0195797Y0115871D01*
X0196863Y0116937D01*
X0197440Y0118330D01*
X0197440Y0124638D01*
X0196863Y0126031D01*
X0197371Y0124805D02*
X0204267Y0124805D01*
X0204267Y0123207D02*
X0197440Y0123207D01*
X0197440Y0121608D02*
X0204267Y0121608D01*
X0204267Y0120010D02*
X0197440Y0120010D01*
X0197440Y0118411D02*
X0204267Y0118411D01*
X0204267Y0116813D02*
X0196739Y0116813D01*
X0190560Y0116813D02*
X0186739Y0116813D01*
X0186863Y0116937D02*
X0187440Y0118330D01*
X0187440Y0124638D01*
X0186863Y0126031D01*
X0185797Y0127098D01*
X0184404Y0127675D01*
X0182896Y0127675D01*
X0181502Y0127098D01*
X0180436Y0126031D01*
X0179859Y0124638D01*
X0179859Y0118330D01*
X0180436Y0116937D01*
X0181502Y0115871D01*
X0182896Y0115294D01*
X0184404Y0115294D01*
X0185797Y0115871D01*
X0186863Y0116937D01*
X0187440Y0118411D02*
X0189859Y0118411D01*
X0189859Y0120010D02*
X0187440Y0120010D01*
X0187440Y0121608D02*
X0189859Y0121608D01*
X0189859Y0123207D02*
X0187440Y0123207D01*
X0187371Y0124805D02*
X0189928Y0124805D01*
X0190809Y0126404D02*
X0186491Y0126404D01*
X0180809Y0126404D02*
X0176491Y0126404D01*
X0176863Y0126031D02*
X0175797Y0127098D01*
X0174404Y0127675D01*
X0172896Y0127675D01*
X0171502Y0127098D01*
X0170436Y0126031D01*
X0169859Y0124638D01*
X0169859Y0118330D01*
X0170436Y0116937D01*
X0171502Y0115871D01*
X0172896Y0115294D01*
X0174404Y0115294D01*
X0175797Y0115871D01*
X0176863Y0116937D01*
X0177440Y0118330D01*
X0177440Y0124638D01*
X0176863Y0126031D01*
X0177371Y0124805D02*
X0179928Y0124805D01*
X0179859Y0123207D02*
X0177440Y0123207D01*
X0177440Y0121608D02*
X0179859Y0121608D01*
X0179859Y0120010D02*
X0177440Y0120010D01*
X0177440Y0118411D02*
X0179859Y0118411D01*
X0180560Y0116813D02*
X0176739Y0116813D01*
X0170560Y0116813D02*
X0166739Y0116813D01*
X0166863Y0116937D02*
X0167440Y0118330D01*
X0167440Y0124638D01*
X0166863Y0126031D01*
X0165797Y0127098D01*
X0164404Y0127675D01*
X0162896Y0127675D01*
X0161502Y0127098D01*
X0160436Y0126031D01*
X0159859Y0124638D01*
X0159859Y0118330D01*
X0160436Y0116937D01*
X0161502Y0115871D01*
X0162896Y0115294D01*
X0164404Y0115294D01*
X0165797Y0115871D01*
X0166863Y0116937D01*
X0167440Y0118411D02*
X0169859Y0118411D01*
X0169859Y0120010D02*
X0167440Y0120010D01*
X0167440Y0121608D02*
X0169859Y0121608D01*
X0169859Y0123207D02*
X0167440Y0123207D01*
X0167371Y0124805D02*
X0169928Y0124805D01*
X0170809Y0126404D02*
X0166491Y0126404D01*
X0160809Y0126404D02*
X0156491Y0126404D01*
X0156863Y0126031D02*
X0155797Y0127098D01*
X0154404Y0127675D01*
X0152896Y0127675D01*
X0151502Y0127098D01*
X0150436Y0126031D01*
X0149859Y0124638D01*
X0149859Y0118330D01*
X0150436Y0116937D01*
X0151502Y0115871D01*
X0152896Y0115294D01*
X0154404Y0115294D01*
X0155797Y0115871D01*
X0156863Y0116937D01*
X0157440Y0118330D01*
X0157440Y0124638D01*
X0156863Y0126031D01*
X0157371Y0124805D02*
X0159928Y0124805D01*
X0159859Y0123207D02*
X0157440Y0123207D01*
X0157440Y0121608D02*
X0159859Y0121608D01*
X0159859Y0120010D02*
X0157440Y0120010D01*
X0157440Y0118411D02*
X0159859Y0118411D01*
X0160560Y0116813D02*
X0156739Y0116813D01*
X0150560Y0116813D02*
X0146739Y0116813D01*
X0147440Y0118411D02*
X0149859Y0118411D01*
X0149859Y0120010D02*
X0147440Y0120010D01*
X0147440Y0121608D02*
X0149859Y0121608D01*
X0149859Y0123207D02*
X0147440Y0123207D01*
X0147371Y0124805D02*
X0149928Y0124805D01*
X0150809Y0126404D02*
X0146491Y0126404D01*
X0135801Y0129601D02*
X0204267Y0129601D01*
X0204267Y0131199D02*
X0135694Y0131199D01*
X0134095Y0132798D02*
X0204267Y0132798D01*
X0204267Y0134396D02*
X0132497Y0134396D01*
X0130898Y0135995D02*
X0204267Y0135995D01*
X0204267Y0137594D02*
X0129300Y0137594D01*
X0127701Y0139192D02*
X0204267Y0139192D01*
X0204267Y0140791D02*
X0148363Y0140791D01*
X0147820Y0140566D02*
X0149489Y0141257D01*
X0150767Y0142534D01*
X0151458Y0144203D01*
X0151458Y0146009D01*
X0150767Y0147678D01*
X0149489Y0148956D01*
X0147820Y0149647D01*
X0146014Y0149647D01*
X0144345Y0148956D01*
X0143068Y0147678D01*
X0142377Y0146009D01*
X0142377Y0144203D01*
X0143068Y0142534D01*
X0144345Y0141257D01*
X0146014Y0140566D01*
X0147820Y0140566D01*
X0145471Y0140791D02*
X0126103Y0140791D01*
X0127460Y0142389D02*
X0124504Y0142389D01*
X0126119Y0143730D02*
X0128455Y0141394D01*
X0130106Y0141394D01*
X0130106Y0145382D01*
X0130106Y0145382D01*
X0126119Y0145382D01*
X0126119Y0147034D01*
X0128455Y0149369D01*
X0130106Y0149369D01*
X0130106Y0145382D01*
X0130106Y0145382D01*
X0126119Y0145382D01*
X0126119Y0143730D01*
X0126119Y0143988D02*
X0122906Y0143988D01*
X0121307Y0145586D02*
X0126119Y0145586D01*
X0126270Y0147185D02*
X0119709Y0147185D01*
X0118110Y0148783D02*
X0127868Y0148783D01*
X0130106Y0148783D02*
X0130106Y0148783D01*
X0130106Y0149369D02*
X0130106Y0145382D01*
X0130106Y0145382D01*
X0134094Y0145382D01*
X0134094Y0147034D01*
X0131758Y0149369D01*
X0130106Y0149369D01*
X0130106Y0147185D02*
X0130106Y0147185D01*
X0130106Y0145586D02*
X0130106Y0145586D01*
X0130106Y0145382D02*
X0130106Y0145382D01*
X0130106Y0141394D01*
X0131758Y0141394D01*
X0134094Y0143730D01*
X0134094Y0145382D01*
X0130106Y0145382D01*
X0130106Y0143988D02*
X0130106Y0143988D01*
X0130106Y0142389D02*
X0130106Y0142389D01*
X0132752Y0142389D02*
X0143213Y0142389D01*
X0142466Y0143988D02*
X0134094Y0143988D01*
X0134094Y0145586D02*
X0142377Y0145586D01*
X0142864Y0147185D02*
X0133943Y0147185D01*
X0132344Y0148783D02*
X0144173Y0148783D01*
X0145037Y0150566D02*
X0148798Y0150566D01*
X0151458Y0153226D01*
X0151458Y0156987D01*
X0148798Y0159647D01*
X0145037Y0159647D01*
X0142377Y0156987D01*
X0142377Y0153226D01*
X0145037Y0150566D01*
X0143622Y0151980D02*
X0132065Y0151980D01*
X0131676Y0151591D02*
X0133897Y0153812D01*
X0133897Y0156952D01*
X0131676Y0159172D01*
X0128536Y0159172D01*
X0126316Y0156952D01*
X0126316Y0153812D01*
X0128536Y0151591D01*
X0131676Y0151591D01*
X0133664Y0153579D02*
X0142377Y0153579D01*
X0142377Y0155177D02*
X0133897Y0155177D01*
X0133897Y0156776D02*
X0142377Y0156776D01*
X0143764Y0158374D02*
X0132475Y0158374D01*
X0127738Y0158374D02*
X0108519Y0158374D01*
X0110118Y0156776D02*
X0126316Y0156776D01*
X0126316Y0155177D02*
X0111716Y0155177D01*
X0113315Y0153579D02*
X0126549Y0153579D01*
X0128147Y0151980D02*
X0114913Y0151980D01*
X0116512Y0150382D02*
X0204267Y0150382D01*
X0204267Y0151980D02*
X0150212Y0151980D01*
X0151458Y0153579D02*
X0204267Y0153579D01*
X0204267Y0155177D02*
X0151458Y0155177D01*
X0151458Y0156776D02*
X0204267Y0156776D01*
X0204267Y0158374D02*
X0150071Y0158374D01*
X0149662Y0148783D02*
X0204267Y0148783D01*
X0204267Y0147185D02*
X0150971Y0147185D01*
X0151458Y0145586D02*
X0204267Y0145586D01*
X0204267Y0143988D02*
X0151369Y0143988D01*
X0150621Y0142389D02*
X0204267Y0142389D01*
X0204267Y0159973D02*
X0106920Y0159973D01*
X0105322Y0161571D02*
X0204267Y0161571D01*
X0204267Y0163170D02*
X0103723Y0163170D01*
X0102127Y0164768D02*
X0204267Y0164768D01*
X0204267Y0166367D02*
X0102127Y0166367D01*
X0101340Y0167965D02*
X0204267Y0167965D01*
X0204267Y0169564D02*
X0061785Y0169564D01*
X0061785Y0171162D02*
X0204267Y0171162D01*
X0204267Y0172761D02*
X0061785Y0172761D01*
X0061785Y0174359D02*
X0066359Y0174359D01*
X0066843Y0173875D02*
X0064623Y0176095D01*
X0064623Y0179235D01*
X0066223Y0180835D01*
X0066223Y0190873D01*
X0064741Y0192355D01*
X0064741Y0195495D01*
X0066961Y0197716D01*
X0070102Y0197716D01*
X0072322Y0195495D01*
X0072322Y0192355D01*
X0070604Y0190637D01*
X0070604Y0180835D01*
X0072204Y0179235D01*
X0072204Y0176095D01*
X0069983Y0173875D01*
X0066843Y0173875D01*
X0064760Y0175958D02*
X0061785Y0175958D01*
X0061785Y0177556D02*
X0064623Y0177556D01*
X0064623Y0179155D02*
X0061785Y0179155D01*
X0061785Y0180753D02*
X0066141Y0180753D01*
X0066223Y0182352D02*
X0061785Y0182352D01*
X0061785Y0183950D02*
X0066223Y0183950D01*
X0066223Y0185549D02*
X0061785Y0185549D01*
X0061785Y0187147D02*
X0066223Y0187147D01*
X0066223Y0188746D02*
X0061785Y0188746D01*
X0061785Y0190344D02*
X0066223Y0190344D01*
X0065153Y0191943D02*
X0061785Y0191943D01*
X0061541Y0193541D02*
X0064741Y0193541D01*
X0064741Y0195140D02*
X0059942Y0195140D01*
X0058344Y0196738D02*
X0065984Y0196738D01*
X0068413Y0193020D02*
X0068413Y0177665D01*
X0070686Y0180753D02*
X0075862Y0180753D01*
X0076762Y0181653D02*
X0074426Y0179317D01*
X0074426Y0177665D01*
X0074426Y0176014D01*
X0076762Y0173678D01*
X0078413Y0173678D01*
X0078413Y0177665D01*
X0078413Y0177665D01*
X0074426Y0177665D01*
X0078413Y0177665D01*
X0078413Y0177665D01*
X0078413Y0173678D01*
X0080065Y0173678D01*
X0082401Y0176014D01*
X0082401Y0177665D01*
X0078414Y0177665D01*
X0078414Y0177665D01*
X0082401Y0177665D01*
X0082401Y0179317D01*
X0080065Y0181653D01*
X0078413Y0181653D01*
X0076762Y0181653D01*
X0078413Y0181653D02*
X0078413Y0177665D01*
X0078413Y0177665D01*
X0078413Y0181653D01*
X0078413Y0180753D02*
X0078413Y0180753D01*
X0078413Y0179155D02*
X0078413Y0179155D01*
X0078413Y0177556D02*
X0078413Y0177556D01*
X0078413Y0175958D02*
X0078413Y0175958D01*
X0078413Y0174359D02*
X0078413Y0174359D01*
X0076080Y0174359D02*
X0070468Y0174359D01*
X0072066Y0175958D02*
X0074482Y0175958D01*
X0074426Y0177556D02*
X0072204Y0177556D01*
X0072204Y0179155D02*
X0074426Y0179155D01*
X0070604Y0182352D02*
X0204267Y0182352D01*
X0204267Y0183950D02*
X0070604Y0183950D01*
X0070604Y0185549D02*
X0204267Y0185549D01*
X0204267Y0187147D02*
X0070604Y0187147D01*
X0070604Y0188746D02*
X0204267Y0188746D01*
X0204267Y0190344D02*
X0110311Y0190344D01*
X0110102Y0190135D02*
X0112322Y0192355D01*
X0112322Y0195495D01*
X0110102Y0197716D01*
X0106961Y0197716D01*
X0104741Y0195495D01*
X0104741Y0192355D01*
X0106961Y0190135D01*
X0110102Y0190135D01*
X0111910Y0191943D02*
X0204267Y0191943D01*
X0204267Y0193541D02*
X0112322Y0193541D01*
X0112322Y0195140D02*
X0123661Y0195140D01*
X0122995Y0195805D02*
X0124427Y0194373D01*
X0126298Y0193598D01*
X0128324Y0193598D01*
X0130195Y0194373D01*
X0131627Y0195805D01*
X0132311Y0197458D01*
X0132995Y0195805D01*
X0134427Y0194373D01*
X0136298Y0193598D01*
X0138324Y0193598D01*
X0140195Y0194373D01*
X0141627Y0195805D01*
X0142311Y0197458D01*
X0142995Y0195805D01*
X0144427Y0194373D01*
X0146298Y0193598D01*
X0148324Y0193598D01*
X0150195Y0194373D01*
X0151627Y0195805D01*
X0152311Y0197458D01*
X0152995Y0195805D01*
X0154427Y0194373D01*
X0156298Y0193598D01*
X0158324Y0193598D01*
X0160195Y0194373D01*
X0161627Y0195805D01*
X0162311Y0197458D01*
X0162995Y0195805D01*
X0164427Y0194373D01*
X0166298Y0193598D01*
X0168324Y0193598D01*
X0170195Y0194373D01*
X0171627Y0195805D01*
X0172311Y0197458D01*
X0172995Y0195805D01*
X0174427Y0194373D01*
X0176298Y0193598D01*
X0178324Y0193598D01*
X0180195Y0194373D01*
X0181627Y0195805D01*
X0182311Y0197458D01*
X0182995Y0195805D01*
X0184427Y0194373D01*
X0186298Y0193598D01*
X0188324Y0193598D01*
X0190195Y0194373D01*
X0191627Y0195805D01*
X0192311Y0197458D01*
X0192995Y0195805D01*
X0194427Y0194373D01*
X0196298Y0193598D01*
X0198324Y0193598D01*
X0200195Y0194373D01*
X0201627Y0195805D01*
X0202402Y0197676D01*
X0202402Y0199702D01*
X0201627Y0201573D01*
X0200195Y0203005D01*
X0198324Y0203780D01*
X0196298Y0203780D01*
X0194427Y0203005D01*
X0192995Y0201573D01*
X0192311Y0199920D01*
X0191627Y0201573D01*
X0190195Y0203005D01*
X0188324Y0203780D01*
X0186298Y0203780D01*
X0184427Y0203005D01*
X0182995Y0201573D01*
X0182311Y0199920D01*
X0181627Y0201573D01*
X0180195Y0203005D01*
X0178324Y0203780D01*
X0176298Y0203780D01*
X0174427Y0203005D01*
X0172995Y0201573D01*
X0172311Y0199920D01*
X0171627Y0201573D01*
X0170195Y0203005D01*
X0168324Y0203780D01*
X0166298Y0203780D01*
X0164427Y0203005D01*
X0162995Y0201573D01*
X0162311Y0199920D01*
X0161627Y0201573D01*
X0160195Y0203005D01*
X0158324Y0203780D01*
X0156298Y0203780D01*
X0154427Y0203005D01*
X0152995Y0201573D01*
X0152311Y0199920D01*
X0151627Y0201573D01*
X0150195Y0203005D01*
X0148324Y0203780D01*
X0146298Y0203780D01*
X0144427Y0203005D01*
X0142995Y0201573D01*
X0142311Y0199920D01*
X0141627Y0201573D01*
X0140195Y0203005D01*
X0138324Y0203780D01*
X0136298Y0203780D01*
X0134427Y0203005D01*
X0132995Y0201573D01*
X0132311Y0199920D01*
X0131627Y0201573D01*
X0130195Y0203005D01*
X0128324Y0203780D01*
X0126298Y0203780D01*
X0124427Y0203005D01*
X0122995Y0201573D01*
X0122220Y0199702D01*
X0122220Y0197676D01*
X0122995Y0195805D01*
X0122609Y0196738D02*
X0111079Y0196738D01*
X0105984Y0196738D02*
X0071079Y0196738D01*
X0072322Y0195140D02*
X0104741Y0195140D01*
X0104741Y0193541D02*
X0072322Y0193541D01*
X0071910Y0191943D02*
X0105153Y0191943D01*
X0106752Y0190344D02*
X0070604Y0190344D01*
X0059594Y0192390D02*
X0051720Y0200264D01*
X0039122Y0200264D01*
X0035185Y0196327D01*
X0035185Y0193177D01*
X0039555Y0188807D01*
X0039555Y0187587D01*
X0036911Y0183950D02*
X0010985Y0183950D01*
X0010985Y0182352D02*
X0033860Y0182352D01*
X0032262Y0180753D02*
X0010985Y0180753D01*
X0010985Y0179155D02*
X0031420Y0179155D01*
X0031420Y0177556D02*
X0010985Y0177556D01*
X0010985Y0175958D02*
X0020191Y0175958D01*
X0020235Y0176002D02*
X0018266Y0174033D01*
X0017200Y0171459D01*
X0017200Y0168674D01*
X0018266Y0166101D01*
X0020235Y0164132D01*
X0022808Y0163066D01*
X0025593Y0163066D01*
X0028166Y0164132D01*
X0030136Y0166101D01*
X0031202Y0168674D01*
X0031202Y0171459D01*
X0030136Y0174033D01*
X0028166Y0176002D01*
X0025593Y0177068D01*
X0022808Y0177068D01*
X0020235Y0176002D01*
X0018593Y0174359D02*
X0010985Y0174359D01*
X0010985Y0172761D02*
X0017739Y0172761D01*
X0017200Y0171162D02*
X0010985Y0171162D01*
X0010985Y0169564D02*
X0017200Y0169564D01*
X0017494Y0167965D02*
X0010985Y0167965D01*
X0010985Y0166367D02*
X0018156Y0166367D01*
X0019599Y0164768D02*
X0010985Y0164768D01*
X0010985Y0163170D02*
X0022558Y0163170D01*
X0025843Y0163170D02*
X0031420Y0163170D01*
X0031420Y0164768D02*
X0028803Y0164768D01*
X0030246Y0166367D02*
X0031420Y0166367D01*
X0031420Y0167965D02*
X0030908Y0167965D01*
X0031202Y0169564D02*
X0031420Y0169564D01*
X0031420Y0171162D02*
X0031202Y0171162D01*
X0031420Y0172761D02*
X0030663Y0172761D01*
X0031420Y0174359D02*
X0029809Y0174359D01*
X0028211Y0175958D02*
X0031420Y0175958D01*
X0036337Y0185549D02*
X0010985Y0185549D01*
X0010985Y0187147D02*
X0035802Y0187147D01*
X0035973Y0188746D02*
X0010985Y0188746D01*
X0010985Y0190344D02*
X0034920Y0190344D01*
X0033321Y0191943D02*
X0025923Y0191943D01*
X0025593Y0191806D02*
X0028166Y0192872D01*
X0030136Y0194841D01*
X0031202Y0197415D01*
X0031202Y0200200D01*
X0030136Y0202773D01*
X0028166Y0204742D01*
X0028078Y0204779D01*
X0204267Y0204779D01*
X0204267Y0068601D01*
X0203949Y0069368D01*
X0202517Y0070800D01*
X0200646Y0071575D01*
X0198621Y0071575D01*
X0196750Y0070800D01*
X0195318Y0069368D01*
X0194543Y0067497D01*
X0194543Y0065472D01*
X0195318Y0063601D01*
X0196750Y0062169D01*
X0198403Y0061484D01*
X0196750Y0060800D01*
X0195318Y0059368D01*
X0194543Y0057497D01*
X0194543Y0055472D01*
X0195318Y0053601D01*
X0196750Y0052169D01*
X0198403Y0051484D01*
X0196750Y0050800D01*
X0195318Y0049368D01*
X0194543Y0047497D01*
X0194543Y0045472D01*
X0195318Y0043601D01*
X0196750Y0042169D01*
X0198403Y0041484D01*
X0196750Y0040800D01*
X0195318Y0039368D01*
X0194543Y0037497D01*
X0194543Y0035472D01*
X0195318Y0033601D01*
X0196750Y0032169D01*
X0198187Y0031574D01*
X0197604Y0031384D01*
X0196863Y0031006D01*
X0196189Y0030517D01*
X0195601Y0029929D01*
X0195112Y0029255D01*
X0194734Y0028514D01*
X0194477Y0027722D01*
X0194346Y0026900D01*
X0194346Y0026684D01*
X0199434Y0026684D01*
X0199434Y0026284D01*
X0194346Y0026284D01*
X0194346Y0026068D01*
X0194477Y0025246D01*
X0194734Y0024455D01*
X0195112Y0023713D01*
X0195601Y0023040D01*
X0196189Y0022451D01*
X0196863Y0021962D01*
X0197604Y0021584D01*
X0198187Y0021395D01*
X0196750Y0020800D01*
X0195318Y0019368D01*
X0194543Y0017497D01*
X0194543Y0015472D01*
X0195318Y0013601D01*
X0196750Y0012169D01*
X0198372Y0011497D01*
X0173224Y0011497D01*
X0174343Y0012616D01*
X0175118Y0014487D01*
X0175118Y0016513D01*
X0174343Y0018384D01*
X0172911Y0019816D01*
X0171040Y0020591D01*
X0169015Y0020591D01*
X0167144Y0019816D01*
X0165712Y0018384D01*
X0164937Y0016513D01*
X0164937Y0014487D01*
X0165712Y0012616D01*
X0166832Y0011497D01*
X0153224Y0011497D01*
X0154343Y0012616D01*
X0155118Y0014487D01*
X0155118Y0016513D01*
X0154343Y0018384D01*
X0152911Y0019816D01*
X0151040Y0020591D01*
X0149015Y0020591D01*
X0147144Y0019816D01*
X0145712Y0018384D01*
X0144937Y0016513D01*
X0144937Y0014487D01*
X0145712Y0012616D01*
X0146832Y0011497D01*
X0133381Y0011497D01*
X0134737Y0012853D01*
X0135512Y0014724D01*
X0135512Y0016749D01*
X0134737Y0018620D01*
X0133305Y0020052D01*
X0131434Y0020827D01*
X0129409Y0020827D01*
X0127538Y0020052D01*
X0126106Y0018620D01*
X0125331Y0016749D01*
X0125331Y0014724D01*
X0126106Y0012853D01*
X0127462Y0011497D01*
X0113381Y0011497D01*
X0114737Y0012853D01*
X0115512Y0014724D01*
X0115512Y0016749D01*
X0115225Y0017442D01*
X0128927Y0031144D01*
X0145541Y0031144D01*
X0162077Y0047680D01*
X0163360Y0048963D01*
X0163360Y0064102D01*
X0164999Y0065741D01*
X0164999Y0068881D01*
X0162779Y0071102D01*
X0159639Y0071102D01*
X0157418Y0068881D01*
X0157418Y0065741D01*
X0158979Y0064180D01*
X0158979Y0050777D01*
X0143727Y0035525D01*
X0127112Y0035525D01*
X0125829Y0034242D01*
X0112127Y0020540D01*
X0111434Y0020827D01*
X0109409Y0020827D01*
X0107538Y0020052D01*
X0106106Y0018620D01*
X0105331Y0016749D01*
X0105331Y0014724D01*
X0106106Y0012853D01*
X0107462Y0011497D01*
X0010985Y0011497D01*
X0010985Y0105106D01*
X0011184Y0104624D01*
X0012616Y0103192D01*
X0014487Y0102417D01*
X0016513Y0102417D01*
X0018384Y0103192D01*
X0019816Y0104624D01*
X0020591Y0106495D01*
X0020591Y0108520D01*
X0019816Y0110391D01*
X0018384Y0111823D01*
X0016731Y0112508D01*
X0018384Y0113192D01*
X0019816Y0114624D01*
X0020591Y0116495D01*
X0020591Y0118520D01*
X0019816Y0120391D01*
X0018384Y0121823D01*
X0016731Y0122508D01*
X0018384Y0123192D01*
X0019816Y0124624D01*
X0020591Y0126495D01*
X0020591Y0128520D01*
X0019816Y0130391D01*
X0018384Y0131823D01*
X0016731Y0132508D01*
X0018384Y0133192D01*
X0019816Y0134624D01*
X0020591Y0136495D01*
X0020591Y0138520D01*
X0019816Y0140391D01*
X0018384Y0141823D01*
X0016731Y0142508D01*
X0018384Y0143192D01*
X0019816Y0144624D01*
X0020591Y0146495D01*
X0020591Y0148520D01*
X0019816Y0150391D01*
X0018384Y0151823D01*
X0016513Y0152598D01*
X0014487Y0152598D01*
X0012616Y0151823D01*
X0011184Y0150391D01*
X0010985Y0149910D01*
X0010985Y0204779D01*
X0020324Y0204779D01*
X0020235Y0204742D01*
X0018266Y0202773D01*
X0017200Y0200200D01*
X0017200Y0197415D01*
X0018266Y0194841D01*
X0020235Y0192872D01*
X0022808Y0191806D01*
X0025593Y0191806D01*
X0022478Y0191943D02*
X0010985Y0191943D01*
X0010985Y0193541D02*
X0019566Y0193541D01*
X0018142Y0195140D02*
X0010985Y0195140D01*
X0010985Y0196738D02*
X0017480Y0196738D01*
X0017200Y0198337D02*
X0010985Y0198337D01*
X0010985Y0199935D02*
X0017200Y0199935D01*
X0017753Y0201534D02*
X0010985Y0201534D01*
X0010985Y0203132D02*
X0018626Y0203132D01*
X0020224Y0204731D02*
X0010985Y0204731D01*
X0028177Y0204731D02*
X0204267Y0204731D01*
X0204267Y0203132D02*
X0199886Y0203132D01*
X0201643Y0201534D02*
X0204267Y0201534D01*
X0204267Y0199935D02*
X0202305Y0199935D01*
X0202402Y0198337D02*
X0204267Y0198337D01*
X0204267Y0196738D02*
X0202013Y0196738D01*
X0200961Y0195140D02*
X0204267Y0195140D01*
X0193661Y0195140D02*
X0190961Y0195140D01*
X0192013Y0196738D02*
X0192609Y0196738D01*
X0192317Y0199935D02*
X0192305Y0199935D01*
X0191643Y0201534D02*
X0192979Y0201534D01*
X0194736Y0203132D02*
X0189886Y0203132D01*
X0184736Y0203132D02*
X0179886Y0203132D01*
X0181643Y0201534D02*
X0182979Y0201534D01*
X0182317Y0199935D02*
X0182305Y0199935D01*
X0182013Y0196738D02*
X0182609Y0196738D01*
X0183661Y0195140D02*
X0180961Y0195140D01*
X0173661Y0195140D02*
X0170961Y0195140D01*
X0172013Y0196738D02*
X0172609Y0196738D01*
X0172317Y0199935D02*
X0172305Y0199935D01*
X0171643Y0201534D02*
X0172979Y0201534D01*
X0174736Y0203132D02*
X0169886Y0203132D01*
X0164736Y0203132D02*
X0159886Y0203132D01*
X0161643Y0201534D02*
X0162979Y0201534D01*
X0162317Y0199935D02*
X0162305Y0199935D01*
X0162013Y0196738D02*
X0162609Y0196738D01*
X0163661Y0195140D02*
X0160961Y0195140D01*
X0153661Y0195140D02*
X0150961Y0195140D01*
X0152013Y0196738D02*
X0152609Y0196738D01*
X0152317Y0199935D02*
X0152305Y0199935D01*
X0151643Y0201534D02*
X0152979Y0201534D01*
X0154736Y0203132D02*
X0149886Y0203132D01*
X0144736Y0203132D02*
X0139886Y0203132D01*
X0141643Y0201534D02*
X0142979Y0201534D01*
X0142317Y0199935D02*
X0142305Y0199935D01*
X0142013Y0196738D02*
X0142609Y0196738D01*
X0143661Y0195140D02*
X0140961Y0195140D01*
X0133661Y0195140D02*
X0130961Y0195140D01*
X0132013Y0196738D02*
X0132609Y0196738D01*
X0132317Y0199935D02*
X0132305Y0199935D01*
X0131643Y0201534D02*
X0132979Y0201534D01*
X0134736Y0203132D02*
X0129886Y0203132D01*
X0124736Y0203132D02*
X0029776Y0203132D01*
X0030649Y0201534D02*
X0037294Y0201534D01*
X0036931Y0201171D02*
X0036931Y0201171D01*
X0035696Y0199935D02*
X0031202Y0199935D01*
X0031202Y0198337D02*
X0034097Y0198337D01*
X0032994Y0196738D02*
X0030922Y0196738D01*
X0030259Y0195140D02*
X0032994Y0195140D01*
X0032994Y0193541D02*
X0028836Y0193541D01*
X0037376Y0195140D02*
X0053746Y0195140D01*
X0052148Y0196738D02*
X0038695Y0196738D01*
X0037919Y0193541D02*
X0041778Y0193541D01*
X0040717Y0191943D02*
X0039517Y0191943D01*
X0046782Y0193541D02*
X0055345Y0193541D01*
X0056943Y0191943D02*
X0047842Y0191943D01*
X0048032Y0190344D02*
X0057404Y0190344D01*
X0057404Y0188746D02*
X0047517Y0188746D01*
X0046876Y0187147D02*
X0057404Y0187147D01*
X0057404Y0185549D02*
X0047881Y0185549D01*
X0048032Y0183950D02*
X0057404Y0183950D01*
X0057404Y0182352D02*
X0047478Y0182352D01*
X0046971Y0180753D02*
X0057404Y0180753D01*
X0057404Y0179155D02*
X0047920Y0179155D01*
X0048032Y0177556D02*
X0057404Y0177556D01*
X0057404Y0175958D02*
X0047407Y0175958D01*
X0059594Y0167193D02*
X0066681Y0160106D01*
X0059594Y0167193D02*
X0059594Y0192390D01*
X0056745Y0198337D02*
X0122220Y0198337D01*
X0122317Y0199935D02*
X0055147Y0199935D01*
X0053548Y0201534D02*
X0122979Y0201534D01*
X0082401Y0179155D02*
X0204267Y0179155D01*
X0204267Y0180753D02*
X0080964Y0180753D01*
X0082401Y0177556D02*
X0204267Y0177556D01*
X0204267Y0175958D02*
X0082345Y0175958D01*
X0080746Y0174359D02*
X0204267Y0174359D01*
X0204267Y0115214D02*
X0114633Y0115214D01*
X0113650Y0115214D02*
X0113650Y0115214D01*
X0113650Y0115097D02*
X0113650Y0121484D01*
X0113650Y0121484D01*
X0113649Y0121484D02*
X0109662Y0121484D01*
X0109662Y0118692D01*
X0109815Y0117921D01*
X0110116Y0117195D01*
X0110552Y0116542D01*
X0111108Y0115987D01*
X0111761Y0115551D01*
X0112487Y0115250D01*
X0113257Y0115097D01*
X0113650Y0115097D01*
X0112666Y0115214D02*
X0064633Y0115214D01*
X0064813Y0115250D02*
X0065538Y0115551D01*
X0066191Y0115987D01*
X0066747Y0116542D01*
X0067183Y0117195D01*
X0067484Y0117921D01*
X0067637Y0118692D01*
X0067637Y0121484D01*
X0063650Y0121484D01*
X0063650Y0121484D01*
X0063650Y0115097D01*
X0064042Y0115097D01*
X0064813Y0115250D01*
X0063650Y0115214D02*
X0063650Y0115214D01*
X0063650Y0115097D02*
X0063650Y0121484D01*
X0063650Y0121484D01*
X0067637Y0121484D01*
X0067637Y0124277D01*
X0067484Y0125047D01*
X0067183Y0125773D01*
X0066747Y0126426D01*
X0066191Y0126981D01*
X0065538Y0127418D01*
X0064813Y0127718D01*
X0064042Y0127872D01*
X0063650Y0127872D01*
X0063650Y0121484D01*
X0063650Y0121484D01*
X0063649Y0121484D02*
X0059662Y0121484D01*
X0059662Y0118692D01*
X0059815Y0117921D01*
X0060116Y0117195D01*
X0060552Y0116542D01*
X0061108Y0115987D01*
X0061761Y0115551D01*
X0062487Y0115250D01*
X0063257Y0115097D01*
X0063650Y0115097D01*
X0062666Y0115214D02*
X0043805Y0115214D01*
X0045403Y0113616D02*
X0204267Y0113616D01*
X0204267Y0112017D02*
X0047002Y0112017D01*
X0048600Y0110419D02*
X0204267Y0110419D01*
X0204267Y0108820D02*
X0050199Y0108820D01*
X0051797Y0107222D02*
X0204267Y0107222D01*
X0204267Y0105623D02*
X0191191Y0105623D01*
X0192790Y0104025D02*
X0204267Y0104025D01*
X0204267Y0102426D02*
X0194388Y0102426D01*
X0195643Y0100828D02*
X0204267Y0100828D01*
X0204267Y0099229D02*
X0195643Y0099229D01*
X0195643Y0097631D02*
X0204267Y0097631D01*
X0204267Y0096032D02*
X0196862Y0096032D01*
X0197440Y0094434D02*
X0204267Y0094434D01*
X0204267Y0092835D02*
X0197440Y0092835D01*
X0197440Y0091237D02*
X0204267Y0091237D01*
X0204267Y0089638D02*
X0197440Y0089638D01*
X0197320Y0088040D02*
X0204267Y0088040D01*
X0204267Y0086441D02*
X0196367Y0086441D01*
X0196410Y0082361D02*
X0194190Y0080141D01*
X0194190Y0077001D01*
X0196410Y0074780D01*
X0199550Y0074780D01*
X0201771Y0077001D01*
X0201771Y0080141D01*
X0199550Y0082361D01*
X0196410Y0082361D01*
X0195694Y0081646D02*
X0190545Y0081646D01*
X0189632Y0082558D02*
X0187980Y0082558D01*
X0186329Y0082558D01*
X0183993Y0080222D01*
X0183993Y0078571D01*
X0187980Y0078571D01*
X0187980Y0078571D01*
X0187980Y0082558D01*
X0187980Y0078571D01*
X0187980Y0078571D01*
X0183993Y0078571D01*
X0183993Y0076919D01*
X0186329Y0074583D01*
X0187980Y0074583D01*
X0187980Y0078571D01*
X0187980Y0078571D01*
X0191968Y0078571D01*
X0191968Y0080222D01*
X0189632Y0082558D01*
X0187980Y0081646D02*
X0187980Y0081646D01*
X0187980Y0080047D02*
X0187980Y0080047D01*
X0187980Y0078571D02*
X0187980Y0078571D01*
X0187980Y0074583D01*
X0189632Y0074583D01*
X0191968Y0076919D01*
X0191968Y0078571D01*
X0187980Y0078571D01*
X0187980Y0078449D02*
X0187980Y0078449D01*
X0187980Y0076850D02*
X0187980Y0076850D01*
X0187980Y0075252D02*
X0187980Y0075252D01*
X0185661Y0075252D02*
X0175573Y0075252D01*
X0175102Y0074780D02*
X0177322Y0077001D01*
X0177322Y0080141D01*
X0175102Y0082361D01*
X0171961Y0082361D01*
X0170361Y0080761D01*
X0162191Y0080761D01*
X0153175Y0071746D01*
X0151892Y0070462D01*
X0151892Y0058651D01*
X0139789Y0046549D01*
X0102782Y0046549D01*
X0086246Y0030013D01*
X0070498Y0030013D01*
X0066561Y0026076D01*
X0065278Y0024793D01*
X0065278Y0022352D01*
X0064191Y0021902D01*
X0062759Y0020470D01*
X0062075Y0018818D01*
X0061390Y0020470D01*
X0059958Y0021902D01*
X0058087Y0022677D01*
X0056062Y0022677D01*
X0054191Y0021902D01*
X0052759Y0020470D01*
X0052075Y0018818D01*
X0051390Y0020470D01*
X0049974Y0021887D01*
X0049974Y0022978D01*
X0051053Y0024057D01*
X0054990Y0024057D01*
X0056273Y0025341D01*
X0083336Y0052404D01*
X0100659Y0052404D01*
X0101943Y0053687D01*
X0125840Y0077585D01*
X0125840Y0085914D01*
X0126863Y0086937D01*
X0127440Y0088330D01*
X0127440Y0094638D01*
X0126863Y0096031D01*
X0125797Y0097098D01*
X0124404Y0097675D01*
X0122896Y0097675D01*
X0121502Y0097098D01*
X0120436Y0096031D01*
X0119859Y0094638D01*
X0119859Y0088330D01*
X0120436Y0086937D01*
X0121459Y0085914D01*
X0121459Y0079399D01*
X0098845Y0056785D01*
X0081522Y0056785D01*
X0053175Y0028439D01*
X0049238Y0028439D01*
X0046876Y0026076D01*
X0045593Y0024793D01*
X0045593Y0022483D01*
X0044191Y0021902D01*
X0042759Y0020470D01*
X0042075Y0018818D01*
X0041390Y0020470D01*
X0040885Y0020976D01*
X0078612Y0058703D01*
X0099872Y0058703D01*
X0115840Y0074671D01*
X0115840Y0085914D01*
X0116863Y0086937D01*
X0117440Y0088330D01*
X0117440Y0094638D01*
X0116863Y0096031D01*
X0115797Y0097098D01*
X0114404Y0097675D01*
X0112896Y0097675D01*
X0111502Y0097098D01*
X0110436Y0096031D01*
X0109859Y0094638D01*
X0109859Y0088330D01*
X0110436Y0086937D01*
X0111459Y0085914D01*
X0111459Y0076486D01*
X0098057Y0063084D01*
X0076797Y0063084D01*
X0036640Y0022927D01*
X0036390Y0022677D01*
X0036062Y0022677D01*
X0034191Y0021902D01*
X0032759Y0020470D01*
X0032075Y0018818D01*
X0031390Y0020470D01*
X0029958Y0021902D01*
X0029502Y0022091D01*
X0029502Y0022191D01*
X0036588Y0029278D01*
X0036588Y0049750D01*
X0055777Y0068939D01*
X0066014Y0068939D01*
X0067297Y0070223D01*
X0082523Y0085448D01*
X0082896Y0085294D01*
X0084404Y0085294D01*
X0085797Y0085871D01*
X0086863Y0086937D01*
X0087440Y0088330D01*
X0087440Y0094638D01*
X0086863Y0096031D01*
X0085797Y0097098D01*
X0084404Y0097675D01*
X0082896Y0097675D01*
X0081502Y0097098D01*
X0080436Y0096031D01*
X0079859Y0094638D01*
X0079859Y0088981D01*
X0064199Y0073320D01*
X0053963Y0073320D01*
X0033490Y0052848D01*
X0032207Y0051565D01*
X0032207Y0031092D01*
X0026404Y0025289D01*
X0025120Y0024006D01*
X0025120Y0022287D01*
X0024191Y0021902D01*
X0022759Y0020470D01*
X0022075Y0018818D01*
X0021390Y0020470D01*
X0019958Y0021902D01*
X0019265Y0022189D01*
X0019265Y0022978D01*
X0031076Y0034789D01*
X0031076Y0058412D01*
X0049478Y0076813D01*
X0065226Y0076813D01*
X0066509Y0078097D01*
X0073707Y0085294D01*
X0074404Y0085294D01*
X0075797Y0085871D01*
X0076863Y0086937D01*
X0077440Y0088330D01*
X0077440Y0094638D01*
X0076863Y0096031D01*
X0075797Y0097098D01*
X0074404Y0097675D01*
X0072896Y0097675D01*
X0071502Y0097098D01*
X0070436Y0096031D01*
X0069859Y0094638D01*
X0069859Y0088330D01*
X0070061Y0087844D01*
X0063412Y0081194D01*
X0047664Y0081194D01*
X0027978Y0061509D01*
X0026695Y0060226D01*
X0026695Y0036604D01*
X0016167Y0026076D01*
X0014884Y0024793D01*
X0014884Y0022189D01*
X0014191Y0021902D01*
X0012759Y0020470D01*
X0011984Y0018599D01*
X0011984Y0016574D01*
X0012759Y0014703D01*
X0014191Y0013271D01*
X0016062Y0012496D01*
X0018087Y0012496D01*
X0019958Y0013271D01*
X0021390Y0014703D01*
X0022075Y0016355D01*
X0022759Y0014703D01*
X0024191Y0013271D01*
X0026062Y0012496D01*
X0028087Y0012496D01*
X0029958Y0013271D01*
X0031390Y0014703D01*
X0032075Y0016355D01*
X0032759Y0014703D01*
X0034191Y0013271D01*
X0036062Y0012496D01*
X0038087Y0012496D01*
X0039958Y0013271D01*
X0041390Y0014703D01*
X0042075Y0016355D01*
X0042759Y0014703D01*
X0044191Y0013271D01*
X0046062Y0012496D01*
X0048087Y0012496D01*
X0049958Y0013271D01*
X0051390Y0014703D01*
X0052075Y0016355D01*
X0052759Y0014703D01*
X0054191Y0013271D01*
X0056062Y0012496D01*
X0058087Y0012496D01*
X0059958Y0013271D01*
X0061390Y0014703D01*
X0062075Y0016355D01*
X0062759Y0014703D01*
X0064191Y0013271D01*
X0066062Y0012496D01*
X0068087Y0012496D01*
X0069958Y0013271D01*
X0071390Y0014703D01*
X0071985Y0016140D01*
X0072175Y0015557D01*
X0072553Y0014815D01*
X0073042Y0014142D01*
X0073630Y0013554D01*
X0074304Y0013064D01*
X0075045Y0012687D01*
X0075837Y0012429D01*
X0076659Y0012299D01*
X0076875Y0012299D01*
X0076875Y0017387D01*
X0077275Y0017387D01*
X0077275Y0012299D01*
X0077491Y0012299D01*
X0078313Y0012429D01*
X0079104Y0012687D01*
X0079846Y0013064D01*
X0080519Y0013554D01*
X0081108Y0014142D01*
X0081597Y0014815D01*
X0081975Y0015557D01*
X0082164Y0016140D01*
X0082759Y0014703D01*
X0084191Y0013271D01*
X0086062Y0012496D01*
X0088087Y0012496D01*
X0089958Y0013271D01*
X0091390Y0014703D01*
X0092165Y0016574D01*
X0092165Y0018599D01*
X0091390Y0020470D01*
X0089958Y0021902D01*
X0088087Y0022677D01*
X0086062Y0022677D01*
X0084191Y0021902D01*
X0082759Y0020470D01*
X0082164Y0019034D01*
X0081975Y0019616D01*
X0081597Y0020358D01*
X0081108Y0021031D01*
X0080519Y0021620D01*
X0079846Y0022109D01*
X0079104Y0022487D01*
X0078313Y0022744D01*
X0077491Y0022874D01*
X0077275Y0022874D01*
X0077275Y0017787D01*
X0076875Y0017787D01*
X0076875Y0022874D01*
X0076659Y0022874D01*
X0075837Y0022744D01*
X0075045Y0022487D01*
X0074304Y0022109D01*
X0073630Y0021620D01*
X0073042Y0021031D01*
X0072553Y0020358D01*
X0072175Y0019616D01*
X0071985Y0019034D01*
X0071390Y0020470D01*
X0069958Y0021902D01*
X0069659Y0022026D01*
X0069659Y0022978D01*
X0072313Y0025632D01*
X0088061Y0025632D01*
X0089344Y0026915D01*
X0104596Y0042168D01*
X0141604Y0042168D01*
X0142887Y0043451D01*
X0156273Y0056837D01*
X0156273Y0068648D01*
X0164006Y0076380D01*
X0170361Y0076380D01*
X0171961Y0074780D01*
X0175102Y0074780D01*
X0177171Y0076850D02*
X0184062Y0076850D01*
X0183993Y0078449D02*
X0177322Y0078449D01*
X0177322Y0080047D02*
X0183993Y0080047D01*
X0185416Y0081646D02*
X0175817Y0081646D01*
X0174404Y0085294D02*
X0172896Y0085294D01*
X0171502Y0085871D01*
X0170436Y0086937D01*
X0169859Y0088330D01*
X0169859Y0094638D01*
X0170436Y0096031D01*
X0171502Y0097098D01*
X0172896Y0097675D01*
X0174404Y0097675D01*
X0175797Y0097098D01*
X0176863Y0096031D01*
X0177440Y0094638D01*
X0177440Y0088330D01*
X0176863Y0086937D01*
X0175797Y0085871D01*
X0174404Y0085294D01*
X0176367Y0086441D02*
X0180654Y0086441D01*
X0180552Y0086542D02*
X0181108Y0085987D01*
X0181761Y0085551D01*
X0182487Y0085250D01*
X0183257Y0085097D01*
X0183650Y0085097D01*
X0184042Y0085097D01*
X0184813Y0085250D01*
X0185538Y0085551D01*
X0186191Y0085987D01*
X0186747Y0086542D01*
X0187183Y0087195D01*
X0187484Y0087921D01*
X0187637Y0088692D01*
X0187637Y0091484D01*
X0183650Y0091484D01*
X0183650Y0091484D01*
X0183650Y0085097D01*
X0183650Y0091484D01*
X0183650Y0091484D01*
X0187637Y0091484D01*
X0187637Y0094277D01*
X0187484Y0095047D01*
X0187183Y0095773D01*
X0186747Y0096426D01*
X0186191Y0096981D01*
X0185538Y0097418D01*
X0184813Y0097718D01*
X0184042Y0097872D01*
X0183650Y0097872D01*
X0183650Y0091484D01*
X0183650Y0091484D01*
X0183649Y0091484D02*
X0179662Y0091484D01*
X0179662Y0088692D01*
X0179815Y0087921D01*
X0180116Y0087195D01*
X0180552Y0086542D01*
X0179792Y0088040D02*
X0177320Y0088040D01*
X0177440Y0089638D02*
X0179662Y0089638D01*
X0179662Y0091237D02*
X0177440Y0091237D01*
X0177440Y0092835D02*
X0179662Y0092835D01*
X0179662Y0091484D02*
X0183649Y0091484D01*
X0183649Y0091484D01*
X0183650Y0091484D02*
X0183650Y0097872D01*
X0183257Y0097872D01*
X0182487Y0097718D01*
X0181761Y0097418D01*
X0181108Y0096981D01*
X0180552Y0096426D01*
X0180116Y0095773D01*
X0179815Y0095047D01*
X0179662Y0094277D01*
X0179662Y0091484D01*
X0179693Y0094434D02*
X0177440Y0094434D01*
X0176862Y0096032D02*
X0180289Y0096032D01*
X0182275Y0097631D02*
X0174510Y0097631D01*
X0172789Y0097631D02*
X0164510Y0097631D01*
X0164404Y0097675D02*
X0162896Y0097675D01*
X0161502Y0097098D01*
X0160436Y0096031D01*
X0159859Y0094638D01*
X0159859Y0088330D01*
X0160436Y0086937D01*
X0161502Y0085871D01*
X0162896Y0085294D01*
X0164404Y0085294D01*
X0165797Y0085871D01*
X0166863Y0086937D01*
X0167440Y0088330D01*
X0167440Y0094638D01*
X0166863Y0096031D01*
X0165797Y0097098D01*
X0164404Y0097675D01*
X0162789Y0097631D02*
X0154510Y0097631D01*
X0154404Y0097675D02*
X0155797Y0097098D01*
X0156863Y0096031D01*
X0157440Y0094638D01*
X0157440Y0088330D01*
X0156863Y0086937D01*
X0155797Y0085871D01*
X0154404Y0085294D01*
X0152896Y0085294D01*
X0151502Y0085871D01*
X0150436Y0086937D01*
X0149859Y0088330D01*
X0149859Y0094638D01*
X0150436Y0096031D01*
X0151502Y0097098D01*
X0152896Y0097675D01*
X0154404Y0097675D01*
X0152789Y0097631D02*
X0144510Y0097631D01*
X0144404Y0097675D02*
X0142896Y0097675D01*
X0141502Y0097098D01*
X0140436Y0096031D01*
X0139859Y0094638D01*
X0139859Y0088330D01*
X0140436Y0086937D01*
X0141502Y0085871D01*
X0142896Y0085294D01*
X0144404Y0085294D01*
X0145797Y0085871D01*
X0146863Y0086937D01*
X0147440Y0088330D01*
X0147440Y0094638D01*
X0146863Y0096031D01*
X0145797Y0097098D01*
X0144404Y0097675D01*
X0142789Y0097631D02*
X0134510Y0097631D01*
X0134404Y0097675D02*
X0132896Y0097675D01*
X0131502Y0097098D01*
X0130436Y0096031D01*
X0129859Y0094638D01*
X0129859Y0088330D01*
X0130436Y0086937D01*
X0131502Y0085871D01*
X0132896Y0085294D01*
X0134404Y0085294D01*
X0135797Y0085871D01*
X0136863Y0086937D01*
X0137440Y0088330D01*
X0137440Y0094638D01*
X0136863Y0096031D01*
X0135797Y0097098D01*
X0134404Y0097675D01*
X0132789Y0097631D02*
X0124510Y0097631D01*
X0122789Y0097631D02*
X0114510Y0097631D01*
X0112789Y0097631D02*
X0104510Y0097631D01*
X0104404Y0097675D02*
X0102896Y0097675D01*
X0101502Y0097098D01*
X0100436Y0096031D01*
X0099859Y0094638D01*
X0099859Y0088330D01*
X0100436Y0086937D01*
X0101502Y0085871D01*
X0102896Y0085294D01*
X0104404Y0085294D01*
X0105797Y0085871D01*
X0106863Y0086937D01*
X0107440Y0088330D01*
X0107440Y0094638D01*
X0106863Y0096031D01*
X0105797Y0097098D01*
X0104404Y0097675D01*
X0102789Y0097631D02*
X0094510Y0097631D01*
X0094404Y0097675D02*
X0092896Y0097675D01*
X0091502Y0097098D01*
X0090436Y0096031D01*
X0089859Y0094638D01*
X0089859Y0088330D01*
X0090436Y0086937D01*
X0091502Y0085871D01*
X0092896Y0085294D01*
X0094404Y0085294D01*
X0095797Y0085871D01*
X0096863Y0086937D01*
X0097440Y0088330D01*
X0097440Y0094638D01*
X0096863Y0096031D01*
X0095797Y0097098D01*
X0094404Y0097675D01*
X0092789Y0097631D02*
X0084510Y0097631D01*
X0082789Y0097631D02*
X0074510Y0097631D01*
X0072789Y0097631D02*
X0064510Y0097631D01*
X0064404Y0097675D02*
X0062896Y0097675D01*
X0061502Y0097098D01*
X0060436Y0096031D01*
X0059859Y0094638D01*
X0059859Y0088330D01*
X0060436Y0086937D01*
X0061502Y0085871D01*
X0062896Y0085294D01*
X0064404Y0085294D01*
X0065797Y0085871D01*
X0066863Y0086937D01*
X0067440Y0088330D01*
X0067440Y0094638D01*
X0066863Y0096031D01*
X0065797Y0097098D01*
X0064404Y0097675D01*
X0062789Y0097631D02*
X0032204Y0097631D01*
X0032204Y0097705D02*
X0028217Y0097705D01*
X0032204Y0097705D01*
X0032204Y0099356D01*
X0029868Y0101692D01*
X0028217Y0101692D01*
X0028217Y0097705D01*
X0028217Y0097705D01*
X0028216Y0097705D01*
X0028216Y0097705D01*
X0024229Y0097705D01*
X0024229Y0099356D01*
X0026565Y0101692D01*
X0028216Y0101692D01*
X0028216Y0097705D01*
X0024229Y0097705D01*
X0024229Y0096053D01*
X0026565Y0093717D01*
X0028216Y0093717D01*
X0028216Y0097705D01*
X0028217Y0097705D01*
X0028217Y0093717D01*
X0029868Y0093717D01*
X0032204Y0096053D01*
X0032204Y0097705D01*
X0032204Y0099229D02*
X0191262Y0099229D01*
X0191262Y0097631D02*
X0185024Y0097631D01*
X0183650Y0097631D02*
X0183650Y0097631D01*
X0183650Y0096032D02*
X0183650Y0096032D01*
X0183650Y0094434D02*
X0183650Y0094434D01*
X0183650Y0092835D02*
X0183650Y0092835D01*
X0183650Y0091237D02*
X0183650Y0091237D01*
X0183650Y0089638D02*
X0183650Y0089638D01*
X0183650Y0088040D02*
X0183650Y0088040D01*
X0183650Y0086441D02*
X0183650Y0086441D01*
X0186646Y0086441D02*
X0190932Y0086441D01*
X0189979Y0088040D02*
X0187507Y0088040D01*
X0187637Y0089638D02*
X0189859Y0089638D01*
X0189859Y0091237D02*
X0187637Y0091237D01*
X0187637Y0092835D02*
X0189859Y0092835D01*
X0189859Y0094434D02*
X0187606Y0094434D01*
X0187010Y0096032D02*
X0190437Y0096032D01*
X0189791Y0100828D02*
X0030733Y0100828D01*
X0028217Y0100828D02*
X0028216Y0100828D01*
X0028216Y0099229D02*
X0028217Y0099229D01*
X0028216Y0097631D02*
X0028217Y0097631D01*
X0028216Y0096032D02*
X0028217Y0096032D01*
X0028216Y0094434D02*
X0028217Y0094434D01*
X0030585Y0094434D02*
X0059859Y0094434D01*
X0059859Y0092835D02*
X0024507Y0092835D01*
X0024507Y0094275D02*
X0024507Y0091135D01*
X0022287Y0088914D01*
X0019146Y0088914D01*
X0016926Y0091135D01*
X0016926Y0094275D01*
X0019146Y0096495D01*
X0022287Y0096495D01*
X0024507Y0094275D01*
X0024348Y0094434D02*
X0025849Y0094434D01*
X0024250Y0096032D02*
X0022750Y0096032D01*
X0024229Y0097631D02*
X0010985Y0097631D01*
X0010985Y0099229D02*
X0024229Y0099229D01*
X0025701Y0100828D02*
X0010985Y0100828D01*
X0010985Y0102426D02*
X0014466Y0102426D01*
X0016534Y0102426D02*
X0188192Y0102426D01*
X0170437Y0096032D02*
X0166862Y0096032D01*
X0167440Y0094434D02*
X0169859Y0094434D01*
X0169859Y0092835D02*
X0167440Y0092835D01*
X0167440Y0091237D02*
X0169859Y0091237D01*
X0169859Y0089638D02*
X0167440Y0089638D01*
X0167320Y0088040D02*
X0169979Y0088040D01*
X0170932Y0086441D02*
X0166367Y0086441D01*
X0160932Y0086441D02*
X0156367Y0086441D01*
X0157320Y0088040D02*
X0159979Y0088040D01*
X0159859Y0089638D02*
X0157440Y0089638D01*
X0157440Y0091237D02*
X0159859Y0091237D01*
X0159859Y0092835D02*
X0157440Y0092835D01*
X0157440Y0094434D02*
X0159859Y0094434D01*
X0160437Y0096032D02*
X0156862Y0096032D01*
X0150437Y0096032D02*
X0146862Y0096032D01*
X0147440Y0094434D02*
X0149859Y0094434D01*
X0149859Y0092835D02*
X0147440Y0092835D01*
X0147440Y0091237D02*
X0149859Y0091237D01*
X0149859Y0089638D02*
X0147440Y0089638D01*
X0147320Y0088040D02*
X0149979Y0088040D01*
X0150932Y0086441D02*
X0146367Y0086441D01*
X0140932Y0086441D02*
X0136367Y0086441D01*
X0137320Y0088040D02*
X0139979Y0088040D01*
X0139859Y0089638D02*
X0137440Y0089638D01*
X0137440Y0091237D02*
X0139859Y0091237D01*
X0139859Y0092835D02*
X0137440Y0092835D01*
X0137440Y0094434D02*
X0139859Y0094434D01*
X0140437Y0096032D02*
X0136862Y0096032D01*
X0130437Y0096032D02*
X0126862Y0096032D01*
X0127440Y0094434D02*
X0129859Y0094434D01*
X0129859Y0092835D02*
X0127440Y0092835D01*
X0127440Y0091237D02*
X0129859Y0091237D01*
X0129859Y0089638D02*
X0127440Y0089638D01*
X0127320Y0088040D02*
X0129979Y0088040D01*
X0130932Y0086441D02*
X0126367Y0086441D01*
X0125840Y0084843D02*
X0204267Y0084843D01*
X0204267Y0083244D02*
X0125840Y0083244D01*
X0125840Y0081646D02*
X0171246Y0081646D01*
X0173531Y0078571D02*
X0163098Y0078571D01*
X0154083Y0069555D01*
X0154083Y0057744D01*
X0140697Y0044358D01*
X0103689Y0044358D01*
X0087154Y0027823D01*
X0071406Y0027823D01*
X0067469Y0023886D01*
X0067469Y0017980D01*
X0067075Y0017587D01*
X0067469Y0017193D01*
X0069086Y0012910D02*
X0074607Y0012910D01*
X0076875Y0012910D02*
X0077275Y0012910D01*
X0077275Y0014508D02*
X0076875Y0014508D01*
X0076875Y0016107D02*
X0077275Y0016107D01*
X0079542Y0012910D02*
X0085064Y0012910D01*
X0082954Y0014508D02*
X0081374Y0014508D01*
X0082153Y0016107D02*
X0082178Y0016107D01*
X0082076Y0019304D02*
X0082276Y0019304D01*
X0083191Y0020902D02*
X0081201Y0020902D01*
X0079061Y0022501D02*
X0085636Y0022501D01*
X0088513Y0022501D02*
X0114088Y0022501D01*
X0115686Y0024099D02*
X0070780Y0024099D01*
X0069659Y0022501D02*
X0075088Y0022501D01*
X0076875Y0022501D02*
X0077275Y0022501D01*
X0077275Y0020902D02*
X0076875Y0020902D01*
X0076875Y0019304D02*
X0077275Y0019304D01*
X0072948Y0020902D02*
X0070958Y0020902D01*
X0071874Y0019304D02*
X0072073Y0019304D01*
X0071996Y0016107D02*
X0071972Y0016107D01*
X0071195Y0014508D02*
X0072776Y0014508D01*
X0065064Y0012910D02*
X0059086Y0012910D01*
X0061195Y0014508D02*
X0062954Y0014508D01*
X0062178Y0016107D02*
X0061972Y0016107D01*
X0061874Y0019304D02*
X0062276Y0019304D01*
X0063191Y0020902D02*
X0060958Y0020902D01*
X0058513Y0022501D02*
X0065278Y0022501D01*
X0065278Y0024099D02*
X0055032Y0024099D01*
X0055636Y0022501D02*
X0049974Y0022501D01*
X0050958Y0020902D02*
X0053191Y0020902D01*
X0052276Y0019304D02*
X0051874Y0019304D01*
X0051972Y0016107D02*
X0052178Y0016107D01*
X0052954Y0014508D02*
X0051195Y0014508D01*
X0049086Y0012910D02*
X0055064Y0012910D01*
X0047783Y0018295D02*
X0047075Y0017587D01*
X0047783Y0018295D02*
X0047783Y0023886D01*
X0050146Y0026248D01*
X0054083Y0026248D01*
X0082429Y0054594D01*
X0099752Y0054594D01*
X0123650Y0078492D01*
X0123650Y0091484D01*
X0119859Y0091237D02*
X0117440Y0091237D01*
X0117440Y0092835D02*
X0119859Y0092835D01*
X0119859Y0094434D02*
X0117440Y0094434D01*
X0116862Y0096032D02*
X0120437Y0096032D01*
X0119859Y0089638D02*
X0117440Y0089638D01*
X0117320Y0088040D02*
X0119979Y0088040D01*
X0120932Y0086441D02*
X0116367Y0086441D01*
X0115840Y0084843D02*
X0121459Y0084843D01*
X0121459Y0083244D02*
X0115840Y0083244D01*
X0115840Y0081646D02*
X0121459Y0081646D01*
X0121459Y0080047D02*
X0115840Y0080047D01*
X0115840Y0078449D02*
X0120508Y0078449D01*
X0118910Y0076850D02*
X0115840Y0076850D01*
X0115840Y0075252D02*
X0117311Y0075252D01*
X0115713Y0073653D02*
X0114822Y0073653D01*
X0114114Y0072055D02*
X0113223Y0072055D01*
X0112516Y0070456D02*
X0111625Y0070456D01*
X0110917Y0068858D02*
X0110026Y0068858D01*
X0109319Y0067259D02*
X0108428Y0067259D01*
X0107720Y0065660D02*
X0106829Y0065660D01*
X0106122Y0064062D02*
X0105231Y0064062D01*
X0104523Y0062463D02*
X0103632Y0062463D01*
X0102925Y0060865D02*
X0102034Y0060865D01*
X0101326Y0059266D02*
X0100435Y0059266D01*
X0099728Y0057668D02*
X0077577Y0057668D01*
X0075978Y0056069D02*
X0080806Y0056069D01*
X0079208Y0054471D02*
X0074380Y0054471D01*
X0072781Y0052872D02*
X0077609Y0052872D01*
X0076011Y0051274D02*
X0071183Y0051274D01*
X0069584Y0049675D02*
X0074412Y0049675D01*
X0072814Y0048077D02*
X0067986Y0048077D01*
X0066387Y0046478D02*
X0071215Y0046478D01*
X0069617Y0044880D02*
X0064789Y0044880D01*
X0063190Y0043281D02*
X0068018Y0043281D01*
X0066420Y0041683D02*
X0061592Y0041683D01*
X0059993Y0040084D02*
X0064821Y0040084D01*
X0063223Y0038486D02*
X0058395Y0038486D01*
X0056796Y0036887D02*
X0061624Y0036887D01*
X0060026Y0035289D02*
X0055198Y0035289D01*
X0053599Y0033690D02*
X0058427Y0033690D01*
X0056829Y0032092D02*
X0052001Y0032092D01*
X0050402Y0030493D02*
X0055230Y0030493D01*
X0053631Y0028895D02*
X0048804Y0028895D01*
X0048096Y0027296D02*
X0047205Y0027296D01*
X0046497Y0025698D02*
X0045607Y0025698D01*
X0045593Y0024099D02*
X0044008Y0024099D01*
X0045593Y0022501D02*
X0042410Y0022501D01*
X0043191Y0020902D02*
X0040958Y0020902D01*
X0041874Y0019304D02*
X0042276Y0019304D01*
X0042178Y0016107D02*
X0041972Y0016107D01*
X0041195Y0014508D02*
X0042954Y0014508D01*
X0045064Y0012910D02*
X0039086Y0012910D01*
X0037547Y0015697D02*
X0037075Y0017587D01*
X0037547Y0015697D02*
X0037547Y0020736D01*
X0077705Y0060894D01*
X0098965Y0060894D01*
X0113650Y0075579D01*
X0113650Y0091484D01*
X0109859Y0091237D02*
X0107440Y0091237D01*
X0107440Y0092835D02*
X0109859Y0092835D01*
X0109859Y0094434D02*
X0107440Y0094434D01*
X0106862Y0096032D02*
X0110437Y0096032D01*
X0109859Y0089638D02*
X0107440Y0089638D01*
X0107320Y0088040D02*
X0109979Y0088040D01*
X0110932Y0086441D02*
X0106367Y0086441D01*
X0111459Y0084843D02*
X0081917Y0084843D01*
X0080318Y0083244D02*
X0111459Y0083244D01*
X0111459Y0081646D02*
X0078720Y0081646D01*
X0077121Y0080047D02*
X0111459Y0080047D01*
X0111459Y0078449D02*
X0075523Y0078449D01*
X0075387Y0077794D02*
X0073166Y0075574D01*
X0073166Y0072434D01*
X0075387Y0070213D01*
X0078527Y0070213D01*
X0080747Y0072434D01*
X0080747Y0075574D01*
X0078527Y0077794D01*
X0075387Y0077794D01*
X0074442Y0076850D02*
X0073924Y0076850D01*
X0073166Y0075252D02*
X0072326Y0075252D01*
X0073166Y0073653D02*
X0070727Y0073653D01*
X0069129Y0072055D02*
X0073545Y0072055D01*
X0075144Y0070456D02*
X0067530Y0070456D01*
X0065106Y0071130D02*
X0054870Y0071130D01*
X0034398Y0050657D01*
X0034398Y0030185D01*
X0027311Y0023098D01*
X0027311Y0015461D01*
X0027075Y0017587D01*
X0029086Y0012910D02*
X0035064Y0012910D01*
X0032954Y0014508D02*
X0031195Y0014508D01*
X0031972Y0016107D02*
X0032178Y0016107D01*
X0032276Y0019304D02*
X0031874Y0019304D01*
X0030958Y0020902D02*
X0033191Y0020902D01*
X0035636Y0022501D02*
X0029811Y0022501D01*
X0031410Y0024099D02*
X0037812Y0024099D01*
X0036640Y0022927D02*
X0036640Y0022927D01*
X0039411Y0025698D02*
X0033008Y0025698D01*
X0034607Y0027296D02*
X0041009Y0027296D01*
X0042608Y0028895D02*
X0036205Y0028895D01*
X0036588Y0030493D02*
X0044206Y0030493D01*
X0045805Y0032092D02*
X0036588Y0032092D01*
X0036588Y0033690D02*
X0040219Y0033690D01*
X0041257Y0032652D02*
X0038597Y0035312D01*
X0038597Y0039074D01*
X0041257Y0041733D01*
X0045019Y0041733D01*
X0047678Y0039074D01*
X0047678Y0035312D01*
X0045019Y0032652D01*
X0041257Y0032652D01*
X0038621Y0035289D02*
X0036588Y0035289D01*
X0036588Y0036887D02*
X0038597Y0036887D01*
X0038597Y0038486D02*
X0036588Y0038486D01*
X0036588Y0040084D02*
X0039608Y0040084D01*
X0041206Y0041683D02*
X0036588Y0041683D01*
X0036588Y0043281D02*
X0040462Y0043281D01*
X0040655Y0043141D02*
X0041319Y0042803D01*
X0042028Y0042572D01*
X0042765Y0042456D01*
X0043138Y0042456D01*
X0043511Y0042456D01*
X0044247Y0042572D01*
X0044956Y0042803D01*
X0045621Y0043141D01*
X0046224Y0043579D01*
X0046751Y0044107D01*
X0047190Y0044710D01*
X0047528Y0045374D01*
X0047759Y0046084D01*
X0047875Y0046820D01*
X0047875Y0047193D01*
X0047875Y0047566D01*
X0047759Y0048302D01*
X0047528Y0049011D01*
X0047190Y0049676D01*
X0046751Y0050279D01*
X0046224Y0050806D01*
X0045621Y0051245D01*
X0044956Y0051583D01*
X0044247Y0051814D01*
X0043511Y0051930D01*
X0043138Y0051930D01*
X0043138Y0047193D01*
X0047875Y0047193D01*
X0043138Y0047193D01*
X0043138Y0047193D01*
X0043138Y0047193D01*
X0043138Y0042456D01*
X0043138Y0047193D01*
X0043138Y0047193D01*
X0043138Y0051930D01*
X0042765Y0051930D01*
X0042028Y0051814D01*
X0041319Y0051583D01*
X0040655Y0051245D01*
X0040052Y0050806D01*
X0039524Y0050279D01*
X0039086Y0049676D01*
X0038747Y0049011D01*
X0038517Y0048302D01*
X0038400Y0047566D01*
X0038400Y0047193D01*
X0043138Y0047193D01*
X0043138Y0047193D01*
X0038400Y0047193D01*
X0038400Y0046820D01*
X0038517Y0046084D01*
X0038747Y0045374D01*
X0039086Y0044710D01*
X0039524Y0044107D01*
X0040052Y0043579D01*
X0040655Y0043141D01*
X0038999Y0044880D02*
X0036588Y0044880D01*
X0036588Y0046478D02*
X0038455Y0046478D01*
X0038481Y0048077D02*
X0036588Y0048077D01*
X0036588Y0049675D02*
X0039086Y0049675D01*
X0038112Y0051274D02*
X0040712Y0051274D01*
X0039710Y0052872D02*
X0066586Y0052872D01*
X0068184Y0054471D02*
X0041309Y0054471D01*
X0042907Y0056069D02*
X0069783Y0056069D01*
X0071381Y0057668D02*
X0044506Y0057668D01*
X0046105Y0059266D02*
X0072980Y0059266D01*
X0074578Y0060865D02*
X0047703Y0060865D01*
X0049302Y0062463D02*
X0076177Y0062463D01*
X0078769Y0070456D02*
X0105429Y0070456D01*
X0103830Y0068858D02*
X0055696Y0068858D01*
X0054097Y0067259D02*
X0102232Y0067259D01*
X0100633Y0065660D02*
X0052499Y0065660D01*
X0050900Y0064062D02*
X0099035Y0064062D01*
X0105923Y0057668D02*
X0150909Y0057668D01*
X0151892Y0059266D02*
X0107522Y0059266D01*
X0109120Y0060865D02*
X0151892Y0060865D01*
X0151892Y0062463D02*
X0110719Y0062463D01*
X0112317Y0064062D02*
X0151892Y0064062D01*
X0151892Y0065660D02*
X0149277Y0065660D01*
X0149132Y0065515D02*
X0150564Y0066947D01*
X0151339Y0068818D01*
X0151339Y0070843D01*
X0150564Y0072714D01*
X0149132Y0074146D01*
X0147261Y0074921D01*
X0145235Y0074921D01*
X0143364Y0074146D01*
X0141932Y0072714D01*
X0141248Y0071062D01*
X0140564Y0072714D01*
X0139132Y0074146D01*
X0137261Y0074921D01*
X0135235Y0074921D01*
X0133364Y0074146D01*
X0131932Y0072714D01*
X0131248Y0071062D01*
X0130564Y0072714D01*
X0129132Y0074146D01*
X0127261Y0074921D01*
X0125235Y0074921D01*
X0123364Y0074146D01*
X0121932Y0072714D01*
X0121157Y0070843D01*
X0121157Y0068818D01*
X0121932Y0066947D01*
X0123364Y0065515D01*
X0125235Y0064740D01*
X0127261Y0064740D01*
X0129132Y0065515D01*
X0130564Y0066947D01*
X0131248Y0068600D01*
X0131932Y0066947D01*
X0133364Y0065515D01*
X0135235Y0064740D01*
X0137261Y0064740D01*
X0139132Y0065515D01*
X0140564Y0066947D01*
X0141248Y0068600D01*
X0141932Y0066947D01*
X0143364Y0065515D01*
X0145235Y0064740D01*
X0147261Y0064740D01*
X0149132Y0065515D01*
X0150693Y0067259D02*
X0151892Y0067259D01*
X0151892Y0068858D02*
X0151339Y0068858D01*
X0151339Y0070456D02*
X0151892Y0070456D01*
X0150837Y0072055D02*
X0153484Y0072055D01*
X0155083Y0073653D02*
X0149625Y0073653D01*
X0142871Y0073653D02*
X0139625Y0073653D01*
X0140837Y0072055D02*
X0141659Y0072055D01*
X0141803Y0067259D02*
X0140693Y0067259D01*
X0139277Y0065660D02*
X0143219Y0065660D01*
X0133219Y0065660D02*
X0129277Y0065660D01*
X0130693Y0067259D02*
X0131803Y0067259D01*
X0131659Y0072055D02*
X0130837Y0072055D01*
X0129625Y0073653D02*
X0132871Y0073653D01*
X0125105Y0076850D02*
X0158280Y0076850D01*
X0159878Y0078449D02*
X0125840Y0078449D01*
X0125840Y0080047D02*
X0161477Y0080047D01*
X0162877Y0075252D02*
X0171490Y0075252D01*
X0171961Y0072361D02*
X0169741Y0070141D01*
X0169741Y0067001D01*
X0171961Y0064780D01*
X0175102Y0064780D01*
X0177322Y0067001D01*
X0177322Y0070141D01*
X0175102Y0072361D01*
X0171961Y0072361D01*
X0171655Y0072055D02*
X0159680Y0072055D01*
X0158993Y0070456D02*
X0158081Y0070456D01*
X0157418Y0068858D02*
X0156483Y0068858D01*
X0156273Y0067259D02*
X0157418Y0067259D01*
X0157499Y0065660D02*
X0156273Y0065660D01*
X0156273Y0064062D02*
X0158979Y0064062D01*
X0158979Y0062463D02*
X0156273Y0062463D01*
X0156273Y0060865D02*
X0158979Y0060865D01*
X0158979Y0059266D02*
X0156273Y0059266D01*
X0156273Y0057668D02*
X0158979Y0057668D01*
X0158979Y0056069D02*
X0155506Y0056069D01*
X0153907Y0054471D02*
X0158979Y0054471D01*
X0158979Y0052872D02*
X0152309Y0052872D01*
X0150710Y0051274D02*
X0158979Y0051274D01*
X0157877Y0049675D02*
X0149112Y0049675D01*
X0147513Y0048077D02*
X0156278Y0048077D01*
X0154680Y0046478D02*
X0145915Y0046478D01*
X0144316Y0044880D02*
X0153081Y0044880D01*
X0151483Y0043281D02*
X0142718Y0043281D01*
X0141318Y0048077D02*
X0079009Y0048077D01*
X0077411Y0046478D02*
X0102711Y0046478D01*
X0101113Y0044880D02*
X0075812Y0044880D01*
X0074214Y0043281D02*
X0099514Y0043281D01*
X0097916Y0041683D02*
X0072615Y0041683D01*
X0071017Y0040084D02*
X0096317Y0040084D01*
X0094719Y0038486D02*
X0069418Y0038486D01*
X0067820Y0036887D02*
X0074201Y0036887D01*
X0075305Y0037991D02*
X0072969Y0035656D01*
X0072969Y0034004D01*
X0076957Y0034004D01*
X0080944Y0034004D01*
X0080944Y0035656D01*
X0078608Y0037991D01*
X0076957Y0037991D01*
X0076957Y0034004D01*
X0076957Y0034004D01*
X0080944Y0034004D01*
X0080944Y0032352D01*
X0078608Y0030017D01*
X0076957Y0030017D01*
X0076957Y0034004D01*
X0076957Y0034004D01*
X0076957Y0034004D01*
X0076957Y0037991D01*
X0075305Y0037991D01*
X0076957Y0036887D02*
X0076957Y0036887D01*
X0076957Y0035289D02*
X0076957Y0035289D01*
X0076957Y0034004D02*
X0076957Y0034004D01*
X0076957Y0030017D01*
X0075305Y0030017D01*
X0072969Y0032352D01*
X0072969Y0034004D01*
X0076957Y0034004D01*
X0076957Y0033690D02*
X0076957Y0033690D01*
X0076957Y0032092D02*
X0076957Y0032092D01*
X0076957Y0030493D02*
X0076957Y0030493D01*
X0079085Y0030493D02*
X0086726Y0030493D01*
X0088325Y0032092D02*
X0080684Y0032092D01*
X0080944Y0033690D02*
X0089923Y0033690D01*
X0091522Y0035289D02*
X0080944Y0035289D01*
X0079712Y0036887D02*
X0093120Y0036887D01*
X0096119Y0033690D02*
X0125277Y0033690D01*
X0123679Y0032092D02*
X0094520Y0032092D01*
X0092922Y0030493D02*
X0122080Y0030493D01*
X0120482Y0028895D02*
X0091323Y0028895D01*
X0089725Y0027296D02*
X0118883Y0027296D01*
X0117285Y0025698D02*
X0088126Y0025698D01*
X0090958Y0020902D02*
X0112489Y0020902D01*
X0115488Y0017705D02*
X0125727Y0017705D01*
X0125331Y0016107D02*
X0115512Y0016107D01*
X0115423Y0014508D02*
X0125420Y0014508D01*
X0126082Y0012910D02*
X0114760Y0012910D01*
X0110421Y0015736D02*
X0128020Y0033335D01*
X0144634Y0033335D01*
X0161169Y0049870D01*
X0161169Y0067272D01*
X0161209Y0067311D01*
X0164999Y0067259D02*
X0169741Y0067259D01*
X0169741Y0068858D02*
X0164999Y0068858D01*
X0163424Y0070456D02*
X0170056Y0070456D01*
X0171081Y0065660D02*
X0164919Y0065660D01*
X0163360Y0064062D02*
X0195127Y0064062D01*
X0194543Y0065660D02*
X0189013Y0065660D01*
X0189881Y0066528D02*
X0187661Y0064308D01*
X0184520Y0064308D01*
X0182300Y0066528D01*
X0182300Y0069669D01*
X0184520Y0071889D01*
X0187661Y0071889D01*
X0189881Y0069669D01*
X0189881Y0066528D01*
X0189881Y0067259D02*
X0194543Y0067259D01*
X0195107Y0068858D02*
X0189881Y0068858D01*
X0189094Y0070456D02*
X0196407Y0070456D01*
X0195939Y0075252D02*
X0190300Y0075252D01*
X0191899Y0076850D02*
X0194340Y0076850D01*
X0194190Y0078449D02*
X0191968Y0078449D01*
X0191968Y0080047D02*
X0194190Y0080047D01*
X0200266Y0081646D02*
X0204267Y0081646D01*
X0204267Y0080047D02*
X0201771Y0080047D01*
X0201771Y0078449D02*
X0204267Y0078449D01*
X0204267Y0076850D02*
X0201620Y0076850D01*
X0200022Y0075252D02*
X0204267Y0075252D01*
X0204267Y0073653D02*
X0161279Y0073653D01*
X0156681Y0075252D02*
X0123507Y0075252D01*
X0122871Y0073653D02*
X0121908Y0073653D01*
X0121659Y0072055D02*
X0120310Y0072055D01*
X0121157Y0070456D02*
X0118711Y0070456D01*
X0117113Y0068858D02*
X0121157Y0068858D01*
X0121803Y0067259D02*
X0115514Y0067259D01*
X0113916Y0065660D02*
X0123219Y0065660D01*
X0110225Y0075252D02*
X0080747Y0075252D01*
X0080747Y0073653D02*
X0108626Y0073653D01*
X0107028Y0072055D02*
X0080368Y0072055D01*
X0079471Y0076850D02*
X0111459Y0076850D01*
X0100932Y0086441D02*
X0096367Y0086441D01*
X0097320Y0088040D02*
X0099979Y0088040D01*
X0099859Y0089638D02*
X0097440Y0089638D01*
X0097440Y0091237D02*
X0099859Y0091237D01*
X0099859Y0092835D02*
X0097440Y0092835D01*
X0097440Y0094434D02*
X0099859Y0094434D01*
X0100437Y0096032D02*
X0096862Y0096032D01*
X0090437Y0096032D02*
X0086862Y0096032D01*
X0087440Y0094434D02*
X0089859Y0094434D01*
X0089859Y0092835D02*
X0087440Y0092835D01*
X0087440Y0091237D02*
X0089859Y0091237D01*
X0089859Y0089638D02*
X0087440Y0089638D01*
X0087320Y0088040D02*
X0089979Y0088040D01*
X0090932Y0086441D02*
X0086367Y0086441D01*
X0083650Y0089673D02*
X0083650Y0091484D01*
X0083650Y0089673D02*
X0065106Y0071130D01*
X0064532Y0073653D02*
X0046318Y0073653D01*
X0047916Y0075252D02*
X0066130Y0075252D01*
X0065263Y0076850D02*
X0067729Y0076850D01*
X0066861Y0078449D02*
X0069327Y0078449D01*
X0068460Y0080047D02*
X0070926Y0080047D01*
X0070058Y0081646D02*
X0072524Y0081646D01*
X0071657Y0083244D02*
X0074123Y0083244D01*
X0073255Y0084843D02*
X0075721Y0084843D01*
X0076367Y0086441D02*
X0077320Y0086441D01*
X0077320Y0088040D02*
X0078918Y0088040D01*
X0079859Y0089638D02*
X0077440Y0089638D01*
X0077440Y0091237D02*
X0079859Y0091237D01*
X0079859Y0092835D02*
X0077440Y0092835D01*
X0077440Y0094434D02*
X0079859Y0094434D01*
X0080437Y0096032D02*
X0076862Y0096032D01*
X0073650Y0091484D02*
X0073650Y0088335D01*
X0064319Y0079004D01*
X0048571Y0079004D01*
X0028886Y0059319D01*
X0028886Y0035697D01*
X0017075Y0023886D01*
X0017075Y0017587D01*
X0013191Y0020902D02*
X0010985Y0020902D01*
X0010985Y0019304D02*
X0012276Y0019304D01*
X0011984Y0017705D02*
X0010985Y0017705D01*
X0010985Y0016107D02*
X0012178Y0016107D01*
X0012954Y0014508D02*
X0010985Y0014508D01*
X0010985Y0012910D02*
X0015064Y0012910D01*
X0019086Y0012910D02*
X0025064Y0012910D01*
X0022954Y0014508D02*
X0021195Y0014508D01*
X0021972Y0016107D02*
X0022178Y0016107D01*
X0022276Y0019304D02*
X0021874Y0019304D01*
X0020958Y0020902D02*
X0023191Y0020902D01*
X0025120Y0022501D02*
X0019265Y0022501D01*
X0020386Y0024099D02*
X0025214Y0024099D01*
X0026812Y0025698D02*
X0021985Y0025698D01*
X0023583Y0027296D02*
X0028411Y0027296D01*
X0030009Y0028895D02*
X0025182Y0028895D01*
X0026780Y0030493D02*
X0031608Y0030493D01*
X0032207Y0032092D02*
X0028379Y0032092D01*
X0029977Y0033690D02*
X0032207Y0033690D01*
X0032207Y0035289D02*
X0031076Y0035289D01*
X0031076Y0036887D02*
X0032207Y0036887D01*
X0032207Y0038486D02*
X0031076Y0038486D01*
X0031076Y0040084D02*
X0032207Y0040084D01*
X0032207Y0041683D02*
X0031076Y0041683D01*
X0031076Y0043281D02*
X0032207Y0043281D01*
X0032207Y0044880D02*
X0031076Y0044880D01*
X0031076Y0046478D02*
X0032207Y0046478D01*
X0032207Y0048077D02*
X0031076Y0048077D01*
X0031076Y0049675D02*
X0032207Y0049675D01*
X0032207Y0051274D02*
X0031076Y0051274D01*
X0031076Y0052872D02*
X0033515Y0052872D01*
X0035113Y0054471D02*
X0031076Y0054471D01*
X0031076Y0056069D02*
X0036712Y0056069D01*
X0038310Y0057668D02*
X0031076Y0057668D01*
X0031931Y0059266D02*
X0039909Y0059266D01*
X0041507Y0060865D02*
X0033530Y0060865D01*
X0035128Y0062463D02*
X0043106Y0062463D01*
X0044704Y0064062D02*
X0036727Y0064062D01*
X0038325Y0065660D02*
X0046303Y0065660D01*
X0047901Y0067259D02*
X0039924Y0067259D01*
X0041522Y0068858D02*
X0049500Y0068858D01*
X0051098Y0070456D02*
X0043121Y0070456D01*
X0044719Y0072055D02*
X0052697Y0072055D01*
X0044918Y0078449D02*
X0010985Y0078449D01*
X0010985Y0080047D02*
X0046516Y0080047D01*
X0043319Y0076850D02*
X0010985Y0076850D01*
X0010985Y0075252D02*
X0019773Y0075252D01*
X0019796Y0075275D02*
X0017576Y0073054D01*
X0017576Y0069914D01*
X0019796Y0067694D01*
X0022936Y0067694D01*
X0025157Y0069914D01*
X0025157Y0073054D01*
X0022936Y0075275D01*
X0019796Y0075275D01*
X0018174Y0073653D02*
X0010985Y0073653D01*
X0010985Y0072055D02*
X0017576Y0072055D01*
X0017576Y0070456D02*
X0010985Y0070456D01*
X0010985Y0068858D02*
X0018632Y0068858D01*
X0019796Y0065275D02*
X0017576Y0063054D01*
X0017576Y0059914D01*
X0019796Y0057694D01*
X0022936Y0057694D01*
X0025157Y0059914D01*
X0025157Y0063054D01*
X0022936Y0065275D01*
X0019796Y0065275D01*
X0018583Y0064062D02*
X0010985Y0064062D01*
X0010985Y0065660D02*
X0032130Y0065660D01*
X0030531Y0064062D02*
X0024149Y0064062D01*
X0025157Y0062463D02*
X0028933Y0062463D01*
X0027334Y0060865D02*
X0025157Y0060865D01*
X0024509Y0059266D02*
X0026695Y0059266D01*
X0026695Y0057668D02*
X0010985Y0057668D01*
X0010985Y0059266D02*
X0018223Y0059266D01*
X0017576Y0060865D02*
X0010985Y0060865D01*
X0010985Y0062463D02*
X0017576Y0062463D01*
X0010985Y0067259D02*
X0033728Y0067259D01*
X0035327Y0068858D02*
X0024100Y0068858D01*
X0025157Y0070456D02*
X0036925Y0070456D01*
X0038524Y0072055D02*
X0025157Y0072055D01*
X0024558Y0073653D02*
X0040122Y0073653D01*
X0041721Y0075252D02*
X0022959Y0075252D01*
X0026646Y0083914D02*
X0029787Y0083914D01*
X0032007Y0086135D01*
X0032007Y0089275D01*
X0029787Y0091495D01*
X0026646Y0091495D01*
X0024426Y0089275D01*
X0024426Y0086135D01*
X0026646Y0083914D01*
X0025718Y0084843D02*
X0010985Y0084843D01*
X0010985Y0086441D02*
X0024426Y0086441D01*
X0024426Y0088040D02*
X0010985Y0088040D01*
X0010985Y0089638D02*
X0018422Y0089638D01*
X0016926Y0091237D02*
X0010985Y0091237D01*
X0010985Y0092835D02*
X0016926Y0092835D01*
X0017085Y0094434D02*
X0010985Y0094434D01*
X0010985Y0096032D02*
X0018683Y0096032D01*
X0024507Y0091237D02*
X0026388Y0091237D01*
X0024789Y0089638D02*
X0023011Y0089638D01*
X0030045Y0091237D02*
X0059859Y0091237D01*
X0059859Y0089638D02*
X0031644Y0089638D01*
X0032007Y0088040D02*
X0059979Y0088040D01*
X0060932Y0086441D02*
X0032007Y0086441D01*
X0030715Y0084843D02*
X0067060Y0084843D01*
X0066367Y0086441D02*
X0068658Y0086441D01*
X0069979Y0088040D02*
X0067320Y0088040D01*
X0067440Y0089638D02*
X0069859Y0089638D01*
X0069859Y0091237D02*
X0067440Y0091237D01*
X0067440Y0092835D02*
X0069859Y0092835D01*
X0069859Y0094434D02*
X0067440Y0094434D01*
X0066862Y0096032D02*
X0070437Y0096032D01*
X0060437Y0096032D02*
X0032183Y0096032D01*
X0020229Y0105623D02*
X0047200Y0105623D01*
X0048799Y0104025D02*
X0019216Y0104025D01*
X0020591Y0107222D02*
X0045602Y0107222D01*
X0044003Y0108820D02*
X0020466Y0108820D01*
X0019788Y0110419D02*
X0042405Y0110419D01*
X0040806Y0112017D02*
X0017915Y0112017D01*
X0018807Y0113616D02*
X0039208Y0113616D01*
X0037609Y0115214D02*
X0020060Y0115214D01*
X0020591Y0116813D02*
X0036010Y0116813D01*
X0034412Y0118411D02*
X0020591Y0118411D01*
X0019974Y0120010D02*
X0032813Y0120010D01*
X0031420Y0121608D02*
X0018599Y0121608D01*
X0018398Y0123207D02*
X0031420Y0123207D01*
X0031420Y0124805D02*
X0019891Y0124805D01*
X0020553Y0126404D02*
X0031420Y0126404D01*
X0031420Y0128002D02*
X0020591Y0128002D01*
X0020143Y0129601D02*
X0031420Y0129601D01*
X0031420Y0131199D02*
X0019008Y0131199D01*
X0017432Y0132798D02*
X0031420Y0132798D01*
X0031420Y0134396D02*
X0019588Y0134396D01*
X0020383Y0135995D02*
X0031420Y0135995D01*
X0031420Y0137594D02*
X0020591Y0137594D01*
X0020312Y0139192D02*
X0031420Y0139192D01*
X0031420Y0140791D02*
X0019416Y0140791D01*
X0017018Y0142389D02*
X0031420Y0142389D01*
X0031420Y0143988D02*
X0019179Y0143988D01*
X0020214Y0145586D02*
X0031420Y0145586D01*
X0031420Y0147185D02*
X0020591Y0147185D01*
X0020482Y0148783D02*
X0031420Y0148783D01*
X0031420Y0150382D02*
X0019820Y0150382D01*
X0018005Y0151980D02*
X0031420Y0151980D01*
X0031420Y0153579D02*
X0010985Y0153579D01*
X0010985Y0155177D02*
X0031420Y0155177D01*
X0031420Y0156776D02*
X0010985Y0156776D01*
X0010985Y0158374D02*
X0031420Y0158374D01*
X0031420Y0159973D02*
X0010985Y0159973D01*
X0010985Y0161571D02*
X0031420Y0161571D01*
X0012995Y0151980D02*
X0010985Y0151980D01*
X0010985Y0150382D02*
X0011180Y0150382D01*
X0035801Y0128002D02*
X0120097Y0128002D01*
X0123095Y0131199D02*
X0129498Y0131199D01*
X0131096Y0129601D02*
X0124694Y0129601D01*
X0125565Y0128002D02*
X0131420Y0128002D01*
X0130809Y0126404D02*
X0126491Y0126404D01*
X0127371Y0124805D02*
X0129928Y0124805D01*
X0129859Y0123207D02*
X0127440Y0123207D01*
X0127899Y0132798D02*
X0121497Y0132798D01*
X0119898Y0134396D02*
X0126301Y0134396D01*
X0124702Y0135995D02*
X0118300Y0135995D01*
X0116701Y0137594D02*
X0123104Y0137594D01*
X0121505Y0139192D02*
X0115103Y0139192D01*
X0113504Y0140791D02*
X0119907Y0140791D01*
X0118308Y0142389D02*
X0111906Y0142389D01*
X0110307Y0143988D02*
X0116710Y0143988D01*
X0115111Y0145586D02*
X0108709Y0145586D01*
X0107110Y0147185D02*
X0113513Y0147185D01*
X0111914Y0148783D02*
X0105512Y0148783D01*
X0103913Y0150382D02*
X0110316Y0150382D01*
X0108717Y0151980D02*
X0102315Y0151980D01*
X0100716Y0153579D02*
X0107119Y0153579D01*
X0105520Y0155177D02*
X0099118Y0155177D01*
X0097519Y0156776D02*
X0103922Y0156776D01*
X0102323Y0158374D02*
X0095921Y0158374D01*
X0069623Y0137594D02*
X0067401Y0137594D01*
X0067401Y0135995D02*
X0069623Y0135995D01*
X0069707Y0134396D02*
X0067398Y0134396D01*
X0065799Y0132798D02*
X0071306Y0132798D01*
X0072896Y0127675D02*
X0071502Y0127098D01*
X0070436Y0126031D01*
X0069859Y0124638D01*
X0069859Y0118330D01*
X0070436Y0116937D01*
X0071502Y0115871D01*
X0072896Y0115294D01*
X0074404Y0115294D01*
X0075797Y0115871D01*
X0076863Y0116937D01*
X0077440Y0118330D01*
X0077440Y0124638D01*
X0076863Y0126031D01*
X0075797Y0127098D01*
X0074404Y0127675D01*
X0072896Y0127675D01*
X0070809Y0126404D02*
X0066762Y0126404D01*
X0067532Y0124805D02*
X0069928Y0124805D01*
X0069859Y0123207D02*
X0067637Y0123207D01*
X0067637Y0121608D02*
X0069859Y0121608D01*
X0069859Y0120010D02*
X0067637Y0120010D01*
X0067581Y0118411D02*
X0069859Y0118411D01*
X0070560Y0116813D02*
X0066928Y0116813D01*
X0063650Y0116813D02*
X0063650Y0116813D01*
X0063650Y0118411D02*
X0063650Y0118411D01*
X0063650Y0120010D02*
X0063650Y0120010D01*
X0063649Y0121484D02*
X0063649Y0121484D01*
X0059662Y0121484D01*
X0059662Y0124277D01*
X0059815Y0125047D01*
X0060116Y0125773D01*
X0060552Y0126426D01*
X0061108Y0126981D01*
X0061761Y0127418D01*
X0062487Y0127718D01*
X0063257Y0127872D01*
X0063650Y0127872D01*
X0063650Y0121484D01*
X0063650Y0121608D02*
X0063650Y0121608D01*
X0063650Y0123207D02*
X0063650Y0123207D01*
X0063650Y0124805D02*
X0063650Y0124805D01*
X0063650Y0126404D02*
X0063650Y0126404D01*
X0060538Y0126404D02*
X0035801Y0126404D01*
X0035801Y0124805D02*
X0059767Y0124805D01*
X0059662Y0123207D02*
X0035812Y0123207D01*
X0037411Y0121608D02*
X0059662Y0121608D01*
X0059662Y0120010D02*
X0039009Y0120010D01*
X0040608Y0118411D02*
X0059718Y0118411D01*
X0060372Y0116813D02*
X0042206Y0116813D01*
X0011784Y0104025D02*
X0010985Y0104025D01*
X0010985Y0083244D02*
X0065461Y0083244D01*
X0063863Y0081646D02*
X0010985Y0081646D01*
X0010985Y0056069D02*
X0026695Y0056069D01*
X0026695Y0054471D02*
X0010985Y0054471D01*
X0010985Y0052872D02*
X0026695Y0052872D01*
X0026695Y0051274D02*
X0023397Y0051274D01*
X0023018Y0051653D02*
X0021366Y0051653D01*
X0019715Y0051653D01*
X0017379Y0049317D01*
X0017379Y0047665D01*
X0017379Y0046014D01*
X0019715Y0043678D01*
X0021366Y0043678D01*
X0021366Y0047665D01*
X0021366Y0047665D01*
X0017379Y0047665D01*
X0021366Y0047665D01*
X0021366Y0047665D01*
X0021366Y0043678D01*
X0023018Y0043678D01*
X0025354Y0046014D01*
X0025354Y0047665D01*
X0021366Y0047665D01*
X0021366Y0047665D01*
X0021366Y0051653D01*
X0021366Y0047665D01*
X0021366Y0047665D01*
X0025354Y0047665D01*
X0025354Y0049317D01*
X0023018Y0051653D01*
X0021366Y0051274D02*
X0021366Y0051274D01*
X0021366Y0049675D02*
X0021366Y0049675D01*
X0021366Y0048077D02*
X0021366Y0048077D01*
X0021366Y0046478D02*
X0021366Y0046478D01*
X0021366Y0044880D02*
X0021366Y0044880D01*
X0018513Y0044880D02*
X0010985Y0044880D01*
X0010985Y0046478D02*
X0017379Y0046478D01*
X0017379Y0048077D02*
X0010985Y0048077D01*
X0010985Y0049675D02*
X0017737Y0049675D01*
X0019336Y0051274D02*
X0010985Y0051274D01*
X0010985Y0043281D02*
X0026695Y0043281D01*
X0026695Y0041683D02*
X0010985Y0041683D01*
X0010985Y0040084D02*
X0018424Y0040084D01*
X0017576Y0039235D02*
X0017576Y0036095D01*
X0019796Y0033875D01*
X0022936Y0033875D01*
X0025157Y0036095D01*
X0025157Y0039235D01*
X0022936Y0041456D01*
X0019796Y0041456D01*
X0017576Y0039235D01*
X0017576Y0038486D02*
X0010985Y0038486D01*
X0010985Y0036887D02*
X0017576Y0036887D01*
X0018382Y0035289D02*
X0010985Y0035289D01*
X0010985Y0033690D02*
X0023781Y0033690D01*
X0024350Y0035289D02*
X0025380Y0035289D01*
X0025157Y0036887D02*
X0026695Y0036887D01*
X0026695Y0038486D02*
X0025157Y0038486D01*
X0024308Y0040084D02*
X0026695Y0040084D01*
X0026695Y0044880D02*
X0024220Y0044880D01*
X0025354Y0046478D02*
X0026695Y0046478D01*
X0026695Y0048077D02*
X0025354Y0048077D01*
X0024995Y0049675D02*
X0026695Y0049675D01*
X0043138Y0049675D02*
X0043138Y0049675D01*
X0043138Y0048077D02*
X0043138Y0048077D01*
X0043138Y0046478D02*
X0043138Y0046478D01*
X0043138Y0044880D02*
X0043138Y0044880D01*
X0043138Y0043281D02*
X0043138Y0043281D01*
X0045069Y0041683D02*
X0055396Y0041683D01*
X0056994Y0043281D02*
X0045814Y0043281D01*
X0047276Y0044880D02*
X0058593Y0044880D01*
X0060191Y0046478D02*
X0047821Y0046478D01*
X0047794Y0048077D02*
X0061790Y0048077D01*
X0063389Y0049675D02*
X0047190Y0049675D01*
X0045563Y0051274D02*
X0064987Y0051274D01*
X0053797Y0040084D02*
X0046668Y0040084D01*
X0047678Y0038486D02*
X0052199Y0038486D01*
X0050600Y0036887D02*
X0047678Y0036887D01*
X0047655Y0035289D02*
X0049002Y0035289D01*
X0047403Y0033690D02*
X0046056Y0033690D01*
X0056630Y0025698D02*
X0066182Y0025698D01*
X0067781Y0027296D02*
X0058229Y0027296D01*
X0059827Y0028895D02*
X0069380Y0028895D01*
X0073230Y0032092D02*
X0063024Y0032092D01*
X0061426Y0030493D02*
X0074828Y0030493D01*
X0072969Y0033690D02*
X0064623Y0033690D01*
X0066221Y0035289D02*
X0072969Y0035289D01*
X0080608Y0049675D02*
X0142916Y0049675D01*
X0144515Y0051274D02*
X0082206Y0051274D01*
X0097717Y0035289D02*
X0126876Y0035289D01*
X0128276Y0030493D02*
X0158752Y0030493D01*
X0159557Y0031298D02*
X0157221Y0028963D01*
X0157221Y0027311D01*
X0157221Y0025659D01*
X0159557Y0023324D01*
X0161209Y0023324D01*
X0162860Y0023324D01*
X0165196Y0025659D01*
X0165196Y0027311D01*
X0161209Y0027311D01*
X0165196Y0027311D01*
X0165196Y0028963D01*
X0162860Y0031298D01*
X0161209Y0031298D01*
X0161209Y0027311D01*
X0161209Y0027311D01*
X0161209Y0023324D01*
X0161209Y0027311D01*
X0161209Y0027311D01*
X0161209Y0027311D01*
X0161209Y0031298D01*
X0159557Y0031298D01*
X0161209Y0030493D02*
X0161209Y0030493D01*
X0161209Y0028895D02*
X0161209Y0028895D01*
X0161209Y0027311D02*
X0161209Y0027311D01*
X0157221Y0027311D01*
X0161209Y0027311D01*
X0161209Y0027296D02*
X0161209Y0027296D01*
X0161209Y0025698D02*
X0161209Y0025698D01*
X0161209Y0024099D02*
X0161209Y0024099D01*
X0163636Y0024099D02*
X0194915Y0024099D01*
X0194405Y0025698D02*
X0189050Y0025698D01*
X0189881Y0026528D02*
X0187661Y0024308D01*
X0184520Y0024308D01*
X0182300Y0026528D01*
X0182300Y0029669D01*
X0184520Y0031889D01*
X0187661Y0031889D01*
X0189881Y0029669D01*
X0189881Y0026528D01*
X0189881Y0027296D02*
X0194409Y0027296D01*
X0194928Y0028895D02*
X0189881Y0028895D01*
X0189056Y0030493D02*
X0196165Y0030493D01*
X0196936Y0032092D02*
X0146489Y0032092D01*
X0148087Y0033690D02*
X0195281Y0033690D01*
X0194619Y0035289D02*
X0149686Y0035289D01*
X0151284Y0036887D02*
X0194543Y0036887D01*
X0194953Y0038486D02*
X0152883Y0038486D01*
X0154481Y0040084D02*
X0196035Y0040084D01*
X0197923Y0041683D02*
X0156080Y0041683D01*
X0157678Y0043281D02*
X0195638Y0043281D01*
X0194788Y0044880D02*
X0159277Y0044880D01*
X0160875Y0046478D02*
X0194543Y0046478D01*
X0194784Y0048077D02*
X0162474Y0048077D01*
X0163360Y0049675D02*
X0195626Y0049675D01*
X0197895Y0051274D02*
X0163360Y0051274D01*
X0163360Y0052872D02*
X0196047Y0052872D01*
X0194958Y0054471D02*
X0163360Y0054471D01*
X0163360Y0056069D02*
X0194543Y0056069D01*
X0194614Y0057668D02*
X0163360Y0057668D01*
X0163360Y0059266D02*
X0195276Y0059266D01*
X0196908Y0060865D02*
X0163360Y0060865D01*
X0163360Y0062463D02*
X0196455Y0062463D01*
X0202861Y0070456D02*
X0204267Y0070456D01*
X0204267Y0068858D02*
X0204161Y0068858D01*
X0204267Y0072055D02*
X0175408Y0072055D01*
X0177007Y0070456D02*
X0183088Y0070456D01*
X0182300Y0068858D02*
X0177322Y0068858D01*
X0177322Y0067259D02*
X0182300Y0067259D01*
X0183168Y0065660D02*
X0175982Y0065660D01*
X0149310Y0056069D02*
X0104325Y0056069D01*
X0102726Y0054471D02*
X0147712Y0054471D01*
X0146113Y0052872D02*
X0101128Y0052872D01*
X0104111Y0041683D02*
X0149884Y0041683D01*
X0148286Y0040084D02*
X0102513Y0040084D01*
X0100914Y0038486D02*
X0146687Y0038486D01*
X0145089Y0036887D02*
X0099316Y0036887D01*
X0091874Y0019304D02*
X0106790Y0019304D01*
X0105727Y0017705D02*
X0092165Y0017705D01*
X0091972Y0016107D02*
X0105331Y0016107D01*
X0105420Y0014508D02*
X0091195Y0014508D01*
X0089086Y0012910D02*
X0106082Y0012910D01*
X0117087Y0019304D02*
X0126790Y0019304D01*
X0121882Y0024099D02*
X0158781Y0024099D01*
X0157221Y0025698D02*
X0123481Y0025698D01*
X0125079Y0027296D02*
X0157221Y0027296D01*
X0157221Y0028895D02*
X0126678Y0028895D01*
X0120284Y0022501D02*
X0196140Y0022501D01*
X0196997Y0020902D02*
X0118685Y0020902D01*
X0134053Y0019304D02*
X0146632Y0019304D01*
X0145431Y0017705D02*
X0135116Y0017705D01*
X0135512Y0016107D02*
X0144937Y0016107D01*
X0144937Y0014508D02*
X0135423Y0014508D01*
X0134760Y0012910D02*
X0145591Y0012910D01*
X0153423Y0019304D02*
X0166632Y0019304D01*
X0165431Y0017705D02*
X0154624Y0017705D01*
X0155118Y0016107D02*
X0164937Y0016107D01*
X0164937Y0014508D02*
X0155118Y0014508D01*
X0154465Y0012910D02*
X0165591Y0012910D01*
X0173423Y0019304D02*
X0195292Y0019304D01*
X0194630Y0017705D02*
X0174624Y0017705D01*
X0175118Y0016107D02*
X0194543Y0016107D01*
X0194942Y0014508D02*
X0175118Y0014508D01*
X0174465Y0012910D02*
X0196009Y0012910D01*
X0183131Y0025698D02*
X0165196Y0025698D01*
X0165196Y0027296D02*
X0182300Y0027296D01*
X0182300Y0028895D02*
X0165196Y0028895D01*
X0163665Y0030493D02*
X0183125Y0030493D01*
X0105797Y0115871D02*
X0104404Y0115294D01*
X0102896Y0115294D01*
X0101502Y0115871D01*
X0100436Y0116937D01*
X0099859Y0118330D01*
X0099859Y0124638D01*
X0100436Y0126031D01*
X0101502Y0127098D01*
X0102896Y0127675D01*
X0104404Y0127675D01*
X0105797Y0127098D01*
X0106863Y0126031D01*
X0107440Y0124638D01*
X0107440Y0118330D01*
X0106863Y0116937D01*
X0105797Y0115871D01*
X0106739Y0116813D02*
X0110372Y0116813D01*
X0109718Y0118411D02*
X0107440Y0118411D01*
X0107440Y0120010D02*
X0109662Y0120010D01*
X0109662Y0121484D02*
X0113649Y0121484D01*
X0113649Y0121484D01*
X0113650Y0121484D02*
X0113650Y0127872D01*
X0113257Y0127872D01*
X0112487Y0127718D01*
X0111761Y0127418D01*
X0111108Y0126981D01*
X0110552Y0126426D01*
X0110116Y0125773D01*
X0109815Y0125047D01*
X0109662Y0124277D01*
X0109662Y0121484D01*
X0109662Y0121608D02*
X0107440Y0121608D01*
X0107440Y0123207D02*
X0109662Y0123207D01*
X0109767Y0124805D02*
X0107371Y0124805D01*
X0106491Y0126404D02*
X0110538Y0126404D01*
X0113650Y0126404D02*
X0113650Y0126404D01*
X0113650Y0124805D02*
X0113650Y0124805D01*
X0113650Y0123207D02*
X0113650Y0123207D01*
X0113650Y0121608D02*
X0113650Y0121608D01*
X0113650Y0120010D02*
X0113650Y0120010D01*
X0113650Y0118411D02*
X0113650Y0118411D01*
X0113650Y0116813D02*
X0113650Y0116813D01*
X0100560Y0116813D02*
X0096739Y0116813D01*
X0096863Y0116937D02*
X0097440Y0118330D01*
X0097440Y0124638D01*
X0096863Y0126031D01*
X0095797Y0127098D01*
X0094404Y0127675D01*
X0092896Y0127675D01*
X0091502Y0127098D01*
X0090436Y0126031D01*
X0089859Y0124638D01*
X0089859Y0118330D01*
X0090436Y0116937D01*
X0091502Y0115871D01*
X0092896Y0115294D01*
X0094404Y0115294D01*
X0095797Y0115871D01*
X0096863Y0116937D01*
X0097440Y0118411D02*
X0099859Y0118411D01*
X0099859Y0120010D02*
X0097440Y0120010D01*
X0097440Y0121608D02*
X0099859Y0121608D01*
X0099859Y0123207D02*
X0097440Y0123207D01*
X0097371Y0124805D02*
X0099928Y0124805D01*
X0100809Y0126404D02*
X0096491Y0126404D01*
X0090809Y0126404D02*
X0086491Y0126404D01*
X0086863Y0126031D02*
X0085797Y0127098D01*
X0084404Y0127675D01*
X0082896Y0127675D01*
X0081502Y0127098D01*
X0080436Y0126031D01*
X0079859Y0124638D01*
X0079859Y0118330D01*
X0080436Y0116937D01*
X0081502Y0115871D01*
X0082896Y0115294D01*
X0084404Y0115294D01*
X0085797Y0115871D01*
X0086863Y0116937D01*
X0087440Y0118330D01*
X0087440Y0124638D01*
X0086863Y0126031D01*
X0087371Y0124805D02*
X0089928Y0124805D01*
X0089859Y0123207D02*
X0087440Y0123207D01*
X0087440Y0121608D02*
X0089859Y0121608D01*
X0089859Y0120010D02*
X0087440Y0120010D01*
X0087440Y0118411D02*
X0089859Y0118411D01*
X0090560Y0116813D02*
X0086739Y0116813D01*
X0080560Y0116813D02*
X0076739Y0116813D01*
X0077440Y0118411D02*
X0079859Y0118411D01*
X0079859Y0120010D02*
X0077440Y0120010D01*
X0077440Y0121608D02*
X0079859Y0121608D01*
X0079859Y0123207D02*
X0077440Y0123207D01*
X0077371Y0124805D02*
X0079928Y0124805D01*
X0080809Y0126404D02*
X0076491Y0126404D01*
X0043138Y0051274D02*
X0043138Y0051274D01*
X0022183Y0032092D02*
X0010985Y0032092D01*
X0010985Y0030493D02*
X0020584Y0030493D01*
X0018986Y0028895D02*
X0010985Y0028895D01*
X0010985Y0027296D02*
X0017387Y0027296D01*
X0015789Y0025698D02*
X0010985Y0025698D01*
X0010985Y0024099D02*
X0014884Y0024099D01*
X0014884Y0022501D02*
X0010985Y0022501D01*
D19*
X0098965Y0164831D03*
M02*
