G75*
%MOIN*%
%OFA0B0*%
%FSLAX25Y25*%
%IPPOS*%
%LPD*%
%AMOC8*
5,1,8,0,0,1.08239X$1,22.5*
%
%ADD10C,0.00000*%
%ADD11OC8,0.04800*%
%ADD12C,0.06300*%
%ADD13OC8,0.06300*%
%ADD14C,0.04724*%
%ADD15C,0.11220*%
%ADD16C,0.07400*%
%ADD17C,0.04800*%
%ADD18R,0.03543X0.03543*%
D10*
X0009201Y0009713D02*
X0009201Y0206563D01*
X0206051Y0206563D01*
X0206051Y0009713D01*
X0009201Y0009713D01*
D11*
X0021366Y0037665D03*
X0021366Y0047665D03*
X0021366Y0061484D03*
X0021366Y0071484D03*
X0028217Y0087705D03*
X0020717Y0092705D03*
X0028217Y0097705D03*
X0063413Y0136051D03*
X0073413Y0136051D03*
X0068413Y0177665D03*
X0078413Y0177665D03*
X0068531Y0193925D03*
X0108531Y0193925D03*
X0130106Y0155382D03*
X0130106Y0145382D03*
X0173531Y0078571D03*
X0173531Y0068571D03*
X0161209Y0067311D03*
X0186091Y0068098D03*
X0187980Y0078571D03*
X0197980Y0078571D03*
X0186091Y0028098D03*
X0161209Y0027311D03*
X0076957Y0034004D03*
X0076957Y0074004D03*
D12*
X0043138Y0047193D03*
X0146917Y0145106D03*
D13*
X0146917Y0155106D03*
X0043138Y0037193D03*
D14*
X0044280Y0178138D03*
X0039555Y0181287D03*
X0044280Y0184437D03*
X0039555Y0187587D03*
X0044280Y0190736D03*
D15*
X0024201Y0198807D03*
X0024201Y0170067D03*
D16*
X0015500Y0147508D03*
X0015500Y0137508D03*
X0015500Y0127508D03*
X0015500Y0117508D03*
X0015500Y0107508D03*
X0017075Y0017587D03*
X0027075Y0017587D03*
X0037075Y0017587D03*
X0047075Y0017587D03*
X0057075Y0017587D03*
X0067075Y0017587D03*
X0077075Y0017587D03*
X0087075Y0017587D03*
X0110421Y0015736D03*
X0130421Y0015736D03*
X0150028Y0015500D03*
X0170028Y0015500D03*
X0199634Y0016484D03*
X0199634Y0026484D03*
X0199634Y0036484D03*
X0199634Y0046484D03*
X0199634Y0056484D03*
X0199634Y0066484D03*
X0146248Y0069831D03*
X0136248Y0069831D03*
X0126248Y0069831D03*
X0127311Y0198689D03*
X0137311Y0198689D03*
X0147311Y0198689D03*
X0157311Y0198689D03*
X0167311Y0198689D03*
X0177311Y0198689D03*
X0187311Y0198689D03*
X0197311Y0198689D03*
D17*
X0193650Y0123884D02*
X0193650Y0119084D01*
X0183650Y0119084D02*
X0183650Y0123884D01*
X0173650Y0123884D02*
X0173650Y0119084D01*
X0163650Y0119084D02*
X0163650Y0123884D01*
X0153650Y0123884D02*
X0153650Y0119084D01*
X0143650Y0119084D02*
X0143650Y0123884D01*
X0133650Y0123884D02*
X0133650Y0119084D01*
X0123650Y0119084D02*
X0123650Y0123884D01*
X0113650Y0123884D02*
X0113650Y0119084D01*
X0103650Y0119084D02*
X0103650Y0123884D01*
X0093650Y0123884D02*
X0093650Y0119084D01*
X0083650Y0119084D02*
X0083650Y0123884D01*
X0073650Y0123884D02*
X0073650Y0119084D01*
X0063650Y0119084D02*
X0063650Y0123884D01*
X0063650Y0093884D02*
X0063650Y0089084D01*
X0073650Y0089084D02*
X0073650Y0093884D01*
X0083650Y0093884D02*
X0083650Y0089084D01*
X0093650Y0089084D02*
X0093650Y0093884D01*
X0103650Y0093884D02*
X0103650Y0089084D01*
X0113650Y0089084D02*
X0113650Y0093884D01*
X0123650Y0093884D02*
X0123650Y0089084D01*
X0133650Y0089084D02*
X0133650Y0093884D01*
X0143650Y0093884D02*
X0143650Y0089084D01*
X0153650Y0089084D02*
X0153650Y0093884D01*
X0163650Y0093884D02*
X0163650Y0089084D01*
X0173650Y0089084D02*
X0173650Y0093884D01*
X0183650Y0093884D02*
X0183650Y0089084D01*
X0193650Y0089084D02*
X0193650Y0093884D01*
D18*
X0098965Y0164831D03*
M02*
