G75*
%MOIN*%
%OFA0B0*%
%FSLAX25Y25*%
%IPPOS*%
%LPD*%
%AMOC8*
5,1,8,0,0,1.08239X$1,22.5*
%
%ADD10C,0.00000*%
%ADD11OC8,0.04800*%
%ADD12C,0.06300*%
%ADD13OC8,0.06300*%
%ADD14C,0.04724*%
%ADD15C,0.11220*%
%ADD16C,0.07400*%
%ADD17C,0.04800*%
%ADD18C,0.01600*%
%ADD19R,0.03543X0.03543*%
D10*
X0009201Y0009713D02*
X0009201Y0206563D01*
X0206051Y0206563D01*
X0206051Y0009713D01*
X0009201Y0009713D01*
D11*
X0021366Y0037665D03*
X0021366Y0047665D03*
X0021366Y0061484D03*
X0021366Y0071484D03*
X0028217Y0087705D03*
X0020717Y0092705D03*
X0028217Y0097705D03*
X0063413Y0136051D03*
X0073413Y0136051D03*
X0068413Y0177665D03*
X0078413Y0177665D03*
X0068531Y0193925D03*
X0108531Y0193925D03*
X0130106Y0155382D03*
X0130106Y0145382D03*
X0173531Y0078571D03*
X0173531Y0068571D03*
X0161209Y0067311D03*
X0186091Y0068098D03*
X0187980Y0078571D03*
X0197980Y0078571D03*
X0186091Y0028098D03*
X0161209Y0027311D03*
X0076957Y0034004D03*
X0076957Y0074004D03*
D12*
X0043138Y0047193D03*
X0146917Y0145106D03*
D13*
X0146917Y0155106D03*
X0043138Y0037193D03*
D14*
X0044280Y0178138D03*
X0039555Y0181287D03*
X0044280Y0184437D03*
X0039555Y0187587D03*
X0044280Y0190736D03*
D15*
X0024201Y0198807D03*
X0024201Y0170067D03*
D16*
X0015500Y0147508D03*
X0015500Y0137508D03*
X0015500Y0127508D03*
X0015500Y0117508D03*
X0015500Y0107508D03*
X0017075Y0017587D03*
X0027075Y0017587D03*
X0037075Y0017587D03*
X0047075Y0017587D03*
X0057075Y0017587D03*
X0067075Y0017587D03*
X0077075Y0017587D03*
X0087075Y0017587D03*
X0110421Y0015736D03*
X0130421Y0015736D03*
X0150028Y0015500D03*
X0170028Y0015500D03*
X0199634Y0016484D03*
X0199634Y0026484D03*
X0199634Y0036484D03*
X0199634Y0046484D03*
X0199634Y0056484D03*
X0199634Y0066484D03*
X0146248Y0069831D03*
X0136248Y0069831D03*
X0126248Y0069831D03*
X0127311Y0198689D03*
X0137311Y0198689D03*
X0147311Y0198689D03*
X0157311Y0198689D03*
X0167311Y0198689D03*
X0177311Y0198689D03*
X0187311Y0198689D03*
X0197311Y0198689D03*
D17*
X0193650Y0123884D02*
X0193650Y0119084D01*
X0183650Y0119084D02*
X0183650Y0123884D01*
X0173650Y0123884D02*
X0173650Y0119084D01*
X0163650Y0119084D02*
X0163650Y0123884D01*
X0153650Y0123884D02*
X0153650Y0119084D01*
X0143650Y0119084D02*
X0143650Y0123884D01*
X0133650Y0123884D02*
X0133650Y0119084D01*
X0123650Y0119084D02*
X0123650Y0123884D01*
X0113650Y0123884D02*
X0113650Y0119084D01*
X0103650Y0119084D02*
X0103650Y0123884D01*
X0093650Y0123884D02*
X0093650Y0119084D01*
X0083650Y0119084D02*
X0083650Y0123884D01*
X0073650Y0123884D02*
X0073650Y0119084D01*
X0063650Y0119084D02*
X0063650Y0123884D01*
X0063650Y0093884D02*
X0063650Y0089084D01*
X0073650Y0089084D02*
X0073650Y0093884D01*
X0083650Y0093884D02*
X0083650Y0089084D01*
X0093650Y0089084D02*
X0093650Y0093884D01*
X0103650Y0093884D02*
X0103650Y0089084D01*
X0113650Y0089084D02*
X0113650Y0093884D01*
X0123650Y0093884D02*
X0123650Y0089084D01*
X0133650Y0089084D02*
X0133650Y0093884D01*
X0143650Y0093884D02*
X0143650Y0089084D01*
X0153650Y0089084D02*
X0153650Y0093884D01*
X0163650Y0093884D02*
X0163650Y0089084D01*
X0173650Y0089084D02*
X0173650Y0093884D01*
X0183650Y0093884D02*
X0183650Y0089084D01*
X0193650Y0089084D02*
X0193650Y0093884D01*
D18*
X0196862Y0096032D02*
X0204267Y0096032D01*
X0204267Y0094434D02*
X0197440Y0094434D01*
X0197440Y0094638D02*
X0196863Y0096031D01*
X0195797Y0097098D01*
X0194404Y0097675D01*
X0192896Y0097675D01*
X0191502Y0097098D01*
X0190436Y0096031D01*
X0189859Y0094638D01*
X0189859Y0088330D01*
X0190436Y0086937D01*
X0191502Y0085871D01*
X0192896Y0085294D01*
X0194404Y0085294D01*
X0195797Y0085871D01*
X0196863Y0086937D01*
X0197440Y0088330D01*
X0197440Y0094638D01*
X0197440Y0092835D02*
X0204267Y0092835D01*
X0204267Y0091237D02*
X0197440Y0091237D01*
X0197440Y0089638D02*
X0204267Y0089638D01*
X0204267Y0088040D02*
X0197320Y0088040D01*
X0196367Y0086441D02*
X0204267Y0086441D01*
X0204267Y0084843D02*
X0175722Y0084843D01*
X0175722Y0085840D02*
X0175722Y0081741D01*
X0177322Y0080141D01*
X0177322Y0077001D01*
X0175102Y0074780D01*
X0171961Y0074780D01*
X0169741Y0077001D01*
X0169741Y0080141D01*
X0171341Y0081741D01*
X0171341Y0086032D01*
X0170436Y0086937D01*
X0169859Y0088330D01*
X0169859Y0094638D01*
X0170436Y0096031D01*
X0171502Y0097098D01*
X0172896Y0097675D01*
X0174404Y0097675D01*
X0175797Y0097098D01*
X0176863Y0096031D01*
X0177440Y0094638D01*
X0177440Y0088330D01*
X0176863Y0086937D01*
X0175797Y0085871D01*
X0175722Y0085840D01*
X0176367Y0086441D02*
X0180932Y0086441D01*
X0180436Y0086937D02*
X0181502Y0085871D01*
X0182896Y0085294D01*
X0184404Y0085294D01*
X0185797Y0085871D01*
X0186863Y0086937D01*
X0187440Y0088330D01*
X0187440Y0094638D01*
X0186863Y0096031D01*
X0185797Y0097098D01*
X0184404Y0097675D01*
X0182896Y0097675D01*
X0181502Y0097098D01*
X0180436Y0096031D01*
X0179859Y0094638D01*
X0179859Y0088330D01*
X0180436Y0086937D01*
X0179979Y0088040D02*
X0177320Y0088040D01*
X0177440Y0089638D02*
X0179859Y0089638D01*
X0179859Y0091237D02*
X0177440Y0091237D01*
X0177440Y0092835D02*
X0179859Y0092835D01*
X0179859Y0094434D02*
X0177440Y0094434D01*
X0176862Y0096032D02*
X0180437Y0096032D01*
X0182789Y0097631D02*
X0174510Y0097631D01*
X0172789Y0097631D02*
X0164510Y0097631D01*
X0164404Y0097675D02*
X0162896Y0097675D01*
X0161502Y0097098D01*
X0160436Y0096031D01*
X0159859Y0094638D01*
X0159859Y0088330D01*
X0160436Y0086937D01*
X0161341Y0086032D01*
X0161341Y0082273D01*
X0159018Y0079951D01*
X0159018Y0070481D01*
X0157418Y0068881D01*
X0157418Y0065741D01*
X0159639Y0063520D01*
X0162779Y0063520D01*
X0164999Y0065741D01*
X0164999Y0068881D01*
X0163399Y0070481D01*
X0163399Y0078136D01*
X0164439Y0079176D01*
X0165722Y0080459D01*
X0165722Y0085840D01*
X0165797Y0085871D01*
X0166863Y0086937D01*
X0167440Y0088330D01*
X0167440Y0094638D01*
X0166863Y0096031D01*
X0165797Y0097098D01*
X0164404Y0097675D01*
X0162789Y0097631D02*
X0154510Y0097631D01*
X0154404Y0097675D02*
X0155797Y0097098D01*
X0156863Y0096031D01*
X0157440Y0094638D01*
X0157440Y0088330D01*
X0156863Y0086937D01*
X0155840Y0085914D01*
X0155840Y0078243D01*
X0155891Y0077403D01*
X0155840Y0077346D01*
X0155840Y0077270D01*
X0155245Y0076675D01*
X0150936Y0071815D01*
X0151339Y0070843D01*
X0151339Y0068818D01*
X0150564Y0066947D01*
X0149132Y0065515D01*
X0147261Y0064740D01*
X0145235Y0064740D01*
X0143364Y0065515D01*
X0141932Y0066947D01*
X0141337Y0068384D01*
X0141148Y0067801D01*
X0140770Y0067059D01*
X0140281Y0066386D01*
X0139693Y0065798D01*
X0139019Y0065309D01*
X0138278Y0064931D01*
X0137486Y0064673D01*
X0136664Y0064543D01*
X0136448Y0064543D01*
X0136448Y0069631D01*
X0136048Y0069631D01*
X0136048Y0064543D01*
X0135832Y0064543D01*
X0135010Y0064673D01*
X0134218Y0064931D01*
X0133477Y0065309D01*
X0132804Y0065798D01*
X0132215Y0066386D01*
X0131726Y0067059D01*
X0131348Y0067801D01*
X0131159Y0068384D01*
X0130564Y0066947D01*
X0129132Y0065515D01*
X0127261Y0064740D01*
X0125235Y0064740D01*
X0123364Y0065515D01*
X0121932Y0066947D01*
X0121157Y0068818D01*
X0121157Y0070843D01*
X0121932Y0072714D01*
X0123364Y0074146D01*
X0124057Y0074433D01*
X0124057Y0077273D01*
X0126695Y0079911D01*
X0127978Y0081194D01*
X0137427Y0081194D01*
X0140869Y0084636D01*
X0140869Y0086505D01*
X0140436Y0086937D01*
X0139859Y0088330D01*
X0139859Y0094638D01*
X0140436Y0096031D01*
X0141502Y0097098D01*
X0142896Y0097675D01*
X0144404Y0097675D01*
X0145797Y0097098D01*
X0146863Y0096031D01*
X0147440Y0094638D01*
X0147440Y0088330D01*
X0146863Y0086937D01*
X0145797Y0085871D01*
X0145250Y0085644D01*
X0145250Y0082821D01*
X0143966Y0081538D01*
X0139242Y0076813D01*
X0129793Y0076813D01*
X0128439Y0075459D01*
X0128439Y0074433D01*
X0129132Y0074146D01*
X0130564Y0072714D01*
X0131159Y0071278D01*
X0131348Y0071860D01*
X0131726Y0072602D01*
X0132215Y0073275D01*
X0132804Y0073864D01*
X0133477Y0074353D01*
X0134218Y0074731D01*
X0135010Y0074988D01*
X0135832Y0075118D01*
X0136048Y0075118D01*
X0136048Y0070031D01*
X0136448Y0070031D01*
X0136448Y0075118D01*
X0136664Y0075118D01*
X0137486Y0074988D01*
X0138278Y0074731D01*
X0139019Y0074353D01*
X0139693Y0073864D01*
X0140281Y0073275D01*
X0140770Y0072602D01*
X0141148Y0071860D01*
X0141337Y0071278D01*
X0141932Y0072714D01*
X0143364Y0074146D01*
X0145235Y0074921D01*
X0147261Y0074921D01*
X0147680Y0074747D01*
X0151459Y0079009D01*
X0151459Y0085914D01*
X0150436Y0086937D01*
X0149859Y0088330D01*
X0149859Y0094638D01*
X0150436Y0096031D01*
X0151502Y0097098D01*
X0152896Y0097675D01*
X0154404Y0097675D01*
X0152789Y0097631D02*
X0144510Y0097631D01*
X0142789Y0097631D02*
X0135024Y0097631D01*
X0134813Y0097718D02*
X0134042Y0097872D01*
X0133650Y0097872D01*
X0133650Y0091484D01*
X0133650Y0091484D01*
X0137637Y0091484D01*
X0137637Y0088692D01*
X0137484Y0087921D01*
X0137183Y0087195D01*
X0136747Y0086542D01*
X0136191Y0085987D01*
X0135538Y0085551D01*
X0134813Y0085250D01*
X0134042Y0085097D01*
X0133650Y0085097D01*
X0133650Y0091484D01*
X0133650Y0091484D01*
X0137637Y0091484D01*
X0137637Y0094277D01*
X0137484Y0095047D01*
X0137183Y0095773D01*
X0136747Y0096426D01*
X0136191Y0096981D01*
X0135538Y0097418D01*
X0134813Y0097718D01*
X0133650Y0097631D02*
X0133650Y0097631D01*
X0133650Y0097872D02*
X0133257Y0097872D01*
X0132487Y0097718D01*
X0131761Y0097418D01*
X0131108Y0096981D01*
X0130552Y0096426D01*
X0130116Y0095773D01*
X0129815Y0095047D01*
X0129662Y0094277D01*
X0129662Y0091484D01*
X0129662Y0088692D01*
X0129815Y0087921D01*
X0130116Y0087195D01*
X0130552Y0086542D01*
X0131108Y0085987D01*
X0131761Y0085551D01*
X0132487Y0085250D01*
X0133257Y0085097D01*
X0133650Y0085097D01*
X0133650Y0091484D01*
X0133650Y0091484D01*
X0133649Y0091484D02*
X0129662Y0091484D01*
X0133649Y0091484D01*
X0133649Y0091484D01*
X0133650Y0091484D02*
X0133650Y0097872D01*
X0132275Y0097631D02*
X0124510Y0097631D01*
X0124404Y0097675D02*
X0125797Y0097098D01*
X0126863Y0096031D01*
X0127440Y0094638D01*
X0127440Y0088330D01*
X0126863Y0086937D01*
X0125797Y0085871D01*
X0124404Y0085294D01*
X0122896Y0085294D01*
X0121502Y0085871D01*
X0120436Y0086937D01*
X0119859Y0088330D01*
X0119859Y0094638D01*
X0120436Y0096031D01*
X0121502Y0097098D01*
X0122896Y0097675D01*
X0124404Y0097675D01*
X0122789Y0097631D02*
X0114510Y0097631D01*
X0114404Y0097675D02*
X0112896Y0097675D01*
X0111502Y0097098D01*
X0110436Y0096031D01*
X0109859Y0094638D01*
X0109859Y0088330D01*
X0110436Y0086937D01*
X0111502Y0085871D01*
X0112896Y0085294D01*
X0114404Y0085294D01*
X0115797Y0085871D01*
X0116863Y0086937D01*
X0117440Y0088330D01*
X0117440Y0094638D01*
X0116863Y0096031D01*
X0115797Y0097098D01*
X0114404Y0097675D01*
X0112789Y0097631D02*
X0104510Y0097631D01*
X0104404Y0097675D02*
X0102896Y0097675D01*
X0101502Y0097098D01*
X0100436Y0096031D01*
X0099859Y0094638D01*
X0099859Y0088330D01*
X0100436Y0086937D01*
X0101459Y0085914D01*
X0101459Y0070262D01*
X0116459Y0055262D01*
X0117742Y0053979D01*
X0195162Y0053979D01*
X0195318Y0053601D01*
X0196750Y0052169D01*
X0198403Y0051484D01*
X0196750Y0050800D01*
X0195318Y0049368D01*
X0195129Y0048911D01*
X0116407Y0048911D01*
X0095840Y0069478D01*
X0095840Y0085914D01*
X0096863Y0086937D01*
X0097440Y0088330D01*
X0097440Y0094638D01*
X0096863Y0096031D01*
X0095797Y0097098D01*
X0094404Y0097675D01*
X0092896Y0097675D01*
X0091502Y0097098D01*
X0090436Y0096031D01*
X0089859Y0094638D01*
X0089859Y0088330D01*
X0090436Y0086937D01*
X0091459Y0085914D01*
X0091459Y0067664D01*
X0113309Y0045813D01*
X0114593Y0044530D01*
X0194933Y0044530D01*
X0195318Y0043601D01*
X0196750Y0042169D01*
X0198187Y0041574D01*
X0197604Y0041384D01*
X0196863Y0041006D01*
X0196189Y0040517D01*
X0195601Y0039929D01*
X0195112Y0039255D01*
X0194734Y0038514D01*
X0194477Y0037722D01*
X0194346Y0036900D01*
X0194346Y0036684D01*
X0199434Y0036684D01*
X0199434Y0036284D01*
X0194346Y0036284D01*
X0194346Y0036068D01*
X0194477Y0035246D01*
X0194734Y0034455D01*
X0195112Y0033713D01*
X0195601Y0033040D01*
X0196189Y0032451D01*
X0196863Y0031962D01*
X0197604Y0031584D01*
X0198187Y0031395D01*
X0196750Y0030800D01*
X0195318Y0029368D01*
X0194543Y0027497D01*
X0194543Y0025472D01*
X0195318Y0023601D01*
X0196750Y0022169D01*
X0198403Y0021484D01*
X0196750Y0020800D01*
X0195318Y0019368D01*
X0194624Y0017691D01*
X0174630Y0017691D01*
X0174343Y0018384D01*
X0172911Y0019816D01*
X0171040Y0020591D01*
X0169015Y0020591D01*
X0168322Y0020303D01*
X0167273Y0021352D01*
X0160502Y0021352D01*
X0143179Y0038675D01*
X0111683Y0038675D01*
X0079336Y0071022D01*
X0080747Y0072434D01*
X0080747Y0075574D01*
X0078527Y0077794D01*
X0075387Y0077794D01*
X0074850Y0077257D01*
X0071525Y0077257D01*
X0065840Y0082943D01*
X0065840Y0085914D01*
X0066863Y0086937D01*
X0067440Y0088330D01*
X0067440Y0094638D01*
X0066863Y0096031D01*
X0065797Y0097098D01*
X0064404Y0097675D01*
X0062896Y0097675D01*
X0061502Y0097098D01*
X0060436Y0096031D01*
X0059859Y0094638D01*
X0059859Y0088330D01*
X0060436Y0086937D01*
X0061459Y0085914D01*
X0061459Y0081128D01*
X0068428Y0074160D01*
X0069711Y0072876D01*
X0073166Y0072876D01*
X0073166Y0072434D01*
X0074766Y0070834D01*
X0074766Y0069396D01*
X0108585Y0035577D01*
X0109868Y0034294D01*
X0141364Y0034294D01*
X0157404Y0018254D01*
X0158687Y0016971D01*
X0165127Y0016971D01*
X0164937Y0016513D01*
X0164937Y0014487D01*
X0165712Y0012616D01*
X0166832Y0011497D01*
X0153502Y0011497D01*
X0154061Y0012055D01*
X0154550Y0012729D01*
X0154928Y0013470D01*
X0155185Y0014262D01*
X0155315Y0015084D01*
X0155315Y0015300D01*
X0150228Y0015300D01*
X0150228Y0015700D01*
X0155315Y0015700D01*
X0155315Y0015916D01*
X0155185Y0016738D01*
X0154928Y0017530D01*
X0154550Y0018271D01*
X0154061Y0018945D01*
X0153472Y0019533D01*
X0152799Y0020022D01*
X0152057Y0020400D01*
X0151266Y0020657D01*
X0150444Y0020787D01*
X0150228Y0020787D01*
X0150228Y0015700D01*
X0149828Y0015700D01*
X0149828Y0020787D01*
X0149611Y0020787D01*
X0148789Y0020657D01*
X0147998Y0020400D01*
X0147256Y0020022D01*
X0146583Y0019533D01*
X0145995Y0018945D01*
X0145505Y0018271D01*
X0145128Y0017530D01*
X0144870Y0016738D01*
X0144740Y0015916D01*
X0144740Y0015700D01*
X0149827Y0015700D01*
X0149827Y0015300D01*
X0144740Y0015300D01*
X0144740Y0015084D01*
X0144870Y0014262D01*
X0145128Y0013470D01*
X0145505Y0012729D01*
X0145995Y0012055D01*
X0146553Y0011497D01*
X0133582Y0011497D01*
X0133866Y0011703D01*
X0134454Y0012292D01*
X0134943Y0012965D01*
X0135321Y0013707D01*
X0135578Y0014498D01*
X0135709Y0015320D01*
X0135709Y0015536D01*
X0130621Y0015536D01*
X0130621Y0015936D01*
X0130221Y0015936D01*
X0130221Y0015536D01*
X0125134Y0015536D01*
X0125134Y0015320D01*
X0125264Y0014498D01*
X0125521Y0013707D01*
X0125899Y0012965D01*
X0126388Y0012292D01*
X0126977Y0011703D01*
X0127261Y0011497D01*
X0113381Y0011497D01*
X0114737Y0012853D01*
X0115512Y0014724D01*
X0115512Y0016749D01*
X0114737Y0018620D01*
X0113305Y0020052D01*
X0111434Y0020827D01*
X0109409Y0020827D01*
X0108716Y0020540D01*
X0100029Y0029226D01*
X0062624Y0029226D01*
X0061341Y0027943D01*
X0056075Y0022677D01*
X0056062Y0022677D01*
X0054191Y0021902D01*
X0052759Y0020470D01*
X0052075Y0018818D01*
X0051390Y0020470D01*
X0049958Y0021902D01*
X0048087Y0022677D01*
X0046062Y0022677D01*
X0044191Y0021902D01*
X0042759Y0020470D01*
X0042075Y0018818D01*
X0041390Y0020470D01*
X0039958Y0021902D01*
X0038087Y0022677D01*
X0036062Y0022677D01*
X0034191Y0021902D01*
X0032759Y0020470D01*
X0032075Y0018818D01*
X0031390Y0020470D01*
X0029958Y0021902D01*
X0028087Y0022677D01*
X0026062Y0022677D01*
X0024191Y0021902D01*
X0022759Y0020470D01*
X0022075Y0018818D01*
X0021390Y0020470D01*
X0019958Y0021902D01*
X0018087Y0022677D01*
X0016062Y0022677D01*
X0014191Y0021902D01*
X0012759Y0020470D01*
X0011984Y0018599D01*
X0011984Y0016574D01*
X0012759Y0014703D01*
X0014191Y0013271D01*
X0016062Y0012496D01*
X0018087Y0012496D01*
X0019958Y0013271D01*
X0021390Y0014703D01*
X0022075Y0016355D01*
X0022759Y0014703D01*
X0024191Y0013271D01*
X0026062Y0012496D01*
X0028087Y0012496D01*
X0029958Y0013271D01*
X0031390Y0014703D01*
X0032075Y0016355D01*
X0032759Y0014703D01*
X0034191Y0013271D01*
X0036062Y0012496D01*
X0038087Y0012496D01*
X0039958Y0013271D01*
X0041390Y0014703D01*
X0042075Y0016355D01*
X0042759Y0014703D01*
X0044191Y0013271D01*
X0046062Y0012496D01*
X0048087Y0012496D01*
X0049958Y0013271D01*
X0051390Y0014703D01*
X0052075Y0016355D01*
X0052759Y0014703D01*
X0054191Y0013271D01*
X0056062Y0012496D01*
X0058087Y0012496D01*
X0059958Y0013271D01*
X0061390Y0014703D01*
X0062075Y0016355D01*
X0062759Y0014703D01*
X0064191Y0013271D01*
X0066062Y0012496D01*
X0068087Y0012496D01*
X0069958Y0013271D01*
X0071390Y0014703D01*
X0072075Y0016355D01*
X0072759Y0014703D01*
X0074191Y0013271D01*
X0076062Y0012496D01*
X0078087Y0012496D01*
X0079958Y0013271D01*
X0081390Y0014703D01*
X0081985Y0016140D01*
X0082175Y0015557D01*
X0082553Y0014815D01*
X0083042Y0014142D01*
X0083630Y0013554D01*
X0084304Y0013064D01*
X0085045Y0012687D01*
X0085837Y0012429D01*
X0086659Y0012299D01*
X0086875Y0012299D01*
X0086875Y0017387D01*
X0087275Y0017387D01*
X0087275Y0017787D01*
X0086875Y0017787D01*
X0086875Y0022874D01*
X0086659Y0022874D01*
X0085837Y0022744D01*
X0085045Y0022487D01*
X0084304Y0022109D01*
X0083630Y0021620D01*
X0083042Y0021031D01*
X0082553Y0020358D01*
X0082175Y0019616D01*
X0081985Y0019034D01*
X0081390Y0020470D01*
X0079958Y0021902D01*
X0078087Y0022677D01*
X0076062Y0022677D01*
X0074191Y0021902D01*
X0072759Y0020470D01*
X0072075Y0018818D01*
X0071390Y0020470D01*
X0069958Y0021902D01*
X0068087Y0022677D01*
X0066062Y0022677D01*
X0064191Y0021902D01*
X0062759Y0020470D01*
X0062075Y0018818D01*
X0061390Y0020470D01*
X0060727Y0021133D01*
X0064439Y0024845D01*
X0098215Y0024845D01*
X0105618Y0017442D01*
X0105331Y0016749D01*
X0105331Y0014724D01*
X0106106Y0012853D01*
X0107462Y0011497D01*
X0010985Y0011497D01*
X0010985Y0105106D01*
X0011184Y0104624D01*
X0012616Y0103192D01*
X0014487Y0102417D01*
X0016513Y0102417D01*
X0018384Y0103192D01*
X0019816Y0104624D01*
X0020591Y0106495D01*
X0020591Y0108520D01*
X0019816Y0110391D01*
X0018384Y0111823D01*
X0016731Y0112508D01*
X0017818Y0112958D01*
X0021971Y0108805D01*
X0021971Y0104321D01*
X0020104Y0102454D01*
X0018821Y0101171D01*
X0018821Y0096170D01*
X0016926Y0094275D01*
X0016926Y0091135D01*
X0018526Y0089535D01*
X0018526Y0074005D01*
X0017576Y0073054D01*
X0017576Y0069914D01*
X0019796Y0067694D01*
X0022936Y0067694D01*
X0025157Y0069914D01*
X0025157Y0073054D01*
X0022936Y0075275D01*
X0022907Y0075275D01*
X0022907Y0089535D01*
X0024507Y0091135D01*
X0024507Y0094275D01*
X0023202Y0095580D01*
X0023202Y0099356D01*
X0026352Y0102506D01*
X0026352Y0103585D01*
X0189636Y0103585D01*
X0190919Y0104868D01*
X0195840Y0109789D01*
X0195840Y0115914D01*
X0196863Y0116937D01*
X0197440Y0118330D01*
X0197440Y0124638D01*
X0196863Y0126031D01*
X0195840Y0127054D01*
X0195840Y0178927D01*
X0189344Y0185423D01*
X0189344Y0194021D01*
X0190195Y0194373D01*
X0191627Y0195805D01*
X0192222Y0197242D01*
X0192411Y0196659D01*
X0192789Y0195918D01*
X0193278Y0195244D01*
X0193867Y0194656D01*
X0194540Y0194167D01*
X0195281Y0193789D01*
X0196073Y0193532D01*
X0196895Y0193402D01*
X0197111Y0193402D01*
X0197111Y0198489D01*
X0197511Y0198489D01*
X0197511Y0198889D01*
X0197111Y0198889D01*
X0197111Y0203976D01*
X0196895Y0203976D01*
X0196073Y0203846D01*
X0195281Y0203589D01*
X0194540Y0203211D01*
X0193867Y0202722D01*
X0193278Y0202133D01*
X0192789Y0201460D01*
X0192411Y0200719D01*
X0192222Y0200136D01*
X0191627Y0201573D01*
X0190195Y0203005D01*
X0188324Y0203780D01*
X0186298Y0203780D01*
X0184427Y0203005D01*
X0182995Y0201573D01*
X0182311Y0199920D01*
X0181627Y0201573D01*
X0180195Y0203005D01*
X0178324Y0203780D01*
X0176298Y0203780D01*
X0174427Y0203005D01*
X0172995Y0201573D01*
X0172311Y0199920D01*
X0171627Y0201573D01*
X0170195Y0203005D01*
X0168324Y0203780D01*
X0166298Y0203780D01*
X0164427Y0203005D01*
X0162995Y0201573D01*
X0162311Y0199920D01*
X0161627Y0201573D01*
X0160195Y0203005D01*
X0158324Y0203780D01*
X0156298Y0203780D01*
X0154427Y0203005D01*
X0152995Y0201573D01*
X0152311Y0199920D01*
X0151627Y0201573D01*
X0150195Y0203005D01*
X0148324Y0203780D01*
X0146298Y0203780D01*
X0144427Y0203005D01*
X0142995Y0201573D01*
X0142311Y0199920D01*
X0141627Y0201573D01*
X0140195Y0203005D01*
X0138324Y0203780D01*
X0136298Y0203780D01*
X0134427Y0203005D01*
X0132995Y0201573D01*
X0132311Y0199920D01*
X0131627Y0201573D01*
X0130195Y0203005D01*
X0128324Y0203780D01*
X0126298Y0203780D01*
X0124427Y0203005D01*
X0122995Y0201573D01*
X0122220Y0199702D01*
X0122220Y0197676D01*
X0122995Y0195805D01*
X0124427Y0194373D01*
X0125120Y0194086D01*
X0125120Y0188573D01*
X0103073Y0166525D01*
X0103073Y0150777D01*
X0081459Y0129163D01*
X0081459Y0127054D01*
X0080436Y0126031D01*
X0079859Y0124638D01*
X0079859Y0118330D01*
X0080436Y0116937D01*
X0081502Y0115871D01*
X0082896Y0115294D01*
X0084404Y0115294D01*
X0085797Y0115871D01*
X0086863Y0116937D01*
X0087440Y0118330D01*
X0087440Y0124638D01*
X0086863Y0126031D01*
X0085840Y0127054D01*
X0085840Y0127349D01*
X0106171Y0147680D01*
X0107454Y0148963D01*
X0107454Y0164711D01*
X0128218Y0185475D01*
X0129502Y0186758D01*
X0129502Y0194086D01*
X0130195Y0194373D01*
X0131627Y0195805D01*
X0132311Y0197458D01*
X0132995Y0195805D01*
X0134427Y0194373D01*
X0135357Y0193989D01*
X0135357Y0182273D01*
X0133490Y0180407D01*
X0130341Y0180407D01*
X0129057Y0179124D01*
X0111735Y0161801D01*
X0111735Y0149203D01*
X0091459Y0128927D01*
X0091459Y0127054D01*
X0090436Y0126031D01*
X0089859Y0124638D01*
X0089859Y0118330D01*
X0090436Y0116937D01*
X0091502Y0115871D01*
X0092896Y0115294D01*
X0094404Y0115294D01*
X0095797Y0115871D01*
X0096863Y0116937D01*
X0097440Y0118330D01*
X0097440Y0124638D01*
X0096863Y0126031D01*
X0095840Y0127054D01*
X0095840Y0127112D01*
X0114833Y0146105D01*
X0116116Y0147388D01*
X0116116Y0159986D01*
X0132155Y0176026D01*
X0135305Y0176026D01*
X0138455Y0179176D01*
X0139738Y0180459D01*
X0139738Y0194184D01*
X0140195Y0194373D01*
X0141627Y0195805D01*
X0142311Y0197458D01*
X0142995Y0195805D01*
X0144427Y0194373D01*
X0145593Y0193891D01*
X0145593Y0175974D01*
X0142152Y0172533D01*
X0132703Y0172533D01*
X0131420Y0171250D01*
X0118821Y0158651D01*
X0118821Y0146053D01*
X0101459Y0128691D01*
X0101459Y0127054D01*
X0100436Y0126031D01*
X0099859Y0124638D01*
X0099859Y0118330D01*
X0100436Y0116937D01*
X0101502Y0115871D01*
X0102896Y0115294D01*
X0104404Y0115294D01*
X0105797Y0115871D01*
X0106863Y0116937D01*
X0107440Y0118330D01*
X0107440Y0124638D01*
X0106863Y0126031D01*
X0105929Y0126965D01*
X0121919Y0142955D01*
X0123202Y0144238D01*
X0123202Y0156837D01*
X0134518Y0168152D01*
X0143966Y0168152D01*
X0148691Y0172876D01*
X0149974Y0174160D01*
X0149974Y0194282D01*
X0150195Y0194373D01*
X0151627Y0195805D01*
X0152311Y0197458D01*
X0152995Y0195805D01*
X0154427Y0194373D01*
X0155120Y0194086D01*
X0155120Y0156758D01*
X0161341Y0150538D01*
X0161341Y0126936D01*
X0160436Y0126031D01*
X0159859Y0124638D01*
X0159859Y0118330D01*
X0160436Y0116937D01*
X0161502Y0115871D01*
X0162896Y0115294D01*
X0164404Y0115294D01*
X0165797Y0115871D01*
X0166863Y0116937D01*
X0167440Y0118330D01*
X0167440Y0124638D01*
X0166863Y0126031D01*
X0165797Y0127098D01*
X0165722Y0127129D01*
X0165722Y0152352D01*
X0164439Y0153635D01*
X0159502Y0158573D01*
X0159502Y0194086D01*
X0160195Y0194373D01*
X0161627Y0195805D01*
X0162311Y0197458D01*
X0162995Y0195805D01*
X0164427Y0194373D01*
X0165278Y0194021D01*
X0165278Y0163923D01*
X0166561Y0162640D01*
X0171459Y0157742D01*
X0171459Y0127054D01*
X0170436Y0126031D01*
X0169859Y0124638D01*
X0169859Y0118330D01*
X0170436Y0116937D01*
X0171502Y0115871D01*
X0172896Y0115294D01*
X0174404Y0115294D01*
X0175797Y0115871D01*
X0176863Y0116937D01*
X0177440Y0118330D01*
X0177440Y0124638D01*
X0176863Y0126031D01*
X0175840Y0127054D01*
X0175840Y0159557D01*
X0169659Y0165738D01*
X0169659Y0194152D01*
X0170195Y0194373D01*
X0171627Y0195805D01*
X0172311Y0197458D01*
X0172995Y0195805D01*
X0174427Y0194373D01*
X0175514Y0193923D01*
X0175514Y0172585D01*
X0181459Y0166640D01*
X0181459Y0127054D01*
X0180436Y0126031D01*
X0179859Y0124638D01*
X0179859Y0118330D01*
X0180436Y0116937D01*
X0181502Y0115871D01*
X0182896Y0115294D01*
X0184404Y0115294D01*
X0185797Y0115871D01*
X0186863Y0116937D01*
X0187440Y0118330D01*
X0187440Y0124638D01*
X0186863Y0126031D01*
X0185840Y0127054D01*
X0185840Y0168455D01*
X0179895Y0174399D01*
X0179895Y0194249D01*
X0180195Y0194373D01*
X0181627Y0195805D01*
X0182311Y0197458D01*
X0182995Y0195805D01*
X0184427Y0194373D01*
X0184963Y0194152D01*
X0184963Y0183608D01*
X0186246Y0182325D01*
X0191459Y0177112D01*
X0191459Y0127054D01*
X0190436Y0126031D01*
X0189859Y0124638D01*
X0189859Y0118330D01*
X0190436Y0116937D01*
X0191459Y0115914D01*
X0191459Y0111604D01*
X0187821Y0107966D01*
X0026644Y0107966D01*
X0026352Y0108258D01*
X0026352Y0110620D01*
X0025069Y0111903D01*
X0020557Y0116415D01*
X0020591Y0116495D01*
X0020591Y0118520D01*
X0019816Y0120391D01*
X0018384Y0121823D01*
X0016731Y0122508D01*
X0018384Y0123192D01*
X0019816Y0124624D01*
X0020591Y0126495D01*
X0020591Y0128520D01*
X0019816Y0130391D01*
X0018384Y0131823D01*
X0017691Y0132110D01*
X0017691Y0132905D01*
X0018384Y0133192D01*
X0019816Y0134624D01*
X0020331Y0135869D01*
X0024281Y0135869D01*
X0035801Y0147388D01*
X0035801Y0193845D01*
X0036092Y0194136D01*
X0039789Y0194136D01*
X0041088Y0192838D01*
X0040527Y0191483D01*
X0040527Y0191246D01*
X0040302Y0191339D01*
X0038809Y0191339D01*
X0037429Y0190768D01*
X0036374Y0189712D01*
X0035802Y0188333D01*
X0035802Y0186840D01*
X0036374Y0185461D01*
X0037398Y0184437D01*
X0036374Y0183413D01*
X0035802Y0182034D01*
X0035802Y0180541D01*
X0036374Y0179162D01*
X0037429Y0178106D01*
X0038809Y0177535D01*
X0040302Y0177535D01*
X0040367Y0177562D01*
X0040482Y0176986D01*
X0040779Y0176267D01*
X0041212Y0175620D01*
X0041762Y0175070D01*
X0042409Y0174638D01*
X0043127Y0174340D01*
X0043891Y0174188D01*
X0044279Y0174188D01*
X0044279Y0178138D01*
X0044280Y0178138D01*
X0048229Y0178138D01*
X0048229Y0178527D01*
X0048077Y0179290D01*
X0047780Y0180009D01*
X0047347Y0180656D01*
X0046797Y0181206D01*
X0046532Y0181383D01*
X0047461Y0182311D01*
X0047467Y0182325D01*
X0050813Y0182325D01*
X0056617Y0176522D01*
X0056617Y0167073D01*
X0057900Y0165790D01*
X0061049Y0162640D01*
X0095802Y0162640D01*
X0095802Y0162483D01*
X0096617Y0161669D01*
X0101312Y0161669D01*
X0102127Y0162483D01*
X0102127Y0167178D01*
X0101312Y0167993D01*
X0096617Y0167993D01*
X0095802Y0167178D01*
X0095802Y0167021D01*
X0062864Y0167021D01*
X0060998Y0168888D01*
X0060998Y0178336D01*
X0053911Y0185423D01*
X0052628Y0186706D01*
X0047317Y0186706D01*
X0046437Y0187587D01*
X0047461Y0188610D01*
X0048032Y0189990D01*
X0048032Y0191483D01*
X0047461Y0192862D01*
X0046405Y0193918D01*
X0046061Y0194060D01*
X0042887Y0197234D01*
X0041604Y0198517D01*
X0034278Y0198517D01*
X0032703Y0196943D01*
X0031420Y0195659D01*
X0031420Y0149203D01*
X0022467Y0140250D01*
X0019874Y0140250D01*
X0019816Y0140391D01*
X0018384Y0141823D01*
X0016731Y0142508D01*
X0018384Y0143192D01*
X0019816Y0144624D01*
X0020591Y0146495D01*
X0020591Y0148520D01*
X0019816Y0150391D01*
X0018384Y0151823D01*
X0016513Y0152598D01*
X0014487Y0152598D01*
X0012616Y0151823D01*
X0011184Y0150391D01*
X0010985Y0149910D01*
X0010985Y0204779D01*
X0020324Y0204779D01*
X0020235Y0204742D01*
X0018266Y0202773D01*
X0017200Y0200200D01*
X0017200Y0197415D01*
X0018266Y0194841D01*
X0020235Y0192872D01*
X0022808Y0191806D01*
X0025593Y0191806D01*
X0028166Y0192872D01*
X0030136Y0194841D01*
X0031202Y0197415D01*
X0031202Y0200200D01*
X0030136Y0202773D01*
X0028166Y0204742D01*
X0028078Y0204779D01*
X0204267Y0204779D01*
X0204267Y0068601D01*
X0203949Y0069368D01*
X0202517Y0070800D01*
X0200646Y0071575D01*
X0198621Y0071575D01*
X0196750Y0070800D01*
X0195318Y0069368D01*
X0194543Y0067497D01*
X0194543Y0065472D01*
X0195318Y0063601D01*
X0196750Y0062169D01*
X0198403Y0061484D01*
X0196750Y0060800D01*
X0195318Y0059368D01*
X0194901Y0058360D01*
X0119557Y0058360D01*
X0105840Y0072077D01*
X0105840Y0085914D01*
X0106863Y0086937D01*
X0107440Y0088330D01*
X0107440Y0094638D01*
X0106863Y0096031D01*
X0105797Y0097098D01*
X0104404Y0097675D01*
X0102789Y0097631D02*
X0094510Y0097631D01*
X0092789Y0097631D02*
X0084510Y0097631D01*
X0084404Y0097675D02*
X0082896Y0097675D01*
X0081502Y0097098D01*
X0080436Y0096031D01*
X0079859Y0094638D01*
X0079859Y0088330D01*
X0080436Y0086937D01*
X0081502Y0085871D01*
X0082896Y0085294D01*
X0084404Y0085294D01*
X0085797Y0085871D01*
X0086863Y0086937D01*
X0087440Y0088330D01*
X0087440Y0094638D01*
X0086863Y0096031D01*
X0085797Y0097098D01*
X0084404Y0097675D01*
X0082789Y0097631D02*
X0074510Y0097631D01*
X0074404Y0097675D02*
X0072896Y0097675D01*
X0071502Y0097098D01*
X0070436Y0096031D01*
X0069859Y0094638D01*
X0069859Y0088330D01*
X0070436Y0086937D01*
X0071502Y0085871D01*
X0072896Y0085294D01*
X0074404Y0085294D01*
X0075797Y0085871D01*
X0076863Y0086937D01*
X0077440Y0088330D01*
X0077440Y0094638D01*
X0076863Y0096031D01*
X0075797Y0097098D01*
X0074404Y0097675D01*
X0072789Y0097631D02*
X0064510Y0097631D01*
X0062789Y0097631D02*
X0032007Y0097631D01*
X0032007Y0096135D02*
X0029787Y0093914D01*
X0026646Y0093914D01*
X0024426Y0096135D01*
X0024426Y0099275D01*
X0026646Y0101495D01*
X0029787Y0101495D01*
X0032007Y0099275D01*
X0032007Y0096135D01*
X0031905Y0096032D02*
X0060437Y0096032D01*
X0059859Y0094434D02*
X0030306Y0094434D01*
X0029868Y0091692D02*
X0028217Y0091692D01*
X0028217Y0087705D01*
X0032204Y0087705D01*
X0032204Y0089356D01*
X0029868Y0091692D01*
X0030324Y0091237D02*
X0059859Y0091237D01*
X0059859Y0092835D02*
X0024507Y0092835D01*
X0024507Y0091237D02*
X0026109Y0091237D01*
X0026565Y0091692D02*
X0024229Y0089356D01*
X0024229Y0087705D01*
X0028216Y0087705D01*
X0028216Y0087705D01*
X0028216Y0091692D01*
X0026565Y0091692D01*
X0028216Y0091237D02*
X0028217Y0091237D01*
X0028216Y0089638D02*
X0028217Y0089638D01*
X0028216Y0088040D02*
X0028217Y0088040D01*
X0028217Y0087705D02*
X0028216Y0087705D01*
X0024229Y0087705D01*
X0024229Y0086053D01*
X0026565Y0083717D01*
X0028216Y0083717D01*
X0028216Y0087705D01*
X0028217Y0087705D01*
X0028217Y0087705D01*
X0032204Y0087705D01*
X0032204Y0086053D01*
X0029868Y0083717D01*
X0028217Y0083717D01*
X0028217Y0087705D01*
X0028216Y0086441D02*
X0028217Y0086441D01*
X0028216Y0084843D02*
X0028217Y0084843D01*
X0030993Y0084843D02*
X0061459Y0084843D01*
X0061459Y0083244D02*
X0022907Y0083244D01*
X0022907Y0081646D02*
X0061459Y0081646D01*
X0062540Y0080047D02*
X0022907Y0080047D01*
X0022907Y0078449D02*
X0064139Y0078449D01*
X0065737Y0076850D02*
X0022907Y0076850D01*
X0022959Y0075252D02*
X0067336Y0075252D01*
X0068934Y0073653D02*
X0024558Y0073653D01*
X0025157Y0072055D02*
X0073545Y0072055D01*
X0074766Y0070456D02*
X0025157Y0070456D01*
X0024100Y0068858D02*
X0075304Y0068858D01*
X0076957Y0070303D02*
X0110776Y0036484D01*
X0142272Y0036484D01*
X0159594Y0019161D01*
X0166366Y0019161D01*
X0170028Y0015500D01*
X0198650Y0015500D01*
X0199634Y0016484D01*
X0196997Y0020902D02*
X0167723Y0020902D01*
X0163357Y0024099D02*
X0195112Y0024099D01*
X0194543Y0025698D02*
X0189329Y0025698D01*
X0190078Y0026447D02*
X0190078Y0028098D01*
X0186091Y0028098D01*
X0186091Y0028098D01*
X0186091Y0024111D01*
X0187742Y0024111D01*
X0190078Y0026447D01*
X0190078Y0027296D02*
X0194543Y0027296D01*
X0195122Y0028895D02*
X0190078Y0028895D01*
X0190078Y0028098D02*
X0190078Y0029750D01*
X0187742Y0032086D01*
X0186091Y0032086D01*
X0186091Y0028099D01*
X0186090Y0028099D01*
X0186090Y0032086D01*
X0184439Y0032086D01*
X0182103Y0029750D01*
X0182103Y0028098D01*
X0182103Y0026447D01*
X0184439Y0024111D01*
X0186090Y0024111D01*
X0186090Y0028098D01*
X0182103Y0028098D01*
X0186090Y0028098D01*
X0186090Y0028098D01*
X0186091Y0028098D01*
X0190078Y0028098D01*
X0189335Y0030493D02*
X0196444Y0030493D01*
X0196684Y0032092D02*
X0149762Y0032092D01*
X0148164Y0033690D02*
X0195128Y0033690D01*
X0194470Y0035289D02*
X0146565Y0035289D01*
X0144966Y0036887D02*
X0194346Y0036887D01*
X0194725Y0038486D02*
X0143368Y0038486D01*
X0141968Y0033690D02*
X0080747Y0033690D01*
X0080747Y0032434D02*
X0078527Y0030213D01*
X0075387Y0030213D01*
X0073166Y0032434D01*
X0073166Y0035574D01*
X0075387Y0037794D01*
X0078527Y0037794D01*
X0080747Y0035574D01*
X0080747Y0032434D01*
X0080405Y0032092D02*
X0143566Y0032092D01*
X0145165Y0030493D02*
X0078807Y0030493D01*
X0075107Y0030493D02*
X0010985Y0030493D01*
X0010985Y0028895D02*
X0062293Y0028895D01*
X0063531Y0027035D02*
X0099122Y0027035D01*
X0110421Y0015736D01*
X0115116Y0017705D02*
X0125502Y0017705D01*
X0125521Y0017766D02*
X0125264Y0016974D01*
X0125134Y0016152D01*
X0125134Y0015936D01*
X0130221Y0015936D01*
X0130221Y0021024D01*
X0130005Y0021024D01*
X0129183Y0020893D01*
X0128392Y0020636D01*
X0127650Y0020258D01*
X0126977Y0019769D01*
X0126388Y0019181D01*
X0125899Y0018507D01*
X0125521Y0017766D01*
X0125134Y0016107D02*
X0115512Y0016107D01*
X0115423Y0014508D02*
X0125262Y0014508D01*
X0125939Y0012910D02*
X0114760Y0012910D01*
X0114053Y0019304D02*
X0126511Y0019304D01*
X0129238Y0020902D02*
X0108353Y0020902D01*
X0106755Y0022501D02*
X0153157Y0022501D01*
X0151559Y0024099D02*
X0105156Y0024099D01*
X0103558Y0025698D02*
X0149960Y0025698D01*
X0148362Y0027296D02*
X0101959Y0027296D01*
X0100361Y0028895D02*
X0146763Y0028895D01*
X0151361Y0030493D02*
X0159030Y0030493D01*
X0159639Y0031102D02*
X0157418Y0028881D01*
X0157418Y0025741D01*
X0159639Y0023520D01*
X0162779Y0023520D01*
X0164999Y0025741D01*
X0164999Y0028881D01*
X0162779Y0031102D01*
X0159639Y0031102D01*
X0157432Y0028895D02*
X0152959Y0028895D01*
X0154558Y0027296D02*
X0157418Y0027296D01*
X0157461Y0025698D02*
X0156156Y0025698D01*
X0157755Y0024099D02*
X0159060Y0024099D01*
X0159353Y0022501D02*
X0196418Y0022501D01*
X0195292Y0019304D02*
X0173423Y0019304D01*
X0174624Y0017705D02*
X0194630Y0017705D01*
X0186090Y0025698D02*
X0186091Y0025698D01*
X0186090Y0027296D02*
X0186091Y0027296D01*
X0186090Y0028895D02*
X0186091Y0028895D01*
X0186090Y0030493D02*
X0186091Y0030493D01*
X0182846Y0030493D02*
X0163387Y0030493D01*
X0164986Y0028895D02*
X0182103Y0028895D01*
X0182103Y0027296D02*
X0164999Y0027296D01*
X0164956Y0025698D02*
X0182852Y0025698D01*
X0195756Y0040084D02*
X0110273Y0040084D01*
X0108675Y0041683D02*
X0197923Y0041683D01*
X0195638Y0043281D02*
X0107076Y0043281D01*
X0105478Y0044880D02*
X0114243Y0044880D01*
X0115500Y0046720D02*
X0199398Y0046720D01*
X0199634Y0046484D01*
X0195626Y0049675D02*
X0115643Y0049675D01*
X0114044Y0051274D02*
X0197895Y0051274D01*
X0196047Y0052872D02*
X0112446Y0052872D01*
X0110847Y0054471D02*
X0117250Y0054471D01*
X0118650Y0056169D02*
X0199319Y0056169D01*
X0199634Y0056484D01*
X0196908Y0060865D02*
X0117052Y0060865D01*
X0118650Y0059266D02*
X0195276Y0059266D01*
X0196455Y0062463D02*
X0115453Y0062463D01*
X0113855Y0064062D02*
X0159097Y0064062D01*
X0157499Y0065660D02*
X0149277Y0065660D01*
X0150693Y0067259D02*
X0157418Y0067259D01*
X0157418Y0068858D02*
X0151339Y0068858D01*
X0151339Y0070456D02*
X0158993Y0070456D01*
X0159018Y0072055D02*
X0151148Y0072055D01*
X0152565Y0073653D02*
X0159018Y0073653D01*
X0159018Y0075252D02*
X0153983Y0075252D01*
X0155420Y0076850D02*
X0159018Y0076850D01*
X0159018Y0078449D02*
X0155840Y0078449D01*
X0155840Y0080047D02*
X0159115Y0080047D01*
X0160713Y0081646D02*
X0155840Y0081646D01*
X0155840Y0083244D02*
X0161341Y0083244D01*
X0161341Y0084843D02*
X0155840Y0084843D01*
X0156367Y0086441D02*
X0160932Y0086441D01*
X0159979Y0088040D02*
X0157320Y0088040D01*
X0157440Y0089638D02*
X0159859Y0089638D01*
X0159859Y0091237D02*
X0157440Y0091237D01*
X0157440Y0092835D02*
X0159859Y0092835D01*
X0159859Y0094434D02*
X0157440Y0094434D01*
X0156862Y0096032D02*
X0160437Y0096032D01*
X0163650Y0091484D02*
X0163531Y0091366D01*
X0163531Y0081366D01*
X0161209Y0079043D01*
X0161209Y0067311D01*
X0164999Y0067259D02*
X0169741Y0067259D01*
X0169741Y0067001D02*
X0171961Y0064780D01*
X0175102Y0064780D01*
X0176702Y0066380D01*
X0182448Y0066380D01*
X0184520Y0064308D01*
X0187661Y0064308D01*
X0189881Y0066528D01*
X0189881Y0069669D01*
X0187661Y0071889D01*
X0184520Y0071889D01*
X0183393Y0070761D01*
X0176702Y0070761D01*
X0175102Y0072361D01*
X0171961Y0072361D01*
X0169741Y0070141D01*
X0169741Y0067001D01*
X0169741Y0068858D02*
X0164999Y0068858D01*
X0163424Y0070456D02*
X0170056Y0070456D01*
X0171655Y0072055D02*
X0163399Y0072055D01*
X0163399Y0073653D02*
X0204267Y0073653D01*
X0204267Y0072055D02*
X0175408Y0072055D01*
X0173531Y0068571D02*
X0185618Y0068571D01*
X0186091Y0068098D01*
X0183168Y0065660D02*
X0175982Y0065660D01*
X0171081Y0065660D02*
X0164919Y0065660D01*
X0163320Y0064062D02*
X0195127Y0064062D01*
X0194543Y0065660D02*
X0189013Y0065660D01*
X0189881Y0067259D02*
X0194543Y0067259D01*
X0195107Y0068858D02*
X0189881Y0068858D01*
X0189094Y0070456D02*
X0196407Y0070456D01*
X0196329Y0074583D02*
X0197980Y0074583D01*
X0197980Y0078571D01*
X0197980Y0078571D01*
X0193993Y0078571D01*
X0193993Y0080222D01*
X0196329Y0082558D01*
X0197980Y0082558D01*
X0197980Y0078571D01*
X0197980Y0078571D01*
X0193993Y0078571D01*
X0193993Y0076919D01*
X0196329Y0074583D01*
X0195661Y0075252D02*
X0190022Y0075252D01*
X0189550Y0074780D02*
X0191771Y0077001D01*
X0191771Y0080141D01*
X0189550Y0082361D01*
X0186410Y0082361D01*
X0184190Y0080141D01*
X0184190Y0077001D01*
X0186410Y0074780D01*
X0189550Y0074780D01*
X0191620Y0076850D02*
X0194062Y0076850D01*
X0193993Y0078449D02*
X0191771Y0078449D01*
X0191771Y0080047D02*
X0193993Y0080047D01*
X0195416Y0081646D02*
X0190266Y0081646D01*
X0185694Y0081646D02*
X0175817Y0081646D01*
X0175722Y0083244D02*
X0204267Y0083244D01*
X0204267Y0081646D02*
X0200545Y0081646D01*
X0199632Y0082558D02*
X0197980Y0082558D01*
X0197980Y0078571D01*
X0197980Y0078571D01*
X0201968Y0078571D01*
X0201968Y0080222D01*
X0199632Y0082558D01*
X0197980Y0081646D02*
X0197980Y0081646D01*
X0197980Y0080047D02*
X0197980Y0080047D01*
X0197980Y0078571D02*
X0197980Y0078571D01*
X0197980Y0074583D01*
X0199632Y0074583D01*
X0201968Y0076919D01*
X0201968Y0078571D01*
X0197980Y0078571D01*
X0197980Y0078449D02*
X0197980Y0078449D01*
X0197980Y0076850D02*
X0197980Y0076850D01*
X0197980Y0075252D02*
X0197980Y0075252D01*
X0200300Y0075252D02*
X0204267Y0075252D01*
X0204267Y0076850D02*
X0201899Y0076850D01*
X0201968Y0078449D02*
X0204267Y0078449D01*
X0204267Y0080047D02*
X0201968Y0080047D01*
X0202861Y0070456D02*
X0204267Y0070456D01*
X0204267Y0068858D02*
X0204161Y0068858D01*
X0190932Y0086441D02*
X0186367Y0086441D01*
X0187320Y0088040D02*
X0189979Y0088040D01*
X0189859Y0089638D02*
X0187440Y0089638D01*
X0187440Y0091237D02*
X0189859Y0091237D01*
X0189859Y0092835D02*
X0187440Y0092835D01*
X0187440Y0094434D02*
X0189859Y0094434D01*
X0190437Y0096032D02*
X0186862Y0096032D01*
X0184510Y0097631D02*
X0192789Y0097631D01*
X0194510Y0097631D02*
X0204267Y0097631D01*
X0204267Y0099229D02*
X0032007Y0099229D01*
X0030454Y0100828D02*
X0204267Y0100828D01*
X0204267Y0102426D02*
X0026272Y0102426D01*
X0025979Y0100828D02*
X0024674Y0100828D01*
X0024426Y0099229D02*
X0023202Y0099229D01*
X0023202Y0097631D02*
X0024426Y0097631D01*
X0024528Y0096032D02*
X0023202Y0096032D01*
X0024348Y0094434D02*
X0026127Y0094434D01*
X0024511Y0089638D02*
X0023011Y0089638D01*
X0022907Y0088040D02*
X0024229Y0088040D01*
X0024229Y0086441D02*
X0022907Y0086441D01*
X0022907Y0084843D02*
X0025440Y0084843D01*
X0018526Y0084843D02*
X0010985Y0084843D01*
X0010985Y0086441D02*
X0018526Y0086441D01*
X0018526Y0088040D02*
X0010985Y0088040D01*
X0010985Y0089638D02*
X0018422Y0089638D01*
X0016926Y0091237D02*
X0010985Y0091237D01*
X0010985Y0092835D02*
X0016926Y0092835D01*
X0017085Y0094434D02*
X0010985Y0094434D01*
X0010985Y0096032D02*
X0018683Y0096032D01*
X0018821Y0097631D02*
X0010985Y0097631D01*
X0010985Y0099229D02*
X0018821Y0099229D01*
X0018821Y0100828D02*
X0010985Y0100828D01*
X0010985Y0102426D02*
X0014466Y0102426D01*
X0016534Y0102426D02*
X0020076Y0102426D01*
X0019216Y0104025D02*
X0021675Y0104025D01*
X0021971Y0105623D02*
X0020229Y0105623D01*
X0020591Y0107222D02*
X0021971Y0107222D01*
X0021956Y0108820D02*
X0020466Y0108820D01*
X0020357Y0110419D02*
X0019788Y0110419D01*
X0018759Y0112017D02*
X0017915Y0112017D01*
X0021758Y0115214D02*
X0072666Y0115214D01*
X0072487Y0115250D02*
X0073257Y0115097D01*
X0073650Y0115097D01*
X0074042Y0115097D01*
X0074813Y0115250D01*
X0075538Y0115551D01*
X0076191Y0115987D01*
X0076747Y0116542D01*
X0077183Y0117195D01*
X0077484Y0117921D01*
X0077637Y0118692D01*
X0077637Y0121484D01*
X0073650Y0121484D01*
X0073650Y0121484D01*
X0073650Y0115097D01*
X0073650Y0121484D01*
X0073650Y0121484D01*
X0077637Y0121484D01*
X0077637Y0124277D01*
X0077484Y0125047D01*
X0077183Y0125773D01*
X0076747Y0126426D01*
X0076191Y0126981D01*
X0075538Y0127418D01*
X0074813Y0127718D01*
X0074042Y0127872D01*
X0073650Y0127872D01*
X0073650Y0121484D01*
X0073650Y0121484D01*
X0073649Y0121484D02*
X0069662Y0121484D01*
X0069662Y0118692D01*
X0069815Y0117921D01*
X0070116Y0117195D01*
X0070552Y0116542D01*
X0071108Y0115987D01*
X0071761Y0115551D01*
X0072487Y0115250D01*
X0073650Y0115214D02*
X0073650Y0115214D01*
X0074633Y0115214D02*
X0152666Y0115214D01*
X0152487Y0115250D02*
X0153257Y0115097D01*
X0153650Y0115097D01*
X0154042Y0115097D01*
X0154813Y0115250D01*
X0155538Y0115551D01*
X0156191Y0115987D01*
X0156747Y0116542D01*
X0157183Y0117195D01*
X0157484Y0117921D01*
X0157637Y0118692D01*
X0157637Y0121484D01*
X0153650Y0121484D01*
X0153650Y0121484D01*
X0153650Y0115097D01*
X0153650Y0121484D01*
X0153650Y0121484D01*
X0157637Y0121484D01*
X0157637Y0124277D01*
X0157484Y0125047D01*
X0157183Y0125773D01*
X0156747Y0126426D01*
X0156191Y0126981D01*
X0155538Y0127418D01*
X0154813Y0127718D01*
X0154042Y0127872D01*
X0153650Y0127872D01*
X0153650Y0121484D01*
X0153650Y0121484D01*
X0153649Y0121484D02*
X0149662Y0121484D01*
X0149662Y0118692D01*
X0149815Y0117921D01*
X0150116Y0117195D01*
X0150552Y0116542D01*
X0151108Y0115987D01*
X0151761Y0115551D01*
X0152487Y0115250D01*
X0153650Y0115214D02*
X0153650Y0115214D01*
X0154633Y0115214D02*
X0191459Y0115214D01*
X0191459Y0113616D02*
X0023356Y0113616D01*
X0024955Y0112017D02*
X0191459Y0112017D01*
X0190274Y0110419D02*
X0026352Y0110419D01*
X0026352Y0108820D02*
X0188675Y0108820D01*
X0188728Y0105776D02*
X0025736Y0105776D01*
X0024161Y0107350D01*
X0024161Y0103413D01*
X0021012Y0100264D01*
X0021012Y0093000D01*
X0020717Y0092705D01*
X0020717Y0072134D01*
X0021366Y0071484D01*
X0018632Y0068858D02*
X0010985Y0068858D01*
X0010985Y0070456D02*
X0017576Y0070456D01*
X0017576Y0072055D02*
X0010985Y0072055D01*
X0010985Y0073653D02*
X0018174Y0073653D01*
X0018526Y0075252D02*
X0010985Y0075252D01*
X0010985Y0076850D02*
X0018526Y0076850D01*
X0018526Y0078449D02*
X0010985Y0078449D01*
X0010985Y0080047D02*
X0018526Y0080047D01*
X0018526Y0081646D02*
X0010985Y0081646D01*
X0010985Y0083244D02*
X0018526Y0083244D01*
X0031922Y0089638D02*
X0059859Y0089638D01*
X0059979Y0088040D02*
X0032204Y0088040D01*
X0032204Y0086441D02*
X0060932Y0086441D01*
X0065840Y0084843D02*
X0091459Y0084843D01*
X0091459Y0083244D02*
X0065840Y0083244D01*
X0067137Y0081646D02*
X0091459Y0081646D01*
X0091459Y0080047D02*
X0068736Y0080047D01*
X0070334Y0078449D02*
X0091459Y0078449D01*
X0091459Y0076850D02*
X0079471Y0076850D01*
X0080747Y0075252D02*
X0091459Y0075252D01*
X0091459Y0073653D02*
X0080747Y0073653D01*
X0080368Y0072055D02*
X0091459Y0072055D01*
X0091459Y0070456D02*
X0079902Y0070456D01*
X0081500Y0068858D02*
X0091459Y0068858D01*
X0091864Y0067259D02*
X0083099Y0067259D01*
X0084697Y0065660D02*
X0093462Y0065660D01*
X0095061Y0064062D02*
X0086296Y0064062D01*
X0087894Y0062463D02*
X0096659Y0062463D01*
X0098258Y0060865D02*
X0089493Y0060865D01*
X0091091Y0059266D02*
X0099856Y0059266D01*
X0101455Y0057668D02*
X0092690Y0057668D01*
X0094288Y0056069D02*
X0103053Y0056069D01*
X0104652Y0054471D02*
X0095887Y0054471D01*
X0097485Y0052872D02*
X0106250Y0052872D01*
X0107849Y0051274D02*
X0099084Y0051274D01*
X0100682Y0049675D02*
X0109447Y0049675D01*
X0111046Y0048077D02*
X0102281Y0048077D01*
X0103879Y0046478D02*
X0112644Y0046478D01*
X0115500Y0046720D02*
X0093650Y0068571D01*
X0093650Y0091484D01*
X0097440Y0091237D02*
X0099859Y0091237D01*
X0099859Y0092835D02*
X0097440Y0092835D01*
X0097440Y0094434D02*
X0099859Y0094434D01*
X0100437Y0096032D02*
X0096862Y0096032D01*
X0097440Y0089638D02*
X0099859Y0089638D01*
X0099979Y0088040D02*
X0097320Y0088040D01*
X0096367Y0086441D02*
X0100932Y0086441D01*
X0101459Y0084843D02*
X0095840Y0084843D01*
X0095840Y0083244D02*
X0101459Y0083244D01*
X0101459Y0081646D02*
X0095840Y0081646D01*
X0095840Y0080047D02*
X0101459Y0080047D01*
X0101459Y0078449D02*
X0095840Y0078449D01*
X0095840Y0076850D02*
X0101459Y0076850D01*
X0101459Y0075252D02*
X0095840Y0075252D01*
X0095840Y0073653D02*
X0101459Y0073653D01*
X0101459Y0072055D02*
X0095840Y0072055D01*
X0095840Y0070456D02*
X0101459Y0070456D01*
X0102863Y0068858D02*
X0096461Y0068858D01*
X0098059Y0067259D02*
X0104462Y0067259D01*
X0106060Y0065660D02*
X0099658Y0065660D01*
X0101256Y0064062D02*
X0107659Y0064062D01*
X0109258Y0062463D02*
X0102855Y0062463D01*
X0104453Y0060865D02*
X0110856Y0060865D01*
X0112455Y0059266D02*
X0106052Y0059266D01*
X0107650Y0057668D02*
X0114053Y0057668D01*
X0115652Y0056069D02*
X0109249Y0056069D01*
X0112256Y0065660D02*
X0123219Y0065660D01*
X0121803Y0067259D02*
X0110658Y0067259D01*
X0109059Y0068858D02*
X0121157Y0068858D01*
X0121157Y0070456D02*
X0107461Y0070456D01*
X0105862Y0072055D02*
X0121659Y0072055D01*
X0122871Y0073653D02*
X0105840Y0073653D01*
X0105840Y0075252D02*
X0124057Y0075252D01*
X0124057Y0076850D02*
X0105840Y0076850D01*
X0105840Y0078449D02*
X0125233Y0078449D01*
X0126831Y0080047D02*
X0105840Y0080047D01*
X0105840Y0081646D02*
X0137878Y0081646D01*
X0139477Y0083244D02*
X0105840Y0083244D01*
X0105840Y0084843D02*
X0140869Y0084843D01*
X0140869Y0086441D02*
X0136646Y0086441D01*
X0137507Y0088040D02*
X0139979Y0088040D01*
X0139859Y0089638D02*
X0137637Y0089638D01*
X0137637Y0091237D02*
X0139859Y0091237D01*
X0139859Y0092835D02*
X0137637Y0092835D01*
X0137606Y0094434D02*
X0139859Y0094434D01*
X0140437Y0096032D02*
X0137010Y0096032D01*
X0133650Y0096032D02*
X0133650Y0096032D01*
X0133650Y0094434D02*
X0133650Y0094434D01*
X0133650Y0092835D02*
X0133650Y0092835D01*
X0133650Y0091237D02*
X0133650Y0091237D01*
X0133650Y0089638D02*
X0133650Y0089638D01*
X0133650Y0088040D02*
X0133650Y0088040D01*
X0133650Y0086441D02*
X0133650Y0086441D01*
X0130654Y0086441D02*
X0126367Y0086441D01*
X0127320Y0088040D02*
X0129792Y0088040D01*
X0129662Y0089638D02*
X0127440Y0089638D01*
X0127440Y0091237D02*
X0129662Y0091237D01*
X0129662Y0092835D02*
X0127440Y0092835D01*
X0127440Y0094434D02*
X0129693Y0094434D01*
X0130289Y0096032D02*
X0126862Y0096032D01*
X0120437Y0096032D02*
X0116862Y0096032D01*
X0117440Y0094434D02*
X0119859Y0094434D01*
X0119859Y0092835D02*
X0117440Y0092835D01*
X0117440Y0091237D02*
X0119859Y0091237D01*
X0119859Y0089638D02*
X0117440Y0089638D01*
X0117320Y0088040D02*
X0119979Y0088040D01*
X0120932Y0086441D02*
X0116367Y0086441D01*
X0110932Y0086441D02*
X0106367Y0086441D01*
X0107320Y0088040D02*
X0109979Y0088040D01*
X0109859Y0089638D02*
X0107440Y0089638D01*
X0107440Y0091237D02*
X0109859Y0091237D01*
X0109859Y0092835D02*
X0107440Y0092835D01*
X0107440Y0094434D02*
X0109859Y0094434D01*
X0110437Y0096032D02*
X0106862Y0096032D01*
X0103650Y0091484D02*
X0103650Y0071169D01*
X0118650Y0056169D01*
X0129277Y0065660D02*
X0132992Y0065660D01*
X0131624Y0067259D02*
X0130693Y0067259D01*
X0130837Y0072055D02*
X0131447Y0072055D01*
X0132593Y0073653D02*
X0129625Y0073653D01*
X0128439Y0075252D02*
X0148127Y0075252D01*
X0149545Y0076850D02*
X0139279Y0076850D01*
X0140877Y0078449D02*
X0150963Y0078449D01*
X0151459Y0080047D02*
X0142476Y0080047D01*
X0144074Y0081646D02*
X0151459Y0081646D01*
X0151459Y0083244D02*
X0145250Y0083244D01*
X0145250Y0084843D02*
X0151459Y0084843D01*
X0150932Y0086441D02*
X0146367Y0086441D01*
X0147320Y0088040D02*
X0149979Y0088040D01*
X0149859Y0089638D02*
X0147440Y0089638D01*
X0147440Y0091237D02*
X0149859Y0091237D01*
X0149859Y0092835D02*
X0147440Y0092835D01*
X0147440Y0094434D02*
X0149859Y0094434D01*
X0150437Y0096032D02*
X0146862Y0096032D01*
X0143650Y0091484D02*
X0143059Y0090894D01*
X0143059Y0083728D01*
X0138335Y0079004D01*
X0128886Y0079004D01*
X0126248Y0076366D01*
X0126248Y0069831D01*
X0136048Y0070456D02*
X0136448Y0070456D01*
X0136448Y0068858D02*
X0136048Y0068858D01*
X0136048Y0067259D02*
X0136448Y0067259D01*
X0136448Y0065660D02*
X0136048Y0065660D01*
X0139504Y0065660D02*
X0143219Y0065660D01*
X0141803Y0067259D02*
X0140872Y0067259D01*
X0141049Y0072055D02*
X0141659Y0072055D01*
X0142871Y0073653D02*
X0139903Y0073653D01*
X0136448Y0073653D02*
X0136048Y0073653D01*
X0136048Y0072055D02*
X0136448Y0072055D01*
X0146248Y0069831D02*
X0153650Y0078177D01*
X0153650Y0091484D01*
X0166367Y0086441D02*
X0170932Y0086441D01*
X0171341Y0084843D02*
X0165722Y0084843D01*
X0165722Y0083244D02*
X0171341Y0083244D01*
X0171246Y0081646D02*
X0165722Y0081646D01*
X0165310Y0080047D02*
X0169741Y0080047D01*
X0169741Y0078449D02*
X0163712Y0078449D01*
X0163399Y0076850D02*
X0169892Y0076850D01*
X0171490Y0075252D02*
X0163399Y0075252D01*
X0173531Y0078571D02*
X0173531Y0091366D01*
X0173650Y0091484D01*
X0169859Y0091237D02*
X0167440Y0091237D01*
X0167440Y0092835D02*
X0169859Y0092835D01*
X0169859Y0094434D02*
X0167440Y0094434D01*
X0166862Y0096032D02*
X0170437Y0096032D01*
X0169859Y0089638D02*
X0167440Y0089638D01*
X0167320Y0088040D02*
X0169979Y0088040D01*
X0177322Y0080047D02*
X0184190Y0080047D01*
X0184190Y0078449D02*
X0177322Y0078449D01*
X0177171Y0076850D02*
X0184340Y0076850D01*
X0185939Y0075252D02*
X0175573Y0075252D01*
X0190075Y0104025D02*
X0204267Y0104025D01*
X0204267Y0105623D02*
X0191674Y0105623D01*
X0193272Y0107222D02*
X0204267Y0107222D01*
X0204267Y0108820D02*
X0194871Y0108820D01*
X0195840Y0110419D02*
X0204267Y0110419D01*
X0204267Y0112017D02*
X0195840Y0112017D01*
X0195840Y0113616D02*
X0204267Y0113616D01*
X0204267Y0115214D02*
X0195840Y0115214D01*
X0196739Y0116813D02*
X0204267Y0116813D01*
X0204267Y0118411D02*
X0197440Y0118411D01*
X0197440Y0120010D02*
X0204267Y0120010D01*
X0204267Y0121608D02*
X0197440Y0121608D01*
X0197440Y0123207D02*
X0204267Y0123207D01*
X0204267Y0124805D02*
X0197371Y0124805D01*
X0196491Y0126404D02*
X0204267Y0126404D01*
X0204267Y0128002D02*
X0195840Y0128002D01*
X0195840Y0129601D02*
X0204267Y0129601D01*
X0204267Y0131199D02*
X0195840Y0131199D01*
X0195840Y0132798D02*
X0204267Y0132798D01*
X0204267Y0134396D02*
X0195840Y0134396D01*
X0195840Y0135995D02*
X0204267Y0135995D01*
X0204267Y0137594D02*
X0195840Y0137594D01*
X0195840Y0139192D02*
X0204267Y0139192D01*
X0204267Y0140791D02*
X0195840Y0140791D01*
X0195840Y0142389D02*
X0204267Y0142389D01*
X0204267Y0143988D02*
X0195840Y0143988D01*
X0195840Y0145586D02*
X0204267Y0145586D01*
X0204267Y0147185D02*
X0195840Y0147185D01*
X0195840Y0148783D02*
X0204267Y0148783D01*
X0204267Y0150382D02*
X0195840Y0150382D01*
X0195840Y0151980D02*
X0204267Y0151980D01*
X0204267Y0153579D02*
X0195840Y0153579D01*
X0195840Y0155177D02*
X0204267Y0155177D01*
X0204267Y0156776D02*
X0195840Y0156776D01*
X0195840Y0158374D02*
X0204267Y0158374D01*
X0204267Y0159973D02*
X0195840Y0159973D01*
X0195840Y0161571D02*
X0204267Y0161571D01*
X0204267Y0163170D02*
X0195840Y0163170D01*
X0195840Y0164768D02*
X0204267Y0164768D01*
X0204267Y0166367D02*
X0195840Y0166367D01*
X0195840Y0167965D02*
X0204267Y0167965D01*
X0204267Y0169564D02*
X0195840Y0169564D01*
X0195840Y0171162D02*
X0204267Y0171162D01*
X0204267Y0172761D02*
X0195840Y0172761D01*
X0195840Y0174359D02*
X0204267Y0174359D01*
X0204267Y0175958D02*
X0195840Y0175958D01*
X0195840Y0177556D02*
X0204267Y0177556D01*
X0204267Y0179155D02*
X0195612Y0179155D01*
X0194014Y0180753D02*
X0204267Y0180753D01*
X0204267Y0182352D02*
X0192415Y0182352D01*
X0190817Y0183950D02*
X0204267Y0183950D01*
X0204267Y0185549D02*
X0189344Y0185549D01*
X0189344Y0187147D02*
X0204267Y0187147D01*
X0204267Y0188746D02*
X0189344Y0188746D01*
X0189344Y0190344D02*
X0204267Y0190344D01*
X0204267Y0191943D02*
X0189344Y0191943D01*
X0189344Y0193541D02*
X0196043Y0193541D01*
X0197111Y0193541D02*
X0197511Y0193541D01*
X0197511Y0193402D02*
X0197727Y0193402D01*
X0198549Y0193532D01*
X0199341Y0193789D01*
X0200082Y0194167D01*
X0200756Y0194656D01*
X0201344Y0195244D01*
X0201833Y0195918D01*
X0202211Y0196659D01*
X0202468Y0197451D01*
X0202598Y0198273D01*
X0202598Y0198489D01*
X0197511Y0198489D01*
X0197511Y0193402D01*
X0198579Y0193541D02*
X0204267Y0193541D01*
X0204267Y0195140D02*
X0201239Y0195140D01*
X0202237Y0196738D02*
X0204267Y0196738D01*
X0204267Y0198337D02*
X0202598Y0198337D01*
X0202598Y0198889D02*
X0202598Y0199105D01*
X0202468Y0199927D01*
X0202211Y0200719D01*
X0201833Y0201460D01*
X0201344Y0202133D01*
X0200756Y0202722D01*
X0200082Y0203211D01*
X0199341Y0203589D01*
X0198549Y0203846D01*
X0197727Y0203976D01*
X0197511Y0203976D01*
X0197511Y0198889D01*
X0202598Y0198889D01*
X0202466Y0199935D02*
X0204267Y0199935D01*
X0204267Y0201534D02*
X0201780Y0201534D01*
X0200191Y0203132D02*
X0204267Y0203132D01*
X0204267Y0204731D02*
X0028177Y0204731D01*
X0029776Y0203132D02*
X0124736Y0203132D01*
X0122979Y0201534D02*
X0030649Y0201534D01*
X0031202Y0199935D02*
X0122317Y0199935D01*
X0122220Y0198337D02*
X0041785Y0198337D01*
X0043383Y0196738D02*
X0065984Y0196738D01*
X0066961Y0197716D02*
X0064741Y0195495D01*
X0064741Y0192355D01*
X0066961Y0190135D01*
X0070102Y0190135D01*
X0072322Y0192355D01*
X0072322Y0195495D01*
X0070102Y0197716D01*
X0066961Y0197716D01*
X0064741Y0195140D02*
X0044982Y0195140D01*
X0046782Y0193541D02*
X0064741Y0193541D01*
X0065153Y0191943D02*
X0047842Y0191943D01*
X0048032Y0190344D02*
X0066752Y0190344D01*
X0070311Y0190344D02*
X0106473Y0190344D01*
X0106880Y0189938D02*
X0104544Y0192274D01*
X0104544Y0193925D01*
X0108531Y0193925D01*
X0108531Y0193925D01*
X0108532Y0193925D01*
X0108532Y0193925D01*
X0112519Y0193925D01*
X0112519Y0192274D01*
X0110183Y0189938D01*
X0108532Y0189938D01*
X0108532Y0193925D01*
X0112519Y0193925D01*
X0112519Y0195577D01*
X0110183Y0197913D01*
X0108532Y0197913D01*
X0108532Y0193925D01*
X0108531Y0193925D01*
X0108531Y0189938D01*
X0106880Y0189938D01*
X0108531Y0190344D02*
X0108532Y0190344D01*
X0108531Y0191943D02*
X0108532Y0191943D01*
X0108531Y0193541D02*
X0108532Y0193541D01*
X0108531Y0193925D02*
X0104544Y0193925D01*
X0104544Y0195577D01*
X0106880Y0197913D01*
X0108531Y0197913D01*
X0108531Y0193925D01*
X0108531Y0195140D02*
X0108532Y0195140D01*
X0108531Y0196738D02*
X0108532Y0196738D01*
X0111357Y0196738D02*
X0122609Y0196738D01*
X0123661Y0195140D02*
X0112519Y0195140D01*
X0112519Y0193541D02*
X0125120Y0193541D01*
X0125120Y0191943D02*
X0112188Y0191943D01*
X0110590Y0190344D02*
X0125120Y0190344D01*
X0125120Y0188746D02*
X0047517Y0188746D01*
X0046876Y0187147D02*
X0123695Y0187147D01*
X0122097Y0185549D02*
X0053785Y0185549D01*
X0055384Y0183950D02*
X0120498Y0183950D01*
X0118900Y0182352D02*
X0056982Y0182352D01*
X0058581Y0180753D02*
X0066141Y0180753D01*
X0066843Y0181456D02*
X0064623Y0179235D01*
X0064623Y0176095D01*
X0066843Y0173875D01*
X0069983Y0173875D01*
X0072204Y0176095D01*
X0072204Y0179235D01*
X0069983Y0181456D01*
X0066843Y0181456D01*
X0064623Y0179155D02*
X0060179Y0179155D01*
X0060998Y0177556D02*
X0064623Y0177556D01*
X0064760Y0175958D02*
X0060998Y0175958D01*
X0060998Y0174359D02*
X0066359Y0174359D01*
X0070468Y0174359D02*
X0076359Y0174359D01*
X0076843Y0173875D02*
X0079983Y0173875D01*
X0082204Y0176095D01*
X0082204Y0179235D01*
X0079983Y0181456D01*
X0076843Y0181456D01*
X0074623Y0179235D01*
X0074623Y0176095D01*
X0076843Y0173875D01*
X0074760Y0175958D02*
X0072066Y0175958D01*
X0072204Y0177556D02*
X0074623Y0177556D01*
X0074623Y0179155D02*
X0072204Y0179155D01*
X0070686Y0180753D02*
X0076141Y0180753D01*
X0080686Y0180753D02*
X0117301Y0180753D01*
X0115703Y0179155D02*
X0082204Y0179155D01*
X0082204Y0177556D02*
X0114104Y0177556D01*
X0112506Y0175958D02*
X0082066Y0175958D01*
X0080468Y0174359D02*
X0110907Y0174359D01*
X0109309Y0172761D02*
X0060998Y0172761D01*
X0060998Y0171162D02*
X0107710Y0171162D01*
X0106112Y0169564D02*
X0060998Y0169564D01*
X0061920Y0167965D02*
X0096589Y0167965D01*
X0098965Y0164831D02*
X0061957Y0164831D01*
X0058807Y0167980D01*
X0058807Y0177429D01*
X0051720Y0184516D01*
X0044358Y0184516D01*
X0044280Y0184437D01*
X0047250Y0180753D02*
X0052385Y0180753D01*
X0053984Y0179155D02*
X0048104Y0179155D01*
X0048229Y0178138D02*
X0044280Y0178138D01*
X0044280Y0178138D01*
X0044280Y0174188D01*
X0044669Y0174188D01*
X0045432Y0174340D01*
X0046150Y0174638D01*
X0046797Y0175070D01*
X0047347Y0175620D01*
X0047780Y0176267D01*
X0048077Y0176986D01*
X0048229Y0177749D01*
X0048229Y0178138D01*
X0048191Y0177556D02*
X0055582Y0177556D01*
X0056617Y0175958D02*
X0047573Y0175958D01*
X0045478Y0174359D02*
X0056617Y0174359D01*
X0056617Y0172761D02*
X0035801Y0172761D01*
X0035801Y0174359D02*
X0043081Y0174359D01*
X0044279Y0174359D02*
X0044280Y0174359D01*
X0044279Y0175958D02*
X0044280Y0175958D01*
X0044279Y0177556D02*
X0044280Y0177556D01*
X0040986Y0175958D02*
X0035801Y0175958D01*
X0035801Y0177556D02*
X0038756Y0177556D01*
X0040354Y0177556D02*
X0040368Y0177556D01*
X0036381Y0179155D02*
X0035801Y0179155D01*
X0035801Y0180753D02*
X0035802Y0180753D01*
X0035801Y0182352D02*
X0035934Y0182352D01*
X0035801Y0183950D02*
X0036911Y0183950D01*
X0036337Y0185549D02*
X0035801Y0185549D01*
X0035801Y0187147D02*
X0035802Y0187147D01*
X0035801Y0188746D02*
X0035973Y0188746D01*
X0035801Y0190344D02*
X0037006Y0190344D01*
X0035801Y0191943D02*
X0040717Y0191943D01*
X0040384Y0193541D02*
X0035801Y0193541D01*
X0033610Y0194752D02*
X0033610Y0148295D01*
X0023374Y0138059D01*
X0016051Y0138059D01*
X0015500Y0137508D01*
X0015500Y0127508D01*
X0019008Y0131199D02*
X0083495Y0131199D01*
X0081897Y0129601D02*
X0020143Y0129601D01*
X0020591Y0128002D02*
X0081459Y0128002D01*
X0080809Y0126404D02*
X0076762Y0126404D01*
X0077532Y0124805D02*
X0079928Y0124805D01*
X0079859Y0123207D02*
X0077637Y0123207D01*
X0077637Y0121608D02*
X0079859Y0121608D01*
X0079859Y0120010D02*
X0077637Y0120010D01*
X0077581Y0118411D02*
X0079859Y0118411D01*
X0080560Y0116813D02*
X0076928Y0116813D01*
X0073650Y0116813D02*
X0073650Y0116813D01*
X0073650Y0118411D02*
X0073650Y0118411D01*
X0073650Y0120010D02*
X0073650Y0120010D01*
X0073649Y0121484D02*
X0073649Y0121484D01*
X0069662Y0121484D01*
X0069662Y0124277D01*
X0069815Y0125047D01*
X0070116Y0125773D01*
X0070552Y0126426D01*
X0071108Y0126981D01*
X0071761Y0127418D01*
X0072487Y0127718D01*
X0073257Y0127872D01*
X0073650Y0127872D01*
X0073650Y0121484D01*
X0073650Y0121608D02*
X0073650Y0121608D01*
X0073650Y0123207D02*
X0073650Y0123207D01*
X0073650Y0124805D02*
X0073650Y0124805D01*
X0073650Y0126404D02*
X0073650Y0126404D01*
X0070538Y0126404D02*
X0066491Y0126404D01*
X0066863Y0126031D02*
X0065797Y0127098D01*
X0064404Y0127675D01*
X0062896Y0127675D01*
X0061502Y0127098D01*
X0060436Y0126031D01*
X0059859Y0124638D01*
X0059859Y0118330D01*
X0060436Y0116937D01*
X0061502Y0115871D01*
X0062896Y0115294D01*
X0064404Y0115294D01*
X0065797Y0115871D01*
X0066863Y0116937D01*
X0067440Y0118330D01*
X0067440Y0124638D01*
X0066863Y0126031D01*
X0067371Y0124805D02*
X0069767Y0124805D01*
X0069662Y0123207D02*
X0067440Y0123207D01*
X0067440Y0121608D02*
X0069662Y0121608D01*
X0069662Y0120010D02*
X0067440Y0120010D01*
X0067440Y0118411D02*
X0069718Y0118411D01*
X0070372Y0116813D02*
X0066739Y0116813D01*
X0060560Y0116813D02*
X0020591Y0116813D01*
X0020591Y0118411D02*
X0059859Y0118411D01*
X0059859Y0120010D02*
X0019974Y0120010D01*
X0018599Y0121608D02*
X0059859Y0121608D01*
X0059859Y0123207D02*
X0018398Y0123207D01*
X0019891Y0124805D02*
X0059928Y0124805D01*
X0060809Y0126404D02*
X0020553Y0126404D01*
X0017691Y0132798D02*
X0061306Y0132798D01*
X0061843Y0132261D02*
X0064983Y0132261D01*
X0067204Y0134481D01*
X0067204Y0137621D01*
X0064983Y0139842D01*
X0061843Y0139842D01*
X0059623Y0137621D01*
X0059623Y0134481D01*
X0061843Y0132261D01*
X0059707Y0134396D02*
X0019588Y0134396D01*
X0024408Y0135995D02*
X0059623Y0135995D01*
X0059623Y0137594D02*
X0026006Y0137594D01*
X0027605Y0139192D02*
X0061194Y0139192D01*
X0065633Y0139192D02*
X0070915Y0139192D01*
X0071762Y0140039D02*
X0069426Y0137703D01*
X0069426Y0136051D01*
X0069426Y0134400D01*
X0071762Y0132064D01*
X0073413Y0132064D01*
X0073413Y0136051D01*
X0069426Y0136051D01*
X0073413Y0136051D01*
X0073413Y0136051D01*
X0073413Y0136051D01*
X0073413Y0132064D01*
X0075065Y0132064D01*
X0077401Y0134400D01*
X0077401Y0136051D01*
X0073414Y0136051D01*
X0073414Y0136051D01*
X0077401Y0136051D01*
X0077401Y0137703D01*
X0075065Y0140039D01*
X0073413Y0140039D01*
X0071762Y0140039D01*
X0073413Y0140039D02*
X0073413Y0136051D01*
X0073413Y0136051D01*
X0073413Y0140039D01*
X0073413Y0139192D02*
X0073413Y0139192D01*
X0073413Y0137594D02*
X0073413Y0137594D01*
X0073413Y0135995D02*
X0073413Y0135995D01*
X0073413Y0134396D02*
X0073413Y0134396D01*
X0073413Y0132798D02*
X0073413Y0132798D01*
X0071028Y0132798D02*
X0065521Y0132798D01*
X0067119Y0134396D02*
X0069429Y0134396D01*
X0069426Y0135995D02*
X0067204Y0135995D01*
X0067204Y0137594D02*
X0069426Y0137594D01*
X0075912Y0139192D02*
X0091488Y0139192D01*
X0093086Y0140791D02*
X0029203Y0140791D01*
X0030802Y0142389D02*
X0094685Y0142389D01*
X0096283Y0143988D02*
X0032400Y0143988D01*
X0033999Y0145586D02*
X0097882Y0145586D01*
X0099480Y0147185D02*
X0035597Y0147185D01*
X0035801Y0148783D02*
X0101079Y0148783D01*
X0102677Y0150382D02*
X0035801Y0150382D01*
X0035801Y0151980D02*
X0103073Y0151980D01*
X0103073Y0153579D02*
X0035801Y0153579D01*
X0035801Y0155177D02*
X0103073Y0155177D01*
X0103073Y0156776D02*
X0035801Y0156776D01*
X0035801Y0158374D02*
X0103073Y0158374D01*
X0103073Y0159973D02*
X0035801Y0159973D01*
X0035801Y0161571D02*
X0103073Y0161571D01*
X0103073Y0163170D02*
X0102127Y0163170D01*
X0102127Y0164768D02*
X0103073Y0164768D01*
X0103073Y0166367D02*
X0102127Y0166367D01*
X0101340Y0167965D02*
X0104513Y0167965D01*
X0105264Y0165618D02*
X0127311Y0187665D01*
X0127311Y0198689D01*
X0132013Y0196738D02*
X0132609Y0196738D01*
X0133661Y0195140D02*
X0130961Y0195140D01*
X0129502Y0193541D02*
X0135357Y0193541D01*
X0135357Y0191943D02*
X0129502Y0191943D01*
X0129502Y0190344D02*
X0135357Y0190344D01*
X0135357Y0188746D02*
X0129502Y0188746D01*
X0129502Y0187147D02*
X0135357Y0187147D01*
X0135357Y0185549D02*
X0128292Y0185549D01*
X0126694Y0183950D02*
X0135357Y0183950D01*
X0135357Y0182352D02*
X0125095Y0182352D01*
X0123497Y0180753D02*
X0133837Y0180753D01*
X0134398Y0178217D02*
X0131248Y0178217D01*
X0113925Y0160894D01*
X0113925Y0148295D01*
X0093650Y0128020D01*
X0093650Y0121484D01*
X0097440Y0121608D02*
X0099859Y0121608D01*
X0099859Y0120010D02*
X0097440Y0120010D01*
X0097440Y0118411D02*
X0099859Y0118411D01*
X0100560Y0116813D02*
X0096739Y0116813D01*
X0090560Y0116813D02*
X0086739Y0116813D01*
X0087440Y0118411D02*
X0089859Y0118411D01*
X0089859Y0120010D02*
X0087440Y0120010D01*
X0087440Y0121608D02*
X0089859Y0121608D01*
X0089859Y0123207D02*
X0087440Y0123207D01*
X0087371Y0124805D02*
X0089928Y0124805D01*
X0090809Y0126404D02*
X0086491Y0126404D01*
X0086494Y0128002D02*
X0091459Y0128002D01*
X0092133Y0129601D02*
X0088093Y0129601D01*
X0089691Y0131199D02*
X0093731Y0131199D01*
X0095330Y0132798D02*
X0091290Y0132798D01*
X0092888Y0134396D02*
X0096929Y0134396D01*
X0098527Y0135995D02*
X0094487Y0135995D01*
X0096085Y0137594D02*
X0100126Y0137594D01*
X0101724Y0139192D02*
X0097684Y0139192D01*
X0099282Y0140791D02*
X0103323Y0140791D01*
X0104921Y0142389D02*
X0100881Y0142389D01*
X0102479Y0143988D02*
X0106520Y0143988D01*
X0108118Y0145586D02*
X0104078Y0145586D01*
X0105676Y0147185D02*
X0109717Y0147185D01*
X0111315Y0148783D02*
X0107275Y0148783D01*
X0107454Y0150382D02*
X0111735Y0150382D01*
X0111735Y0151980D02*
X0107454Y0151980D01*
X0107454Y0153579D02*
X0111735Y0153579D01*
X0111735Y0155177D02*
X0107454Y0155177D01*
X0107454Y0156776D02*
X0111735Y0156776D01*
X0111735Y0158374D02*
X0107454Y0158374D01*
X0107454Y0159973D02*
X0111735Y0159973D01*
X0111735Y0161571D02*
X0107454Y0161571D01*
X0107454Y0163170D02*
X0113103Y0163170D01*
X0114702Y0164768D02*
X0107512Y0164768D01*
X0109110Y0166367D02*
X0116300Y0166367D01*
X0117899Y0167965D02*
X0110709Y0167965D01*
X0112307Y0169564D02*
X0119497Y0169564D01*
X0121096Y0171162D02*
X0113906Y0171162D01*
X0115504Y0172761D02*
X0122694Y0172761D01*
X0124293Y0174359D02*
X0117103Y0174359D01*
X0118701Y0175958D02*
X0125891Y0175958D01*
X0127490Y0177556D02*
X0120300Y0177556D01*
X0121898Y0179155D02*
X0129088Y0179155D01*
X0132087Y0175958D02*
X0145576Y0175958D01*
X0145593Y0177556D02*
X0136835Y0177556D01*
X0138434Y0179155D02*
X0145593Y0179155D01*
X0145593Y0180753D02*
X0139738Y0180753D01*
X0139738Y0182352D02*
X0145593Y0182352D01*
X0145593Y0183950D02*
X0139738Y0183950D01*
X0139738Y0185549D02*
X0145593Y0185549D01*
X0145593Y0187147D02*
X0139738Y0187147D01*
X0139738Y0188746D02*
X0145593Y0188746D01*
X0145593Y0190344D02*
X0139738Y0190344D01*
X0139738Y0191943D02*
X0145593Y0191943D01*
X0145593Y0193541D02*
X0139738Y0193541D01*
X0140961Y0195140D02*
X0143661Y0195140D01*
X0142609Y0196738D02*
X0142013Y0196738D01*
X0142305Y0199935D02*
X0142317Y0199935D01*
X0142979Y0201534D02*
X0141643Y0201534D01*
X0139886Y0203132D02*
X0144736Y0203132D01*
X0147311Y0198689D02*
X0147783Y0198217D01*
X0147783Y0175067D01*
X0143059Y0170343D01*
X0133610Y0170343D01*
X0121012Y0157744D01*
X0121012Y0145146D01*
X0103650Y0127783D01*
X0103650Y0121484D01*
X0107440Y0121608D02*
X0109859Y0121608D01*
X0109859Y0120010D02*
X0107440Y0120010D01*
X0107440Y0118411D02*
X0109859Y0118411D01*
X0109859Y0118330D02*
X0110436Y0116937D01*
X0111502Y0115871D01*
X0112896Y0115294D01*
X0114404Y0115294D01*
X0115797Y0115871D01*
X0116863Y0116937D01*
X0117440Y0118330D01*
X0117440Y0124638D01*
X0116863Y0126031D01*
X0115797Y0127098D01*
X0114404Y0127675D01*
X0112896Y0127675D01*
X0111502Y0127098D01*
X0110436Y0126031D01*
X0109859Y0124638D01*
X0109859Y0118330D01*
X0110560Y0116813D02*
X0106739Y0116813D01*
X0107440Y0123207D02*
X0109859Y0123207D01*
X0109928Y0124805D02*
X0107371Y0124805D01*
X0106491Y0126404D02*
X0110809Y0126404D01*
X0108565Y0129601D02*
X0141459Y0129601D01*
X0141459Y0131199D02*
X0110163Y0131199D01*
X0111762Y0132798D02*
X0141459Y0132798D01*
X0141459Y0134396D02*
X0113361Y0134396D01*
X0114959Y0135995D02*
X0141459Y0135995D01*
X0141459Y0137594D02*
X0116558Y0137594D01*
X0118156Y0139192D02*
X0141459Y0139192D01*
X0141459Y0140791D02*
X0119755Y0140791D01*
X0121353Y0142389D02*
X0127738Y0142389D01*
X0128536Y0141591D02*
X0131676Y0141591D01*
X0133897Y0143812D01*
X0133897Y0146952D01*
X0131676Y0149172D01*
X0128536Y0149172D01*
X0126316Y0146952D01*
X0126316Y0143812D01*
X0128536Y0141591D01*
X0126316Y0143988D02*
X0122952Y0143988D01*
X0123202Y0145586D02*
X0126316Y0145586D01*
X0126548Y0147185D02*
X0123202Y0147185D01*
X0123202Y0148783D02*
X0128147Y0148783D01*
X0128455Y0151394D02*
X0126119Y0153730D01*
X0126119Y0155382D01*
X0130106Y0155382D01*
X0130106Y0155382D01*
X0130106Y0159369D01*
X0128455Y0159369D01*
X0126119Y0157034D01*
X0126119Y0155382D01*
X0130106Y0155382D01*
X0130106Y0155382D01*
X0130106Y0155382D01*
X0130106Y0151394D01*
X0128455Y0151394D01*
X0127869Y0151980D02*
X0123202Y0151980D01*
X0123202Y0150382D02*
X0144942Y0150382D01*
X0144955Y0150369D02*
X0142180Y0153144D01*
X0142180Y0155106D01*
X0146917Y0155106D01*
X0146917Y0155106D01*
X0146917Y0155106D01*
X0146917Y0150369D01*
X0144955Y0150369D01*
X0146014Y0149647D02*
X0144345Y0148956D01*
X0143068Y0147678D01*
X0142377Y0146009D01*
X0142377Y0144203D01*
X0142535Y0143822D01*
X0141459Y0142746D01*
X0141459Y0127054D01*
X0140436Y0126031D01*
X0139859Y0124638D01*
X0139859Y0118330D01*
X0140436Y0116937D01*
X0141502Y0115871D01*
X0142896Y0115294D01*
X0144404Y0115294D01*
X0145797Y0115871D01*
X0146863Y0116937D01*
X0147440Y0118330D01*
X0147440Y0124638D01*
X0146863Y0126031D01*
X0145840Y0127054D01*
X0145840Y0140638D01*
X0146014Y0140566D01*
X0147820Y0140566D01*
X0149489Y0141257D01*
X0150767Y0142534D01*
X0151458Y0144203D01*
X0151458Y0146009D01*
X0150767Y0147678D01*
X0149489Y0148956D01*
X0147820Y0149647D01*
X0146014Y0149647D01*
X0146917Y0150369D02*
X0148880Y0150369D01*
X0151655Y0153144D01*
X0151655Y0155106D01*
X0146917Y0155106D01*
X0142180Y0155106D01*
X0142180Y0157069D01*
X0144955Y0159844D01*
X0146917Y0159844D01*
X0146917Y0155106D01*
X0146917Y0150369D01*
X0146917Y0150382D02*
X0146917Y0150382D01*
X0146917Y0151980D02*
X0146917Y0151980D01*
X0146917Y0153579D02*
X0146917Y0153579D01*
X0146917Y0155106D02*
X0146917Y0155106D01*
X0146917Y0155106D01*
X0146917Y0159844D01*
X0148880Y0159844D01*
X0151655Y0157069D01*
X0151655Y0155106D01*
X0146917Y0155106D01*
X0146917Y0155177D02*
X0146917Y0155177D01*
X0146917Y0156776D02*
X0146917Y0156776D01*
X0146917Y0158374D02*
X0146917Y0158374D01*
X0143485Y0158374D02*
X0132753Y0158374D01*
X0131758Y0159369D02*
X0130106Y0159369D01*
X0130106Y0155382D01*
X0134094Y0155382D01*
X0134094Y0157034D01*
X0131758Y0159369D01*
X0130106Y0158374D02*
X0130106Y0158374D01*
X0130106Y0156776D02*
X0130106Y0156776D01*
X0130106Y0155382D02*
X0130106Y0155382D01*
X0130106Y0151394D01*
X0131758Y0151394D01*
X0134094Y0153730D01*
X0134094Y0155382D01*
X0130106Y0155382D01*
X0130106Y0155177D02*
X0130106Y0155177D01*
X0130106Y0153579D02*
X0130106Y0153579D01*
X0130106Y0151980D02*
X0130106Y0151980D01*
X0132344Y0151980D02*
X0143344Y0151980D01*
X0142180Y0153579D02*
X0133942Y0153579D01*
X0134094Y0155177D02*
X0142180Y0155177D01*
X0142180Y0156776D02*
X0134094Y0156776D01*
X0127460Y0158374D02*
X0124740Y0158374D01*
X0126119Y0156776D02*
X0123202Y0156776D01*
X0123202Y0155177D02*
X0126119Y0155177D01*
X0126271Y0153579D02*
X0123202Y0153579D01*
X0118821Y0153579D02*
X0116116Y0153579D01*
X0116116Y0155177D02*
X0118821Y0155177D01*
X0118821Y0156776D02*
X0116116Y0156776D01*
X0116116Y0158374D02*
X0118821Y0158374D01*
X0120142Y0159973D02*
X0116116Y0159973D01*
X0117701Y0161571D02*
X0121741Y0161571D01*
X0123340Y0163170D02*
X0119299Y0163170D01*
X0120898Y0164768D02*
X0124938Y0164768D01*
X0126537Y0166367D02*
X0122496Y0166367D01*
X0124095Y0167965D02*
X0128135Y0167965D01*
X0129734Y0169564D02*
X0125693Y0169564D01*
X0127292Y0171162D02*
X0131332Y0171162D01*
X0128890Y0172761D02*
X0142379Y0172761D01*
X0143978Y0174359D02*
X0130489Y0174359D01*
X0134398Y0178217D02*
X0137547Y0181366D01*
X0137547Y0198453D01*
X0137311Y0198689D01*
X0134736Y0203132D02*
X0129886Y0203132D01*
X0131643Y0201534D02*
X0132979Y0201534D01*
X0132317Y0199935D02*
X0132305Y0199935D01*
X0149886Y0203132D02*
X0154736Y0203132D01*
X0152979Y0201534D02*
X0151643Y0201534D01*
X0152305Y0199935D02*
X0152317Y0199935D01*
X0152609Y0196738D02*
X0152013Y0196738D01*
X0150961Y0195140D02*
X0153661Y0195140D01*
X0155120Y0193541D02*
X0149974Y0193541D01*
X0149974Y0191943D02*
X0155120Y0191943D01*
X0155120Y0190344D02*
X0149974Y0190344D01*
X0149974Y0188746D02*
X0155120Y0188746D01*
X0155120Y0187147D02*
X0149974Y0187147D01*
X0149974Y0185549D02*
X0155120Y0185549D01*
X0155120Y0183950D02*
X0149974Y0183950D01*
X0149974Y0182352D02*
X0155120Y0182352D01*
X0155120Y0180753D02*
X0149974Y0180753D01*
X0149974Y0179155D02*
X0155120Y0179155D01*
X0155120Y0177556D02*
X0149974Y0177556D01*
X0149974Y0175958D02*
X0155120Y0175958D01*
X0155120Y0174359D02*
X0149974Y0174359D01*
X0148575Y0172761D02*
X0155120Y0172761D01*
X0155120Y0171162D02*
X0146977Y0171162D01*
X0145378Y0169564D02*
X0155120Y0169564D01*
X0155120Y0167965D02*
X0134331Y0167965D01*
X0132732Y0166367D02*
X0155120Y0166367D01*
X0155120Y0164768D02*
X0131134Y0164768D01*
X0129535Y0163170D02*
X0155120Y0163170D01*
X0155120Y0161571D02*
X0127937Y0161571D01*
X0126338Y0159973D02*
X0155120Y0159973D01*
X0155120Y0158374D02*
X0150349Y0158374D01*
X0151655Y0156776D02*
X0155120Y0156776D01*
X0156701Y0155177D02*
X0151655Y0155177D01*
X0151655Y0153579D02*
X0158300Y0153579D01*
X0159898Y0151980D02*
X0150491Y0151980D01*
X0148892Y0150382D02*
X0161341Y0150382D01*
X0161341Y0148783D02*
X0149662Y0148783D01*
X0150971Y0147185D02*
X0161341Y0147185D01*
X0161341Y0145586D02*
X0151458Y0145586D01*
X0151369Y0143988D02*
X0161341Y0143988D01*
X0161341Y0142389D02*
X0150621Y0142389D01*
X0148363Y0140791D02*
X0161341Y0140791D01*
X0161341Y0139192D02*
X0145840Y0139192D01*
X0145840Y0137594D02*
X0161341Y0137594D01*
X0161341Y0135995D02*
X0145840Y0135995D01*
X0145840Y0134396D02*
X0161341Y0134396D01*
X0161341Y0132798D02*
X0145840Y0132798D01*
X0145840Y0131199D02*
X0161341Y0131199D01*
X0161341Y0129601D02*
X0145840Y0129601D01*
X0145840Y0128002D02*
X0161341Y0128002D01*
X0160809Y0126404D02*
X0156762Y0126404D01*
X0157532Y0124805D02*
X0159928Y0124805D01*
X0159859Y0123207D02*
X0157637Y0123207D01*
X0157637Y0121608D02*
X0159859Y0121608D01*
X0159859Y0120010D02*
X0157637Y0120010D01*
X0157581Y0118411D02*
X0159859Y0118411D01*
X0160560Y0116813D02*
X0156928Y0116813D01*
X0153650Y0116813D02*
X0153650Y0116813D01*
X0153650Y0118411D02*
X0153650Y0118411D01*
X0153650Y0120010D02*
X0153650Y0120010D01*
X0153649Y0121484D02*
X0153649Y0121484D01*
X0149662Y0121484D01*
X0149662Y0124277D01*
X0149815Y0125047D01*
X0150116Y0125773D01*
X0150552Y0126426D01*
X0151108Y0126981D01*
X0151761Y0127418D01*
X0152487Y0127718D01*
X0153257Y0127872D01*
X0153650Y0127872D01*
X0153650Y0121484D01*
X0153650Y0121608D02*
X0153650Y0121608D01*
X0153650Y0123207D02*
X0153650Y0123207D01*
X0153650Y0124805D02*
X0153650Y0124805D01*
X0153650Y0126404D02*
X0153650Y0126404D01*
X0150538Y0126404D02*
X0146491Y0126404D01*
X0147371Y0124805D02*
X0149767Y0124805D01*
X0149662Y0123207D02*
X0147440Y0123207D01*
X0147440Y0121608D02*
X0149662Y0121608D01*
X0149662Y0120010D02*
X0147440Y0120010D01*
X0147440Y0118411D02*
X0149718Y0118411D01*
X0150372Y0116813D02*
X0146739Y0116813D01*
X0143650Y0121484D02*
X0143650Y0141839D01*
X0146917Y0145106D01*
X0142864Y0147185D02*
X0133664Y0147185D01*
X0133897Y0145586D02*
X0142377Y0145586D01*
X0142466Y0143988D02*
X0133897Y0143988D01*
X0132474Y0142389D02*
X0141459Y0142389D01*
X0144173Y0148783D02*
X0132066Y0148783D01*
X0118821Y0148783D02*
X0116116Y0148783D01*
X0116116Y0150382D02*
X0118821Y0150382D01*
X0118821Y0151980D02*
X0116116Y0151980D01*
X0115912Y0147185D02*
X0118821Y0147185D01*
X0118354Y0145586D02*
X0114314Y0145586D01*
X0112715Y0143988D02*
X0116756Y0143988D01*
X0115157Y0142389D02*
X0111117Y0142389D01*
X0109518Y0140791D02*
X0113559Y0140791D01*
X0111960Y0139192D02*
X0107920Y0139192D01*
X0106321Y0137594D02*
X0110362Y0137594D01*
X0108763Y0135995D02*
X0104723Y0135995D01*
X0103124Y0134396D02*
X0107165Y0134396D01*
X0105566Y0132798D02*
X0101526Y0132798D01*
X0099927Y0131199D02*
X0103968Y0131199D01*
X0102369Y0129601D02*
X0098329Y0129601D01*
X0096730Y0128002D02*
X0101459Y0128002D01*
X0100809Y0126404D02*
X0096491Y0126404D01*
X0097371Y0124805D02*
X0099928Y0124805D01*
X0099859Y0123207D02*
X0097440Y0123207D01*
X0106966Y0128002D02*
X0141459Y0128002D01*
X0140809Y0126404D02*
X0136491Y0126404D01*
X0136863Y0126031D02*
X0135797Y0127098D01*
X0134404Y0127675D01*
X0132896Y0127675D01*
X0131502Y0127098D01*
X0130436Y0126031D01*
X0129859Y0124638D01*
X0129859Y0118330D01*
X0130436Y0116937D01*
X0131502Y0115871D01*
X0132896Y0115294D01*
X0134404Y0115294D01*
X0135797Y0115871D01*
X0136863Y0116937D01*
X0137440Y0118330D01*
X0137440Y0124638D01*
X0136863Y0126031D01*
X0137371Y0124805D02*
X0139928Y0124805D01*
X0139859Y0123207D02*
X0137440Y0123207D01*
X0137440Y0121608D02*
X0139859Y0121608D01*
X0139859Y0120010D02*
X0137440Y0120010D01*
X0137440Y0118411D02*
X0139859Y0118411D01*
X0140560Y0116813D02*
X0136739Y0116813D01*
X0130560Y0116813D02*
X0126739Y0116813D01*
X0126863Y0116937D02*
X0127440Y0118330D01*
X0127440Y0124638D01*
X0126863Y0126031D01*
X0125797Y0127098D01*
X0124404Y0127675D01*
X0122896Y0127675D01*
X0121502Y0127098D01*
X0120436Y0126031D01*
X0119859Y0124638D01*
X0119859Y0118330D01*
X0120436Y0116937D01*
X0121502Y0115871D01*
X0122896Y0115294D01*
X0124404Y0115294D01*
X0125797Y0115871D01*
X0126863Y0116937D01*
X0127440Y0118411D02*
X0129859Y0118411D01*
X0129859Y0120010D02*
X0127440Y0120010D01*
X0127440Y0121608D02*
X0129859Y0121608D01*
X0129859Y0123207D02*
X0127440Y0123207D01*
X0127371Y0124805D02*
X0129928Y0124805D01*
X0130809Y0126404D02*
X0126491Y0126404D01*
X0120809Y0126404D02*
X0116491Y0126404D01*
X0117371Y0124805D02*
X0119928Y0124805D01*
X0119859Y0123207D02*
X0117440Y0123207D01*
X0117440Y0121608D02*
X0119859Y0121608D01*
X0119859Y0120010D02*
X0117440Y0120010D01*
X0117440Y0118411D02*
X0119859Y0118411D01*
X0120560Y0116813D02*
X0116739Y0116813D01*
X0090437Y0096032D02*
X0086862Y0096032D01*
X0087440Y0094434D02*
X0089859Y0094434D01*
X0089859Y0092835D02*
X0087440Y0092835D01*
X0087440Y0091237D02*
X0089859Y0091237D01*
X0089859Y0089638D02*
X0087440Y0089638D01*
X0087320Y0088040D02*
X0089979Y0088040D01*
X0090932Y0086441D02*
X0086367Y0086441D01*
X0080932Y0086441D02*
X0076367Y0086441D01*
X0077320Y0088040D02*
X0079979Y0088040D01*
X0079859Y0089638D02*
X0077440Y0089638D01*
X0077440Y0091237D02*
X0079859Y0091237D01*
X0079859Y0092835D02*
X0077440Y0092835D01*
X0077440Y0094434D02*
X0079859Y0094434D01*
X0080437Y0096032D02*
X0076862Y0096032D01*
X0070437Y0096032D02*
X0066862Y0096032D01*
X0067440Y0094434D02*
X0069859Y0094434D01*
X0069859Y0092835D02*
X0067440Y0092835D01*
X0067440Y0091237D02*
X0069859Y0091237D01*
X0069859Y0089638D02*
X0067440Y0089638D01*
X0067320Y0088040D02*
X0069979Y0088040D01*
X0070932Y0086441D02*
X0066367Y0086441D01*
X0063650Y0082035D02*
X0070618Y0075067D01*
X0075894Y0075067D01*
X0076957Y0074004D01*
X0076957Y0070303D01*
X0076903Y0067259D02*
X0010985Y0067259D01*
X0010985Y0065660D02*
X0078501Y0065660D01*
X0080100Y0064062D02*
X0024427Y0064062D01*
X0025354Y0063136D02*
X0023018Y0065472D01*
X0021366Y0065472D01*
X0019715Y0065472D01*
X0017379Y0063136D01*
X0017379Y0061484D01*
X0017379Y0059833D01*
X0019715Y0057497D01*
X0021366Y0057497D01*
X0021366Y0061484D01*
X0021366Y0061484D01*
X0017379Y0061484D01*
X0021366Y0061484D01*
X0021366Y0061484D01*
X0021366Y0057497D01*
X0023018Y0057497D01*
X0025354Y0059833D01*
X0025354Y0061484D01*
X0021366Y0061484D01*
X0021366Y0061484D01*
X0021366Y0065472D01*
X0021366Y0061484D01*
X0021366Y0061484D01*
X0025354Y0061484D01*
X0025354Y0063136D01*
X0025354Y0062463D02*
X0081698Y0062463D01*
X0083297Y0060865D02*
X0025354Y0060865D01*
X0024787Y0059266D02*
X0084895Y0059266D01*
X0086494Y0057668D02*
X0023189Y0057668D01*
X0021366Y0057668D02*
X0021366Y0057668D01*
X0021366Y0059266D02*
X0021366Y0059266D01*
X0021366Y0060865D02*
X0021366Y0060865D01*
X0021366Y0062463D02*
X0021366Y0062463D01*
X0021366Y0064062D02*
X0021366Y0064062D01*
X0018305Y0064062D02*
X0010985Y0064062D01*
X0010985Y0062463D02*
X0017379Y0062463D01*
X0017379Y0060865D02*
X0010985Y0060865D01*
X0010985Y0059266D02*
X0017945Y0059266D01*
X0019543Y0057668D02*
X0010985Y0057668D01*
X0010985Y0056069D02*
X0088093Y0056069D01*
X0089691Y0054471D02*
X0010985Y0054471D01*
X0010985Y0052872D02*
X0091290Y0052872D01*
X0092888Y0051274D02*
X0045150Y0051274D01*
X0045710Y0051042D02*
X0044041Y0051733D01*
X0042235Y0051733D01*
X0040566Y0051042D01*
X0039288Y0049765D01*
X0038597Y0048096D01*
X0038597Y0046290D01*
X0039288Y0044621D01*
X0040566Y0043344D01*
X0042235Y0042652D01*
X0044041Y0042652D01*
X0045710Y0043344D01*
X0046987Y0044621D01*
X0047678Y0046290D01*
X0047678Y0048096D01*
X0046987Y0049765D01*
X0045710Y0051042D01*
X0047024Y0049675D02*
X0094487Y0049675D01*
X0096085Y0048077D02*
X0047678Y0048077D01*
X0047678Y0046478D02*
X0097684Y0046478D01*
X0099282Y0044880D02*
X0047094Y0044880D01*
X0045559Y0043281D02*
X0100881Y0043281D01*
X0102479Y0041683D02*
X0045348Y0041683D01*
X0045100Y0041930D02*
X0043138Y0041930D01*
X0043138Y0037193D01*
X0047875Y0037193D01*
X0047875Y0039155D01*
X0045100Y0041930D01*
X0043138Y0041930D02*
X0041175Y0041930D01*
X0038400Y0039155D01*
X0038400Y0037193D01*
X0043138Y0037193D01*
X0043138Y0037193D01*
X0043138Y0037193D01*
X0047875Y0037193D01*
X0047875Y0035231D01*
X0045100Y0032456D01*
X0043138Y0032456D01*
X0043138Y0037193D01*
X0043138Y0037193D01*
X0043138Y0041930D01*
X0043138Y0041683D02*
X0043138Y0041683D01*
X0043138Y0040084D02*
X0043138Y0040084D01*
X0043138Y0038486D02*
X0043138Y0038486D01*
X0043138Y0037193D02*
X0043138Y0037193D01*
X0043138Y0032456D01*
X0041175Y0032456D01*
X0038400Y0035231D01*
X0038400Y0037193D01*
X0043138Y0037193D01*
X0043138Y0036887D02*
X0043138Y0036887D01*
X0043138Y0035289D02*
X0043138Y0035289D01*
X0043138Y0033690D02*
X0043138Y0033690D01*
X0046335Y0033690D02*
X0073166Y0033690D01*
X0073166Y0035289D02*
X0047875Y0035289D01*
X0047875Y0036887D02*
X0074479Y0036887D01*
X0073508Y0032092D02*
X0010985Y0032092D01*
X0010985Y0033690D02*
X0019702Y0033690D01*
X0019715Y0033678D02*
X0017379Y0036014D01*
X0017379Y0037665D01*
X0021366Y0037665D01*
X0021366Y0037665D01*
X0021366Y0033678D01*
X0019715Y0033678D01*
X0021366Y0033690D02*
X0021366Y0033690D01*
X0021366Y0033678D02*
X0023018Y0033678D01*
X0025354Y0036014D01*
X0025354Y0037665D01*
X0021366Y0037665D01*
X0021366Y0037665D01*
X0021366Y0033678D01*
X0021366Y0035289D02*
X0021366Y0035289D01*
X0021366Y0036887D02*
X0021366Y0036887D01*
X0021366Y0037665D02*
X0021366Y0037665D01*
X0017379Y0037665D01*
X0017379Y0039317D01*
X0019715Y0041653D01*
X0021366Y0041653D01*
X0021366Y0037665D01*
X0021366Y0037665D01*
X0025354Y0037665D01*
X0025354Y0039317D01*
X0023018Y0041653D01*
X0021366Y0041653D01*
X0021366Y0037665D01*
X0021366Y0038486D02*
X0021366Y0038486D01*
X0021366Y0040084D02*
X0021366Y0040084D01*
X0018146Y0040084D02*
X0010985Y0040084D01*
X0010985Y0038486D02*
X0017379Y0038486D01*
X0017379Y0036887D02*
X0010985Y0036887D01*
X0010985Y0035289D02*
X0018104Y0035289D01*
X0023030Y0033690D02*
X0039941Y0033690D01*
X0038400Y0035289D02*
X0024629Y0035289D01*
X0025354Y0036887D02*
X0038400Y0036887D01*
X0038400Y0038486D02*
X0025354Y0038486D01*
X0024586Y0040084D02*
X0039330Y0040084D01*
X0040928Y0041683D02*
X0010985Y0041683D01*
X0010985Y0043281D02*
X0040716Y0043281D01*
X0039181Y0044880D02*
X0023941Y0044880D01*
X0022936Y0043875D02*
X0025157Y0046095D01*
X0025157Y0049235D01*
X0022936Y0051456D01*
X0019796Y0051456D01*
X0017576Y0049235D01*
X0017576Y0046095D01*
X0019796Y0043875D01*
X0022936Y0043875D01*
X0025157Y0046478D02*
X0038597Y0046478D01*
X0038597Y0048077D02*
X0025157Y0048077D01*
X0024717Y0049675D02*
X0039251Y0049675D01*
X0041125Y0051274D02*
X0023118Y0051274D01*
X0019614Y0051274D02*
X0010985Y0051274D01*
X0010985Y0049675D02*
X0018016Y0049675D01*
X0017576Y0048077D02*
X0010985Y0048077D01*
X0010985Y0046478D02*
X0017576Y0046478D01*
X0018791Y0044880D02*
X0010985Y0044880D01*
X0010985Y0027296D02*
X0060694Y0027296D01*
X0059096Y0025698D02*
X0010985Y0025698D01*
X0010985Y0024099D02*
X0057497Y0024099D01*
X0055636Y0022501D02*
X0048513Y0022501D01*
X0045636Y0022501D02*
X0038513Y0022501D01*
X0035636Y0022501D02*
X0028513Y0022501D01*
X0030958Y0020902D02*
X0033191Y0020902D01*
X0032276Y0019304D02*
X0031874Y0019304D01*
X0031972Y0016107D02*
X0032178Y0016107D01*
X0032954Y0014508D02*
X0031195Y0014508D01*
X0029086Y0012910D02*
X0035064Y0012910D01*
X0039086Y0012910D02*
X0045064Y0012910D01*
X0042954Y0014508D02*
X0041195Y0014508D01*
X0041972Y0016107D02*
X0042178Y0016107D01*
X0042276Y0019304D02*
X0041874Y0019304D01*
X0040958Y0020902D02*
X0043191Y0020902D01*
X0050958Y0020902D02*
X0053191Y0020902D01*
X0052276Y0019304D02*
X0051874Y0019304D01*
X0051972Y0016107D02*
X0052178Y0016107D01*
X0052954Y0014508D02*
X0051195Y0014508D01*
X0049086Y0012910D02*
X0055064Y0012910D01*
X0057075Y0015854D02*
X0057075Y0017587D01*
X0057075Y0020579D01*
X0063531Y0027035D01*
X0063693Y0024099D02*
X0098960Y0024099D01*
X0100559Y0022501D02*
X0089061Y0022501D01*
X0089104Y0022487D02*
X0088313Y0022744D01*
X0087491Y0022874D01*
X0087275Y0022874D01*
X0087275Y0017787D01*
X0092362Y0017787D01*
X0092362Y0018003D01*
X0092232Y0018825D01*
X0091975Y0019616D01*
X0091597Y0020358D01*
X0091108Y0021031D01*
X0090519Y0021620D01*
X0089846Y0022109D01*
X0089104Y0022487D01*
X0087275Y0022501D02*
X0086875Y0022501D01*
X0086875Y0020902D02*
X0087275Y0020902D01*
X0087275Y0019304D02*
X0086875Y0019304D01*
X0087275Y0017705D02*
X0105354Y0017705D01*
X0105331Y0016107D02*
X0092153Y0016107D01*
X0092232Y0016348D02*
X0092362Y0017170D01*
X0092362Y0017387D01*
X0087275Y0017387D01*
X0087275Y0012299D01*
X0087491Y0012299D01*
X0088313Y0012429D01*
X0089104Y0012687D01*
X0089846Y0013064D01*
X0090519Y0013554D01*
X0091108Y0014142D01*
X0091597Y0014815D01*
X0091975Y0015557D01*
X0092232Y0016348D01*
X0091374Y0014508D02*
X0105420Y0014508D01*
X0106082Y0012910D02*
X0089542Y0012910D01*
X0087275Y0012910D02*
X0086875Y0012910D01*
X0086875Y0014508D02*
X0087275Y0014508D01*
X0087275Y0016107D02*
X0086875Y0016107D01*
X0084607Y0012910D02*
X0079086Y0012910D01*
X0081195Y0014508D02*
X0082776Y0014508D01*
X0081996Y0016107D02*
X0081972Y0016107D01*
X0081874Y0019304D02*
X0082073Y0019304D01*
X0082948Y0020902D02*
X0080958Y0020902D01*
X0078513Y0022501D02*
X0085088Y0022501D01*
X0091201Y0020902D02*
X0102157Y0020902D01*
X0103756Y0019304D02*
X0092076Y0019304D01*
X0075636Y0022501D02*
X0068513Y0022501D01*
X0065636Y0022501D02*
X0062095Y0022501D01*
X0063191Y0020902D02*
X0060958Y0020902D01*
X0061874Y0019304D02*
X0062276Y0019304D01*
X0062178Y0016107D02*
X0061972Y0016107D01*
X0061195Y0014508D02*
X0062954Y0014508D01*
X0065064Y0012910D02*
X0059086Y0012910D01*
X0069086Y0012910D02*
X0075064Y0012910D01*
X0072954Y0014508D02*
X0071195Y0014508D01*
X0071972Y0016107D02*
X0072178Y0016107D01*
X0072276Y0019304D02*
X0071874Y0019304D01*
X0070958Y0020902D02*
X0073191Y0020902D01*
X0080747Y0035289D02*
X0108873Y0035289D01*
X0107275Y0036887D02*
X0079434Y0036887D01*
X0104078Y0040084D02*
X0046946Y0040084D01*
X0047875Y0038486D02*
X0105676Y0038486D01*
X0130221Y0020902D02*
X0130621Y0020902D01*
X0130621Y0021024D02*
X0130621Y0015936D01*
X0135709Y0015936D01*
X0135709Y0016152D01*
X0135578Y0016974D01*
X0135321Y0017766D01*
X0134943Y0018507D01*
X0134454Y0019181D01*
X0133866Y0019769D01*
X0133192Y0020258D01*
X0132451Y0020636D01*
X0131659Y0020893D01*
X0130837Y0021024D01*
X0130621Y0021024D01*
X0131604Y0020902D02*
X0154756Y0020902D01*
X0153701Y0019304D02*
X0156354Y0019304D01*
X0154838Y0017705D02*
X0157953Y0017705D01*
X0155285Y0016107D02*
X0164937Y0016107D01*
X0164937Y0014508D02*
X0155224Y0014508D01*
X0154642Y0012910D02*
X0165591Y0012910D01*
X0150228Y0016107D02*
X0149828Y0016107D01*
X0149828Y0017705D02*
X0150228Y0017705D01*
X0150228Y0019304D02*
X0149828Y0019304D01*
X0146354Y0019304D02*
X0134331Y0019304D01*
X0135341Y0017705D02*
X0145217Y0017705D01*
X0144770Y0016107D02*
X0135709Y0016107D01*
X0135580Y0014508D02*
X0144831Y0014508D01*
X0145413Y0012910D02*
X0134903Y0012910D01*
X0130621Y0016107D02*
X0130221Y0016107D01*
X0130221Y0017705D02*
X0130621Y0017705D01*
X0130621Y0019304D02*
X0130221Y0019304D01*
X0063650Y0082035D02*
X0063650Y0091484D01*
X0083650Y0121484D02*
X0083650Y0128256D01*
X0105264Y0149870D01*
X0105264Y0165618D01*
X0104875Y0191943D02*
X0071910Y0191943D01*
X0072322Y0193541D02*
X0104544Y0193541D01*
X0104544Y0195140D02*
X0072322Y0195140D01*
X0071079Y0196738D02*
X0105706Y0196738D01*
X0060520Y0163170D02*
X0035801Y0163170D01*
X0035801Y0164768D02*
X0058921Y0164768D01*
X0057323Y0166367D02*
X0035801Y0166367D01*
X0035801Y0167965D02*
X0056617Y0167965D01*
X0056617Y0169564D02*
X0035801Y0169564D01*
X0035801Y0171162D02*
X0056617Y0171162D01*
X0044280Y0190736D02*
X0044280Y0192744D01*
X0040697Y0196327D01*
X0035185Y0196327D01*
X0033610Y0194752D01*
X0031420Y0195140D02*
X0030259Y0195140D01*
X0030922Y0196738D02*
X0032499Y0196738D01*
X0031202Y0198337D02*
X0034097Y0198337D01*
X0031420Y0193541D02*
X0028836Y0193541D01*
X0031420Y0191943D02*
X0025923Y0191943D01*
X0022478Y0191943D02*
X0010985Y0191943D01*
X0010985Y0193541D02*
X0019566Y0193541D01*
X0018142Y0195140D02*
X0010985Y0195140D01*
X0010985Y0196738D02*
X0017480Y0196738D01*
X0017200Y0198337D02*
X0010985Y0198337D01*
X0010985Y0199935D02*
X0017200Y0199935D01*
X0017753Y0201534D02*
X0010985Y0201534D01*
X0010985Y0203132D02*
X0018626Y0203132D01*
X0020224Y0204731D02*
X0010985Y0204731D01*
X0010985Y0190344D02*
X0031420Y0190344D01*
X0031420Y0188746D02*
X0010985Y0188746D01*
X0010985Y0187147D02*
X0031420Y0187147D01*
X0031420Y0185549D02*
X0010985Y0185549D01*
X0010985Y0183950D02*
X0031420Y0183950D01*
X0031420Y0182352D02*
X0010985Y0182352D01*
X0010985Y0180753D02*
X0031420Y0180753D01*
X0031420Y0179155D02*
X0010985Y0179155D01*
X0010985Y0177556D02*
X0031420Y0177556D01*
X0031420Y0175958D02*
X0028211Y0175958D01*
X0028166Y0176002D02*
X0025593Y0177068D01*
X0022808Y0177068D01*
X0020235Y0176002D01*
X0018266Y0174033D01*
X0017200Y0171459D01*
X0017200Y0168674D01*
X0018266Y0166101D01*
X0020235Y0164132D01*
X0022808Y0163066D01*
X0025593Y0163066D01*
X0028166Y0164132D01*
X0030136Y0166101D01*
X0031202Y0168674D01*
X0031202Y0171459D01*
X0030136Y0174033D01*
X0028166Y0176002D01*
X0029809Y0174359D02*
X0031420Y0174359D01*
X0031420Y0172761D02*
X0030663Y0172761D01*
X0031202Y0171162D02*
X0031420Y0171162D01*
X0031420Y0169564D02*
X0031202Y0169564D01*
X0031420Y0167965D02*
X0030908Y0167965D01*
X0031420Y0166367D02*
X0030246Y0166367D01*
X0031420Y0164768D02*
X0028803Y0164768D01*
X0031420Y0163170D02*
X0025843Y0163170D01*
X0022558Y0163170D02*
X0010985Y0163170D01*
X0010985Y0164768D02*
X0019599Y0164768D01*
X0018156Y0166367D02*
X0010985Y0166367D01*
X0010985Y0167965D02*
X0017494Y0167965D01*
X0017200Y0169564D02*
X0010985Y0169564D01*
X0010985Y0171162D02*
X0017200Y0171162D01*
X0017739Y0172761D02*
X0010985Y0172761D01*
X0010985Y0174359D02*
X0018593Y0174359D01*
X0020191Y0175958D02*
X0010985Y0175958D01*
X0010985Y0161571D02*
X0031420Y0161571D01*
X0031420Y0159973D02*
X0010985Y0159973D01*
X0010985Y0158374D02*
X0031420Y0158374D01*
X0031420Y0156776D02*
X0010985Y0156776D01*
X0010985Y0155177D02*
X0031420Y0155177D01*
X0031420Y0153579D02*
X0010985Y0153579D01*
X0010985Y0151980D02*
X0012995Y0151980D01*
X0011180Y0150382D02*
X0010985Y0150382D01*
X0018005Y0151980D02*
X0031420Y0151980D01*
X0031420Y0150382D02*
X0019820Y0150382D01*
X0020482Y0148783D02*
X0031000Y0148783D01*
X0029402Y0147185D02*
X0020591Y0147185D01*
X0020214Y0145586D02*
X0027803Y0145586D01*
X0026205Y0143988D02*
X0019179Y0143988D01*
X0017018Y0142389D02*
X0024606Y0142389D01*
X0023008Y0140791D02*
X0019416Y0140791D01*
X0016366Y0117508D02*
X0024161Y0109713D01*
X0024161Y0107350D01*
X0016366Y0117508D02*
X0015500Y0117508D01*
X0011784Y0104025D02*
X0010985Y0104025D01*
X0075799Y0132798D02*
X0085094Y0132798D01*
X0086692Y0134396D02*
X0077398Y0134396D01*
X0077401Y0135995D02*
X0088291Y0135995D01*
X0089889Y0137594D02*
X0077401Y0137594D01*
X0157311Y0157665D02*
X0163531Y0151445D01*
X0163531Y0121602D01*
X0163650Y0121484D01*
X0167440Y0121608D02*
X0169859Y0121608D01*
X0169859Y0120010D02*
X0167440Y0120010D01*
X0167440Y0118411D02*
X0169859Y0118411D01*
X0170560Y0116813D02*
X0166739Y0116813D01*
X0167440Y0123207D02*
X0169859Y0123207D01*
X0169928Y0124805D02*
X0167371Y0124805D01*
X0166491Y0126404D02*
X0170809Y0126404D01*
X0171459Y0128002D02*
X0165722Y0128002D01*
X0165722Y0129601D02*
X0171459Y0129601D01*
X0171459Y0131199D02*
X0165722Y0131199D01*
X0165722Y0132798D02*
X0171459Y0132798D01*
X0171459Y0134396D02*
X0165722Y0134396D01*
X0165722Y0135995D02*
X0171459Y0135995D01*
X0171459Y0137594D02*
X0165722Y0137594D01*
X0165722Y0139192D02*
X0171459Y0139192D01*
X0171459Y0140791D02*
X0165722Y0140791D01*
X0165722Y0142389D02*
X0171459Y0142389D01*
X0171459Y0143988D02*
X0165722Y0143988D01*
X0165722Y0145586D02*
X0171459Y0145586D01*
X0171459Y0147185D02*
X0165722Y0147185D01*
X0165722Y0148783D02*
X0171459Y0148783D01*
X0171459Y0150382D02*
X0165722Y0150382D01*
X0165722Y0151980D02*
X0171459Y0151980D01*
X0171459Y0153579D02*
X0164496Y0153579D01*
X0162897Y0155177D02*
X0171459Y0155177D01*
X0171459Y0156776D02*
X0161299Y0156776D01*
X0159700Y0158374D02*
X0170827Y0158374D01*
X0169229Y0159973D02*
X0159502Y0159973D01*
X0159502Y0161571D02*
X0167630Y0161571D01*
X0166032Y0163170D02*
X0159502Y0163170D01*
X0159502Y0164768D02*
X0165278Y0164768D01*
X0165278Y0166367D02*
X0159502Y0166367D01*
X0159502Y0167965D02*
X0165278Y0167965D01*
X0165278Y0169564D02*
X0159502Y0169564D01*
X0159502Y0171162D02*
X0165278Y0171162D01*
X0165278Y0172761D02*
X0159502Y0172761D01*
X0159502Y0174359D02*
X0165278Y0174359D01*
X0165278Y0175958D02*
X0159502Y0175958D01*
X0159502Y0177556D02*
X0165278Y0177556D01*
X0165278Y0179155D02*
X0159502Y0179155D01*
X0159502Y0180753D02*
X0165278Y0180753D01*
X0165278Y0182352D02*
X0159502Y0182352D01*
X0159502Y0183950D02*
X0165278Y0183950D01*
X0165278Y0185549D02*
X0159502Y0185549D01*
X0159502Y0187147D02*
X0165278Y0187147D01*
X0165278Y0188746D02*
X0159502Y0188746D01*
X0159502Y0190344D02*
X0165278Y0190344D01*
X0165278Y0191943D02*
X0159502Y0191943D01*
X0159502Y0193541D02*
X0165278Y0193541D01*
X0163661Y0195140D02*
X0160961Y0195140D01*
X0162013Y0196738D02*
X0162609Y0196738D01*
X0162317Y0199935D02*
X0162305Y0199935D01*
X0161643Y0201534D02*
X0162979Y0201534D01*
X0164736Y0203132D02*
X0159886Y0203132D01*
X0157311Y0198689D02*
X0157311Y0157665D01*
X0167469Y0164831D02*
X0167469Y0198531D01*
X0167311Y0198689D01*
X0172013Y0196738D02*
X0172609Y0196738D01*
X0173661Y0195140D02*
X0170961Y0195140D01*
X0169659Y0193541D02*
X0175514Y0193541D01*
X0175514Y0191943D02*
X0169659Y0191943D01*
X0169659Y0190344D02*
X0175514Y0190344D01*
X0175514Y0188746D02*
X0169659Y0188746D01*
X0169659Y0187147D02*
X0175514Y0187147D01*
X0175514Y0185549D02*
X0169659Y0185549D01*
X0169659Y0183950D02*
X0175514Y0183950D01*
X0175514Y0182352D02*
X0169659Y0182352D01*
X0169659Y0180753D02*
X0175514Y0180753D01*
X0175514Y0179155D02*
X0169659Y0179155D01*
X0169659Y0177556D02*
X0175514Y0177556D01*
X0175514Y0175958D02*
X0169659Y0175958D01*
X0169659Y0174359D02*
X0175514Y0174359D01*
X0175514Y0172761D02*
X0169659Y0172761D01*
X0169659Y0171162D02*
X0176937Y0171162D01*
X0178535Y0169564D02*
X0169659Y0169564D01*
X0169659Y0167965D02*
X0180134Y0167965D01*
X0181459Y0166367D02*
X0169659Y0166367D01*
X0170629Y0164768D02*
X0181459Y0164768D01*
X0181459Y0163170D02*
X0172227Y0163170D01*
X0173826Y0161571D02*
X0181459Y0161571D01*
X0181459Y0159973D02*
X0175424Y0159973D01*
X0175840Y0158374D02*
X0181459Y0158374D01*
X0181459Y0156776D02*
X0175840Y0156776D01*
X0175840Y0155177D02*
X0181459Y0155177D01*
X0181459Y0153579D02*
X0175840Y0153579D01*
X0175840Y0151980D02*
X0181459Y0151980D01*
X0181459Y0150382D02*
X0175840Y0150382D01*
X0175840Y0148783D02*
X0181459Y0148783D01*
X0181459Y0147185D02*
X0175840Y0147185D01*
X0175840Y0145586D02*
X0181459Y0145586D01*
X0181459Y0143988D02*
X0175840Y0143988D01*
X0175840Y0142389D02*
X0181459Y0142389D01*
X0181459Y0140791D02*
X0175840Y0140791D01*
X0175840Y0139192D02*
X0181459Y0139192D01*
X0181459Y0137594D02*
X0175840Y0137594D01*
X0175840Y0135995D02*
X0181459Y0135995D01*
X0181459Y0134396D02*
X0175840Y0134396D01*
X0175840Y0132798D02*
X0181459Y0132798D01*
X0181459Y0131199D02*
X0175840Y0131199D01*
X0175840Y0129601D02*
X0181459Y0129601D01*
X0181459Y0128002D02*
X0175840Y0128002D01*
X0176491Y0126404D02*
X0180809Y0126404D01*
X0179928Y0124805D02*
X0177371Y0124805D01*
X0177440Y0123207D02*
X0179859Y0123207D01*
X0179859Y0121608D02*
X0177440Y0121608D01*
X0177440Y0120010D02*
X0179859Y0120010D01*
X0179859Y0118411D02*
X0177440Y0118411D01*
X0176739Y0116813D02*
X0180560Y0116813D01*
X0183650Y0121484D02*
X0183650Y0167547D01*
X0177705Y0173492D01*
X0177705Y0198295D01*
X0177311Y0198689D01*
X0182013Y0196738D02*
X0182609Y0196738D01*
X0183661Y0195140D02*
X0180961Y0195140D01*
X0179895Y0193541D02*
X0184963Y0193541D01*
X0184963Y0191943D02*
X0179895Y0191943D01*
X0179895Y0190344D02*
X0184963Y0190344D01*
X0184963Y0188746D02*
X0179895Y0188746D01*
X0179895Y0187147D02*
X0184963Y0187147D01*
X0184963Y0185549D02*
X0179895Y0185549D01*
X0179895Y0183950D02*
X0184963Y0183950D01*
X0186220Y0182352D02*
X0179895Y0182352D01*
X0179895Y0180753D02*
X0187818Y0180753D01*
X0189417Y0179155D02*
X0179895Y0179155D01*
X0179895Y0177556D02*
X0191015Y0177556D01*
X0191459Y0175958D02*
X0179895Y0175958D01*
X0179935Y0174359D02*
X0191459Y0174359D01*
X0191459Y0172761D02*
X0181534Y0172761D01*
X0183132Y0171162D02*
X0191459Y0171162D01*
X0191459Y0169564D02*
X0184731Y0169564D01*
X0185840Y0167965D02*
X0191459Y0167965D01*
X0191459Y0166367D02*
X0185840Y0166367D01*
X0185840Y0164768D02*
X0191459Y0164768D01*
X0191459Y0163170D02*
X0185840Y0163170D01*
X0185840Y0161571D02*
X0191459Y0161571D01*
X0191459Y0159973D02*
X0185840Y0159973D01*
X0185840Y0158374D02*
X0191459Y0158374D01*
X0191459Y0156776D02*
X0185840Y0156776D01*
X0185840Y0155177D02*
X0191459Y0155177D01*
X0191459Y0153579D02*
X0185840Y0153579D01*
X0185840Y0151980D02*
X0191459Y0151980D01*
X0191459Y0150382D02*
X0185840Y0150382D01*
X0185840Y0148783D02*
X0191459Y0148783D01*
X0191459Y0147185D02*
X0185840Y0147185D01*
X0185840Y0145586D02*
X0191459Y0145586D01*
X0191459Y0143988D02*
X0185840Y0143988D01*
X0185840Y0142389D02*
X0191459Y0142389D01*
X0191459Y0140791D02*
X0185840Y0140791D01*
X0185840Y0139192D02*
X0191459Y0139192D01*
X0191459Y0137594D02*
X0185840Y0137594D01*
X0185840Y0135995D02*
X0191459Y0135995D01*
X0191459Y0134396D02*
X0185840Y0134396D01*
X0185840Y0132798D02*
X0191459Y0132798D01*
X0191459Y0131199D02*
X0185840Y0131199D01*
X0185840Y0129601D02*
X0191459Y0129601D01*
X0191459Y0128002D02*
X0185840Y0128002D01*
X0186491Y0126404D02*
X0190809Y0126404D01*
X0189928Y0124805D02*
X0187371Y0124805D01*
X0187440Y0123207D02*
X0189859Y0123207D01*
X0189859Y0121608D02*
X0187440Y0121608D01*
X0187440Y0120010D02*
X0189859Y0120010D01*
X0189859Y0118411D02*
X0187440Y0118411D01*
X0186739Y0116813D02*
X0190560Y0116813D01*
X0193650Y0121484D02*
X0193650Y0178020D01*
X0187154Y0184516D01*
X0187154Y0198531D01*
X0187311Y0198689D01*
X0192013Y0196738D02*
X0192385Y0196738D01*
X0193383Y0195140D02*
X0190961Y0195140D01*
X0197111Y0195140D02*
X0197511Y0195140D01*
X0197511Y0196738D02*
X0197111Y0196738D01*
X0197111Y0198337D02*
X0197511Y0198337D01*
X0197511Y0199935D02*
X0197111Y0199935D01*
X0197111Y0201534D02*
X0197511Y0201534D01*
X0197511Y0203132D02*
X0197111Y0203132D01*
X0194432Y0203132D02*
X0189886Y0203132D01*
X0191643Y0201534D02*
X0192842Y0201534D01*
X0184736Y0203132D02*
X0179886Y0203132D01*
X0181643Y0201534D02*
X0182979Y0201534D01*
X0182317Y0199935D02*
X0182305Y0199935D01*
X0174736Y0203132D02*
X0169886Y0203132D01*
X0171643Y0201534D02*
X0172979Y0201534D01*
X0172317Y0199935D02*
X0172305Y0199935D01*
X0167469Y0164831D02*
X0173650Y0158650D01*
X0173650Y0121484D01*
X0188728Y0105776D02*
X0193650Y0110697D01*
X0193650Y0121484D01*
X0025636Y0022501D02*
X0018513Y0022501D01*
X0015636Y0022501D02*
X0010985Y0022501D01*
X0010985Y0020902D02*
X0013191Y0020902D01*
X0012276Y0019304D02*
X0010985Y0019304D01*
X0010985Y0017705D02*
X0011984Y0017705D01*
X0012178Y0016107D02*
X0010985Y0016107D01*
X0010985Y0014508D02*
X0012954Y0014508D01*
X0010985Y0012910D02*
X0015064Y0012910D01*
X0019086Y0012910D02*
X0025064Y0012910D01*
X0022954Y0014508D02*
X0021195Y0014508D01*
X0021972Y0016107D02*
X0022178Y0016107D01*
X0022276Y0019304D02*
X0021874Y0019304D01*
X0020958Y0020902D02*
X0023191Y0020902D01*
D19*
X0098965Y0164831D03*
M02*
