G75*
%MOIN*%
%OFA0B0*%
%FSLAX25Y25*%
%IPPOS*%
%LPD*%
%AMOC8*
5,1,8,0,0,1.08239X$1,22.5*
%
%ADD10C,0.00000*%
%ADD11C,0.00600*%
%ADD12C,0.01000*%
%ADD13C,0.00500*%
%ADD14C,0.00400*%
%ADD15C,0.00800*%
%ADD16R,0.03400X0.02400*%
%ADD17R,0.02400X0.03400*%
D10*
X0009201Y0009713D02*
X0009201Y0206563D01*
X0206051Y0206563D01*
X0206051Y0009713D01*
X0009201Y0009713D01*
D11*
X0017366Y0033165D02*
X0025366Y0033165D01*
X0025426Y0033167D01*
X0025487Y0033172D01*
X0025546Y0033181D01*
X0025605Y0033194D01*
X0025664Y0033210D01*
X0025721Y0033230D01*
X0025776Y0033253D01*
X0025831Y0033280D01*
X0025883Y0033309D01*
X0025934Y0033342D01*
X0025983Y0033378D01*
X0026029Y0033416D01*
X0026073Y0033458D01*
X0026115Y0033502D01*
X0026153Y0033548D01*
X0026189Y0033597D01*
X0026222Y0033648D01*
X0026251Y0033700D01*
X0026278Y0033755D01*
X0026301Y0033810D01*
X0026321Y0033867D01*
X0026337Y0033926D01*
X0026350Y0033985D01*
X0026359Y0034044D01*
X0026364Y0034105D01*
X0026366Y0034165D01*
X0026366Y0051165D01*
X0026364Y0051225D01*
X0026359Y0051286D01*
X0026350Y0051345D01*
X0026337Y0051404D01*
X0026321Y0051463D01*
X0026301Y0051520D01*
X0026278Y0051575D01*
X0026251Y0051630D01*
X0026222Y0051682D01*
X0026189Y0051733D01*
X0026153Y0051782D01*
X0026115Y0051828D01*
X0026073Y0051872D01*
X0026029Y0051914D01*
X0025983Y0051952D01*
X0025934Y0051988D01*
X0025883Y0052021D01*
X0025831Y0052050D01*
X0025776Y0052077D01*
X0025721Y0052100D01*
X0025664Y0052120D01*
X0025605Y0052136D01*
X0025546Y0052149D01*
X0025487Y0052158D01*
X0025426Y0052163D01*
X0025366Y0052165D01*
X0017366Y0052165D01*
X0017306Y0052163D01*
X0017245Y0052158D01*
X0017186Y0052149D01*
X0017127Y0052136D01*
X0017068Y0052120D01*
X0017011Y0052100D01*
X0016956Y0052077D01*
X0016901Y0052050D01*
X0016849Y0052021D01*
X0016798Y0051988D01*
X0016749Y0051952D01*
X0016703Y0051914D01*
X0016659Y0051872D01*
X0016617Y0051828D01*
X0016579Y0051782D01*
X0016543Y0051733D01*
X0016510Y0051682D01*
X0016481Y0051630D01*
X0016454Y0051575D01*
X0016431Y0051520D01*
X0016411Y0051463D01*
X0016395Y0051404D01*
X0016382Y0051345D01*
X0016373Y0051286D01*
X0016368Y0051225D01*
X0016366Y0051165D01*
X0016366Y0034165D01*
X0016368Y0034105D01*
X0016373Y0034044D01*
X0016382Y0033985D01*
X0016395Y0033926D01*
X0016411Y0033867D01*
X0016431Y0033810D01*
X0016454Y0033755D01*
X0016481Y0033700D01*
X0016510Y0033648D01*
X0016543Y0033597D01*
X0016579Y0033548D01*
X0016617Y0033502D01*
X0016659Y0033458D01*
X0016703Y0033416D01*
X0016749Y0033378D01*
X0016798Y0033342D01*
X0016849Y0033309D01*
X0016901Y0033280D01*
X0016956Y0033253D01*
X0017011Y0033230D01*
X0017068Y0033210D01*
X0017127Y0033194D01*
X0017186Y0033181D01*
X0017245Y0033172D01*
X0017306Y0033167D01*
X0017366Y0033165D01*
X0021366Y0041165D02*
X0021366Y0041665D01*
X0021366Y0043665D02*
X0021366Y0044165D01*
X0025366Y0056984D02*
X0017366Y0056984D01*
X0017306Y0056986D01*
X0017245Y0056991D01*
X0017186Y0057000D01*
X0017127Y0057013D01*
X0017068Y0057029D01*
X0017011Y0057049D01*
X0016956Y0057072D01*
X0016901Y0057099D01*
X0016849Y0057128D01*
X0016798Y0057161D01*
X0016749Y0057197D01*
X0016703Y0057235D01*
X0016659Y0057277D01*
X0016617Y0057321D01*
X0016579Y0057367D01*
X0016543Y0057416D01*
X0016510Y0057467D01*
X0016481Y0057519D01*
X0016454Y0057574D01*
X0016431Y0057629D01*
X0016411Y0057686D01*
X0016395Y0057745D01*
X0016382Y0057804D01*
X0016373Y0057863D01*
X0016368Y0057924D01*
X0016366Y0057984D01*
X0016366Y0074984D01*
X0016368Y0075044D01*
X0016373Y0075105D01*
X0016382Y0075164D01*
X0016395Y0075223D01*
X0016411Y0075282D01*
X0016431Y0075339D01*
X0016454Y0075394D01*
X0016481Y0075449D01*
X0016510Y0075501D01*
X0016543Y0075552D01*
X0016579Y0075601D01*
X0016617Y0075647D01*
X0016659Y0075691D01*
X0016703Y0075733D01*
X0016749Y0075771D01*
X0016798Y0075807D01*
X0016849Y0075840D01*
X0016901Y0075869D01*
X0016956Y0075896D01*
X0017011Y0075919D01*
X0017068Y0075939D01*
X0017127Y0075955D01*
X0017186Y0075968D01*
X0017245Y0075977D01*
X0017306Y0075982D01*
X0017366Y0075984D01*
X0025366Y0075984D01*
X0025426Y0075982D01*
X0025487Y0075977D01*
X0025546Y0075968D01*
X0025605Y0075955D01*
X0025664Y0075939D01*
X0025721Y0075919D01*
X0025776Y0075896D01*
X0025831Y0075869D01*
X0025883Y0075840D01*
X0025934Y0075807D01*
X0025983Y0075771D01*
X0026029Y0075733D01*
X0026073Y0075691D01*
X0026115Y0075647D01*
X0026153Y0075601D01*
X0026189Y0075552D01*
X0026222Y0075501D01*
X0026251Y0075449D01*
X0026278Y0075394D01*
X0026301Y0075339D01*
X0026321Y0075282D01*
X0026337Y0075223D01*
X0026350Y0075164D01*
X0026359Y0075105D01*
X0026364Y0075044D01*
X0026366Y0074984D01*
X0026366Y0057984D01*
X0026364Y0057924D01*
X0026359Y0057863D01*
X0026350Y0057804D01*
X0026337Y0057745D01*
X0026321Y0057686D01*
X0026301Y0057629D01*
X0026278Y0057574D01*
X0026251Y0057519D01*
X0026222Y0057467D01*
X0026189Y0057416D01*
X0026153Y0057367D01*
X0026115Y0057321D01*
X0026073Y0057277D01*
X0026029Y0057235D01*
X0025983Y0057197D01*
X0025934Y0057161D01*
X0025883Y0057128D01*
X0025831Y0057099D01*
X0025776Y0057072D01*
X0025721Y0057049D01*
X0025664Y0057029D01*
X0025605Y0057013D01*
X0025546Y0057000D01*
X0025487Y0056991D01*
X0025426Y0056986D01*
X0025366Y0056984D01*
X0021366Y0064984D02*
X0021366Y0065484D01*
X0021366Y0067484D02*
X0021366Y0067984D01*
X0037138Y0051693D02*
X0049138Y0051693D01*
X0052138Y0048693D01*
X0052138Y0034193D01*
X0052136Y0034117D01*
X0052130Y0034041D01*
X0052121Y0033966D01*
X0052107Y0033891D01*
X0052090Y0033817D01*
X0052069Y0033744D01*
X0052045Y0033672D01*
X0052016Y0033601D01*
X0051985Y0033532D01*
X0051950Y0033465D01*
X0051911Y0033400D01*
X0051869Y0033336D01*
X0051824Y0033275D01*
X0051776Y0033216D01*
X0051725Y0033160D01*
X0051671Y0033106D01*
X0051615Y0033055D01*
X0051556Y0033007D01*
X0051495Y0032962D01*
X0051431Y0032920D01*
X0051366Y0032881D01*
X0051299Y0032846D01*
X0051230Y0032815D01*
X0051159Y0032786D01*
X0051087Y0032762D01*
X0051014Y0032741D01*
X0050940Y0032724D01*
X0050865Y0032710D01*
X0050790Y0032701D01*
X0050714Y0032695D01*
X0050638Y0032693D01*
X0035638Y0032693D01*
X0035562Y0032695D01*
X0035486Y0032701D01*
X0035411Y0032710D01*
X0035336Y0032724D01*
X0035262Y0032741D01*
X0035189Y0032762D01*
X0035117Y0032786D01*
X0035046Y0032815D01*
X0034977Y0032846D01*
X0034910Y0032881D01*
X0034845Y0032920D01*
X0034781Y0032962D01*
X0034720Y0033007D01*
X0034661Y0033055D01*
X0034605Y0033106D01*
X0034551Y0033160D01*
X0034500Y0033216D01*
X0034452Y0033275D01*
X0034407Y0033336D01*
X0034365Y0033400D01*
X0034326Y0033465D01*
X0034291Y0033532D01*
X0034260Y0033601D01*
X0034231Y0033672D01*
X0034207Y0033744D01*
X0034186Y0033817D01*
X0034169Y0033891D01*
X0034155Y0033966D01*
X0034146Y0034041D01*
X0034140Y0034117D01*
X0034138Y0034193D01*
X0034138Y0048693D01*
X0037138Y0051693D01*
X0047238Y0049193D02*
X0049738Y0049193D01*
X0048538Y0047893D02*
X0048538Y0050493D01*
X0072457Y0044004D02*
X0072457Y0042504D01*
X0072459Y0042444D01*
X0072464Y0042383D01*
X0072473Y0042324D01*
X0072486Y0042265D01*
X0072502Y0042206D01*
X0072522Y0042149D01*
X0072545Y0042094D01*
X0072572Y0042039D01*
X0072601Y0041987D01*
X0072634Y0041936D01*
X0072670Y0041887D01*
X0072708Y0041841D01*
X0072750Y0041797D01*
X0072794Y0041755D01*
X0072840Y0041717D01*
X0072889Y0041681D01*
X0072940Y0041648D01*
X0072992Y0041619D01*
X0073047Y0041592D01*
X0073102Y0041569D01*
X0073159Y0041549D01*
X0073218Y0041533D01*
X0073277Y0041520D01*
X0073336Y0041511D01*
X0073397Y0041506D01*
X0073457Y0041504D01*
X0080457Y0041504D01*
X0080517Y0041506D01*
X0080578Y0041511D01*
X0080637Y0041520D01*
X0080696Y0041533D01*
X0080755Y0041549D01*
X0080812Y0041569D01*
X0080867Y0041592D01*
X0080922Y0041619D01*
X0080974Y0041648D01*
X0081025Y0041681D01*
X0081074Y0041717D01*
X0081120Y0041755D01*
X0081164Y0041797D01*
X0081206Y0041841D01*
X0081244Y0041887D01*
X0081280Y0041936D01*
X0081313Y0041987D01*
X0081342Y0042039D01*
X0081369Y0042094D01*
X0081392Y0042149D01*
X0081412Y0042206D01*
X0081428Y0042265D01*
X0081441Y0042324D01*
X0081450Y0042383D01*
X0081455Y0042444D01*
X0081457Y0042504D01*
X0081457Y0044004D01*
X0080957Y0044504D01*
X0080957Y0063504D01*
X0081457Y0064004D01*
X0081457Y0065504D01*
X0081455Y0065564D01*
X0081450Y0065625D01*
X0081441Y0065684D01*
X0081428Y0065743D01*
X0081412Y0065802D01*
X0081392Y0065859D01*
X0081369Y0065914D01*
X0081342Y0065969D01*
X0081313Y0066021D01*
X0081280Y0066072D01*
X0081244Y0066121D01*
X0081206Y0066167D01*
X0081164Y0066211D01*
X0081120Y0066253D01*
X0081074Y0066291D01*
X0081025Y0066327D01*
X0080974Y0066360D01*
X0080922Y0066389D01*
X0080867Y0066416D01*
X0080812Y0066439D01*
X0080755Y0066459D01*
X0080696Y0066475D01*
X0080637Y0066488D01*
X0080578Y0066497D01*
X0080517Y0066502D01*
X0080457Y0066504D01*
X0073457Y0066504D01*
X0073397Y0066502D01*
X0073336Y0066497D01*
X0073277Y0066488D01*
X0073218Y0066475D01*
X0073159Y0066459D01*
X0073102Y0066439D01*
X0073047Y0066416D01*
X0072992Y0066389D01*
X0072940Y0066360D01*
X0072889Y0066327D01*
X0072840Y0066291D01*
X0072794Y0066253D01*
X0072750Y0066211D01*
X0072708Y0066167D01*
X0072670Y0066121D01*
X0072634Y0066072D01*
X0072601Y0066021D01*
X0072572Y0065969D01*
X0072545Y0065914D01*
X0072522Y0065859D01*
X0072502Y0065802D01*
X0072486Y0065743D01*
X0072473Y0065684D01*
X0072464Y0065625D01*
X0072459Y0065564D01*
X0072457Y0065504D01*
X0072457Y0064004D01*
X0072957Y0063504D01*
X0072957Y0044504D01*
X0072457Y0044004D01*
X0058650Y0094984D02*
X0058650Y0102484D01*
X0058776Y0102486D01*
X0058901Y0102492D01*
X0059026Y0102502D01*
X0059151Y0102516D01*
X0059276Y0102533D01*
X0059400Y0102555D01*
X0059523Y0102580D01*
X0059645Y0102610D01*
X0059766Y0102643D01*
X0059886Y0102680D01*
X0060005Y0102720D01*
X0060122Y0102765D01*
X0060239Y0102813D01*
X0060353Y0102865D01*
X0060466Y0102920D01*
X0060577Y0102979D01*
X0060686Y0103041D01*
X0060793Y0103107D01*
X0060898Y0103176D01*
X0061001Y0103248D01*
X0061102Y0103323D01*
X0061200Y0103402D01*
X0061295Y0103484D01*
X0061388Y0103568D01*
X0061478Y0103656D01*
X0061566Y0103746D01*
X0061650Y0103839D01*
X0061732Y0103934D01*
X0061811Y0104032D01*
X0061886Y0104133D01*
X0061958Y0104236D01*
X0062027Y0104341D01*
X0062093Y0104448D01*
X0062155Y0104557D01*
X0062214Y0104668D01*
X0062269Y0104781D01*
X0062321Y0104895D01*
X0062369Y0105012D01*
X0062414Y0105129D01*
X0062454Y0105248D01*
X0062491Y0105368D01*
X0062524Y0105489D01*
X0062554Y0105611D01*
X0062579Y0105734D01*
X0062601Y0105858D01*
X0062618Y0105983D01*
X0062632Y0106108D01*
X0062642Y0106233D01*
X0062648Y0106358D01*
X0062650Y0106484D01*
X0062648Y0106610D01*
X0062642Y0106735D01*
X0062632Y0106860D01*
X0062618Y0106985D01*
X0062601Y0107110D01*
X0062579Y0107234D01*
X0062554Y0107357D01*
X0062524Y0107479D01*
X0062491Y0107600D01*
X0062454Y0107720D01*
X0062414Y0107839D01*
X0062369Y0107956D01*
X0062321Y0108073D01*
X0062269Y0108187D01*
X0062214Y0108300D01*
X0062155Y0108411D01*
X0062093Y0108520D01*
X0062027Y0108627D01*
X0061958Y0108732D01*
X0061886Y0108835D01*
X0061811Y0108936D01*
X0061732Y0109034D01*
X0061650Y0109129D01*
X0061566Y0109222D01*
X0061478Y0109312D01*
X0061388Y0109400D01*
X0061295Y0109484D01*
X0061200Y0109566D01*
X0061102Y0109645D01*
X0061001Y0109720D01*
X0060898Y0109792D01*
X0060793Y0109861D01*
X0060686Y0109927D01*
X0060577Y0109989D01*
X0060466Y0110048D01*
X0060353Y0110103D01*
X0060239Y0110155D01*
X0060122Y0110203D01*
X0060005Y0110248D01*
X0059886Y0110288D01*
X0059766Y0110325D01*
X0059645Y0110358D01*
X0059523Y0110388D01*
X0059400Y0110413D01*
X0059276Y0110435D01*
X0059151Y0110452D01*
X0059026Y0110466D01*
X0058901Y0110476D01*
X0058776Y0110482D01*
X0058650Y0110484D01*
X0058650Y0117984D01*
X0198650Y0117984D01*
X0198650Y0094984D01*
X0058650Y0094984D01*
X0059913Y0131051D02*
X0076913Y0131051D01*
X0076973Y0131053D01*
X0077034Y0131058D01*
X0077093Y0131067D01*
X0077152Y0131080D01*
X0077211Y0131096D01*
X0077268Y0131116D01*
X0077323Y0131139D01*
X0077378Y0131166D01*
X0077430Y0131195D01*
X0077481Y0131228D01*
X0077530Y0131264D01*
X0077576Y0131302D01*
X0077620Y0131344D01*
X0077662Y0131388D01*
X0077700Y0131434D01*
X0077736Y0131483D01*
X0077769Y0131534D01*
X0077798Y0131586D01*
X0077825Y0131641D01*
X0077848Y0131696D01*
X0077868Y0131753D01*
X0077884Y0131812D01*
X0077897Y0131871D01*
X0077906Y0131930D01*
X0077911Y0131991D01*
X0077913Y0132051D01*
X0077913Y0140051D01*
X0077911Y0140111D01*
X0077906Y0140172D01*
X0077897Y0140231D01*
X0077884Y0140290D01*
X0077868Y0140349D01*
X0077848Y0140406D01*
X0077825Y0140461D01*
X0077798Y0140516D01*
X0077769Y0140568D01*
X0077736Y0140619D01*
X0077700Y0140668D01*
X0077662Y0140714D01*
X0077620Y0140758D01*
X0077576Y0140800D01*
X0077530Y0140838D01*
X0077481Y0140874D01*
X0077430Y0140907D01*
X0077378Y0140936D01*
X0077323Y0140963D01*
X0077268Y0140986D01*
X0077211Y0141006D01*
X0077152Y0141022D01*
X0077093Y0141035D01*
X0077034Y0141044D01*
X0076973Y0141049D01*
X0076913Y0141051D01*
X0059913Y0141051D01*
X0059853Y0141049D01*
X0059792Y0141044D01*
X0059733Y0141035D01*
X0059674Y0141022D01*
X0059615Y0141006D01*
X0059558Y0140986D01*
X0059503Y0140963D01*
X0059448Y0140936D01*
X0059396Y0140907D01*
X0059345Y0140874D01*
X0059296Y0140838D01*
X0059250Y0140800D01*
X0059206Y0140758D01*
X0059164Y0140714D01*
X0059126Y0140668D01*
X0059090Y0140619D01*
X0059057Y0140568D01*
X0059028Y0140516D01*
X0059001Y0140461D01*
X0058978Y0140406D01*
X0058958Y0140349D01*
X0058942Y0140290D01*
X0058929Y0140231D01*
X0058920Y0140172D01*
X0058915Y0140111D01*
X0058913Y0140051D01*
X0058913Y0132051D01*
X0058915Y0131991D01*
X0058920Y0131930D01*
X0058929Y0131871D01*
X0058942Y0131812D01*
X0058958Y0131753D01*
X0058978Y0131696D01*
X0059001Y0131641D01*
X0059028Y0131586D01*
X0059057Y0131534D01*
X0059090Y0131483D01*
X0059126Y0131434D01*
X0059164Y0131388D01*
X0059206Y0131344D01*
X0059250Y0131302D01*
X0059296Y0131264D01*
X0059345Y0131228D01*
X0059396Y0131195D01*
X0059448Y0131166D01*
X0059503Y0131139D01*
X0059558Y0131116D01*
X0059615Y0131096D01*
X0059674Y0131080D01*
X0059733Y0131067D01*
X0059792Y0131058D01*
X0059853Y0131053D01*
X0059913Y0131051D01*
X0066913Y0136051D02*
X0067413Y0136051D01*
X0069413Y0136051D02*
X0069913Y0136051D01*
X0078149Y0181348D02*
X0078055Y0181467D01*
X0077957Y0181583D01*
X0077857Y0181697D01*
X0077753Y0181808D01*
X0077647Y0181916D01*
X0077539Y0182022D01*
X0077427Y0182124D01*
X0077313Y0182224D01*
X0077197Y0182322D01*
X0077078Y0182416D01*
X0076957Y0182507D01*
X0076833Y0182595D01*
X0076707Y0182680D01*
X0076580Y0182761D01*
X0076450Y0182840D01*
X0076318Y0182915D01*
X0076185Y0182986D01*
X0076049Y0183055D01*
X0075912Y0183120D01*
X0075774Y0183181D01*
X0075633Y0183239D01*
X0075492Y0183293D01*
X0075349Y0183344D01*
X0075205Y0183391D01*
X0075060Y0183435D01*
X0074913Y0183474D01*
X0074766Y0183510D01*
X0074618Y0183543D01*
X0074469Y0183571D01*
X0074319Y0183596D01*
X0074169Y0183617D01*
X0074019Y0183634D01*
X0073867Y0183648D01*
X0073716Y0183657D01*
X0073565Y0183663D01*
X0073413Y0183665D01*
X0077031Y0189425D02*
X0078531Y0189425D01*
X0079031Y0189925D01*
X0098031Y0189925D01*
X0098531Y0189425D01*
X0100031Y0189425D01*
X0100091Y0189427D01*
X0100152Y0189432D01*
X0100211Y0189441D01*
X0100270Y0189454D01*
X0100329Y0189470D01*
X0100386Y0189490D01*
X0100441Y0189513D01*
X0100496Y0189540D01*
X0100548Y0189569D01*
X0100599Y0189602D01*
X0100648Y0189638D01*
X0100694Y0189676D01*
X0100738Y0189718D01*
X0100780Y0189762D01*
X0100818Y0189808D01*
X0100854Y0189857D01*
X0100887Y0189908D01*
X0100916Y0189960D01*
X0100943Y0190015D01*
X0100966Y0190070D01*
X0100986Y0190127D01*
X0101002Y0190186D01*
X0101015Y0190245D01*
X0101024Y0190304D01*
X0101029Y0190365D01*
X0101031Y0190425D01*
X0101031Y0197425D01*
X0101029Y0197485D01*
X0101024Y0197546D01*
X0101015Y0197605D01*
X0101002Y0197664D01*
X0100986Y0197723D01*
X0100966Y0197780D01*
X0100943Y0197835D01*
X0100916Y0197890D01*
X0100887Y0197942D01*
X0100854Y0197993D01*
X0100818Y0198042D01*
X0100780Y0198088D01*
X0100738Y0198132D01*
X0100694Y0198174D01*
X0100648Y0198212D01*
X0100599Y0198248D01*
X0100548Y0198281D01*
X0100496Y0198310D01*
X0100441Y0198337D01*
X0100386Y0198360D01*
X0100329Y0198380D01*
X0100270Y0198396D01*
X0100211Y0198409D01*
X0100152Y0198418D01*
X0100091Y0198423D01*
X0100031Y0198425D01*
X0098531Y0198425D01*
X0098031Y0197925D01*
X0079031Y0197925D01*
X0078531Y0198425D01*
X0077031Y0198425D01*
X0076971Y0198423D01*
X0076910Y0198418D01*
X0076851Y0198409D01*
X0076792Y0198396D01*
X0076733Y0198380D01*
X0076676Y0198360D01*
X0076621Y0198337D01*
X0076566Y0198310D01*
X0076514Y0198281D01*
X0076463Y0198248D01*
X0076414Y0198212D01*
X0076368Y0198174D01*
X0076324Y0198132D01*
X0076282Y0198088D01*
X0076244Y0198042D01*
X0076208Y0197993D01*
X0076175Y0197942D01*
X0076146Y0197890D01*
X0076119Y0197835D01*
X0076096Y0197780D01*
X0076076Y0197723D01*
X0076060Y0197664D01*
X0076047Y0197605D01*
X0076038Y0197546D01*
X0076033Y0197485D01*
X0076031Y0197425D01*
X0076031Y0190425D01*
X0076033Y0190365D01*
X0076038Y0190304D01*
X0076047Y0190245D01*
X0076060Y0190186D01*
X0076076Y0190127D01*
X0076096Y0190070D01*
X0076119Y0190015D01*
X0076146Y0189960D01*
X0076175Y0189908D01*
X0076208Y0189857D01*
X0076244Y0189808D01*
X0076282Y0189762D01*
X0076324Y0189718D01*
X0076368Y0189676D01*
X0076414Y0189638D01*
X0076463Y0189602D01*
X0076514Y0189569D01*
X0076566Y0189540D01*
X0076621Y0189513D01*
X0076676Y0189490D01*
X0076733Y0189470D01*
X0076792Y0189454D01*
X0076851Y0189441D01*
X0076910Y0189432D01*
X0076971Y0189427D01*
X0077031Y0189425D01*
X0068532Y0174178D02*
X0068623Y0174053D01*
X0068717Y0173931D01*
X0068815Y0173812D01*
X0068915Y0173695D01*
X0069019Y0173581D01*
X0069125Y0173469D01*
X0069234Y0173361D01*
X0069346Y0173255D01*
X0069461Y0173152D01*
X0069578Y0173052D01*
X0069698Y0172954D01*
X0069820Y0172861D01*
X0069944Y0172770D01*
X0070071Y0172682D01*
X0070200Y0172598D01*
X0070332Y0172517D01*
X0070465Y0172440D01*
X0070600Y0172366D01*
X0070737Y0172295D01*
X0070876Y0172228D01*
X0071016Y0172165D01*
X0071159Y0172105D01*
X0071302Y0172049D01*
X0071447Y0171997D01*
X0071593Y0171948D01*
X0071741Y0171903D01*
X0071889Y0171862D01*
X0072039Y0171825D01*
X0072189Y0171791D01*
X0072341Y0171762D01*
X0072493Y0171736D01*
X0072645Y0171714D01*
X0072798Y0171697D01*
X0072952Y0171683D01*
X0073106Y0171673D01*
X0073260Y0171667D01*
X0073414Y0171665D01*
X0068677Y0181348D02*
X0068771Y0181467D01*
X0068869Y0181583D01*
X0068969Y0181697D01*
X0069073Y0181808D01*
X0069179Y0181916D01*
X0069287Y0182022D01*
X0069399Y0182124D01*
X0069513Y0182224D01*
X0069629Y0182322D01*
X0069748Y0182416D01*
X0069869Y0182507D01*
X0069993Y0182595D01*
X0070119Y0182680D01*
X0070246Y0182761D01*
X0070376Y0182840D01*
X0070508Y0182915D01*
X0070641Y0182986D01*
X0070777Y0183055D01*
X0070914Y0183120D01*
X0071052Y0183181D01*
X0071193Y0183239D01*
X0071334Y0183293D01*
X0071477Y0183344D01*
X0071621Y0183391D01*
X0071766Y0183435D01*
X0071913Y0183474D01*
X0072060Y0183510D01*
X0072208Y0183543D01*
X0072357Y0183571D01*
X0072507Y0183596D01*
X0072657Y0183617D01*
X0072807Y0183634D01*
X0072959Y0183648D01*
X0073110Y0183657D01*
X0073261Y0183663D01*
X0073413Y0183665D01*
X0078213Y0174065D02*
X0078121Y0173946D01*
X0078027Y0173829D01*
X0077929Y0173715D01*
X0077829Y0173603D01*
X0077725Y0173493D01*
X0077620Y0173387D01*
X0077511Y0173282D01*
X0077400Y0173181D01*
X0077286Y0173083D01*
X0077170Y0172987D01*
X0077052Y0172894D01*
X0076931Y0172805D01*
X0076808Y0172718D01*
X0076683Y0172635D01*
X0076556Y0172554D01*
X0076427Y0172477D01*
X0076296Y0172403D01*
X0076163Y0172332D01*
X0076029Y0172265D01*
X0075893Y0172201D01*
X0075755Y0172141D01*
X0075616Y0172084D01*
X0075475Y0172031D01*
X0075333Y0171981D01*
X0075190Y0171934D01*
X0075046Y0171892D01*
X0074901Y0171852D01*
X0074755Y0171817D01*
X0074608Y0171785D01*
X0074460Y0171757D01*
X0074312Y0171733D01*
X0074163Y0171712D01*
X0074013Y0171695D01*
X0073864Y0171682D01*
X0073714Y0171673D01*
X0073563Y0171667D01*
X0073413Y0171665D01*
X0125106Y0158882D02*
X0125106Y0141882D01*
X0125108Y0141822D01*
X0125113Y0141761D01*
X0125122Y0141702D01*
X0125135Y0141643D01*
X0125151Y0141584D01*
X0125171Y0141527D01*
X0125194Y0141472D01*
X0125221Y0141417D01*
X0125250Y0141365D01*
X0125283Y0141314D01*
X0125319Y0141265D01*
X0125357Y0141219D01*
X0125399Y0141175D01*
X0125443Y0141133D01*
X0125489Y0141095D01*
X0125538Y0141059D01*
X0125589Y0141026D01*
X0125641Y0140997D01*
X0125696Y0140970D01*
X0125751Y0140947D01*
X0125808Y0140927D01*
X0125867Y0140911D01*
X0125926Y0140898D01*
X0125985Y0140889D01*
X0126046Y0140884D01*
X0126106Y0140882D01*
X0134106Y0140882D01*
X0134166Y0140884D01*
X0134227Y0140889D01*
X0134286Y0140898D01*
X0134345Y0140911D01*
X0134404Y0140927D01*
X0134461Y0140947D01*
X0134516Y0140970D01*
X0134571Y0140997D01*
X0134623Y0141026D01*
X0134674Y0141059D01*
X0134723Y0141095D01*
X0134769Y0141133D01*
X0134813Y0141175D01*
X0134855Y0141219D01*
X0134893Y0141265D01*
X0134929Y0141314D01*
X0134962Y0141365D01*
X0134991Y0141417D01*
X0135018Y0141472D01*
X0135041Y0141527D01*
X0135061Y0141584D01*
X0135077Y0141643D01*
X0135090Y0141702D01*
X0135099Y0141761D01*
X0135104Y0141822D01*
X0135106Y0141882D01*
X0135106Y0158882D01*
X0135104Y0158942D01*
X0135099Y0159003D01*
X0135090Y0159062D01*
X0135077Y0159121D01*
X0135061Y0159180D01*
X0135041Y0159237D01*
X0135018Y0159292D01*
X0134991Y0159347D01*
X0134962Y0159399D01*
X0134929Y0159450D01*
X0134893Y0159499D01*
X0134855Y0159545D01*
X0134813Y0159589D01*
X0134769Y0159631D01*
X0134723Y0159669D01*
X0134674Y0159705D01*
X0134623Y0159738D01*
X0134571Y0159767D01*
X0134516Y0159794D01*
X0134461Y0159817D01*
X0134404Y0159837D01*
X0134345Y0159853D01*
X0134286Y0159866D01*
X0134227Y0159875D01*
X0134166Y0159880D01*
X0134106Y0159882D01*
X0126106Y0159882D01*
X0126046Y0159880D01*
X0125985Y0159875D01*
X0125926Y0159866D01*
X0125867Y0159853D01*
X0125808Y0159837D01*
X0125751Y0159817D01*
X0125696Y0159794D01*
X0125641Y0159767D01*
X0125589Y0159738D01*
X0125538Y0159705D01*
X0125489Y0159669D01*
X0125443Y0159631D01*
X0125399Y0159589D01*
X0125357Y0159545D01*
X0125319Y0159499D01*
X0125283Y0159450D01*
X0125250Y0159399D01*
X0125221Y0159347D01*
X0125194Y0159292D01*
X0125171Y0159237D01*
X0125151Y0159180D01*
X0125135Y0159121D01*
X0125122Y0159062D01*
X0125113Y0159003D01*
X0125108Y0158942D01*
X0125106Y0158882D01*
X0130106Y0151882D02*
X0130106Y0151382D01*
X0130106Y0149382D02*
X0130106Y0148882D01*
X0137917Y0143606D02*
X0140917Y0140606D01*
X0152917Y0140606D01*
X0155917Y0143606D01*
X0155917Y0158106D01*
X0155915Y0158182D01*
X0155909Y0158258D01*
X0155900Y0158333D01*
X0155886Y0158408D01*
X0155869Y0158482D01*
X0155848Y0158555D01*
X0155824Y0158627D01*
X0155795Y0158698D01*
X0155764Y0158767D01*
X0155729Y0158834D01*
X0155690Y0158899D01*
X0155648Y0158963D01*
X0155603Y0159024D01*
X0155555Y0159083D01*
X0155504Y0159139D01*
X0155450Y0159193D01*
X0155394Y0159244D01*
X0155335Y0159292D01*
X0155274Y0159337D01*
X0155210Y0159379D01*
X0155145Y0159418D01*
X0155078Y0159453D01*
X0155009Y0159484D01*
X0154938Y0159513D01*
X0154866Y0159537D01*
X0154793Y0159558D01*
X0154719Y0159575D01*
X0154644Y0159589D01*
X0154569Y0159598D01*
X0154493Y0159604D01*
X0154417Y0159606D01*
X0139417Y0159606D01*
X0139341Y0159604D01*
X0139265Y0159598D01*
X0139190Y0159589D01*
X0139115Y0159575D01*
X0139041Y0159558D01*
X0138968Y0159537D01*
X0138896Y0159513D01*
X0138825Y0159484D01*
X0138756Y0159453D01*
X0138689Y0159418D01*
X0138624Y0159379D01*
X0138560Y0159337D01*
X0138499Y0159292D01*
X0138440Y0159244D01*
X0138384Y0159193D01*
X0138330Y0159139D01*
X0138279Y0159083D01*
X0138231Y0159024D01*
X0138186Y0158963D01*
X0138144Y0158899D01*
X0138105Y0158834D01*
X0138070Y0158767D01*
X0138039Y0158698D01*
X0138010Y0158627D01*
X0137986Y0158555D01*
X0137965Y0158482D01*
X0137948Y0158408D01*
X0137934Y0158333D01*
X0137925Y0158258D01*
X0137919Y0158182D01*
X0137917Y0158106D01*
X0137917Y0143606D01*
X0140317Y0143106D02*
X0142817Y0143106D01*
X0141517Y0144406D02*
X0141517Y0141806D01*
X0184480Y0083571D02*
X0201480Y0083571D01*
X0201540Y0083569D01*
X0201601Y0083564D01*
X0201660Y0083555D01*
X0201719Y0083542D01*
X0201778Y0083526D01*
X0201835Y0083506D01*
X0201890Y0083483D01*
X0201945Y0083456D01*
X0201997Y0083427D01*
X0202048Y0083394D01*
X0202097Y0083358D01*
X0202143Y0083320D01*
X0202187Y0083278D01*
X0202229Y0083234D01*
X0202267Y0083188D01*
X0202303Y0083139D01*
X0202336Y0083088D01*
X0202365Y0083036D01*
X0202392Y0082981D01*
X0202415Y0082926D01*
X0202435Y0082869D01*
X0202451Y0082810D01*
X0202464Y0082751D01*
X0202473Y0082692D01*
X0202478Y0082631D01*
X0202480Y0082571D01*
X0202480Y0074571D01*
X0202478Y0074511D01*
X0202473Y0074450D01*
X0202464Y0074391D01*
X0202451Y0074332D01*
X0202435Y0074273D01*
X0202415Y0074216D01*
X0202392Y0074161D01*
X0202365Y0074106D01*
X0202336Y0074054D01*
X0202303Y0074003D01*
X0202267Y0073954D01*
X0202229Y0073908D01*
X0202187Y0073864D01*
X0202143Y0073822D01*
X0202097Y0073784D01*
X0202048Y0073748D01*
X0201997Y0073715D01*
X0201945Y0073686D01*
X0201890Y0073659D01*
X0201835Y0073636D01*
X0201778Y0073616D01*
X0201719Y0073600D01*
X0201660Y0073587D01*
X0201601Y0073578D01*
X0201540Y0073573D01*
X0201480Y0073571D01*
X0184480Y0073571D01*
X0184420Y0073573D01*
X0184359Y0073578D01*
X0184300Y0073587D01*
X0184241Y0073600D01*
X0184182Y0073616D01*
X0184125Y0073636D01*
X0184070Y0073659D01*
X0184015Y0073686D01*
X0183963Y0073715D01*
X0183912Y0073748D01*
X0183863Y0073784D01*
X0183817Y0073822D01*
X0183773Y0073864D01*
X0183731Y0073908D01*
X0183693Y0073954D01*
X0183657Y0074003D01*
X0183624Y0074054D01*
X0183595Y0074106D01*
X0183568Y0074161D01*
X0183545Y0074216D01*
X0183525Y0074273D01*
X0183509Y0074332D01*
X0183496Y0074391D01*
X0183487Y0074450D01*
X0183482Y0074511D01*
X0183480Y0074571D01*
X0183480Y0082571D01*
X0183482Y0082631D01*
X0183487Y0082692D01*
X0183496Y0082751D01*
X0183509Y0082810D01*
X0183525Y0082869D01*
X0183545Y0082926D01*
X0183568Y0082981D01*
X0183595Y0083036D01*
X0183624Y0083088D01*
X0183657Y0083139D01*
X0183693Y0083188D01*
X0183731Y0083234D01*
X0183773Y0083278D01*
X0183817Y0083320D01*
X0183863Y0083358D01*
X0183912Y0083394D01*
X0183963Y0083427D01*
X0184015Y0083456D01*
X0184070Y0083483D01*
X0184125Y0083506D01*
X0184182Y0083526D01*
X0184241Y0083542D01*
X0184300Y0083555D01*
X0184359Y0083564D01*
X0184420Y0083569D01*
X0184480Y0083571D01*
X0191480Y0078571D02*
X0191980Y0078571D01*
X0193980Y0078571D02*
X0194480Y0078571D01*
X0189591Y0060598D02*
X0182591Y0060598D01*
X0182531Y0060596D01*
X0182470Y0060591D01*
X0182411Y0060582D01*
X0182352Y0060569D01*
X0182293Y0060553D01*
X0182236Y0060533D01*
X0182181Y0060510D01*
X0182126Y0060483D01*
X0182074Y0060454D01*
X0182023Y0060421D01*
X0181974Y0060385D01*
X0181928Y0060347D01*
X0181884Y0060305D01*
X0181842Y0060261D01*
X0181804Y0060215D01*
X0181768Y0060166D01*
X0181735Y0060115D01*
X0181706Y0060063D01*
X0181679Y0060008D01*
X0181656Y0059953D01*
X0181636Y0059896D01*
X0181620Y0059837D01*
X0181607Y0059778D01*
X0181598Y0059719D01*
X0181593Y0059658D01*
X0181591Y0059598D01*
X0181591Y0058098D01*
X0182091Y0057598D01*
X0182091Y0038598D01*
X0181591Y0038098D01*
X0181591Y0036598D01*
X0181593Y0036538D01*
X0181598Y0036477D01*
X0181607Y0036418D01*
X0181620Y0036359D01*
X0181636Y0036300D01*
X0181656Y0036243D01*
X0181679Y0036188D01*
X0181706Y0036133D01*
X0181735Y0036081D01*
X0181768Y0036030D01*
X0181804Y0035981D01*
X0181842Y0035935D01*
X0181884Y0035891D01*
X0181928Y0035849D01*
X0181974Y0035811D01*
X0182023Y0035775D01*
X0182074Y0035742D01*
X0182126Y0035713D01*
X0182181Y0035686D01*
X0182236Y0035663D01*
X0182293Y0035643D01*
X0182352Y0035627D01*
X0182411Y0035614D01*
X0182470Y0035605D01*
X0182531Y0035600D01*
X0182591Y0035598D01*
X0189591Y0035598D01*
X0189651Y0035600D01*
X0189712Y0035605D01*
X0189771Y0035614D01*
X0189830Y0035627D01*
X0189889Y0035643D01*
X0189946Y0035663D01*
X0190001Y0035686D01*
X0190056Y0035713D01*
X0190108Y0035742D01*
X0190159Y0035775D01*
X0190208Y0035811D01*
X0190254Y0035849D01*
X0190298Y0035891D01*
X0190340Y0035935D01*
X0190378Y0035981D01*
X0190414Y0036030D01*
X0190447Y0036081D01*
X0190476Y0036133D01*
X0190503Y0036188D01*
X0190526Y0036243D01*
X0190546Y0036300D01*
X0190562Y0036359D01*
X0190575Y0036418D01*
X0190584Y0036477D01*
X0190589Y0036538D01*
X0190591Y0036598D01*
X0190591Y0038098D01*
X0190091Y0038598D01*
X0190091Y0057598D01*
X0190591Y0058098D01*
X0190591Y0059598D01*
X0190589Y0059658D01*
X0190584Y0059719D01*
X0190575Y0059778D01*
X0190562Y0059837D01*
X0190546Y0059896D01*
X0190526Y0059953D01*
X0190503Y0060008D01*
X0190476Y0060063D01*
X0190447Y0060115D01*
X0190414Y0060166D01*
X0190378Y0060215D01*
X0190340Y0060261D01*
X0190298Y0060305D01*
X0190254Y0060347D01*
X0190208Y0060385D01*
X0190159Y0060421D01*
X0190108Y0060454D01*
X0190056Y0060483D01*
X0190001Y0060510D01*
X0189946Y0060533D01*
X0189889Y0060553D01*
X0189830Y0060569D01*
X0189771Y0060582D01*
X0189712Y0060591D01*
X0189651Y0060596D01*
X0189591Y0060598D01*
X0167531Y0073571D02*
X0167533Y0073723D01*
X0167539Y0073874D01*
X0167548Y0074025D01*
X0167562Y0074177D01*
X0167579Y0074327D01*
X0167600Y0074477D01*
X0167625Y0074627D01*
X0167653Y0074776D01*
X0167686Y0074924D01*
X0167722Y0075071D01*
X0167761Y0075218D01*
X0167805Y0075363D01*
X0167852Y0075507D01*
X0167903Y0075650D01*
X0167957Y0075791D01*
X0168015Y0075932D01*
X0168076Y0076070D01*
X0168141Y0076207D01*
X0168210Y0076343D01*
X0168281Y0076476D01*
X0168356Y0076608D01*
X0168435Y0076738D01*
X0168516Y0076865D01*
X0168601Y0076991D01*
X0168689Y0077115D01*
X0168780Y0077236D01*
X0168874Y0077355D01*
X0168972Y0077471D01*
X0169072Y0077585D01*
X0169174Y0077697D01*
X0169280Y0077805D01*
X0169388Y0077911D01*
X0169499Y0078015D01*
X0169613Y0078115D01*
X0169729Y0078213D01*
X0169848Y0078307D01*
X0179531Y0073571D02*
X0179529Y0073417D01*
X0179523Y0073263D01*
X0179513Y0073109D01*
X0179499Y0072955D01*
X0179482Y0072802D01*
X0179460Y0072650D01*
X0179434Y0072498D01*
X0179405Y0072346D01*
X0179371Y0072196D01*
X0179334Y0072046D01*
X0179293Y0071898D01*
X0179248Y0071750D01*
X0179199Y0071604D01*
X0179147Y0071459D01*
X0179091Y0071316D01*
X0179031Y0071173D01*
X0178968Y0071033D01*
X0178901Y0070894D01*
X0178830Y0070757D01*
X0178756Y0070622D01*
X0178679Y0070489D01*
X0178598Y0070357D01*
X0178514Y0070228D01*
X0178426Y0070101D01*
X0178335Y0069977D01*
X0178242Y0069855D01*
X0178144Y0069735D01*
X0178044Y0069618D01*
X0177941Y0069503D01*
X0177835Y0069391D01*
X0177727Y0069282D01*
X0177615Y0069176D01*
X0177501Y0069072D01*
X0177384Y0068972D01*
X0177265Y0068874D01*
X0177143Y0068780D01*
X0177018Y0068689D01*
X0179531Y0073571D02*
X0179529Y0073721D01*
X0179523Y0073872D01*
X0179514Y0074022D01*
X0179501Y0074171D01*
X0179484Y0074321D01*
X0179463Y0074470D01*
X0179439Y0074618D01*
X0179411Y0074766D01*
X0179379Y0074913D01*
X0179344Y0075059D01*
X0179304Y0075204D01*
X0179262Y0075348D01*
X0179215Y0075491D01*
X0179165Y0075633D01*
X0179112Y0075774D01*
X0179055Y0075913D01*
X0178995Y0076051D01*
X0178931Y0076187D01*
X0178864Y0076321D01*
X0178793Y0076454D01*
X0178719Y0076585D01*
X0178642Y0076714D01*
X0178561Y0076841D01*
X0178478Y0076966D01*
X0178391Y0077089D01*
X0178302Y0077210D01*
X0178209Y0077328D01*
X0178113Y0077444D01*
X0178015Y0077558D01*
X0177914Y0077669D01*
X0177809Y0077778D01*
X0177703Y0077883D01*
X0177593Y0077987D01*
X0177481Y0078087D01*
X0177367Y0078185D01*
X0177250Y0078279D01*
X0177131Y0078371D01*
X0167531Y0073571D02*
X0167533Y0073419D01*
X0167539Y0073268D01*
X0167548Y0073117D01*
X0167562Y0072965D01*
X0167579Y0072815D01*
X0167600Y0072665D01*
X0167625Y0072515D01*
X0167653Y0072366D01*
X0167686Y0072218D01*
X0167722Y0072071D01*
X0167761Y0071924D01*
X0167805Y0071779D01*
X0167852Y0071635D01*
X0167903Y0071492D01*
X0167957Y0071351D01*
X0168015Y0071210D01*
X0168076Y0071072D01*
X0168141Y0070935D01*
X0168210Y0070799D01*
X0168281Y0070666D01*
X0168356Y0070534D01*
X0168435Y0070404D01*
X0168516Y0070277D01*
X0168601Y0070151D01*
X0168689Y0070027D01*
X0168780Y0069906D01*
X0168874Y0069787D01*
X0168972Y0069671D01*
X0169072Y0069557D01*
X0169174Y0069445D01*
X0169280Y0069337D01*
X0169388Y0069231D01*
X0169499Y0069127D01*
X0169613Y0069027D01*
X0169729Y0068929D01*
X0169848Y0068835D01*
X0164709Y0059811D02*
X0157709Y0059811D01*
X0157649Y0059809D01*
X0157588Y0059804D01*
X0157529Y0059795D01*
X0157470Y0059782D01*
X0157411Y0059766D01*
X0157354Y0059746D01*
X0157299Y0059723D01*
X0157244Y0059696D01*
X0157192Y0059667D01*
X0157141Y0059634D01*
X0157092Y0059598D01*
X0157046Y0059560D01*
X0157002Y0059518D01*
X0156960Y0059474D01*
X0156922Y0059428D01*
X0156886Y0059379D01*
X0156853Y0059328D01*
X0156824Y0059276D01*
X0156797Y0059221D01*
X0156774Y0059166D01*
X0156754Y0059109D01*
X0156738Y0059050D01*
X0156725Y0058991D01*
X0156716Y0058932D01*
X0156711Y0058871D01*
X0156709Y0058811D01*
X0156709Y0057311D01*
X0157209Y0056811D01*
X0157209Y0037811D01*
X0156709Y0037311D01*
X0156709Y0035811D01*
X0156711Y0035751D01*
X0156716Y0035690D01*
X0156725Y0035631D01*
X0156738Y0035572D01*
X0156754Y0035513D01*
X0156774Y0035456D01*
X0156797Y0035401D01*
X0156824Y0035346D01*
X0156853Y0035294D01*
X0156886Y0035243D01*
X0156922Y0035194D01*
X0156960Y0035148D01*
X0157002Y0035104D01*
X0157046Y0035062D01*
X0157092Y0035024D01*
X0157141Y0034988D01*
X0157192Y0034955D01*
X0157244Y0034926D01*
X0157299Y0034899D01*
X0157354Y0034876D01*
X0157411Y0034856D01*
X0157470Y0034840D01*
X0157529Y0034827D01*
X0157588Y0034818D01*
X0157649Y0034813D01*
X0157709Y0034811D01*
X0164709Y0034811D01*
X0164769Y0034813D01*
X0164830Y0034818D01*
X0164889Y0034827D01*
X0164948Y0034840D01*
X0165007Y0034856D01*
X0165064Y0034876D01*
X0165119Y0034899D01*
X0165174Y0034926D01*
X0165226Y0034955D01*
X0165277Y0034988D01*
X0165326Y0035024D01*
X0165372Y0035062D01*
X0165416Y0035104D01*
X0165458Y0035148D01*
X0165496Y0035194D01*
X0165532Y0035243D01*
X0165565Y0035294D01*
X0165594Y0035346D01*
X0165621Y0035401D01*
X0165644Y0035456D01*
X0165664Y0035513D01*
X0165680Y0035572D01*
X0165693Y0035631D01*
X0165702Y0035690D01*
X0165707Y0035751D01*
X0165709Y0035811D01*
X0165709Y0037311D01*
X0165209Y0037811D01*
X0165209Y0056811D01*
X0165709Y0057311D01*
X0165709Y0058811D01*
X0165707Y0058871D01*
X0165702Y0058932D01*
X0165693Y0058991D01*
X0165680Y0059050D01*
X0165664Y0059109D01*
X0165644Y0059166D01*
X0165621Y0059221D01*
X0165594Y0059276D01*
X0165565Y0059328D01*
X0165532Y0059379D01*
X0165496Y0059428D01*
X0165458Y0059474D01*
X0165416Y0059518D01*
X0165372Y0059560D01*
X0165326Y0059598D01*
X0165277Y0059634D01*
X0165226Y0059667D01*
X0165174Y0059696D01*
X0165119Y0059723D01*
X0165064Y0059746D01*
X0165007Y0059766D01*
X0164948Y0059782D01*
X0164889Y0059795D01*
X0164830Y0059804D01*
X0164769Y0059809D01*
X0164709Y0059811D01*
D12*
X0181531Y0073571D02*
X0181529Y0073763D01*
X0181522Y0073955D01*
X0181510Y0074147D01*
X0181494Y0074339D01*
X0181473Y0074530D01*
X0181448Y0074720D01*
X0181418Y0074910D01*
X0181384Y0075099D01*
X0181345Y0075287D01*
X0181301Y0075474D01*
X0181253Y0075660D01*
X0181201Y0075845D01*
X0181144Y0076029D01*
X0181083Y0076211D01*
X0181017Y0076391D01*
X0180947Y0076570D01*
X0180873Y0076748D01*
X0180795Y0076923D01*
X0180712Y0077097D01*
X0180625Y0077268D01*
X0180535Y0077437D01*
X0180440Y0077604D01*
X0180341Y0077769D01*
X0180238Y0077932D01*
X0180131Y0078091D01*
X0180021Y0078249D01*
X0179907Y0078403D01*
X0179789Y0078555D01*
X0179667Y0078704D01*
X0179542Y0078850D01*
X0179414Y0078992D01*
X0179282Y0079132D01*
X0179147Y0079269D01*
X0179008Y0079402D01*
X0178867Y0079532D01*
X0178722Y0079658D01*
X0178574Y0079781D01*
X0178424Y0079900D01*
X0178270Y0080016D01*
X0178114Y0080128D01*
X0177955Y0080236D01*
X0177794Y0080341D01*
X0177630Y0080441D01*
X0177464Y0080537D01*
X0177296Y0080630D01*
X0169562Y0080517D02*
X0169393Y0080418D01*
X0169227Y0080314D01*
X0169063Y0080207D01*
X0168902Y0080096D01*
X0168744Y0079981D01*
X0168589Y0079862D01*
X0168436Y0079739D01*
X0168287Y0079613D01*
X0168141Y0079483D01*
X0167998Y0079349D01*
X0167858Y0079212D01*
X0167722Y0079072D01*
X0167589Y0078928D01*
X0167460Y0078781D01*
X0167334Y0078631D01*
X0167213Y0078478D01*
X0167094Y0078322D01*
X0166980Y0078163D01*
X0166870Y0078002D01*
X0166764Y0077837D01*
X0166661Y0077671D01*
X0166563Y0077501D01*
X0166469Y0077330D01*
X0166379Y0077156D01*
X0166294Y0076980D01*
X0166212Y0076802D01*
X0166136Y0076622D01*
X0166063Y0076440D01*
X0165995Y0076257D01*
X0165932Y0076072D01*
X0165873Y0075885D01*
X0165819Y0075697D01*
X0165769Y0075508D01*
X0165724Y0075318D01*
X0165684Y0075126D01*
X0165648Y0074934D01*
X0165617Y0074741D01*
X0165591Y0074547D01*
X0165569Y0074352D01*
X0165553Y0074157D01*
X0165541Y0073962D01*
X0165533Y0073766D01*
X0165531Y0073571D01*
X0165533Y0073378D01*
X0165540Y0073185D01*
X0165552Y0072993D01*
X0165568Y0072800D01*
X0165589Y0072608D01*
X0165615Y0072417D01*
X0165645Y0072227D01*
X0165680Y0072037D01*
X0165719Y0071848D01*
X0165763Y0071660D01*
X0165811Y0071473D01*
X0165864Y0071287D01*
X0165921Y0071103D01*
X0165983Y0070920D01*
X0166049Y0070739D01*
X0166120Y0070559D01*
X0166194Y0070381D01*
X0166273Y0070205D01*
X0166357Y0070031D01*
X0166444Y0069859D01*
X0166536Y0069689D01*
X0166632Y0069522D01*
X0166731Y0069356D01*
X0166835Y0069193D01*
X0166942Y0069033D01*
X0167054Y0068876D01*
X0167169Y0068721D01*
X0167288Y0068569D01*
X0167410Y0068420D01*
X0167536Y0068273D01*
X0167666Y0068130D01*
X0167799Y0067990D01*
X0167935Y0067854D01*
X0168075Y0067720D01*
X0168217Y0067591D01*
X0168363Y0067464D01*
X0178653Y0067425D02*
X0178801Y0067552D01*
X0178946Y0067682D01*
X0179087Y0067815D01*
X0179226Y0067952D01*
X0179361Y0068092D01*
X0179492Y0068236D01*
X0179620Y0068383D01*
X0179745Y0068532D01*
X0179866Y0068685D01*
X0179983Y0068840D01*
X0180096Y0068999D01*
X0180205Y0069160D01*
X0180310Y0069324D01*
X0180412Y0069490D01*
X0180509Y0069659D01*
X0180602Y0069829D01*
X0180691Y0070003D01*
X0180776Y0070178D01*
X0180856Y0070355D01*
X0180932Y0070534D01*
X0181004Y0070715D01*
X0181071Y0070898D01*
X0181134Y0071082D01*
X0181192Y0071268D01*
X0181246Y0071455D01*
X0181295Y0071643D01*
X0181340Y0071833D01*
X0181380Y0072023D01*
X0181415Y0072215D01*
X0181446Y0072407D01*
X0181472Y0072600D01*
X0181493Y0072794D01*
X0181510Y0072988D01*
X0181522Y0073182D01*
X0181529Y0073376D01*
X0181531Y0073571D01*
X0191980Y0075571D02*
X0191980Y0078571D01*
X0191980Y0081571D01*
X0193980Y0081571D02*
X0193980Y0078571D01*
X0193980Y0075571D01*
X0133106Y0149382D02*
X0130106Y0149382D01*
X0127106Y0149382D01*
X0127106Y0151382D02*
X0130106Y0151382D01*
X0133106Y0151382D01*
X0080360Y0181634D02*
X0080261Y0181803D01*
X0080157Y0181969D01*
X0080050Y0182133D01*
X0079939Y0182294D01*
X0079824Y0182452D01*
X0079705Y0182607D01*
X0079582Y0182760D01*
X0079456Y0182909D01*
X0079326Y0183055D01*
X0079192Y0183198D01*
X0079055Y0183338D01*
X0078915Y0183474D01*
X0078771Y0183607D01*
X0078624Y0183736D01*
X0078474Y0183862D01*
X0078321Y0183983D01*
X0078165Y0184102D01*
X0078006Y0184216D01*
X0077845Y0184326D01*
X0077680Y0184432D01*
X0077514Y0184535D01*
X0077344Y0184633D01*
X0077173Y0184727D01*
X0076999Y0184817D01*
X0076823Y0184902D01*
X0076645Y0184984D01*
X0076465Y0185060D01*
X0076283Y0185133D01*
X0076100Y0185201D01*
X0075915Y0185264D01*
X0075728Y0185323D01*
X0075540Y0185377D01*
X0075351Y0185427D01*
X0075161Y0185472D01*
X0074969Y0185512D01*
X0074777Y0185548D01*
X0074584Y0185579D01*
X0074390Y0185605D01*
X0074195Y0185627D01*
X0074000Y0185643D01*
X0073805Y0185655D01*
X0073609Y0185663D01*
X0073414Y0185665D01*
X0080472Y0173900D02*
X0080379Y0173732D01*
X0080283Y0173566D01*
X0080183Y0173402D01*
X0080078Y0173241D01*
X0079970Y0173082D01*
X0079858Y0172926D01*
X0079742Y0172772D01*
X0079623Y0172622D01*
X0079500Y0172474D01*
X0079374Y0172329D01*
X0079244Y0172188D01*
X0079111Y0172049D01*
X0078974Y0171914D01*
X0078834Y0171782D01*
X0078692Y0171654D01*
X0078546Y0171529D01*
X0078397Y0171407D01*
X0078245Y0171289D01*
X0078091Y0171175D01*
X0077933Y0171065D01*
X0077774Y0170958D01*
X0077611Y0170855D01*
X0077446Y0170756D01*
X0077279Y0170661D01*
X0077110Y0170571D01*
X0076939Y0170484D01*
X0076765Y0170401D01*
X0076590Y0170323D01*
X0076412Y0170249D01*
X0076233Y0170179D01*
X0076053Y0170113D01*
X0075871Y0170052D01*
X0075687Y0169995D01*
X0075502Y0169943D01*
X0075316Y0169895D01*
X0075129Y0169851D01*
X0074941Y0169812D01*
X0074752Y0169778D01*
X0074562Y0169748D01*
X0074372Y0169723D01*
X0074181Y0169702D01*
X0073989Y0169686D01*
X0073797Y0169674D01*
X0073605Y0169667D01*
X0073413Y0169665D01*
X0067306Y0182833D02*
X0067433Y0182979D01*
X0067562Y0183121D01*
X0067696Y0183261D01*
X0067832Y0183397D01*
X0067972Y0183530D01*
X0068115Y0183660D01*
X0068262Y0183786D01*
X0068411Y0183908D01*
X0068563Y0184027D01*
X0068718Y0184142D01*
X0068875Y0184254D01*
X0069035Y0184361D01*
X0069198Y0184465D01*
X0069364Y0184564D01*
X0069531Y0184660D01*
X0069701Y0184752D01*
X0069873Y0184839D01*
X0070047Y0184923D01*
X0070223Y0185002D01*
X0070401Y0185076D01*
X0070581Y0185147D01*
X0070762Y0185213D01*
X0070945Y0185275D01*
X0071129Y0185332D01*
X0071315Y0185385D01*
X0071502Y0185433D01*
X0071690Y0185477D01*
X0071879Y0185516D01*
X0072069Y0185551D01*
X0072259Y0185581D01*
X0072450Y0185607D01*
X0072642Y0185628D01*
X0072835Y0185644D01*
X0073027Y0185656D01*
X0073220Y0185663D01*
X0073413Y0185665D01*
X0067267Y0172543D02*
X0067394Y0172395D01*
X0067524Y0172250D01*
X0067657Y0172109D01*
X0067794Y0171970D01*
X0067934Y0171835D01*
X0068078Y0171704D01*
X0068225Y0171576D01*
X0068374Y0171451D01*
X0068527Y0171330D01*
X0068682Y0171213D01*
X0068841Y0171100D01*
X0069002Y0170991D01*
X0069166Y0170886D01*
X0069332Y0170784D01*
X0069501Y0170687D01*
X0069671Y0170594D01*
X0069845Y0170505D01*
X0070020Y0170420D01*
X0070197Y0170340D01*
X0070376Y0170264D01*
X0070557Y0170192D01*
X0070740Y0170125D01*
X0070924Y0170062D01*
X0071110Y0170004D01*
X0071297Y0169950D01*
X0071485Y0169901D01*
X0071675Y0169856D01*
X0071865Y0169816D01*
X0072057Y0169781D01*
X0072249Y0169750D01*
X0072442Y0169724D01*
X0072636Y0169703D01*
X0072830Y0169686D01*
X0073024Y0169674D01*
X0073218Y0169667D01*
X0073413Y0169665D01*
X0069413Y0139051D02*
X0069413Y0136051D01*
X0069413Y0133051D01*
X0067413Y0133051D02*
X0067413Y0136051D01*
X0067413Y0139051D01*
X0024366Y0067484D02*
X0021366Y0067484D01*
X0018366Y0067484D01*
X0018366Y0065484D02*
X0021366Y0065484D01*
X0024366Y0065484D01*
X0024366Y0043665D02*
X0021366Y0043665D01*
X0018366Y0043665D01*
X0018366Y0041665D02*
X0021366Y0041665D01*
X0024366Y0041665D01*
D13*
X0027612Y0043458D02*
X0028363Y0042707D01*
X0031366Y0042707D01*
X0032116Y0043458D01*
X0032116Y0044959D01*
X0031366Y0045710D01*
X0032116Y0047311D02*
X0029114Y0050314D01*
X0028363Y0050314D01*
X0027612Y0049563D01*
X0027612Y0048062D01*
X0028363Y0047311D01*
X0028363Y0045710D02*
X0027612Y0044959D01*
X0027612Y0043458D01*
X0032116Y0047311D02*
X0032116Y0050314D01*
X0031366Y0066526D02*
X0028363Y0066526D01*
X0027612Y0067277D01*
X0027612Y0068778D01*
X0028363Y0069529D01*
X0029114Y0071130D02*
X0027612Y0072632D01*
X0032116Y0072632D01*
X0032116Y0074133D02*
X0032116Y0071130D01*
X0031366Y0069529D02*
X0032116Y0068778D01*
X0032116Y0067277D01*
X0031366Y0066526D01*
X0029217Y0082252D02*
X0029217Y0083832D01*
X0034717Y0084459D02*
X0034717Y0100951D01*
X0029217Y0101578D02*
X0029217Y0103157D01*
X0025467Y0106956D02*
X0023965Y0108457D01*
X0020963Y0108457D01*
X0020963Y0110059D02*
X0020963Y0112311D01*
X0021713Y0113061D01*
X0023215Y0113061D01*
X0023965Y0112311D01*
X0023965Y0110059D01*
X0023965Y0111560D02*
X0025467Y0113061D01*
X0025467Y0110059D02*
X0020963Y0110059D01*
X0020963Y0105455D02*
X0023965Y0105455D01*
X0025467Y0106956D01*
X0029217Y0093832D02*
X0029217Y0091578D01*
X0034717Y0084459D02*
X0034518Y0084306D01*
X0034316Y0084158D01*
X0034111Y0084015D01*
X0033902Y0083877D01*
X0033690Y0083744D01*
X0033475Y0083616D01*
X0033257Y0083494D01*
X0033036Y0083376D01*
X0032812Y0083264D01*
X0032586Y0083157D01*
X0032357Y0083056D01*
X0032126Y0082960D01*
X0031892Y0082869D01*
X0031657Y0082784D01*
X0031419Y0082705D01*
X0031180Y0082632D01*
X0030939Y0082564D01*
X0030697Y0082502D01*
X0030453Y0082446D01*
X0030207Y0082395D01*
X0029961Y0082351D01*
X0029714Y0082312D01*
X0029466Y0082280D01*
X0029217Y0082253D01*
X0018184Y0095801D02*
X0018262Y0096043D01*
X0018346Y0096283D01*
X0018435Y0096521D01*
X0018531Y0096757D01*
X0018632Y0096991D01*
X0018738Y0097222D01*
X0018851Y0097450D01*
X0018968Y0097676D01*
X0019091Y0097899D01*
X0019220Y0098118D01*
X0019354Y0098335D01*
X0019493Y0098548D01*
X0019637Y0098758D01*
X0019786Y0098964D01*
X0019940Y0099166D01*
X0020099Y0099365D01*
X0020263Y0099560D01*
X0020432Y0099751D01*
X0020605Y0099937D01*
X0020782Y0100120D01*
X0020964Y0100298D01*
X0021150Y0100471D01*
X0021341Y0100640D01*
X0021535Y0100804D01*
X0021733Y0100964D01*
X0021935Y0101119D01*
X0022141Y0101268D01*
X0022350Y0101413D01*
X0022563Y0101553D01*
X0022779Y0101687D01*
X0022999Y0101816D01*
X0023221Y0101940D01*
X0023446Y0102059D01*
X0023674Y0102171D01*
X0023905Y0102279D01*
X0024138Y0102380D01*
X0024374Y0102476D01*
X0024612Y0102567D01*
X0024852Y0102651D01*
X0025094Y0102730D01*
X0025338Y0102803D01*
X0025584Y0102869D01*
X0025831Y0102930D01*
X0026079Y0102985D01*
X0026329Y0103034D01*
X0026580Y0103077D01*
X0026832Y0103113D01*
X0027084Y0103144D01*
X0027338Y0103168D01*
X0027591Y0103186D01*
X0027846Y0103198D01*
X0028100Y0103204D01*
X0028355Y0103204D01*
X0028609Y0103198D01*
X0028863Y0103185D01*
X0029117Y0103166D01*
X0029370Y0103141D01*
X0029623Y0103110D01*
X0029875Y0103073D01*
X0030125Y0103030D01*
X0030375Y0102981D01*
X0030624Y0102926D01*
X0030871Y0102864D01*
X0031116Y0102797D01*
X0031360Y0102724D01*
X0031602Y0102645D01*
X0031841Y0102560D01*
X0032079Y0102469D01*
X0032315Y0102372D01*
X0032548Y0102270D01*
X0032778Y0102162D01*
X0033006Y0102049D01*
X0033231Y0101930D01*
X0033453Y0101806D01*
X0033672Y0101677D01*
X0033888Y0101542D01*
X0034101Y0101402D01*
X0034310Y0101256D01*
X0034515Y0101106D01*
X0034717Y0100951D01*
X0029216Y0082253D02*
X0028961Y0082231D01*
X0028705Y0082216D01*
X0028449Y0082208D01*
X0028192Y0082205D01*
X0027936Y0082209D01*
X0027680Y0082219D01*
X0027424Y0082235D01*
X0027169Y0082257D01*
X0026914Y0082286D01*
X0026660Y0082321D01*
X0026407Y0082362D01*
X0026155Y0082409D01*
X0025905Y0082463D01*
X0025656Y0082522D01*
X0025408Y0082588D01*
X0025162Y0082659D01*
X0024917Y0082737D01*
X0024675Y0082820D01*
X0024435Y0082909D01*
X0024197Y0083005D01*
X0023961Y0083106D01*
X0023728Y0083212D01*
X0023498Y0083325D01*
X0023270Y0083443D01*
X0023046Y0083566D01*
X0022824Y0083695D01*
X0022606Y0083829D01*
X0022391Y0083969D01*
X0022180Y0084114D01*
X0021972Y0084264D01*
X0021768Y0084418D01*
X0021567Y0084578D01*
X0021371Y0084743D01*
X0021179Y0084912D01*
X0020990Y0085087D01*
X0020807Y0085265D01*
X0020627Y0085448D01*
X0020452Y0085636D01*
X0020282Y0085827D01*
X0020117Y0086023D01*
X0019956Y0086223D01*
X0019800Y0086426D01*
X0019650Y0086633D01*
X0019504Y0086844D01*
X0019363Y0087059D01*
X0019228Y0087276D01*
X0019098Y0087497D01*
X0018974Y0087721D01*
X0018855Y0087948D01*
X0018742Y0088178D01*
X0018634Y0088411D01*
X0018532Y0088646D01*
X0018436Y0088884D01*
X0018346Y0089123D01*
X0018261Y0089365D01*
X0018183Y0089609D01*
X0052896Y0095234D02*
X0056649Y0095234D01*
X0057400Y0095985D01*
X0057400Y0097486D01*
X0056649Y0098237D01*
X0052896Y0098237D01*
X0053646Y0099838D02*
X0052896Y0100589D01*
X0052896Y0102090D01*
X0053646Y0102841D01*
X0055148Y0102090D02*
X0055148Y0100589D01*
X0054397Y0099838D01*
X0053646Y0099838D01*
X0052145Y0101339D02*
X0058150Y0101339D01*
X0057400Y0100589D02*
X0056649Y0099838D01*
X0057400Y0100589D02*
X0057400Y0102090D01*
X0056649Y0102841D01*
X0055898Y0102841D01*
X0055148Y0102090D01*
X0054397Y0104442D02*
X0052896Y0105943D01*
X0057400Y0105943D01*
X0057400Y0104442D02*
X0057400Y0107445D01*
X0069206Y0125301D02*
X0070707Y0125301D01*
X0071458Y0126052D01*
X0073059Y0126052D02*
X0073059Y0125301D01*
X0073059Y0126052D02*
X0076062Y0129054D01*
X0076062Y0129805D01*
X0073059Y0129805D01*
X0071458Y0129054D02*
X0070707Y0129805D01*
X0069206Y0129805D01*
X0068456Y0129054D01*
X0068456Y0126052D01*
X0069206Y0125301D01*
X0028201Y0145351D02*
X0022196Y0145351D01*
X0022946Y0144601D02*
X0022946Y0146102D01*
X0023697Y0146853D01*
X0023697Y0148454D02*
X0022946Y0149205D01*
X0022946Y0150706D01*
X0023697Y0151456D01*
X0024447Y0151456D01*
X0027450Y0148454D01*
X0027450Y0151456D01*
X0026699Y0146853D02*
X0025949Y0146853D01*
X0025198Y0146102D01*
X0025198Y0144601D01*
X0024447Y0143850D01*
X0023697Y0143850D01*
X0022946Y0144601D01*
X0022946Y0142249D02*
X0026699Y0142249D01*
X0027450Y0141498D01*
X0027450Y0139997D01*
X0026699Y0139246D01*
X0022946Y0139246D01*
X0026699Y0143850D02*
X0027450Y0144601D01*
X0027450Y0146102D01*
X0026699Y0146853D01*
X0047748Y0171415D02*
X0050750Y0171415D01*
X0052352Y0171415D02*
X0055354Y0171415D01*
X0056955Y0171415D02*
X0059207Y0171415D01*
X0059958Y0172166D01*
X0059958Y0175169D01*
X0059207Y0175919D01*
X0056955Y0175919D01*
X0056955Y0171415D01*
X0053853Y0173667D02*
X0052352Y0173667D01*
X0052352Y0175919D02*
X0052352Y0171415D01*
X0052352Y0175919D02*
X0055354Y0175919D01*
X0061559Y0174418D02*
X0063061Y0175919D01*
X0063061Y0171415D01*
X0064562Y0171415D02*
X0061559Y0171415D01*
X0047748Y0171415D02*
X0047748Y0175919D01*
X0076781Y0200175D02*
X0076781Y0204679D01*
X0079033Y0204679D01*
X0079784Y0203928D01*
X0079784Y0202427D01*
X0079033Y0201676D01*
X0076781Y0201676D01*
X0078283Y0201676D02*
X0079784Y0200175D01*
X0081385Y0200175D02*
X0084388Y0200175D01*
X0082887Y0200175D02*
X0082887Y0204679D01*
X0081385Y0203178D01*
X0122261Y0206890D02*
X0123012Y0206139D01*
X0123762Y0206139D01*
X0124513Y0206890D01*
X0124513Y0210643D01*
X0123762Y0210643D02*
X0125264Y0210643D01*
X0126865Y0208391D02*
X0129868Y0208391D01*
X0129117Y0206139D02*
X0129117Y0210643D01*
X0126865Y0208391D01*
X0132163Y0150463D02*
X0132163Y0147460D01*
X0134415Y0147460D01*
X0133665Y0148962D01*
X0133665Y0149712D01*
X0134415Y0150463D01*
X0135917Y0150463D01*
X0136667Y0149712D01*
X0136667Y0148211D01*
X0135917Y0147460D01*
X0135917Y0145859D02*
X0136667Y0145108D01*
X0136667Y0143607D01*
X0135917Y0142856D01*
X0132914Y0142856D01*
X0132163Y0143607D01*
X0132163Y0145108D01*
X0132914Y0145859D01*
X0123856Y0146986D02*
X0123856Y0148488D01*
X0123106Y0149238D01*
X0122355Y0149238D01*
X0121604Y0148488D01*
X0121604Y0146236D01*
X0123106Y0146236D01*
X0123856Y0146986D01*
X0121604Y0146236D02*
X0120103Y0147737D01*
X0119352Y0149238D01*
X0120103Y0144634D02*
X0119352Y0143884D01*
X0119352Y0142383D01*
X0120103Y0141632D01*
X0123106Y0141632D01*
X0123856Y0142383D01*
X0123856Y0143884D01*
X0123106Y0144634D01*
X0184230Y0088574D02*
X0184230Y0085572D01*
X0184981Y0084821D01*
X0186482Y0084821D01*
X0187233Y0085572D01*
X0188834Y0087073D02*
X0191837Y0087073D01*
X0191086Y0084821D02*
X0191086Y0089325D01*
X0188834Y0087073D01*
X0187233Y0088574D02*
X0186482Y0089325D01*
X0184981Y0089325D01*
X0184230Y0088574D01*
X0179781Y0064719D02*
X0179781Y0061717D01*
X0176779Y0064719D01*
X0176028Y0064719D01*
X0175278Y0063969D01*
X0175278Y0062468D01*
X0176028Y0061717D01*
X0176028Y0060116D02*
X0175278Y0059365D01*
X0175278Y0057113D01*
X0179781Y0057113D01*
X0179781Y0059365D01*
X0179031Y0060116D01*
X0176028Y0060116D01*
X0175278Y0055512D02*
X0175278Y0052509D01*
X0179781Y0052509D01*
X0179781Y0055512D01*
X0177530Y0054010D02*
X0177530Y0052509D01*
X0179781Y0050908D02*
X0179781Y0047905D01*
X0175278Y0047905D01*
X0177589Y0043955D02*
X0177589Y0040952D01*
X0175337Y0043204D01*
X0179841Y0043204D01*
X0179841Y0039351D02*
X0178339Y0037850D01*
X0178339Y0038600D02*
X0178339Y0036348D01*
X0179841Y0036348D02*
X0175337Y0036348D01*
X0175337Y0038600D01*
X0176087Y0039351D01*
X0177589Y0039351D01*
X0178339Y0038600D01*
X0177205Y0027454D02*
X0177205Y0023701D01*
X0177956Y0022950D01*
X0179457Y0022950D01*
X0180208Y0023701D01*
X0180208Y0027454D01*
X0181809Y0027454D02*
X0184812Y0027454D01*
X0183310Y0027454D02*
X0183310Y0022950D01*
X0187914Y0022950D02*
X0187914Y0027454D01*
X0186413Y0027454D02*
X0189415Y0027454D01*
X0191017Y0026703D02*
X0191017Y0023701D01*
X0191767Y0022950D01*
X0193269Y0022950D01*
X0194019Y0023701D01*
X0194019Y0026703D01*
X0193269Y0027454D01*
X0191767Y0027454D01*
X0191017Y0026703D01*
X0195621Y0027454D02*
X0195621Y0022950D01*
X0198623Y0022950D02*
X0198623Y0027454D01*
X0195621Y0027454D02*
X0198623Y0022950D01*
X0175604Y0023701D02*
X0174853Y0022950D01*
X0172601Y0022950D01*
X0172601Y0027454D01*
X0174853Y0027454D01*
X0175604Y0026703D01*
X0175604Y0025953D01*
X0174853Y0025202D01*
X0172601Y0025202D01*
X0174853Y0025202D02*
X0175604Y0024451D01*
X0175604Y0023701D01*
X0175028Y0020500D02*
X0175028Y0010500D01*
X0145028Y0010500D01*
X0145028Y0020500D01*
X0175028Y0020500D01*
X0171000Y0022199D02*
X0167997Y0022199D01*
X0164895Y0022950D02*
X0164895Y0027454D01*
X0166396Y0027454D02*
X0163393Y0027454D01*
X0161792Y0027454D02*
X0158789Y0027454D01*
X0158789Y0022950D01*
X0161792Y0022950D01*
X0160291Y0025202D02*
X0158789Y0025202D01*
X0157188Y0024451D02*
X0157188Y0023701D01*
X0156437Y0022950D01*
X0154936Y0022950D01*
X0154185Y0023701D01*
X0154936Y0025202D02*
X0154185Y0025953D01*
X0154185Y0026703D01*
X0154936Y0027454D01*
X0156437Y0027454D01*
X0157188Y0026703D01*
X0156437Y0025202D02*
X0157188Y0024451D01*
X0156437Y0025202D02*
X0154936Y0025202D01*
X0152584Y0027454D02*
X0149581Y0027454D01*
X0149581Y0022950D01*
X0152584Y0022950D01*
X0151083Y0025202D02*
X0149581Y0025202D01*
X0147980Y0025202D02*
X0147980Y0026703D01*
X0147229Y0027454D01*
X0144978Y0027454D01*
X0144978Y0022950D01*
X0144978Y0024451D02*
X0147229Y0024451D01*
X0147980Y0025202D01*
X0146479Y0024451D02*
X0147980Y0022950D01*
X0135421Y0020736D02*
X0135421Y0010736D01*
X0105421Y0010736D01*
X0105421Y0020736D01*
X0135421Y0020736D01*
X0134370Y0008290D02*
X0134370Y0003786D01*
X0131367Y0008290D01*
X0131367Y0003786D01*
X0129766Y0004537D02*
X0129766Y0007539D01*
X0129015Y0008290D01*
X0127514Y0008290D01*
X0126763Y0007539D01*
X0126763Y0004537D01*
X0127514Y0003786D01*
X0129015Y0003786D01*
X0129766Y0004537D01*
X0125162Y0008290D02*
X0122159Y0008290D01*
X0123661Y0008290D02*
X0123661Y0003786D01*
X0119057Y0003786D02*
X0119057Y0008290D01*
X0120558Y0008290D02*
X0117555Y0008290D01*
X0115954Y0008290D02*
X0115954Y0004537D01*
X0115203Y0003786D01*
X0113702Y0003786D01*
X0112952Y0004537D01*
X0112952Y0008290D01*
X0111350Y0007539D02*
X0111350Y0006789D01*
X0110600Y0006038D01*
X0108348Y0006038D01*
X0110600Y0006038D02*
X0111350Y0005288D01*
X0111350Y0004537D01*
X0110600Y0003786D01*
X0108348Y0003786D01*
X0108348Y0008290D01*
X0110600Y0008290D01*
X0111350Y0007539D01*
X0106746Y0003036D02*
X0103744Y0003036D01*
X0102142Y0003786D02*
X0100641Y0005288D01*
X0101392Y0005288D02*
X0099140Y0005288D01*
X0099140Y0003786D02*
X0099140Y0008290D01*
X0101392Y0008290D01*
X0102142Y0007539D01*
X0102142Y0006038D01*
X0101392Y0005288D01*
X0097538Y0003786D02*
X0094536Y0003786D01*
X0094536Y0008290D01*
X0097538Y0008290D01*
X0096037Y0006038D02*
X0094536Y0006038D01*
X0092934Y0005288D02*
X0092934Y0004537D01*
X0092184Y0003786D01*
X0090683Y0003786D01*
X0089932Y0004537D01*
X0088331Y0004537D02*
X0088331Y0008290D01*
X0089932Y0007539D02*
X0089932Y0006789D01*
X0090683Y0006038D01*
X0092184Y0006038D01*
X0092934Y0005288D01*
X0092934Y0007539D02*
X0092184Y0008290D01*
X0090683Y0008290D01*
X0089932Y0007539D01*
X0088331Y0004537D02*
X0087580Y0003786D01*
X0086079Y0003786D01*
X0085328Y0004537D01*
X0085328Y0008290D01*
X0070707Y0042254D02*
X0066203Y0042254D01*
X0066203Y0044506D01*
X0066953Y0045256D01*
X0068455Y0045256D01*
X0069205Y0044506D01*
X0069205Y0042254D01*
X0069205Y0043755D02*
X0070707Y0045256D01*
X0070707Y0046858D02*
X0067704Y0049860D01*
X0066953Y0049860D01*
X0066203Y0049110D01*
X0066203Y0047609D01*
X0066953Y0046858D01*
X0070707Y0046858D02*
X0070707Y0049860D01*
X0057888Y0047591D02*
X0057888Y0046090D01*
X0057137Y0045339D01*
X0057137Y0043738D02*
X0057888Y0042987D01*
X0057888Y0041486D01*
X0057137Y0040735D01*
X0054135Y0040735D01*
X0053384Y0041486D01*
X0053384Y0042987D01*
X0054135Y0043738D01*
X0054135Y0045339D02*
X0053384Y0046090D01*
X0053384Y0047591D01*
X0054135Y0048342D01*
X0054885Y0048342D01*
X0055636Y0047591D01*
X0056387Y0048342D01*
X0057137Y0048342D01*
X0057888Y0047591D01*
X0055636Y0047591D02*
X0055636Y0046840D01*
X0019631Y0028790D02*
X0019631Y0028039D01*
X0018881Y0027289D01*
X0019631Y0026538D01*
X0019631Y0025787D01*
X0018881Y0025037D01*
X0017379Y0025037D01*
X0016629Y0025787D01*
X0018130Y0027289D02*
X0018881Y0027289D01*
X0019631Y0028790D02*
X0018881Y0029540D01*
X0017379Y0029540D01*
X0016629Y0028790D01*
X0015027Y0029540D02*
X0013526Y0029540D01*
X0014277Y0029540D02*
X0014277Y0025787D01*
X0013526Y0025037D01*
X0012775Y0025037D01*
X0012025Y0025787D01*
X0121198Y0078031D02*
X0121949Y0077281D01*
X0123450Y0077281D01*
X0124201Y0078031D01*
X0125802Y0077281D02*
X0125802Y0081785D01*
X0128054Y0081785D01*
X0128805Y0081034D01*
X0128805Y0079533D01*
X0128054Y0078782D01*
X0125802Y0078782D01*
X0127303Y0078782D02*
X0128805Y0077281D01*
X0124201Y0081034D02*
X0123450Y0081785D01*
X0121949Y0081785D01*
X0121198Y0081034D01*
X0121198Y0078031D01*
X0151205Y0043168D02*
X0151956Y0043168D01*
X0152707Y0042417D01*
X0153457Y0043168D01*
X0154208Y0043168D01*
X0154959Y0042417D01*
X0154959Y0040916D01*
X0154208Y0040165D01*
X0154959Y0038564D02*
X0153457Y0037062D01*
X0153457Y0037813D02*
X0153457Y0035561D01*
X0154959Y0035561D02*
X0150455Y0035561D01*
X0150455Y0037813D01*
X0151205Y0038564D01*
X0152707Y0038564D01*
X0153457Y0037813D01*
X0151205Y0040165D02*
X0150455Y0040916D01*
X0150455Y0042417D01*
X0151205Y0043168D01*
X0152707Y0042417D02*
X0152707Y0041666D01*
X0207080Y0064328D02*
X0207080Y0065829D01*
X0207080Y0065078D02*
X0210833Y0065078D01*
X0211584Y0064328D01*
X0211584Y0063577D01*
X0210833Y0062826D01*
X0211584Y0067430D02*
X0208581Y0070433D01*
X0207831Y0070433D01*
X0207080Y0069682D01*
X0207080Y0068181D01*
X0207831Y0067430D01*
X0211584Y0067430D02*
X0211584Y0070433D01*
D14*
X0052544Y0191310D02*
X0052544Y0192077D01*
X0051777Y0192844D01*
X0047940Y0192844D01*
X0047940Y0192077D02*
X0047940Y0193612D01*
X0049475Y0195146D02*
X0047940Y0196681D01*
X0052544Y0196681D01*
X0052544Y0195146D02*
X0052544Y0198216D01*
X0052544Y0191310D02*
X0051777Y0190543D01*
D15*
X0018000Y0152508D02*
X0013000Y0152508D01*
X0010500Y0150008D01*
X0010500Y0145008D01*
X0013000Y0142508D01*
X0010500Y0140008D01*
X0010500Y0135008D01*
X0013000Y0132508D01*
X0010500Y0130008D01*
X0010500Y0125008D01*
X0013000Y0122508D01*
X0010500Y0120008D01*
X0010500Y0115008D01*
X0013000Y0112508D01*
X0010500Y0110008D01*
X0010500Y0105008D01*
X0013000Y0102508D01*
X0018000Y0102508D01*
X0020500Y0105008D01*
X0020500Y0110008D01*
X0018000Y0112508D01*
X0020500Y0115008D01*
X0020500Y0120008D01*
X0018000Y0122508D01*
X0020500Y0125008D01*
X0020500Y0130008D01*
X0018000Y0132508D01*
X0020500Y0135008D01*
X0020500Y0140008D01*
X0018000Y0142508D01*
X0020500Y0145008D01*
X0020500Y0150008D01*
X0018000Y0152508D01*
X0122311Y0196189D02*
X0124811Y0193689D01*
X0129811Y0193689D01*
X0132311Y0196189D01*
X0134811Y0193689D01*
X0139811Y0193689D01*
X0142311Y0196189D01*
X0144811Y0193689D01*
X0149811Y0193689D01*
X0152311Y0196189D01*
X0154811Y0193689D01*
X0159811Y0193689D01*
X0162311Y0196189D01*
X0164811Y0193689D01*
X0169811Y0193689D01*
X0172311Y0196189D01*
X0174811Y0193689D01*
X0179811Y0193689D01*
X0182311Y0196189D01*
X0184811Y0193689D01*
X0189811Y0193689D01*
X0192311Y0196189D01*
X0194811Y0193689D01*
X0199811Y0193689D01*
X0202311Y0196189D01*
X0202311Y0201189D01*
X0199811Y0203689D01*
X0194811Y0203689D01*
X0192311Y0201189D01*
X0189811Y0203689D01*
X0184811Y0203689D01*
X0182311Y0201189D01*
X0179811Y0203689D01*
X0174811Y0203689D01*
X0172311Y0201189D01*
X0169811Y0203689D01*
X0164811Y0203689D01*
X0162311Y0201189D01*
X0159811Y0203689D01*
X0154811Y0203689D01*
X0152311Y0201189D01*
X0149811Y0203689D01*
X0144811Y0203689D01*
X0142311Y0201189D01*
X0139811Y0203689D01*
X0134811Y0203689D01*
X0132311Y0201189D01*
X0129811Y0203689D01*
X0124811Y0203689D01*
X0122311Y0201189D01*
X0122311Y0196189D01*
X0197134Y0071484D02*
X0194634Y0068984D01*
X0194634Y0063984D01*
X0197134Y0061484D01*
X0194634Y0058984D01*
X0194634Y0053984D01*
X0197134Y0051484D01*
X0194634Y0048984D01*
X0194634Y0043984D01*
X0197134Y0041484D01*
X0194634Y0038984D01*
X0194634Y0033984D01*
X0197134Y0031484D01*
X0194634Y0028984D01*
X0194634Y0023984D01*
X0197134Y0021484D01*
X0194634Y0018984D01*
X0194634Y0013984D01*
X0197134Y0011484D01*
X0202134Y0011484D01*
X0204634Y0013984D01*
X0204634Y0018984D01*
X0202134Y0021484D01*
X0204634Y0023984D01*
X0204634Y0028984D01*
X0202134Y0031484D01*
X0204634Y0033984D01*
X0204634Y0038984D01*
X0202134Y0041484D01*
X0204634Y0043984D01*
X0204634Y0048984D01*
X0202134Y0051484D01*
X0204634Y0053984D01*
X0204634Y0058984D01*
X0202134Y0061484D01*
X0204634Y0063984D01*
X0204634Y0068984D01*
X0202134Y0071484D01*
X0197134Y0071484D01*
X0092075Y0020087D02*
X0092075Y0015087D01*
X0089575Y0012587D01*
X0084575Y0012587D01*
X0082075Y0015087D01*
X0079575Y0012587D01*
X0074575Y0012587D01*
X0072075Y0015087D01*
X0069575Y0012587D01*
X0064575Y0012587D01*
X0062075Y0015087D01*
X0059575Y0012587D01*
X0054575Y0012587D01*
X0052075Y0015087D01*
X0049575Y0012587D01*
X0044575Y0012587D01*
X0042075Y0015087D01*
X0039575Y0012587D01*
X0034575Y0012587D01*
X0032075Y0015087D01*
X0029575Y0012587D01*
X0024575Y0012587D01*
X0022075Y0015087D01*
X0019575Y0012587D01*
X0014575Y0012587D01*
X0012075Y0015087D01*
X0012075Y0020087D01*
X0014575Y0022587D01*
X0019575Y0022587D01*
X0022075Y0020087D01*
X0024575Y0022587D01*
X0029575Y0022587D01*
X0032075Y0020087D01*
X0034575Y0022587D01*
X0039575Y0022587D01*
X0042075Y0020087D01*
X0044575Y0022587D01*
X0049575Y0022587D01*
X0052075Y0020087D01*
X0054575Y0022587D01*
X0059575Y0022587D01*
X0062075Y0020087D01*
X0064575Y0022587D01*
X0069575Y0022587D01*
X0072075Y0020087D01*
X0074575Y0022587D01*
X0079575Y0022587D01*
X0082075Y0020087D01*
X0084575Y0022587D01*
X0089575Y0022587D01*
X0092075Y0020087D01*
D16*
X0102731Y0193925D03*
X0074331Y0193925D03*
D17*
X0076957Y0068204D03*
X0076957Y0039804D03*
X0161209Y0033111D03*
X0186091Y0033898D03*
X0161209Y0061511D03*
X0186091Y0062298D03*
M02*
