%
M48
M72
T01C0.02362
T02C0.03150
T03C0.03200
T04C0.03937
T05C0.04000
T06C0.07480
%
T01
X50339Y165017
T02
X37780Y181080
X42504Y177931
X37780Y174781
X42504Y171632
X42504Y184230
X59906Y195687
X67780Y195687
X75654Y195687
T03
X30536Y150805
X70536Y150805
X69670Y166789
X69670Y176789
X87032Y175884
X92032Y183384
X97032Y175884
X98449Y194584
X93804Y156199
X93804Y146199
X93804Y136199
X93804Y126199
X93804Y116199
X93804Y106199
X93804Y96199
X93804Y86199
X93804Y76199
X93804Y66199
X93804Y56199
X93804Y46199
X93804Y36199
X93804Y26199
X78016Y25136
X78016Y35136
X61717Y51513
X58056Y37419
X58056Y27419
X66599Y11907
X26599Y11907
X61717Y91513
X123804Y96199
X123804Y106199
X123804Y116199
X123804Y126199
X123804Y136199
X123804Y146199
X123804Y156199
X137111Y171002
X137111Y181002
X138449Y194584
X156993Y179584
X156993Y169584
X141008Y156002
X141008Y146002
X175772Y168876
X175772Y178876
X145536Y106080
X135536Y106080
X123804Y86199
X123804Y76199
X123804Y66199
X123804Y56199
X123804Y46199
X123804Y36199
X123804Y26199
X135339Y75017
X145339Y75017
T04
X52032Y195687
X83528Y195687
T05
X14867Y139663
X14867Y129663
X14867Y119663
X14867Y109663
X14867Y99663
X14867Y89663
X14867Y79663
X14867Y69663
X17229Y33994
X17229Y13994
X78725Y61986
X78725Y71986
X78725Y81986
X160142Y194191
X180142Y194191
X199945Y190608
X199945Y180608
X199945Y170608
X199945Y160608
X199945Y150608
X199670Y138285
X199670Y128285
X199670Y118285
X199670Y108285
X199670Y98285
X199670Y88285
X199670Y78285
X199670Y68285
T06
X22426Y163561
X22426Y192301
M30
