G75*
%MOIN*%
%OFA0B0*%
%FSLAX25Y25*%
%IPPOS*%
%LPD*%
%AMOC8*
5,1,8,0,0,1.08239X$1,22.5*
%
%ADD10C,0.00000*%
%ADD11OC8,0.05600*%
%ADD12C,0.06700*%
%ADD13OC8,0.06700*%
%ADD14C,0.07800*%
%ADD15C,0.05550*%
%ADD16C,0.11620*%
%ADD17C,0.08000*%
%ADD18C,0.06000*%
%ADD19C,0.05600*%
D10*
X0009001Y0005569D02*
X0009001Y0202419D01*
X0205851Y0202419D01*
X0205851Y0005569D01*
X0009001Y0005569D01*
D11*
X0026599Y0011907D03*
X0058056Y0027419D03*
X0058056Y0037419D03*
X0061717Y0051513D03*
X0078016Y0035136D03*
X0078016Y0025136D03*
X0066599Y0011907D03*
X0061717Y0091513D03*
X0070536Y0150805D03*
X0069670Y0166789D03*
X0069670Y0176789D03*
X0087032Y0175884D03*
X0092032Y0183384D03*
X0097032Y0175884D03*
X0098449Y0194584D03*
X0137111Y0181002D03*
X0137111Y0171002D03*
X0141008Y0156002D03*
X0141008Y0146002D03*
X0156993Y0169584D03*
X0156993Y0179584D03*
X0138449Y0194584D03*
X0135536Y0106080D03*
X0145536Y0106080D03*
X0030536Y0150805D03*
D12*
X0135339Y0075017D03*
X0175772Y0168876D03*
D13*
X0175772Y0178876D03*
X0145339Y0075017D03*
D14*
X0199670Y0078285D03*
X0199670Y0088285D03*
X0199670Y0098285D03*
X0199670Y0108285D03*
X0199670Y0118285D03*
X0199670Y0128285D03*
X0199670Y0138285D03*
X0199945Y0150608D03*
X0199945Y0160608D03*
X0199945Y0170608D03*
X0199945Y0180608D03*
X0199945Y0190608D03*
X0180142Y0194191D03*
X0160142Y0194191D03*
X0078725Y0081986D03*
X0078725Y0071986D03*
X0078725Y0061986D03*
X0017229Y0033994D03*
X0017229Y0013994D03*
X0014867Y0069663D03*
X0014867Y0079663D03*
X0014867Y0089663D03*
X0014867Y0099663D03*
X0014867Y0109663D03*
X0014867Y0119663D03*
X0014867Y0129663D03*
X0014867Y0139663D03*
X0199670Y0068285D03*
D15*
X0042504Y0171632D03*
X0037780Y0174781D03*
X0042504Y0177931D03*
X0037780Y0181080D03*
X0042504Y0184230D03*
D16*
X0022426Y0192301D03*
X0022426Y0163561D03*
D17*
X0052032Y0195687D03*
X0083528Y0195687D03*
D18*
X0075654Y0195687D03*
X0067780Y0195687D03*
X0059906Y0195687D03*
D19*
X0091204Y0156199D02*
X0096404Y0156199D01*
X0096404Y0146199D02*
X0091204Y0146199D01*
X0091204Y0136199D02*
X0096404Y0136199D01*
X0096404Y0126199D02*
X0091204Y0126199D01*
X0091204Y0116199D02*
X0096404Y0116199D01*
X0096404Y0106199D02*
X0091204Y0106199D01*
X0091204Y0096199D02*
X0096404Y0096199D01*
X0096404Y0086199D02*
X0091204Y0086199D01*
X0091204Y0076199D02*
X0096404Y0076199D01*
X0096404Y0066199D02*
X0091204Y0066199D01*
X0091204Y0056199D02*
X0096404Y0056199D01*
X0096404Y0046199D02*
X0091204Y0046199D01*
X0091204Y0036199D02*
X0096404Y0036199D01*
X0096404Y0026199D02*
X0091204Y0026199D01*
X0121204Y0026199D02*
X0126404Y0026199D01*
X0126404Y0036199D02*
X0121204Y0036199D01*
X0121204Y0046199D02*
X0126404Y0046199D01*
X0126404Y0056199D02*
X0121204Y0056199D01*
X0121204Y0066199D02*
X0126404Y0066199D01*
X0126404Y0076199D02*
X0121204Y0076199D01*
X0121204Y0086199D02*
X0126404Y0086199D01*
X0126404Y0096199D02*
X0121204Y0096199D01*
X0121204Y0106199D02*
X0126404Y0106199D01*
X0126404Y0116199D02*
X0121204Y0116199D01*
X0121204Y0126199D02*
X0126404Y0126199D01*
X0126404Y0136199D02*
X0121204Y0136199D01*
X0121204Y0146199D02*
X0126404Y0146199D01*
X0126404Y0156199D02*
X0121204Y0156199D01*
M02*
