G75*
%MOIN*%
%OFA0B0*%
%FSLAX25Y25*%
%IPPOS*%
%LPD*%
%AMOC8*
5,1,8,0,0,1.08239X$1,22.5*
%
%ADD10C,0.00000*%
%ADD11C,0.00394*%
%ADD12C,0.00300*%
%ADD13C,0.00400*%
%ADD14C,0.00600*%
%ADD15C,0.01600*%
%ADD16C,0.01000*%
%ADD17C,0.00800*%
%ADD18R,0.03400X0.02400*%
%ADD19R,0.02400X0.03400*%
%ADD20C,0.00500*%
D10*
X0009001Y0005569D02*
X0009001Y0202419D01*
X0205851Y0202419D01*
X0205851Y0005569D01*
X0009001Y0005569D01*
D11*
X0194827Y0145332D02*
X0194827Y0194545D01*
X0204867Y0194545D01*
X0204867Y0145332D01*
X0194827Y0145332D01*
D12*
X0127253Y0175010D02*
X0125402Y0175010D01*
X0124785Y0175627D01*
X0124785Y0176862D01*
X0125402Y0177479D01*
X0127253Y0177479D01*
X0127253Y0178713D02*
X0127253Y0175010D01*
X0123570Y0176244D02*
X0121101Y0176244D01*
X0121101Y0175627D02*
X0121101Y0176862D01*
X0121719Y0177479D01*
X0122953Y0177479D01*
X0123570Y0176862D01*
X0123570Y0176244D01*
X0122953Y0175010D02*
X0121719Y0175010D01*
X0121101Y0175627D01*
X0119887Y0175010D02*
X0118653Y0176244D01*
X0119270Y0176244D02*
X0117418Y0176244D01*
X0117418Y0175010D02*
X0117418Y0178713D01*
X0119270Y0178713D01*
X0119887Y0178096D01*
X0119887Y0176862D01*
X0119270Y0176244D01*
X0049251Y0031809D02*
X0049868Y0031192D01*
X0049868Y0029341D01*
X0047399Y0029341D02*
X0047399Y0031809D01*
X0049251Y0031809D01*
X0046181Y0031809D02*
X0045564Y0031809D01*
X0044330Y0030575D01*
X0044330Y0029341D02*
X0044330Y0031809D01*
X0043115Y0031192D02*
X0041881Y0031192D01*
X0043115Y0031192D02*
X0043115Y0029958D01*
X0042498Y0029341D01*
X0041264Y0029341D01*
X0040647Y0029958D01*
X0040647Y0032427D01*
X0041264Y0033044D01*
X0042498Y0033044D01*
X0043115Y0032427D01*
D13*
X0043432Y0014310D02*
X0042665Y0013542D01*
X0043432Y0014310D02*
X0044967Y0014310D01*
X0045734Y0013542D01*
X0045734Y0012775D01*
X0044967Y0012008D01*
X0045734Y0011240D01*
X0045734Y0010473D01*
X0044967Y0009706D01*
X0043432Y0009706D01*
X0042665Y0010473D01*
X0044200Y0012008D02*
X0044967Y0012008D01*
X0047269Y0013542D02*
X0048036Y0014310D01*
X0049571Y0014310D01*
X0050338Y0013542D01*
X0050338Y0012775D01*
X0049571Y0012008D01*
X0050338Y0011240D01*
X0050338Y0010473D01*
X0049571Y0009706D01*
X0048036Y0009706D01*
X0047269Y0010473D01*
X0048804Y0012008D02*
X0049571Y0012008D01*
X0051873Y0010473D02*
X0051873Y0013542D01*
X0052640Y0014310D01*
X0054175Y0014310D01*
X0054942Y0013542D01*
X0051873Y0010473D01*
X0052640Y0009706D01*
X0054175Y0009706D01*
X0054942Y0010473D01*
X0054942Y0013542D01*
X0075830Y0041202D02*
X0075063Y0041969D01*
X0075063Y0043504D01*
X0075830Y0044271D01*
X0078899Y0041202D01*
X0079667Y0041969D01*
X0079667Y0043504D01*
X0078899Y0044271D01*
X0075830Y0044271D01*
X0078899Y0045806D02*
X0078899Y0046573D01*
X0079667Y0046573D01*
X0079667Y0045806D01*
X0078899Y0045806D01*
X0079667Y0048108D02*
X0079667Y0051177D01*
X0079667Y0049642D02*
X0075063Y0049642D01*
X0076597Y0048108D01*
X0076597Y0052711D02*
X0078899Y0052711D01*
X0079667Y0053479D01*
X0079667Y0055781D01*
X0076597Y0055781D01*
X0063919Y0066005D02*
X0063919Y0069074D01*
X0063919Y0067539D02*
X0059315Y0067539D01*
X0060849Y0066005D01*
X0060082Y0070609D02*
X0059315Y0071376D01*
X0059315Y0072911D01*
X0060082Y0073678D01*
X0063151Y0070609D01*
X0063919Y0071376D01*
X0063919Y0072911D01*
X0063151Y0073678D01*
X0060082Y0073678D01*
X0059315Y0075213D02*
X0063919Y0075213D01*
X0062384Y0075213D02*
X0060849Y0077515D01*
X0062384Y0075213D02*
X0063919Y0077515D01*
X0063151Y0070609D02*
X0060082Y0070609D01*
X0075830Y0041202D02*
X0078899Y0041202D01*
X0019234Y0041575D02*
X0019234Y0043110D01*
X0018466Y0043877D01*
X0014630Y0043877D01*
X0015397Y0045412D02*
X0014630Y0046179D01*
X0014630Y0047714D01*
X0015397Y0048481D01*
X0016932Y0047714D02*
X0017699Y0048481D01*
X0018466Y0048481D01*
X0019234Y0047714D01*
X0019234Y0046179D01*
X0018466Y0045412D01*
X0016932Y0046179D02*
X0016932Y0047714D01*
X0016932Y0046179D02*
X0016164Y0045412D01*
X0015397Y0045412D01*
X0014630Y0050016D02*
X0014630Y0052318D01*
X0015397Y0053085D01*
X0016932Y0053085D01*
X0017699Y0052318D01*
X0017699Y0050016D01*
X0017699Y0051550D02*
X0019234Y0053085D01*
X0019234Y0050016D02*
X0014630Y0050016D01*
X0014630Y0040808D02*
X0018466Y0040808D01*
X0019234Y0041575D01*
X0047193Y0148682D02*
X0050262Y0148682D01*
X0048727Y0148682D02*
X0048727Y0153286D01*
X0047193Y0151751D01*
X0051797Y0152519D02*
X0051797Y0149449D01*
X0054866Y0152519D01*
X0054866Y0149449D01*
X0054099Y0148682D01*
X0052564Y0148682D01*
X0051797Y0149449D01*
X0051797Y0152519D02*
X0052564Y0153286D01*
X0054099Y0153286D01*
X0054866Y0152519D01*
X0056400Y0153286D02*
X0056400Y0148682D01*
X0056400Y0150217D02*
X0058702Y0151751D01*
X0056400Y0150217D02*
X0058702Y0148682D01*
X0058114Y0165217D02*
X0057346Y0165985D01*
X0057346Y0167519D01*
X0058114Y0168287D01*
X0061183Y0165217D01*
X0061950Y0165985D01*
X0061950Y0167519D01*
X0061183Y0168287D01*
X0058114Y0168287D01*
X0058114Y0165217D02*
X0061183Y0165217D01*
X0061183Y0169821D02*
X0061183Y0170589D01*
X0061950Y0170589D01*
X0061950Y0169821D01*
X0061183Y0169821D01*
X0061950Y0172123D02*
X0061950Y0175193D01*
X0061950Y0173658D02*
X0057346Y0173658D01*
X0058881Y0172123D01*
X0058881Y0176727D02*
X0061183Y0176727D01*
X0061950Y0177495D01*
X0061950Y0179797D01*
X0058881Y0179797D01*
X0049037Y0194745D02*
X0047502Y0196280D01*
X0048269Y0196280D02*
X0045967Y0196280D01*
X0045967Y0194745D02*
X0045967Y0199349D01*
X0048269Y0199349D01*
X0049037Y0198582D01*
X0049037Y0197047D01*
X0048269Y0196280D01*
X0044433Y0194745D02*
X0044433Y0199349D01*
X0041363Y0199349D02*
X0041363Y0194745D01*
X0042898Y0196280D01*
X0044433Y0194745D01*
X0039829Y0197047D02*
X0039829Y0198582D01*
X0039062Y0199349D01*
X0036760Y0199349D01*
X0036760Y0194745D01*
X0036760Y0196280D02*
X0039062Y0196280D01*
X0039829Y0197047D01*
X0113531Y0196219D02*
X0114299Y0196987D01*
X0115833Y0196987D01*
X0116601Y0196219D01*
X0116601Y0195452D01*
X0115833Y0194685D01*
X0116601Y0193917D01*
X0116601Y0193150D01*
X0115833Y0192383D01*
X0114299Y0192383D01*
X0113531Y0193150D01*
X0115066Y0194685D02*
X0115833Y0194685D01*
X0118135Y0196219D02*
X0118902Y0196987D01*
X0120437Y0196987D01*
X0121204Y0196219D01*
X0121204Y0195452D01*
X0120437Y0194685D01*
X0121204Y0193917D01*
X0121204Y0193150D01*
X0120437Y0192383D01*
X0118902Y0192383D01*
X0118135Y0193150D01*
X0119670Y0194685D02*
X0120437Y0194685D01*
X0122739Y0193150D02*
X0122739Y0196219D01*
X0123506Y0196987D01*
X0125041Y0196987D01*
X0125808Y0196219D01*
X0122739Y0193150D01*
X0123506Y0192383D01*
X0125041Y0192383D01*
X0125808Y0193150D01*
X0125808Y0196219D01*
X0142271Y0196396D02*
X0142271Y0191792D01*
X0142271Y0193327D02*
X0144573Y0193327D01*
X0145341Y0194094D01*
X0145341Y0195629D01*
X0144573Y0196396D01*
X0142271Y0196396D01*
X0143806Y0193327D02*
X0145341Y0191792D01*
X0146875Y0192560D02*
X0147643Y0191792D01*
X0149177Y0191792D01*
X0149945Y0192560D01*
X0149945Y0193327D01*
X0149177Y0194094D01*
X0147643Y0194094D01*
X0146875Y0194862D01*
X0146875Y0195629D01*
X0147643Y0196396D01*
X0149177Y0196396D01*
X0149945Y0195629D01*
X0151479Y0196396D02*
X0154549Y0196396D01*
X0153014Y0196396D02*
X0153014Y0191792D01*
X0155338Y0164048D02*
X0158407Y0164048D01*
X0158407Y0161747D01*
X0157640Y0160979D01*
X0155338Y0160979D01*
X0158407Y0159445D02*
X0158407Y0156375D01*
X0158407Y0154841D02*
X0158407Y0154073D01*
X0157640Y0154073D01*
X0157640Y0154841D01*
X0158407Y0154841D01*
X0157640Y0152539D02*
X0158407Y0151771D01*
X0158407Y0150237D01*
X0157640Y0149469D01*
X0154570Y0152539D01*
X0157640Y0152539D01*
X0157640Y0149469D02*
X0154570Y0149469D01*
X0153803Y0150237D01*
X0153803Y0151771D01*
X0154570Y0152539D01*
X0152501Y0152004D02*
X0147897Y0152004D01*
X0149432Y0150470D01*
X0151734Y0148935D02*
X0152501Y0148935D01*
X0152501Y0148168D01*
X0151734Y0148168D01*
X0151734Y0148935D01*
X0152501Y0150470D02*
X0152501Y0153539D01*
X0151734Y0155074D02*
X0149432Y0155074D01*
X0151734Y0155074D02*
X0152501Y0155841D01*
X0152501Y0158143D01*
X0149432Y0158143D01*
X0153803Y0157910D02*
X0158407Y0157910D01*
X0155338Y0156375D02*
X0153803Y0157910D01*
X0151734Y0146633D02*
X0148665Y0146633D01*
X0151734Y0143564D01*
X0152501Y0144331D01*
X0152501Y0145866D01*
X0151734Y0146633D01*
X0151734Y0143564D02*
X0148665Y0143564D01*
X0147897Y0144331D01*
X0147897Y0145866D01*
X0148665Y0146633D01*
X0153303Y0107735D02*
X0154838Y0107735D01*
X0155605Y0106967D01*
X0152536Y0103898D01*
X0153303Y0103131D01*
X0154838Y0103131D01*
X0155605Y0103898D01*
X0155605Y0106967D01*
X0153303Y0107735D02*
X0152536Y0106967D01*
X0152536Y0103898D01*
X0157139Y0103898D02*
X0157139Y0103131D01*
X0157907Y0103131D01*
X0157907Y0103898D01*
X0157139Y0103898D01*
X0159441Y0103131D02*
X0162511Y0103131D01*
X0160976Y0103131D02*
X0160976Y0107735D01*
X0159441Y0106200D01*
X0164045Y0106200D02*
X0164045Y0103898D01*
X0164813Y0103131D01*
X0167115Y0103131D01*
X0167115Y0106200D01*
X0157806Y0076239D02*
X0156272Y0076239D01*
X0155504Y0075471D01*
X0155504Y0072402D01*
X0158574Y0075471D01*
X0158574Y0072402D01*
X0157806Y0071635D01*
X0156272Y0071635D01*
X0155504Y0072402D01*
X0153970Y0071635D02*
X0150901Y0071635D01*
X0152435Y0071635D02*
X0152435Y0076239D01*
X0150901Y0074704D01*
X0157806Y0076239D02*
X0158574Y0075471D01*
X0160108Y0074704D02*
X0160108Y0072402D01*
X0160876Y0071635D01*
X0163178Y0071635D01*
X0163178Y0074704D01*
X0188802Y0169154D02*
X0187267Y0170689D01*
X0191871Y0170689D01*
X0191871Y0169154D02*
X0191871Y0172224D01*
X0191104Y0173758D02*
X0188035Y0176828D01*
X0191104Y0176828D01*
X0191871Y0176060D01*
X0191871Y0174526D01*
X0191104Y0173758D01*
X0188035Y0173758D01*
X0187267Y0174526D01*
X0187267Y0176060D01*
X0188035Y0176828D01*
X0188802Y0178362D02*
X0191104Y0178362D01*
X0191871Y0179130D01*
X0191871Y0181432D01*
X0188802Y0181432D01*
D14*
X0184772Y0181876D02*
X0184772Y0167376D01*
X0181772Y0164376D01*
X0169772Y0164376D01*
X0166772Y0167376D01*
X0166772Y0181876D01*
X0166774Y0181952D01*
X0166780Y0182028D01*
X0166789Y0182103D01*
X0166803Y0182178D01*
X0166820Y0182252D01*
X0166841Y0182325D01*
X0166865Y0182397D01*
X0166894Y0182468D01*
X0166925Y0182537D01*
X0166960Y0182604D01*
X0166999Y0182669D01*
X0167041Y0182733D01*
X0167086Y0182794D01*
X0167134Y0182853D01*
X0167185Y0182909D01*
X0167239Y0182963D01*
X0167295Y0183014D01*
X0167354Y0183062D01*
X0167415Y0183107D01*
X0167479Y0183149D01*
X0167544Y0183188D01*
X0167611Y0183223D01*
X0167680Y0183254D01*
X0167751Y0183283D01*
X0167823Y0183307D01*
X0167896Y0183328D01*
X0167970Y0183345D01*
X0168045Y0183359D01*
X0168120Y0183368D01*
X0168196Y0183374D01*
X0168272Y0183376D01*
X0183272Y0183376D01*
X0183348Y0183374D01*
X0183424Y0183368D01*
X0183499Y0183359D01*
X0183574Y0183345D01*
X0183648Y0183328D01*
X0183721Y0183307D01*
X0183793Y0183283D01*
X0183864Y0183254D01*
X0183933Y0183223D01*
X0184000Y0183188D01*
X0184065Y0183149D01*
X0184129Y0183107D01*
X0184190Y0183062D01*
X0184249Y0183014D01*
X0184305Y0182963D01*
X0184359Y0182909D01*
X0184410Y0182853D01*
X0184458Y0182794D01*
X0184503Y0182733D01*
X0184545Y0182669D01*
X0184584Y0182604D01*
X0184619Y0182537D01*
X0184650Y0182468D01*
X0184679Y0182397D01*
X0184703Y0182325D01*
X0184724Y0182252D01*
X0184741Y0182178D01*
X0184755Y0182103D01*
X0184764Y0182028D01*
X0184770Y0181952D01*
X0184772Y0181876D01*
X0170372Y0168176D02*
X0170372Y0165576D01*
X0169172Y0166876D02*
X0171672Y0166876D01*
X0161993Y0166084D02*
X0161993Y0183084D01*
X0161991Y0183144D01*
X0161986Y0183205D01*
X0161977Y0183264D01*
X0161964Y0183323D01*
X0161948Y0183382D01*
X0161928Y0183439D01*
X0161905Y0183494D01*
X0161878Y0183549D01*
X0161849Y0183601D01*
X0161816Y0183652D01*
X0161780Y0183701D01*
X0161742Y0183747D01*
X0161700Y0183791D01*
X0161656Y0183833D01*
X0161610Y0183871D01*
X0161561Y0183907D01*
X0161510Y0183940D01*
X0161458Y0183969D01*
X0161403Y0183996D01*
X0161348Y0184019D01*
X0161291Y0184039D01*
X0161232Y0184055D01*
X0161173Y0184068D01*
X0161114Y0184077D01*
X0161053Y0184082D01*
X0160993Y0184084D01*
X0152993Y0184084D01*
X0152933Y0184082D01*
X0152872Y0184077D01*
X0152813Y0184068D01*
X0152754Y0184055D01*
X0152695Y0184039D01*
X0152638Y0184019D01*
X0152583Y0183996D01*
X0152528Y0183969D01*
X0152476Y0183940D01*
X0152425Y0183907D01*
X0152376Y0183871D01*
X0152330Y0183833D01*
X0152286Y0183791D01*
X0152244Y0183747D01*
X0152206Y0183701D01*
X0152170Y0183652D01*
X0152137Y0183601D01*
X0152108Y0183549D01*
X0152081Y0183494D01*
X0152058Y0183439D01*
X0152038Y0183382D01*
X0152022Y0183323D01*
X0152009Y0183264D01*
X0152000Y0183205D01*
X0151995Y0183144D01*
X0151993Y0183084D01*
X0151993Y0166084D01*
X0151995Y0166024D01*
X0152000Y0165963D01*
X0152009Y0165904D01*
X0152022Y0165845D01*
X0152038Y0165786D01*
X0152058Y0165729D01*
X0152081Y0165674D01*
X0152108Y0165619D01*
X0152137Y0165567D01*
X0152170Y0165516D01*
X0152206Y0165467D01*
X0152244Y0165421D01*
X0152286Y0165377D01*
X0152330Y0165335D01*
X0152376Y0165297D01*
X0152425Y0165261D01*
X0152476Y0165228D01*
X0152528Y0165199D01*
X0152583Y0165172D01*
X0152638Y0165149D01*
X0152695Y0165129D01*
X0152754Y0165113D01*
X0152813Y0165100D01*
X0152872Y0165091D01*
X0152933Y0165086D01*
X0152993Y0165084D01*
X0160993Y0165084D01*
X0161053Y0165086D01*
X0161114Y0165091D01*
X0161173Y0165100D01*
X0161232Y0165113D01*
X0161291Y0165129D01*
X0161348Y0165149D01*
X0161403Y0165172D01*
X0161458Y0165199D01*
X0161510Y0165228D01*
X0161561Y0165261D01*
X0161610Y0165297D01*
X0161656Y0165335D01*
X0161700Y0165377D01*
X0161742Y0165421D01*
X0161780Y0165467D01*
X0161816Y0165516D01*
X0161849Y0165567D01*
X0161878Y0165619D01*
X0161905Y0165674D01*
X0161928Y0165729D01*
X0161948Y0165786D01*
X0161964Y0165845D01*
X0161977Y0165904D01*
X0161986Y0165963D01*
X0161991Y0166024D01*
X0161993Y0166084D01*
X0156993Y0173084D02*
X0156993Y0173584D01*
X0156993Y0175584D02*
X0156993Y0176084D01*
X0145008Y0160502D02*
X0137008Y0160502D01*
X0136948Y0160500D01*
X0136887Y0160495D01*
X0136828Y0160486D01*
X0136769Y0160473D01*
X0136710Y0160457D01*
X0136653Y0160437D01*
X0136598Y0160414D01*
X0136543Y0160387D01*
X0136491Y0160358D01*
X0136440Y0160325D01*
X0136391Y0160289D01*
X0136345Y0160251D01*
X0136301Y0160209D01*
X0136259Y0160165D01*
X0136221Y0160119D01*
X0136185Y0160070D01*
X0136152Y0160019D01*
X0136123Y0159967D01*
X0136096Y0159912D01*
X0136073Y0159857D01*
X0136053Y0159800D01*
X0136037Y0159741D01*
X0136024Y0159682D01*
X0136015Y0159623D01*
X0136010Y0159562D01*
X0136008Y0159502D01*
X0136008Y0142502D01*
X0136010Y0142442D01*
X0136015Y0142381D01*
X0136024Y0142322D01*
X0136037Y0142263D01*
X0136053Y0142204D01*
X0136073Y0142147D01*
X0136096Y0142092D01*
X0136123Y0142037D01*
X0136152Y0141985D01*
X0136185Y0141934D01*
X0136221Y0141885D01*
X0136259Y0141839D01*
X0136301Y0141795D01*
X0136345Y0141753D01*
X0136391Y0141715D01*
X0136440Y0141679D01*
X0136491Y0141646D01*
X0136543Y0141617D01*
X0136598Y0141590D01*
X0136653Y0141567D01*
X0136710Y0141547D01*
X0136769Y0141531D01*
X0136828Y0141518D01*
X0136887Y0141509D01*
X0136948Y0141504D01*
X0137008Y0141502D01*
X0145008Y0141502D01*
X0145068Y0141504D01*
X0145129Y0141509D01*
X0145188Y0141518D01*
X0145247Y0141531D01*
X0145306Y0141547D01*
X0145363Y0141567D01*
X0145418Y0141590D01*
X0145473Y0141617D01*
X0145525Y0141646D01*
X0145576Y0141679D01*
X0145625Y0141715D01*
X0145671Y0141753D01*
X0145715Y0141795D01*
X0145757Y0141839D01*
X0145795Y0141885D01*
X0145831Y0141934D01*
X0145864Y0141985D01*
X0145893Y0142037D01*
X0145920Y0142092D01*
X0145943Y0142147D01*
X0145963Y0142204D01*
X0145979Y0142263D01*
X0145992Y0142322D01*
X0146001Y0142381D01*
X0146006Y0142442D01*
X0146008Y0142502D01*
X0146008Y0159502D01*
X0146006Y0159562D01*
X0146001Y0159623D01*
X0145992Y0159682D01*
X0145979Y0159741D01*
X0145963Y0159800D01*
X0145943Y0159857D01*
X0145920Y0159912D01*
X0145893Y0159967D01*
X0145864Y0160019D01*
X0145831Y0160070D01*
X0145795Y0160119D01*
X0145757Y0160165D01*
X0145715Y0160209D01*
X0145671Y0160251D01*
X0145625Y0160289D01*
X0145576Y0160325D01*
X0145525Y0160358D01*
X0145473Y0160387D01*
X0145418Y0160414D01*
X0145363Y0160437D01*
X0145306Y0160457D01*
X0145247Y0160473D01*
X0145188Y0160486D01*
X0145129Y0160495D01*
X0145068Y0160500D01*
X0145008Y0160502D01*
X0141008Y0152502D02*
X0141008Y0152002D01*
X0141008Y0150002D02*
X0141008Y0149502D01*
X0120304Y0161199D02*
X0112804Y0161199D01*
X0112802Y0161073D01*
X0112796Y0160948D01*
X0112786Y0160823D01*
X0112772Y0160698D01*
X0112755Y0160573D01*
X0112733Y0160449D01*
X0112708Y0160326D01*
X0112678Y0160204D01*
X0112645Y0160083D01*
X0112608Y0159963D01*
X0112568Y0159844D01*
X0112523Y0159727D01*
X0112475Y0159610D01*
X0112423Y0159496D01*
X0112368Y0159383D01*
X0112309Y0159272D01*
X0112247Y0159163D01*
X0112181Y0159056D01*
X0112112Y0158951D01*
X0112040Y0158848D01*
X0111965Y0158747D01*
X0111886Y0158649D01*
X0111804Y0158554D01*
X0111720Y0158461D01*
X0111632Y0158371D01*
X0111542Y0158283D01*
X0111449Y0158199D01*
X0111354Y0158117D01*
X0111256Y0158038D01*
X0111155Y0157963D01*
X0111052Y0157891D01*
X0110947Y0157822D01*
X0110840Y0157756D01*
X0110731Y0157694D01*
X0110620Y0157635D01*
X0110507Y0157580D01*
X0110393Y0157528D01*
X0110276Y0157480D01*
X0110159Y0157435D01*
X0110040Y0157395D01*
X0109920Y0157358D01*
X0109799Y0157325D01*
X0109677Y0157295D01*
X0109554Y0157270D01*
X0109430Y0157248D01*
X0109305Y0157231D01*
X0109180Y0157217D01*
X0109055Y0157207D01*
X0108930Y0157201D01*
X0108804Y0157199D01*
X0108678Y0157201D01*
X0108553Y0157207D01*
X0108428Y0157217D01*
X0108303Y0157231D01*
X0108178Y0157248D01*
X0108054Y0157270D01*
X0107931Y0157295D01*
X0107809Y0157325D01*
X0107688Y0157358D01*
X0107568Y0157395D01*
X0107449Y0157435D01*
X0107332Y0157480D01*
X0107215Y0157528D01*
X0107101Y0157580D01*
X0106988Y0157635D01*
X0106877Y0157694D01*
X0106768Y0157756D01*
X0106661Y0157822D01*
X0106556Y0157891D01*
X0106453Y0157963D01*
X0106352Y0158038D01*
X0106254Y0158117D01*
X0106159Y0158199D01*
X0106066Y0158283D01*
X0105976Y0158371D01*
X0105888Y0158461D01*
X0105804Y0158554D01*
X0105722Y0158649D01*
X0105643Y0158747D01*
X0105568Y0158848D01*
X0105496Y0158951D01*
X0105427Y0159056D01*
X0105361Y0159163D01*
X0105299Y0159272D01*
X0105240Y0159383D01*
X0105185Y0159496D01*
X0105133Y0159610D01*
X0105085Y0159727D01*
X0105040Y0159844D01*
X0105000Y0159963D01*
X0104963Y0160083D01*
X0104930Y0160204D01*
X0104900Y0160326D01*
X0104875Y0160449D01*
X0104853Y0160573D01*
X0104836Y0160698D01*
X0104822Y0160823D01*
X0104812Y0160948D01*
X0104806Y0161073D01*
X0104804Y0161199D01*
X0097304Y0161199D01*
X0097304Y0021199D01*
X0120304Y0021199D01*
X0120304Y0161199D01*
X0109995Y0147440D02*
X0108928Y0147440D01*
X0107860Y0146372D01*
X0107860Y0143170D01*
X0106792Y0140994D02*
X0107860Y0139927D01*
X0107860Y0137792D01*
X0106792Y0136724D01*
X0105725Y0136724D01*
X0104657Y0137792D01*
X0104657Y0139927D01*
X0105725Y0140994D01*
X0106792Y0140994D01*
X0107860Y0139927D02*
X0108928Y0140994D01*
X0109995Y0140994D01*
X0111063Y0139927D01*
X0111063Y0137792D01*
X0109995Y0136724D01*
X0108928Y0136724D01*
X0107860Y0137792D01*
X0106792Y0134549D02*
X0105725Y0134549D01*
X0104657Y0133481D01*
X0104657Y0131346D01*
X0105725Y0130279D01*
X0106792Y0134549D02*
X0111063Y0130279D01*
X0111063Y0134549D01*
X0111063Y0128103D02*
X0111063Y0123833D01*
X0111063Y0125968D02*
X0104657Y0125968D01*
X0106792Y0123833D01*
X0104657Y0121658D02*
X0104657Y0117388D01*
X0111063Y0117388D01*
X0109995Y0115212D02*
X0111063Y0114145D01*
X0111063Y0112010D01*
X0109995Y0110942D01*
X0105725Y0115212D01*
X0109995Y0115212D01*
X0107860Y0117388D02*
X0107860Y0119523D01*
X0105725Y0115212D02*
X0104657Y0114145D01*
X0104657Y0112010D01*
X0105725Y0110942D01*
X0109995Y0110942D01*
X0109995Y0108767D02*
X0107860Y0108767D01*
X0106792Y0107699D01*
X0106792Y0106632D01*
X0107860Y0104497D01*
X0104657Y0104497D01*
X0104657Y0108767D01*
X0109995Y0108767D02*
X0111063Y0107699D01*
X0111063Y0105564D01*
X0109995Y0104497D01*
X0111063Y0102322D02*
X0111063Y0098051D01*
X0106792Y0102322D01*
X0105725Y0102322D01*
X0104657Y0101254D01*
X0104657Y0099119D01*
X0105725Y0098051D01*
X0104657Y0095876D02*
X0111063Y0091606D01*
X0111063Y0089431D02*
X0104657Y0089431D01*
X0106792Y0087295D01*
X0104657Y0085160D01*
X0111063Y0085160D01*
X0111063Y0082985D02*
X0111063Y0078715D01*
X0106792Y0082985D01*
X0105725Y0082985D01*
X0104657Y0081917D01*
X0104657Y0079782D01*
X0105725Y0078715D01*
X0105725Y0076540D02*
X0106792Y0076540D01*
X0107860Y0075472D01*
X0108928Y0076540D01*
X0109995Y0076540D01*
X0111063Y0075472D01*
X0111063Y0073337D01*
X0109995Y0072269D01*
X0109995Y0070094D02*
X0111063Y0069026D01*
X0111063Y0066891D01*
X0109995Y0065824D01*
X0105725Y0065824D01*
X0104657Y0066891D01*
X0104657Y0069026D01*
X0105725Y0070094D01*
X0105725Y0072269D02*
X0104657Y0073337D01*
X0104657Y0075472D01*
X0105725Y0076540D01*
X0107860Y0075472D02*
X0107860Y0074404D01*
X0104657Y0063662D02*
X0104657Y0061527D01*
X0104657Y0062594D02*
X0111063Y0062594D01*
X0111063Y0061527D02*
X0111063Y0063662D01*
X0107860Y0059352D02*
X0105725Y0059352D01*
X0104657Y0058284D01*
X0104657Y0055081D01*
X0111063Y0055081D01*
X0108928Y0055081D02*
X0108928Y0058284D01*
X0107860Y0059352D01*
X0130839Y0069017D02*
X0130839Y0081017D01*
X0133839Y0084017D01*
X0148339Y0084017D01*
X0148415Y0084015D01*
X0148491Y0084009D01*
X0148566Y0084000D01*
X0148641Y0083986D01*
X0148715Y0083969D01*
X0148788Y0083948D01*
X0148860Y0083924D01*
X0148931Y0083895D01*
X0149000Y0083864D01*
X0149067Y0083829D01*
X0149132Y0083790D01*
X0149196Y0083748D01*
X0149257Y0083703D01*
X0149316Y0083655D01*
X0149372Y0083604D01*
X0149426Y0083550D01*
X0149477Y0083494D01*
X0149525Y0083435D01*
X0149570Y0083374D01*
X0149612Y0083310D01*
X0149651Y0083245D01*
X0149686Y0083178D01*
X0149717Y0083109D01*
X0149746Y0083038D01*
X0149770Y0082966D01*
X0149791Y0082893D01*
X0149808Y0082819D01*
X0149822Y0082744D01*
X0149831Y0082669D01*
X0149837Y0082593D01*
X0149839Y0082517D01*
X0149839Y0067517D01*
X0149837Y0067441D01*
X0149831Y0067365D01*
X0149822Y0067290D01*
X0149808Y0067215D01*
X0149791Y0067141D01*
X0149770Y0067068D01*
X0149746Y0066996D01*
X0149717Y0066925D01*
X0149686Y0066856D01*
X0149651Y0066789D01*
X0149612Y0066724D01*
X0149570Y0066660D01*
X0149525Y0066599D01*
X0149477Y0066540D01*
X0149426Y0066484D01*
X0149372Y0066430D01*
X0149316Y0066379D01*
X0149257Y0066331D01*
X0149196Y0066286D01*
X0149132Y0066244D01*
X0149067Y0066205D01*
X0149000Y0066170D01*
X0148931Y0066139D01*
X0148860Y0066110D01*
X0148788Y0066086D01*
X0148715Y0066065D01*
X0148641Y0066048D01*
X0148566Y0066034D01*
X0148491Y0066025D01*
X0148415Y0066019D01*
X0148339Y0066017D01*
X0133839Y0066017D01*
X0130839Y0069017D01*
X0133339Y0079117D02*
X0133339Y0081617D01*
X0134639Y0080417D02*
X0132039Y0080417D01*
X0132036Y0101080D02*
X0149036Y0101080D01*
X0149096Y0101082D01*
X0149157Y0101087D01*
X0149216Y0101096D01*
X0149275Y0101109D01*
X0149334Y0101125D01*
X0149391Y0101145D01*
X0149446Y0101168D01*
X0149501Y0101195D01*
X0149553Y0101224D01*
X0149604Y0101257D01*
X0149653Y0101293D01*
X0149699Y0101331D01*
X0149743Y0101373D01*
X0149785Y0101417D01*
X0149823Y0101463D01*
X0149859Y0101512D01*
X0149892Y0101563D01*
X0149921Y0101615D01*
X0149948Y0101670D01*
X0149971Y0101725D01*
X0149991Y0101782D01*
X0150007Y0101841D01*
X0150020Y0101900D01*
X0150029Y0101959D01*
X0150034Y0102020D01*
X0150036Y0102080D01*
X0150036Y0110080D01*
X0150034Y0110140D01*
X0150029Y0110201D01*
X0150020Y0110260D01*
X0150007Y0110319D01*
X0149991Y0110378D01*
X0149971Y0110435D01*
X0149948Y0110490D01*
X0149921Y0110545D01*
X0149892Y0110597D01*
X0149859Y0110648D01*
X0149823Y0110697D01*
X0149785Y0110743D01*
X0149743Y0110787D01*
X0149699Y0110829D01*
X0149653Y0110867D01*
X0149604Y0110903D01*
X0149553Y0110936D01*
X0149501Y0110965D01*
X0149446Y0110992D01*
X0149391Y0111015D01*
X0149334Y0111035D01*
X0149275Y0111051D01*
X0149216Y0111064D01*
X0149157Y0111073D01*
X0149096Y0111078D01*
X0149036Y0111080D01*
X0132036Y0111080D01*
X0131976Y0111078D01*
X0131915Y0111073D01*
X0131856Y0111064D01*
X0131797Y0111051D01*
X0131738Y0111035D01*
X0131681Y0111015D01*
X0131626Y0110992D01*
X0131571Y0110965D01*
X0131519Y0110936D01*
X0131468Y0110903D01*
X0131419Y0110867D01*
X0131373Y0110829D01*
X0131329Y0110787D01*
X0131287Y0110743D01*
X0131249Y0110697D01*
X0131213Y0110648D01*
X0131180Y0110597D01*
X0131151Y0110545D01*
X0131124Y0110490D01*
X0131101Y0110435D01*
X0131081Y0110378D01*
X0131065Y0110319D01*
X0131052Y0110260D01*
X0131043Y0110201D01*
X0131038Y0110140D01*
X0131036Y0110080D01*
X0131036Y0102080D01*
X0131038Y0102020D01*
X0131043Y0101959D01*
X0131052Y0101900D01*
X0131065Y0101841D01*
X0131081Y0101782D01*
X0131101Y0101725D01*
X0131124Y0101670D01*
X0131151Y0101615D01*
X0131180Y0101563D01*
X0131213Y0101512D01*
X0131249Y0101463D01*
X0131287Y0101417D01*
X0131329Y0101373D01*
X0131373Y0101331D01*
X0131419Y0101293D01*
X0131468Y0101257D01*
X0131519Y0101224D01*
X0131571Y0101195D01*
X0131626Y0101168D01*
X0131681Y0101145D01*
X0131738Y0101125D01*
X0131797Y0101109D01*
X0131856Y0101096D01*
X0131915Y0101087D01*
X0131976Y0101082D01*
X0132036Y0101080D01*
X0139036Y0106080D02*
X0139536Y0106080D01*
X0141536Y0106080D02*
X0142036Y0106080D01*
X0111063Y0095876D02*
X0104657Y0091606D01*
X0141190Y0058207D02*
X0143325Y0056072D01*
X0145461Y0058207D01*
X0145461Y0051802D01*
X0147636Y0051802D02*
X0151906Y0051802D01*
X0149771Y0055004D02*
X0147636Y0055004D01*
X0147636Y0051802D02*
X0147636Y0058207D01*
X0151906Y0058207D01*
X0154081Y0055004D02*
X0158352Y0055004D01*
X0160527Y0052869D02*
X0161594Y0051802D01*
X0163730Y0051802D01*
X0164797Y0052869D01*
X0164797Y0053937D01*
X0163730Y0055004D01*
X0162662Y0055004D01*
X0163730Y0055004D02*
X0164797Y0056072D01*
X0164797Y0057140D01*
X0163730Y0058207D01*
X0161594Y0058207D01*
X0160527Y0057140D01*
X0157284Y0058207D02*
X0154081Y0055004D01*
X0157284Y0051802D02*
X0157284Y0058207D01*
X0166972Y0057140D02*
X0168040Y0058207D01*
X0170175Y0058207D01*
X0171243Y0057140D01*
X0171243Y0056072D01*
X0170175Y0055004D01*
X0171243Y0053937D01*
X0171243Y0052869D01*
X0170175Y0051802D01*
X0168040Y0051802D01*
X0166972Y0052869D01*
X0169107Y0055004D02*
X0170175Y0055004D01*
X0171269Y0047707D02*
X0173404Y0045572D01*
X0175540Y0047707D01*
X0175540Y0041302D01*
X0177715Y0041302D02*
X0181985Y0047707D01*
X0184160Y0046640D02*
X0185228Y0047707D01*
X0187363Y0047707D01*
X0188431Y0046640D01*
X0188431Y0045572D01*
X0184160Y0041302D01*
X0188431Y0041302D01*
X0190606Y0042369D02*
X0191673Y0041302D01*
X0193808Y0041302D01*
X0194876Y0042369D01*
X0194876Y0044504D01*
X0193808Y0045572D01*
X0192741Y0045572D01*
X0190606Y0044504D01*
X0190606Y0047707D01*
X0194876Y0047707D01*
X0197051Y0046640D02*
X0198119Y0047707D01*
X0200254Y0047707D01*
X0201322Y0046640D01*
X0197051Y0042369D01*
X0198119Y0041302D01*
X0200254Y0041302D01*
X0201322Y0042369D01*
X0201322Y0046640D01*
X0197051Y0046640D02*
X0197051Y0042369D01*
X0186282Y0038522D02*
X0186282Y0033184D01*
X0185214Y0032117D01*
X0183079Y0032117D01*
X0182012Y0033184D01*
X0182012Y0038522D01*
X0179850Y0038522D02*
X0177715Y0038522D01*
X0178782Y0038522D02*
X0178782Y0032117D01*
X0177715Y0032117D02*
X0179850Y0032117D01*
X0175540Y0032117D02*
X0171269Y0032117D01*
X0171269Y0038522D01*
X0171269Y0041302D02*
X0171269Y0047707D01*
X0169094Y0046640D02*
X0169094Y0045572D01*
X0164824Y0041302D01*
X0169094Y0041302D01*
X0169094Y0046640D02*
X0168027Y0047707D01*
X0165891Y0047707D01*
X0164824Y0046640D01*
X0162649Y0046640D02*
X0162649Y0045572D01*
X0161581Y0044504D01*
X0162649Y0043437D01*
X0162649Y0042369D01*
X0161581Y0041302D01*
X0159446Y0041302D01*
X0158378Y0042369D01*
X0156203Y0042369D02*
X0155136Y0041302D01*
X0153000Y0041302D01*
X0151933Y0042369D01*
X0151933Y0046640D01*
X0153000Y0047707D01*
X0155136Y0047707D01*
X0156203Y0046640D01*
X0158378Y0046640D02*
X0159446Y0047707D01*
X0161581Y0047707D01*
X0162649Y0046640D01*
X0161581Y0044504D02*
X0160513Y0044504D01*
X0160513Y0038522D02*
X0162649Y0036387D01*
X0162649Y0032117D01*
X0162649Y0035319D02*
X0158378Y0035319D01*
X0158378Y0036387D02*
X0158378Y0032117D01*
X0156203Y0033184D02*
X0156203Y0037455D01*
X0155136Y0038522D01*
X0151933Y0038522D01*
X0151933Y0032117D01*
X0155136Y0032117D01*
X0156203Y0033184D01*
X0158378Y0036387D02*
X0160513Y0038522D01*
X0149771Y0038522D02*
X0147636Y0038522D01*
X0148703Y0038522D02*
X0148703Y0032117D01*
X0147636Y0032117D02*
X0149771Y0032117D01*
X0148703Y0028022D02*
X0150839Y0028022D01*
X0151906Y0026955D01*
X0147636Y0022684D01*
X0148703Y0021617D01*
X0150839Y0021617D01*
X0151906Y0022684D01*
X0151906Y0026955D01*
X0154081Y0025887D02*
X0156216Y0028022D01*
X0156216Y0021617D01*
X0154081Y0021617D02*
X0158352Y0021617D01*
X0160527Y0022684D02*
X0160527Y0024819D01*
X0163730Y0024819D01*
X0164797Y0023752D01*
X0164797Y0022684D01*
X0163730Y0021617D01*
X0161594Y0021617D01*
X0160527Y0022684D01*
X0160527Y0024819D02*
X0162662Y0026955D01*
X0164797Y0028022D01*
X0166972Y0024819D02*
X0171243Y0024819D01*
X0173418Y0024819D02*
X0177688Y0024819D01*
X0179863Y0024819D02*
X0184134Y0024819D01*
X0186309Y0025887D02*
X0188444Y0028022D01*
X0188444Y0021617D01*
X0186309Y0021617D02*
X0190579Y0021617D01*
X0192754Y0024819D02*
X0197025Y0024819D01*
X0195957Y0021617D02*
X0195957Y0028022D01*
X0192754Y0024819D01*
X0176620Y0021617D02*
X0176620Y0028022D01*
X0173418Y0024819D01*
X0181985Y0041302D02*
X0177715Y0047707D01*
X0177858Y0064924D02*
X0175722Y0064924D01*
X0174655Y0065991D01*
X0174655Y0070262D01*
X0175722Y0071329D01*
X0177858Y0071329D01*
X0178925Y0070262D01*
X0178925Y0068126D02*
X0176790Y0068126D01*
X0178925Y0068126D02*
X0178925Y0065991D01*
X0177858Y0064924D01*
X0181100Y0064924D02*
X0181100Y0071329D01*
X0185371Y0064924D01*
X0185371Y0071329D01*
X0187546Y0071329D02*
X0190749Y0071329D01*
X0191816Y0070262D01*
X0191816Y0065991D01*
X0190749Y0064924D01*
X0187546Y0064924D01*
X0187546Y0071329D01*
X0189681Y0074766D02*
X0191816Y0076901D01*
X0191816Y0081172D01*
X0187546Y0081172D02*
X0187546Y0076901D01*
X0189681Y0074766D01*
X0185371Y0075834D02*
X0185371Y0077969D01*
X0184303Y0079037D01*
X0183235Y0079037D01*
X0181100Y0077969D01*
X0181100Y0081172D01*
X0185371Y0081172D01*
X0183763Y0084609D02*
X0180560Y0084609D01*
X0180560Y0091014D01*
X0183763Y0091014D01*
X0184831Y0089947D01*
X0184831Y0088879D01*
X0183763Y0087812D01*
X0180560Y0087812D01*
X0183763Y0087812D02*
X0184831Y0086744D01*
X0184831Y0085676D01*
X0183763Y0084609D01*
X0187006Y0084609D02*
X0187006Y0085676D01*
X0191276Y0089947D01*
X0191276Y0091014D01*
X0187006Y0091014D01*
X0188073Y0094451D02*
X0187006Y0095519D01*
X0187006Y0096586D01*
X0188073Y0097654D01*
X0190209Y0097654D01*
X0191276Y0096586D01*
X0191276Y0095519D01*
X0190209Y0094451D01*
X0188073Y0094451D01*
X0188073Y0097654D02*
X0187006Y0098722D01*
X0187006Y0099789D01*
X0188073Y0100857D01*
X0190209Y0100857D01*
X0191276Y0099789D01*
X0191276Y0098722D01*
X0190209Y0097654D01*
X0184831Y0096586D02*
X0184831Y0095519D01*
X0183763Y0094451D01*
X0180560Y0094451D01*
X0180560Y0100857D01*
X0183763Y0100857D01*
X0184831Y0099789D01*
X0184831Y0098722D01*
X0183763Y0097654D01*
X0180560Y0097654D01*
X0183763Y0097654D02*
X0184831Y0096586D01*
X0183763Y0104294D02*
X0180560Y0104294D01*
X0180560Y0110699D01*
X0183763Y0110699D01*
X0184831Y0109632D01*
X0184831Y0108564D01*
X0183763Y0107497D01*
X0180560Y0107497D01*
X0183763Y0107497D02*
X0184831Y0106429D01*
X0184831Y0105361D01*
X0183763Y0104294D01*
X0187006Y0105361D02*
X0188073Y0104294D01*
X0190209Y0104294D01*
X0191276Y0105361D01*
X0191276Y0109632D01*
X0190209Y0110699D01*
X0188073Y0110699D01*
X0187006Y0109632D01*
X0187006Y0108564D01*
X0188073Y0107497D01*
X0191276Y0107497D01*
X0191733Y0114727D02*
X0189598Y0114727D01*
X0188530Y0115794D01*
X0186355Y0114727D02*
X0182085Y0114727D01*
X0184220Y0114727D02*
X0184220Y0121132D01*
X0182085Y0118997D01*
X0179909Y0118997D02*
X0179909Y0120065D01*
X0178842Y0121132D01*
X0175639Y0121132D01*
X0175639Y0114727D01*
X0178842Y0114727D01*
X0179909Y0115794D01*
X0179909Y0116862D01*
X0178842Y0117930D01*
X0175639Y0117930D01*
X0178842Y0117930D02*
X0179909Y0118997D01*
X0178842Y0124963D02*
X0175639Y0124963D01*
X0175639Y0131369D01*
X0178842Y0131369D01*
X0179909Y0130301D01*
X0179909Y0129233D01*
X0178842Y0128166D01*
X0175639Y0128166D01*
X0178842Y0128166D02*
X0179909Y0127098D01*
X0179909Y0126031D01*
X0178842Y0124963D01*
X0182085Y0124963D02*
X0186355Y0124963D01*
X0184220Y0124963D02*
X0184220Y0131369D01*
X0182085Y0129233D01*
X0182281Y0135002D02*
X0186552Y0135002D01*
X0184417Y0135002D02*
X0184417Y0141408D01*
X0182281Y0139273D01*
X0180106Y0139273D02*
X0179039Y0138205D01*
X0175836Y0138205D01*
X0175836Y0135002D02*
X0179039Y0135002D01*
X0180106Y0136070D01*
X0180106Y0137138D01*
X0179039Y0138205D01*
X0180106Y0139273D02*
X0180106Y0140340D01*
X0179039Y0141408D01*
X0175836Y0141408D01*
X0175836Y0135002D01*
X0188727Y0136070D02*
X0189795Y0135002D01*
X0191930Y0135002D01*
X0192997Y0136070D01*
X0192997Y0138205D01*
X0191930Y0139273D01*
X0190862Y0139273D01*
X0188727Y0138205D01*
X0188727Y0141408D01*
X0192997Y0141408D01*
X0191733Y0131369D02*
X0188530Y0128166D01*
X0192800Y0128166D01*
X0191733Y0124963D02*
X0191733Y0131369D01*
X0191733Y0121132D02*
X0189598Y0121132D01*
X0188530Y0120065D01*
X0190665Y0117930D02*
X0191733Y0117930D01*
X0192800Y0116862D01*
X0192800Y0115794D01*
X0191733Y0114727D01*
X0191733Y0117930D02*
X0192800Y0118997D01*
X0192800Y0120065D01*
X0191733Y0121132D01*
X0176790Y0080104D02*
X0176790Y0075834D01*
X0174655Y0077969D02*
X0178925Y0077969D01*
X0181100Y0075834D02*
X0182168Y0074766D01*
X0184303Y0074766D01*
X0185371Y0075834D01*
X0149771Y0047707D02*
X0147636Y0047707D01*
X0148703Y0047707D02*
X0148703Y0041302D01*
X0147636Y0041302D02*
X0149771Y0041302D01*
X0145461Y0044504D02*
X0144393Y0043437D01*
X0141190Y0043437D01*
X0141190Y0041302D02*
X0141190Y0047707D01*
X0144393Y0047707D01*
X0145461Y0046640D01*
X0145461Y0044504D01*
X0144393Y0038522D02*
X0142258Y0038522D01*
X0141190Y0037455D01*
X0141190Y0036387D01*
X0142258Y0035319D01*
X0144393Y0035319D01*
X0145461Y0034252D01*
X0145461Y0033184D01*
X0144393Y0032117D01*
X0142258Y0032117D01*
X0141190Y0033184D01*
X0142258Y0028022D02*
X0141190Y0026955D01*
X0142258Y0028022D02*
X0144393Y0028022D01*
X0145461Y0026955D01*
X0145461Y0025887D01*
X0141190Y0021617D01*
X0145461Y0021617D01*
X0147636Y0022684D02*
X0147636Y0026955D01*
X0148703Y0028022D01*
X0145461Y0037455D02*
X0144393Y0038522D01*
X0141190Y0051802D02*
X0141190Y0058207D01*
X0083016Y0038636D02*
X0083016Y0021636D01*
X0083014Y0021576D01*
X0083009Y0021515D01*
X0083000Y0021456D01*
X0082987Y0021397D01*
X0082971Y0021338D01*
X0082951Y0021281D01*
X0082928Y0021226D01*
X0082901Y0021171D01*
X0082872Y0021119D01*
X0082839Y0021068D01*
X0082803Y0021019D01*
X0082765Y0020973D01*
X0082723Y0020929D01*
X0082679Y0020887D01*
X0082633Y0020849D01*
X0082584Y0020813D01*
X0082533Y0020780D01*
X0082481Y0020751D01*
X0082426Y0020724D01*
X0082371Y0020701D01*
X0082314Y0020681D01*
X0082255Y0020665D01*
X0082196Y0020652D01*
X0082137Y0020643D01*
X0082076Y0020638D01*
X0082016Y0020636D01*
X0074016Y0020636D01*
X0073956Y0020638D01*
X0073895Y0020643D01*
X0073836Y0020652D01*
X0073777Y0020665D01*
X0073718Y0020681D01*
X0073661Y0020701D01*
X0073606Y0020724D01*
X0073551Y0020751D01*
X0073499Y0020780D01*
X0073448Y0020813D01*
X0073399Y0020849D01*
X0073353Y0020887D01*
X0073309Y0020929D01*
X0073267Y0020973D01*
X0073229Y0021019D01*
X0073193Y0021068D01*
X0073160Y0021119D01*
X0073131Y0021171D01*
X0073104Y0021226D01*
X0073081Y0021281D01*
X0073061Y0021338D01*
X0073045Y0021397D01*
X0073032Y0021456D01*
X0073023Y0021515D01*
X0073018Y0021576D01*
X0073016Y0021636D01*
X0073016Y0038636D01*
X0073018Y0038696D01*
X0073023Y0038757D01*
X0073032Y0038816D01*
X0073045Y0038875D01*
X0073061Y0038934D01*
X0073081Y0038991D01*
X0073104Y0039046D01*
X0073131Y0039101D01*
X0073160Y0039153D01*
X0073193Y0039204D01*
X0073229Y0039253D01*
X0073267Y0039299D01*
X0073309Y0039343D01*
X0073353Y0039385D01*
X0073399Y0039423D01*
X0073448Y0039459D01*
X0073499Y0039492D01*
X0073551Y0039521D01*
X0073606Y0039548D01*
X0073661Y0039571D01*
X0073718Y0039591D01*
X0073777Y0039607D01*
X0073836Y0039620D01*
X0073895Y0039629D01*
X0073956Y0039634D01*
X0074016Y0039636D01*
X0082016Y0039636D01*
X0082076Y0039634D01*
X0082137Y0039629D01*
X0082196Y0039620D01*
X0082255Y0039607D01*
X0082314Y0039591D01*
X0082371Y0039571D01*
X0082426Y0039548D01*
X0082481Y0039521D01*
X0082533Y0039492D01*
X0082584Y0039459D01*
X0082633Y0039423D01*
X0082679Y0039385D01*
X0082723Y0039343D01*
X0082765Y0039299D01*
X0082803Y0039253D01*
X0082839Y0039204D01*
X0082872Y0039153D01*
X0082901Y0039101D01*
X0082928Y0039046D01*
X0082951Y0038991D01*
X0082971Y0038934D01*
X0082987Y0038875D01*
X0083000Y0038816D01*
X0083009Y0038757D01*
X0083014Y0038696D01*
X0083016Y0038636D01*
X0078016Y0031636D02*
X0078016Y0031136D01*
X0078016Y0029136D02*
X0078016Y0028636D01*
X0059099Y0015407D02*
X0059099Y0008407D01*
X0059097Y0008347D01*
X0059092Y0008286D01*
X0059083Y0008227D01*
X0059070Y0008168D01*
X0059054Y0008109D01*
X0059034Y0008052D01*
X0059011Y0007997D01*
X0058984Y0007942D01*
X0058955Y0007890D01*
X0058922Y0007839D01*
X0058886Y0007790D01*
X0058848Y0007744D01*
X0058806Y0007700D01*
X0058762Y0007658D01*
X0058716Y0007620D01*
X0058667Y0007584D01*
X0058616Y0007551D01*
X0058564Y0007522D01*
X0058509Y0007495D01*
X0058454Y0007472D01*
X0058397Y0007452D01*
X0058338Y0007436D01*
X0058279Y0007423D01*
X0058220Y0007414D01*
X0058159Y0007409D01*
X0058099Y0007407D01*
X0056599Y0007407D01*
X0056099Y0007907D01*
X0037099Y0007907D01*
X0036599Y0007407D01*
X0035099Y0007407D01*
X0035039Y0007409D01*
X0034978Y0007414D01*
X0034919Y0007423D01*
X0034860Y0007436D01*
X0034801Y0007452D01*
X0034744Y0007472D01*
X0034689Y0007495D01*
X0034634Y0007522D01*
X0034582Y0007551D01*
X0034531Y0007584D01*
X0034482Y0007620D01*
X0034436Y0007658D01*
X0034392Y0007700D01*
X0034350Y0007744D01*
X0034312Y0007790D01*
X0034276Y0007839D01*
X0034243Y0007890D01*
X0034214Y0007942D01*
X0034187Y0007997D01*
X0034164Y0008052D01*
X0034144Y0008109D01*
X0034128Y0008168D01*
X0034115Y0008227D01*
X0034106Y0008286D01*
X0034101Y0008347D01*
X0034099Y0008407D01*
X0034099Y0015407D01*
X0034101Y0015467D01*
X0034106Y0015528D01*
X0034115Y0015587D01*
X0034128Y0015646D01*
X0034144Y0015705D01*
X0034164Y0015762D01*
X0034187Y0015817D01*
X0034214Y0015872D01*
X0034243Y0015924D01*
X0034276Y0015975D01*
X0034312Y0016024D01*
X0034350Y0016070D01*
X0034392Y0016114D01*
X0034436Y0016156D01*
X0034482Y0016194D01*
X0034531Y0016230D01*
X0034582Y0016263D01*
X0034634Y0016292D01*
X0034689Y0016319D01*
X0034744Y0016342D01*
X0034801Y0016362D01*
X0034860Y0016378D01*
X0034919Y0016391D01*
X0034978Y0016400D01*
X0035039Y0016405D01*
X0035099Y0016407D01*
X0036599Y0016407D01*
X0037099Y0015907D01*
X0056099Y0015907D01*
X0056599Y0016407D01*
X0058099Y0016407D01*
X0058159Y0016405D01*
X0058220Y0016400D01*
X0058279Y0016391D01*
X0058338Y0016378D01*
X0058397Y0016362D01*
X0058454Y0016342D01*
X0058509Y0016319D01*
X0058564Y0016292D01*
X0058616Y0016263D01*
X0058667Y0016230D01*
X0058716Y0016194D01*
X0058762Y0016156D01*
X0058806Y0016114D01*
X0058848Y0016070D01*
X0058886Y0016024D01*
X0058922Y0015975D01*
X0058955Y0015924D01*
X0058984Y0015872D01*
X0059011Y0015817D01*
X0059034Y0015762D01*
X0059054Y0015705D01*
X0059070Y0015646D01*
X0059083Y0015587D01*
X0059092Y0015528D01*
X0059097Y0015467D01*
X0059099Y0015407D01*
X0052056Y0032419D02*
X0052058Y0032571D01*
X0052064Y0032722D01*
X0052073Y0032873D01*
X0052087Y0033025D01*
X0052104Y0033175D01*
X0052125Y0033325D01*
X0052150Y0033475D01*
X0052178Y0033624D01*
X0052211Y0033772D01*
X0052247Y0033919D01*
X0052286Y0034066D01*
X0052330Y0034211D01*
X0052377Y0034355D01*
X0052428Y0034498D01*
X0052482Y0034639D01*
X0052540Y0034780D01*
X0052601Y0034918D01*
X0052666Y0035055D01*
X0052735Y0035191D01*
X0052806Y0035324D01*
X0052881Y0035456D01*
X0052960Y0035586D01*
X0053041Y0035713D01*
X0053126Y0035839D01*
X0053214Y0035963D01*
X0053305Y0036084D01*
X0053399Y0036203D01*
X0053497Y0036319D01*
X0053597Y0036433D01*
X0053699Y0036545D01*
X0053805Y0036653D01*
X0053913Y0036759D01*
X0054024Y0036863D01*
X0054138Y0036963D01*
X0054254Y0037061D01*
X0054373Y0037155D01*
X0064056Y0032419D02*
X0064054Y0032265D01*
X0064048Y0032111D01*
X0064038Y0031957D01*
X0064024Y0031803D01*
X0064007Y0031650D01*
X0063985Y0031498D01*
X0063959Y0031346D01*
X0063930Y0031194D01*
X0063896Y0031044D01*
X0063859Y0030894D01*
X0063818Y0030746D01*
X0063773Y0030598D01*
X0063724Y0030452D01*
X0063672Y0030307D01*
X0063616Y0030164D01*
X0063556Y0030021D01*
X0063493Y0029881D01*
X0063426Y0029742D01*
X0063355Y0029605D01*
X0063281Y0029470D01*
X0063204Y0029337D01*
X0063123Y0029205D01*
X0063039Y0029076D01*
X0062951Y0028949D01*
X0062860Y0028825D01*
X0062767Y0028703D01*
X0062669Y0028583D01*
X0062569Y0028466D01*
X0062466Y0028351D01*
X0062360Y0028239D01*
X0062252Y0028130D01*
X0062140Y0028024D01*
X0062026Y0027920D01*
X0061909Y0027820D01*
X0061790Y0027722D01*
X0061668Y0027628D01*
X0061543Y0027537D01*
X0064056Y0032419D02*
X0064054Y0032569D01*
X0064048Y0032720D01*
X0064039Y0032870D01*
X0064026Y0033019D01*
X0064009Y0033169D01*
X0063988Y0033318D01*
X0063964Y0033466D01*
X0063936Y0033614D01*
X0063904Y0033761D01*
X0063869Y0033907D01*
X0063829Y0034052D01*
X0063787Y0034196D01*
X0063740Y0034339D01*
X0063690Y0034481D01*
X0063637Y0034622D01*
X0063580Y0034761D01*
X0063520Y0034899D01*
X0063456Y0035035D01*
X0063389Y0035169D01*
X0063318Y0035302D01*
X0063244Y0035433D01*
X0063167Y0035562D01*
X0063086Y0035689D01*
X0063003Y0035814D01*
X0062916Y0035937D01*
X0062827Y0036058D01*
X0062734Y0036176D01*
X0062638Y0036292D01*
X0062540Y0036406D01*
X0062439Y0036517D01*
X0062334Y0036626D01*
X0062228Y0036731D01*
X0062118Y0036835D01*
X0062006Y0036935D01*
X0061892Y0037033D01*
X0061775Y0037127D01*
X0061656Y0037219D01*
X0052056Y0032419D02*
X0052058Y0032267D01*
X0052064Y0032116D01*
X0052073Y0031965D01*
X0052087Y0031813D01*
X0052104Y0031663D01*
X0052125Y0031513D01*
X0052150Y0031363D01*
X0052178Y0031214D01*
X0052211Y0031066D01*
X0052247Y0030919D01*
X0052286Y0030772D01*
X0052330Y0030627D01*
X0052377Y0030483D01*
X0052428Y0030340D01*
X0052482Y0030199D01*
X0052540Y0030058D01*
X0052601Y0029920D01*
X0052666Y0029783D01*
X0052735Y0029647D01*
X0052806Y0029514D01*
X0052881Y0029382D01*
X0052960Y0029252D01*
X0053041Y0029125D01*
X0053126Y0028999D01*
X0053214Y0028875D01*
X0053305Y0028754D01*
X0053399Y0028635D01*
X0053497Y0028519D01*
X0053597Y0028405D01*
X0053699Y0028293D01*
X0053805Y0028185D01*
X0053913Y0028079D01*
X0054024Y0027975D01*
X0054138Y0027875D01*
X0054254Y0027777D01*
X0054373Y0027683D01*
X0058217Y0059013D02*
X0065217Y0059013D01*
X0065277Y0059015D01*
X0065338Y0059020D01*
X0065397Y0059029D01*
X0065456Y0059042D01*
X0065515Y0059058D01*
X0065572Y0059078D01*
X0065627Y0059101D01*
X0065682Y0059128D01*
X0065734Y0059157D01*
X0065785Y0059190D01*
X0065834Y0059226D01*
X0065880Y0059264D01*
X0065924Y0059306D01*
X0065966Y0059350D01*
X0066004Y0059396D01*
X0066040Y0059445D01*
X0066073Y0059496D01*
X0066102Y0059548D01*
X0066129Y0059603D01*
X0066152Y0059658D01*
X0066172Y0059715D01*
X0066188Y0059774D01*
X0066201Y0059833D01*
X0066210Y0059892D01*
X0066215Y0059953D01*
X0066217Y0060013D01*
X0066217Y0061513D01*
X0065717Y0062013D01*
X0065717Y0081013D01*
X0066217Y0081513D01*
X0066217Y0083013D01*
X0066215Y0083073D01*
X0066210Y0083134D01*
X0066201Y0083193D01*
X0066188Y0083252D01*
X0066172Y0083311D01*
X0066152Y0083368D01*
X0066129Y0083423D01*
X0066102Y0083478D01*
X0066073Y0083530D01*
X0066040Y0083581D01*
X0066004Y0083630D01*
X0065966Y0083676D01*
X0065924Y0083720D01*
X0065880Y0083762D01*
X0065834Y0083800D01*
X0065785Y0083836D01*
X0065734Y0083869D01*
X0065682Y0083898D01*
X0065627Y0083925D01*
X0065572Y0083948D01*
X0065515Y0083968D01*
X0065456Y0083984D01*
X0065397Y0083997D01*
X0065338Y0084006D01*
X0065277Y0084011D01*
X0065217Y0084013D01*
X0058217Y0084013D01*
X0058157Y0084011D01*
X0058096Y0084006D01*
X0058037Y0083997D01*
X0057978Y0083984D01*
X0057919Y0083968D01*
X0057862Y0083948D01*
X0057807Y0083925D01*
X0057752Y0083898D01*
X0057700Y0083869D01*
X0057649Y0083836D01*
X0057600Y0083800D01*
X0057554Y0083762D01*
X0057510Y0083720D01*
X0057468Y0083676D01*
X0057430Y0083630D01*
X0057394Y0083581D01*
X0057361Y0083530D01*
X0057332Y0083478D01*
X0057305Y0083423D01*
X0057282Y0083368D01*
X0057262Y0083311D01*
X0057246Y0083252D01*
X0057233Y0083193D01*
X0057224Y0083134D01*
X0057219Y0083073D01*
X0057217Y0083013D01*
X0057217Y0081513D01*
X0057717Y0081013D01*
X0057717Y0062013D01*
X0057217Y0061513D01*
X0057217Y0060013D01*
X0057219Y0059953D01*
X0057224Y0059892D01*
X0057233Y0059833D01*
X0057246Y0059774D01*
X0057262Y0059715D01*
X0057282Y0059658D01*
X0057305Y0059603D01*
X0057332Y0059548D01*
X0057361Y0059496D01*
X0057394Y0059445D01*
X0057430Y0059396D01*
X0057468Y0059350D01*
X0057510Y0059306D01*
X0057554Y0059264D01*
X0057600Y0059226D01*
X0057649Y0059190D01*
X0057700Y0059157D01*
X0057752Y0059128D01*
X0057807Y0059101D01*
X0057862Y0059078D01*
X0057919Y0059058D01*
X0057978Y0059042D01*
X0058037Y0059029D01*
X0058096Y0059020D01*
X0058157Y0059015D01*
X0058217Y0059013D01*
X0045619Y0076735D02*
X0043484Y0076735D01*
X0042417Y0077802D01*
X0040241Y0078870D02*
X0040241Y0083140D01*
X0042417Y0082073D02*
X0043484Y0083140D01*
X0045619Y0083140D01*
X0046687Y0082073D01*
X0046687Y0081005D01*
X0045619Y0079937D01*
X0046687Y0078870D01*
X0046687Y0077802D01*
X0045619Y0076735D01*
X0045619Y0079937D02*
X0044552Y0079937D01*
X0040241Y0078870D02*
X0038106Y0076735D01*
X0035971Y0078870D01*
X0035971Y0083140D01*
X0033796Y0082073D02*
X0033796Y0081005D01*
X0032728Y0079937D01*
X0033796Y0078870D01*
X0033796Y0077802D01*
X0032728Y0076735D01*
X0030593Y0076735D01*
X0029526Y0077802D01*
X0031661Y0079937D02*
X0032728Y0079937D01*
X0033796Y0082073D02*
X0032728Y0083140D01*
X0030593Y0083140D01*
X0029526Y0082073D01*
X0027350Y0079937D02*
X0023080Y0079937D01*
X0025215Y0077802D02*
X0025215Y0082073D01*
X0023080Y0086577D02*
X0023080Y0090848D01*
X0025215Y0092983D01*
X0027350Y0090848D01*
X0027350Y0086577D01*
X0027350Y0089780D02*
X0023080Y0089780D01*
X0029526Y0089780D02*
X0033796Y0089780D01*
X0032728Y0086577D02*
X0032728Y0092983D01*
X0029526Y0089780D01*
X0032728Y0096420D02*
X0032728Y0102825D01*
X0029526Y0099623D01*
X0033796Y0099623D01*
X0027350Y0100690D02*
X0026283Y0099623D01*
X0023080Y0099623D01*
X0023080Y0102825D02*
X0026283Y0102825D01*
X0027350Y0101758D01*
X0027350Y0100690D01*
X0026283Y0099623D02*
X0027350Y0098555D01*
X0027350Y0097487D01*
X0026283Y0096420D01*
X0023080Y0096420D01*
X0023080Y0102825D01*
X0023080Y0108231D02*
X0026283Y0108231D01*
X0027350Y0109298D01*
X0027350Y0110366D01*
X0026283Y0111434D01*
X0023080Y0111434D01*
X0023080Y0114636D02*
X0023080Y0108231D01*
X0026283Y0111434D02*
X0027350Y0112501D01*
X0027350Y0113569D01*
X0026283Y0114636D01*
X0023080Y0114636D01*
X0023080Y0118073D02*
X0026283Y0118073D01*
X0027350Y0119141D01*
X0027350Y0120208D01*
X0026283Y0121276D01*
X0023080Y0121276D01*
X0023080Y0118073D02*
X0023080Y0124479D01*
X0026283Y0124479D01*
X0027350Y0123411D01*
X0027350Y0122344D01*
X0026283Y0121276D01*
X0029526Y0123411D02*
X0030593Y0124479D01*
X0032728Y0124479D01*
X0033796Y0123411D01*
X0033796Y0122344D01*
X0029526Y0118073D01*
X0033796Y0118073D01*
X0032728Y0114636D02*
X0030593Y0114636D01*
X0029526Y0113569D01*
X0031661Y0111434D02*
X0032728Y0111434D01*
X0033796Y0110366D01*
X0033796Y0109298D01*
X0032728Y0108231D01*
X0030593Y0108231D01*
X0029526Y0109298D01*
X0032728Y0111434D02*
X0033796Y0112501D01*
X0033796Y0113569D01*
X0032728Y0114636D01*
X0031661Y0127916D02*
X0031661Y0134321D01*
X0029526Y0132186D01*
X0027350Y0132186D02*
X0027350Y0127916D01*
X0029526Y0127916D02*
X0033796Y0127916D01*
X0027350Y0131119D02*
X0023080Y0131119D01*
X0023080Y0132186D02*
X0025215Y0134321D01*
X0027350Y0132186D01*
X0023080Y0132186D02*
X0023080Y0127916D01*
X0023080Y0137758D02*
X0023080Y0142029D01*
X0025215Y0144164D01*
X0027350Y0142029D01*
X0027350Y0137758D01*
X0029526Y0138826D02*
X0033796Y0143096D01*
X0033796Y0138826D01*
X0032728Y0137758D01*
X0030593Y0137758D01*
X0029526Y0138826D01*
X0029526Y0143096D01*
X0030593Y0144164D01*
X0032728Y0144164D01*
X0033796Y0143096D01*
X0038036Y0147305D02*
X0038036Y0154305D01*
X0038038Y0154365D01*
X0038043Y0154426D01*
X0038052Y0154485D01*
X0038065Y0154544D01*
X0038081Y0154603D01*
X0038101Y0154660D01*
X0038124Y0154715D01*
X0038151Y0154770D01*
X0038180Y0154822D01*
X0038213Y0154873D01*
X0038249Y0154922D01*
X0038287Y0154968D01*
X0038329Y0155012D01*
X0038373Y0155054D01*
X0038419Y0155092D01*
X0038468Y0155128D01*
X0038519Y0155161D01*
X0038571Y0155190D01*
X0038626Y0155217D01*
X0038681Y0155240D01*
X0038738Y0155260D01*
X0038797Y0155276D01*
X0038856Y0155289D01*
X0038915Y0155298D01*
X0038976Y0155303D01*
X0039036Y0155305D01*
X0040536Y0155305D01*
X0041036Y0154805D01*
X0060036Y0154805D01*
X0060536Y0155305D01*
X0062036Y0155305D01*
X0062096Y0155303D01*
X0062157Y0155298D01*
X0062216Y0155289D01*
X0062275Y0155276D01*
X0062334Y0155260D01*
X0062391Y0155240D01*
X0062446Y0155217D01*
X0062501Y0155190D01*
X0062553Y0155161D01*
X0062604Y0155128D01*
X0062653Y0155092D01*
X0062699Y0155054D01*
X0062743Y0155012D01*
X0062785Y0154968D01*
X0062823Y0154922D01*
X0062859Y0154873D01*
X0062892Y0154822D01*
X0062921Y0154770D01*
X0062948Y0154715D01*
X0062971Y0154660D01*
X0062991Y0154603D01*
X0063007Y0154544D01*
X0063020Y0154485D01*
X0063029Y0154426D01*
X0063034Y0154365D01*
X0063036Y0154305D01*
X0063036Y0147305D01*
X0063034Y0147245D01*
X0063029Y0147184D01*
X0063020Y0147125D01*
X0063007Y0147066D01*
X0062991Y0147007D01*
X0062971Y0146950D01*
X0062948Y0146895D01*
X0062921Y0146840D01*
X0062892Y0146788D01*
X0062859Y0146737D01*
X0062823Y0146688D01*
X0062785Y0146642D01*
X0062743Y0146598D01*
X0062699Y0146556D01*
X0062653Y0146518D01*
X0062604Y0146482D01*
X0062553Y0146449D01*
X0062501Y0146420D01*
X0062446Y0146393D01*
X0062391Y0146370D01*
X0062334Y0146350D01*
X0062275Y0146334D01*
X0062216Y0146321D01*
X0062157Y0146312D01*
X0062096Y0146307D01*
X0062036Y0146305D01*
X0060536Y0146305D01*
X0060036Y0146805D01*
X0041036Y0146805D01*
X0040536Y0146305D01*
X0039036Y0146305D01*
X0038976Y0146307D01*
X0038915Y0146312D01*
X0038856Y0146321D01*
X0038797Y0146334D01*
X0038738Y0146350D01*
X0038681Y0146370D01*
X0038626Y0146393D01*
X0038571Y0146420D01*
X0038519Y0146449D01*
X0038468Y0146482D01*
X0038419Y0146518D01*
X0038373Y0146556D01*
X0038329Y0146598D01*
X0038287Y0146642D01*
X0038249Y0146688D01*
X0038213Y0146737D01*
X0038180Y0146788D01*
X0038151Y0146840D01*
X0038124Y0146895D01*
X0038101Y0146950D01*
X0038081Y0147007D01*
X0038065Y0147066D01*
X0038052Y0147125D01*
X0038043Y0147184D01*
X0038038Y0147245D01*
X0038036Y0147305D01*
X0027350Y0140961D02*
X0023080Y0140961D01*
X0064670Y0163289D02*
X0064670Y0180289D01*
X0064672Y0180349D01*
X0064677Y0180410D01*
X0064686Y0180469D01*
X0064699Y0180528D01*
X0064715Y0180587D01*
X0064735Y0180644D01*
X0064758Y0180699D01*
X0064785Y0180754D01*
X0064814Y0180806D01*
X0064847Y0180857D01*
X0064883Y0180906D01*
X0064921Y0180952D01*
X0064963Y0180996D01*
X0065007Y0181038D01*
X0065053Y0181076D01*
X0065102Y0181112D01*
X0065153Y0181145D01*
X0065205Y0181174D01*
X0065260Y0181201D01*
X0065315Y0181224D01*
X0065372Y0181244D01*
X0065431Y0181260D01*
X0065490Y0181273D01*
X0065549Y0181282D01*
X0065610Y0181287D01*
X0065670Y0181289D01*
X0073670Y0181289D01*
X0073730Y0181287D01*
X0073791Y0181282D01*
X0073850Y0181273D01*
X0073909Y0181260D01*
X0073968Y0181244D01*
X0074025Y0181224D01*
X0074080Y0181201D01*
X0074135Y0181174D01*
X0074187Y0181145D01*
X0074238Y0181112D01*
X0074287Y0181076D01*
X0074333Y0181038D01*
X0074377Y0180996D01*
X0074419Y0180952D01*
X0074457Y0180906D01*
X0074493Y0180857D01*
X0074526Y0180806D01*
X0074555Y0180754D01*
X0074582Y0180699D01*
X0074605Y0180644D01*
X0074625Y0180587D01*
X0074641Y0180528D01*
X0074654Y0180469D01*
X0074663Y0180410D01*
X0074668Y0180349D01*
X0074670Y0180289D01*
X0074670Y0163289D01*
X0074668Y0163229D01*
X0074663Y0163168D01*
X0074654Y0163109D01*
X0074641Y0163050D01*
X0074625Y0162991D01*
X0074605Y0162934D01*
X0074582Y0162879D01*
X0074555Y0162824D01*
X0074526Y0162772D01*
X0074493Y0162721D01*
X0074457Y0162672D01*
X0074419Y0162626D01*
X0074377Y0162582D01*
X0074333Y0162540D01*
X0074287Y0162502D01*
X0074238Y0162466D01*
X0074187Y0162433D01*
X0074135Y0162404D01*
X0074080Y0162377D01*
X0074025Y0162354D01*
X0073968Y0162334D01*
X0073909Y0162318D01*
X0073850Y0162305D01*
X0073791Y0162296D01*
X0073730Y0162291D01*
X0073670Y0162289D01*
X0065670Y0162289D01*
X0065610Y0162291D01*
X0065549Y0162296D01*
X0065490Y0162305D01*
X0065431Y0162318D01*
X0065372Y0162334D01*
X0065315Y0162354D01*
X0065260Y0162377D01*
X0065205Y0162404D01*
X0065153Y0162433D01*
X0065102Y0162466D01*
X0065053Y0162502D01*
X0065007Y0162540D01*
X0064963Y0162582D01*
X0064921Y0162626D01*
X0064883Y0162672D01*
X0064847Y0162721D01*
X0064814Y0162772D01*
X0064785Y0162824D01*
X0064758Y0162879D01*
X0064735Y0162934D01*
X0064715Y0162991D01*
X0064699Y0163050D01*
X0064686Y0163109D01*
X0064677Y0163168D01*
X0064672Y0163229D01*
X0064670Y0163289D01*
X0069670Y0170289D02*
X0069670Y0170789D01*
X0069670Y0172789D02*
X0069670Y0173289D01*
X0104657Y0146372D02*
X0104657Y0143170D01*
X0111063Y0143170D01*
X0111063Y0146372D01*
X0109995Y0147440D01*
X0107860Y0146372D02*
X0106792Y0147440D01*
X0105725Y0147440D01*
X0104657Y0146372D01*
X0131111Y0176002D02*
X0131113Y0176156D01*
X0131119Y0176310D01*
X0131129Y0176464D01*
X0131143Y0176618D01*
X0131160Y0176771D01*
X0131182Y0176923D01*
X0131208Y0177075D01*
X0131237Y0177227D01*
X0131271Y0177377D01*
X0131308Y0177527D01*
X0131349Y0177675D01*
X0131394Y0177823D01*
X0131443Y0177969D01*
X0131495Y0178114D01*
X0131551Y0178257D01*
X0131611Y0178400D01*
X0131674Y0178540D01*
X0131741Y0178679D01*
X0131812Y0178816D01*
X0131886Y0178951D01*
X0131963Y0179084D01*
X0132044Y0179216D01*
X0132128Y0179345D01*
X0132216Y0179472D01*
X0132307Y0179596D01*
X0132400Y0179718D01*
X0132498Y0179838D01*
X0132598Y0179955D01*
X0132701Y0180070D01*
X0132807Y0180182D01*
X0132915Y0180291D01*
X0133027Y0180397D01*
X0133141Y0180501D01*
X0133258Y0180601D01*
X0133377Y0180699D01*
X0133499Y0180793D01*
X0133624Y0180884D01*
X0143111Y0176002D02*
X0143109Y0175850D01*
X0143103Y0175699D01*
X0143094Y0175548D01*
X0143080Y0175396D01*
X0143063Y0175246D01*
X0143042Y0175096D01*
X0143017Y0174946D01*
X0142989Y0174797D01*
X0142956Y0174649D01*
X0142920Y0174502D01*
X0142881Y0174355D01*
X0142837Y0174210D01*
X0142790Y0174066D01*
X0142739Y0173923D01*
X0142685Y0173782D01*
X0142627Y0173641D01*
X0142566Y0173503D01*
X0142501Y0173366D01*
X0142432Y0173230D01*
X0142361Y0173097D01*
X0142286Y0172965D01*
X0142207Y0172835D01*
X0142126Y0172708D01*
X0142041Y0172582D01*
X0141953Y0172458D01*
X0141862Y0172337D01*
X0141768Y0172218D01*
X0141670Y0172102D01*
X0141570Y0171988D01*
X0141468Y0171876D01*
X0141362Y0171768D01*
X0141254Y0171662D01*
X0141143Y0171558D01*
X0141029Y0171458D01*
X0140913Y0171360D01*
X0140794Y0171266D01*
X0143111Y0176002D02*
X0143109Y0176154D01*
X0143103Y0176305D01*
X0143094Y0176456D01*
X0143080Y0176608D01*
X0143063Y0176758D01*
X0143042Y0176908D01*
X0143017Y0177058D01*
X0142989Y0177207D01*
X0142956Y0177355D01*
X0142920Y0177502D01*
X0142881Y0177649D01*
X0142837Y0177794D01*
X0142790Y0177938D01*
X0142739Y0178081D01*
X0142685Y0178222D01*
X0142627Y0178363D01*
X0142566Y0178501D01*
X0142501Y0178638D01*
X0142432Y0178774D01*
X0142361Y0178907D01*
X0142286Y0179039D01*
X0142207Y0179169D01*
X0142126Y0179296D01*
X0142041Y0179422D01*
X0141953Y0179546D01*
X0141862Y0179667D01*
X0141768Y0179786D01*
X0141670Y0179902D01*
X0141570Y0180016D01*
X0141468Y0180128D01*
X0141362Y0180236D01*
X0141254Y0180342D01*
X0141143Y0180446D01*
X0141029Y0180546D01*
X0140913Y0180644D01*
X0140794Y0180738D01*
X0131111Y0176002D02*
X0131113Y0175852D01*
X0131119Y0175701D01*
X0131128Y0175551D01*
X0131141Y0175402D01*
X0131158Y0175252D01*
X0131179Y0175103D01*
X0131203Y0174955D01*
X0131231Y0174807D01*
X0131263Y0174660D01*
X0131298Y0174514D01*
X0131338Y0174369D01*
X0131380Y0174225D01*
X0131427Y0174082D01*
X0131477Y0173940D01*
X0131530Y0173799D01*
X0131587Y0173660D01*
X0131647Y0173522D01*
X0131711Y0173386D01*
X0131778Y0173252D01*
X0131849Y0173119D01*
X0131923Y0172988D01*
X0132000Y0172859D01*
X0132081Y0172732D01*
X0132164Y0172607D01*
X0132251Y0172484D01*
X0132340Y0172363D01*
X0132433Y0172245D01*
X0132529Y0172129D01*
X0132627Y0172015D01*
X0132728Y0171904D01*
X0132833Y0171795D01*
X0132939Y0171690D01*
X0133049Y0171586D01*
X0133161Y0171486D01*
X0133275Y0171388D01*
X0133392Y0171294D01*
X0133511Y0171202D01*
X0129949Y0190084D02*
X0128449Y0190084D01*
X0127949Y0190584D01*
X0108949Y0190584D01*
X0108449Y0190084D01*
X0106949Y0190084D01*
X0106889Y0190086D01*
X0106828Y0190091D01*
X0106769Y0190100D01*
X0106710Y0190113D01*
X0106651Y0190129D01*
X0106594Y0190149D01*
X0106539Y0190172D01*
X0106484Y0190199D01*
X0106432Y0190228D01*
X0106381Y0190261D01*
X0106332Y0190297D01*
X0106286Y0190335D01*
X0106242Y0190377D01*
X0106200Y0190421D01*
X0106162Y0190467D01*
X0106126Y0190516D01*
X0106093Y0190567D01*
X0106064Y0190619D01*
X0106037Y0190674D01*
X0106014Y0190729D01*
X0105994Y0190786D01*
X0105978Y0190845D01*
X0105965Y0190904D01*
X0105956Y0190963D01*
X0105951Y0191024D01*
X0105949Y0191084D01*
X0105949Y0198084D01*
X0105951Y0198144D01*
X0105956Y0198205D01*
X0105965Y0198264D01*
X0105978Y0198323D01*
X0105994Y0198382D01*
X0106014Y0198439D01*
X0106037Y0198494D01*
X0106064Y0198549D01*
X0106093Y0198601D01*
X0106126Y0198652D01*
X0106162Y0198701D01*
X0106200Y0198747D01*
X0106242Y0198791D01*
X0106286Y0198833D01*
X0106332Y0198871D01*
X0106381Y0198907D01*
X0106432Y0198940D01*
X0106484Y0198969D01*
X0106539Y0198996D01*
X0106594Y0199019D01*
X0106651Y0199039D01*
X0106710Y0199055D01*
X0106769Y0199068D01*
X0106828Y0199077D01*
X0106889Y0199082D01*
X0106949Y0199084D01*
X0108449Y0199084D01*
X0108949Y0198584D01*
X0127949Y0198584D01*
X0128449Y0199084D01*
X0129949Y0199084D01*
X0130009Y0199082D01*
X0130070Y0199077D01*
X0130129Y0199068D01*
X0130188Y0199055D01*
X0130247Y0199039D01*
X0130304Y0199019D01*
X0130359Y0198996D01*
X0130414Y0198969D01*
X0130466Y0198940D01*
X0130517Y0198907D01*
X0130566Y0198871D01*
X0130612Y0198833D01*
X0130656Y0198791D01*
X0130698Y0198747D01*
X0130736Y0198701D01*
X0130772Y0198652D01*
X0130805Y0198601D01*
X0130834Y0198549D01*
X0130861Y0198494D01*
X0130884Y0198439D01*
X0130904Y0198382D01*
X0130920Y0198323D01*
X0130933Y0198264D01*
X0130942Y0198205D01*
X0130947Y0198144D01*
X0130949Y0198084D01*
X0130949Y0191084D01*
X0130947Y0191024D01*
X0130942Y0190963D01*
X0130933Y0190904D01*
X0130920Y0190845D01*
X0130904Y0190786D01*
X0130884Y0190729D01*
X0130861Y0190674D01*
X0130834Y0190619D01*
X0130805Y0190567D01*
X0130772Y0190516D01*
X0130736Y0190467D01*
X0130698Y0190421D01*
X0130656Y0190377D01*
X0130612Y0190335D01*
X0130566Y0190297D01*
X0130517Y0190261D01*
X0130466Y0190228D01*
X0130414Y0190199D01*
X0130359Y0190172D01*
X0130304Y0190149D01*
X0130247Y0190129D01*
X0130188Y0190113D01*
X0130129Y0190100D01*
X0130070Y0190091D01*
X0130009Y0190086D01*
X0129949Y0190084D01*
X0039174Y0073298D02*
X0035971Y0073298D01*
X0035971Y0066892D01*
X0039174Y0066892D01*
X0040241Y0067960D01*
X0040241Y0072230D01*
X0039174Y0073298D01*
X0033796Y0073298D02*
X0033796Y0066892D01*
X0029526Y0073298D01*
X0029526Y0066892D01*
X0027350Y0067960D02*
X0027350Y0070095D01*
X0025215Y0070095D01*
X0023080Y0072230D02*
X0023080Y0067960D01*
X0024148Y0066892D01*
X0026283Y0066892D01*
X0027350Y0067960D01*
X0027350Y0072230D02*
X0026283Y0073298D01*
X0024148Y0073298D01*
X0023080Y0072230D01*
D15*
X0188134Y0188639D02*
X0192071Y0190608D01*
X0188134Y0192576D01*
X0188134Y0188639D01*
X0188134Y0189397D02*
X0189650Y0189397D01*
X0188134Y0190996D02*
X0191295Y0190996D01*
D16*
X0159993Y0175584D02*
X0156993Y0175584D01*
X0153993Y0175584D01*
X0153993Y0173584D02*
X0156993Y0173584D01*
X0159993Y0173584D01*
X0144008Y0152002D02*
X0141008Y0152002D01*
X0138008Y0152002D01*
X0138008Y0150002D02*
X0141008Y0150002D01*
X0144008Y0150002D01*
X0141080Y0169055D02*
X0141249Y0169154D01*
X0141415Y0169258D01*
X0141579Y0169365D01*
X0141740Y0169476D01*
X0141898Y0169591D01*
X0142053Y0169710D01*
X0142206Y0169833D01*
X0142355Y0169959D01*
X0142501Y0170089D01*
X0142644Y0170223D01*
X0142784Y0170360D01*
X0142920Y0170500D01*
X0143053Y0170644D01*
X0143182Y0170791D01*
X0143308Y0170941D01*
X0143429Y0171094D01*
X0143548Y0171250D01*
X0143662Y0171409D01*
X0143772Y0171570D01*
X0143878Y0171735D01*
X0143981Y0171901D01*
X0144079Y0172071D01*
X0144173Y0172242D01*
X0144263Y0172416D01*
X0144348Y0172592D01*
X0144430Y0172770D01*
X0144506Y0172950D01*
X0144579Y0173132D01*
X0144647Y0173315D01*
X0144710Y0173500D01*
X0144769Y0173687D01*
X0144823Y0173875D01*
X0144873Y0174064D01*
X0144918Y0174254D01*
X0144958Y0174446D01*
X0144994Y0174638D01*
X0145025Y0174831D01*
X0145051Y0175025D01*
X0145073Y0175220D01*
X0145089Y0175415D01*
X0145101Y0175610D01*
X0145109Y0175806D01*
X0145111Y0176001D01*
X0133346Y0168943D02*
X0133178Y0169036D01*
X0133012Y0169132D01*
X0132848Y0169232D01*
X0132687Y0169337D01*
X0132528Y0169445D01*
X0132372Y0169557D01*
X0132218Y0169673D01*
X0132068Y0169792D01*
X0131920Y0169915D01*
X0131775Y0170041D01*
X0131634Y0170171D01*
X0131495Y0170304D01*
X0131360Y0170441D01*
X0131228Y0170581D01*
X0131100Y0170723D01*
X0130975Y0170869D01*
X0130853Y0171018D01*
X0130735Y0171170D01*
X0130621Y0171324D01*
X0130511Y0171482D01*
X0130404Y0171641D01*
X0130301Y0171804D01*
X0130202Y0171969D01*
X0130107Y0172136D01*
X0130017Y0172305D01*
X0129930Y0172476D01*
X0129847Y0172650D01*
X0129769Y0172825D01*
X0129695Y0173003D01*
X0129625Y0173182D01*
X0129559Y0173362D01*
X0129498Y0173544D01*
X0129441Y0173728D01*
X0129389Y0173913D01*
X0129341Y0174099D01*
X0129297Y0174286D01*
X0129258Y0174474D01*
X0129224Y0174663D01*
X0129194Y0174853D01*
X0129169Y0175043D01*
X0129148Y0175234D01*
X0129132Y0175426D01*
X0129120Y0175618D01*
X0129113Y0175810D01*
X0129111Y0176002D01*
X0142279Y0182109D02*
X0142425Y0181982D01*
X0142567Y0181853D01*
X0142707Y0181719D01*
X0142843Y0181583D01*
X0142976Y0181443D01*
X0143106Y0181300D01*
X0143232Y0181153D01*
X0143354Y0181004D01*
X0143473Y0180852D01*
X0143588Y0180697D01*
X0143700Y0180540D01*
X0143807Y0180380D01*
X0143911Y0180217D01*
X0144010Y0180051D01*
X0144106Y0179884D01*
X0144198Y0179714D01*
X0144285Y0179542D01*
X0144369Y0179368D01*
X0144448Y0179192D01*
X0144522Y0179014D01*
X0144593Y0178834D01*
X0144659Y0178653D01*
X0144721Y0178470D01*
X0144778Y0178286D01*
X0144831Y0178100D01*
X0144879Y0177913D01*
X0144923Y0177725D01*
X0144962Y0177536D01*
X0144997Y0177346D01*
X0145027Y0177156D01*
X0145053Y0176965D01*
X0145074Y0176773D01*
X0145090Y0176580D01*
X0145102Y0176388D01*
X0145109Y0176195D01*
X0145111Y0176002D01*
X0131989Y0182148D02*
X0131841Y0182021D01*
X0131696Y0181891D01*
X0131555Y0181758D01*
X0131416Y0181621D01*
X0131281Y0181481D01*
X0131150Y0181337D01*
X0131022Y0181190D01*
X0130897Y0181041D01*
X0130776Y0180888D01*
X0130659Y0180733D01*
X0130546Y0180574D01*
X0130437Y0180413D01*
X0130332Y0180249D01*
X0130230Y0180083D01*
X0130133Y0179914D01*
X0130040Y0179744D01*
X0129951Y0179570D01*
X0129866Y0179395D01*
X0129786Y0179218D01*
X0129710Y0179039D01*
X0129638Y0178858D01*
X0129571Y0178675D01*
X0129508Y0178491D01*
X0129450Y0178305D01*
X0129396Y0178118D01*
X0129347Y0177930D01*
X0129302Y0177740D01*
X0129262Y0177550D01*
X0129227Y0177358D01*
X0129196Y0177166D01*
X0129170Y0176973D01*
X0129149Y0176779D01*
X0129132Y0176585D01*
X0129120Y0176391D01*
X0129113Y0176197D01*
X0129111Y0176002D01*
X0072670Y0172789D02*
X0069670Y0172789D01*
X0066670Y0172789D01*
X0066670Y0170789D02*
X0069670Y0170789D01*
X0072670Y0170789D01*
X0139536Y0109080D02*
X0139536Y0106080D01*
X0139536Y0103080D01*
X0141536Y0103080D02*
X0141536Y0106080D01*
X0141536Y0109080D01*
X0081016Y0031136D02*
X0078016Y0031136D01*
X0075016Y0031136D01*
X0075016Y0029136D02*
X0078016Y0029136D01*
X0081016Y0029136D01*
X0052888Y0026312D02*
X0052742Y0026439D01*
X0052600Y0026568D01*
X0052460Y0026702D01*
X0052324Y0026838D01*
X0052191Y0026978D01*
X0052061Y0027121D01*
X0051935Y0027268D01*
X0051813Y0027417D01*
X0051694Y0027569D01*
X0051579Y0027724D01*
X0051467Y0027881D01*
X0051360Y0028041D01*
X0051256Y0028204D01*
X0051157Y0028370D01*
X0051061Y0028537D01*
X0050969Y0028707D01*
X0050882Y0028879D01*
X0050798Y0029053D01*
X0050719Y0029229D01*
X0050645Y0029407D01*
X0050574Y0029587D01*
X0050508Y0029768D01*
X0050446Y0029951D01*
X0050389Y0030135D01*
X0050336Y0030321D01*
X0050288Y0030508D01*
X0050244Y0030696D01*
X0050205Y0030885D01*
X0050170Y0031075D01*
X0050140Y0031265D01*
X0050114Y0031456D01*
X0050093Y0031648D01*
X0050077Y0031841D01*
X0050065Y0032033D01*
X0050058Y0032226D01*
X0050056Y0032419D01*
X0061821Y0039478D02*
X0061989Y0039385D01*
X0062155Y0039289D01*
X0062319Y0039189D01*
X0062480Y0039084D01*
X0062639Y0038976D01*
X0062795Y0038864D01*
X0062949Y0038748D01*
X0063099Y0038629D01*
X0063247Y0038506D01*
X0063392Y0038380D01*
X0063533Y0038250D01*
X0063672Y0038117D01*
X0063807Y0037980D01*
X0063939Y0037840D01*
X0064067Y0037698D01*
X0064192Y0037552D01*
X0064314Y0037403D01*
X0064432Y0037251D01*
X0064546Y0037097D01*
X0064656Y0036939D01*
X0064763Y0036780D01*
X0064866Y0036617D01*
X0064965Y0036452D01*
X0065060Y0036285D01*
X0065150Y0036116D01*
X0065237Y0035945D01*
X0065320Y0035771D01*
X0065398Y0035596D01*
X0065472Y0035418D01*
X0065542Y0035239D01*
X0065608Y0035059D01*
X0065669Y0034877D01*
X0065726Y0034693D01*
X0065778Y0034508D01*
X0065826Y0034322D01*
X0065870Y0034135D01*
X0065909Y0033947D01*
X0065943Y0033758D01*
X0065973Y0033568D01*
X0065998Y0033378D01*
X0066019Y0033187D01*
X0066035Y0032995D01*
X0066047Y0032803D01*
X0066054Y0032611D01*
X0066056Y0032419D01*
X0054087Y0039365D02*
X0053918Y0039266D01*
X0053752Y0039162D01*
X0053588Y0039055D01*
X0053427Y0038944D01*
X0053269Y0038829D01*
X0053114Y0038710D01*
X0052961Y0038587D01*
X0052812Y0038461D01*
X0052666Y0038331D01*
X0052523Y0038197D01*
X0052383Y0038060D01*
X0052247Y0037920D01*
X0052114Y0037776D01*
X0051985Y0037629D01*
X0051859Y0037479D01*
X0051738Y0037326D01*
X0051619Y0037170D01*
X0051505Y0037011D01*
X0051395Y0036850D01*
X0051289Y0036685D01*
X0051186Y0036519D01*
X0051088Y0036349D01*
X0050994Y0036178D01*
X0050904Y0036004D01*
X0050819Y0035828D01*
X0050737Y0035650D01*
X0050661Y0035470D01*
X0050588Y0035288D01*
X0050520Y0035105D01*
X0050457Y0034920D01*
X0050398Y0034733D01*
X0050344Y0034545D01*
X0050294Y0034356D01*
X0050249Y0034166D01*
X0050209Y0033974D01*
X0050173Y0033782D01*
X0050142Y0033589D01*
X0050116Y0033395D01*
X0050094Y0033200D01*
X0050078Y0033005D01*
X0050066Y0032810D01*
X0050058Y0032614D01*
X0050056Y0032419D01*
X0063178Y0026273D02*
X0063326Y0026400D01*
X0063471Y0026530D01*
X0063612Y0026663D01*
X0063751Y0026800D01*
X0063886Y0026940D01*
X0064017Y0027084D01*
X0064145Y0027231D01*
X0064270Y0027380D01*
X0064391Y0027533D01*
X0064508Y0027688D01*
X0064621Y0027847D01*
X0064730Y0028008D01*
X0064835Y0028172D01*
X0064937Y0028338D01*
X0065034Y0028507D01*
X0065127Y0028677D01*
X0065216Y0028851D01*
X0065301Y0029026D01*
X0065381Y0029203D01*
X0065457Y0029382D01*
X0065529Y0029563D01*
X0065596Y0029746D01*
X0065659Y0029930D01*
X0065717Y0030116D01*
X0065771Y0030303D01*
X0065820Y0030491D01*
X0065865Y0030681D01*
X0065905Y0030871D01*
X0065940Y0031063D01*
X0065971Y0031255D01*
X0065997Y0031448D01*
X0066018Y0031642D01*
X0066035Y0031836D01*
X0066047Y0032030D01*
X0066054Y0032224D01*
X0066056Y0032419D01*
D17*
X0019867Y0067163D02*
X0019867Y0072163D01*
X0017367Y0074663D01*
X0019867Y0077163D01*
X0019867Y0082163D01*
X0017367Y0084663D01*
X0019867Y0087163D01*
X0019867Y0092163D01*
X0017367Y0094663D01*
X0019867Y0097163D01*
X0019867Y0102163D01*
X0017367Y0104663D01*
X0019867Y0107163D01*
X0019867Y0112163D01*
X0017367Y0114663D01*
X0019867Y0117163D01*
X0019867Y0122163D01*
X0017367Y0124663D01*
X0019867Y0127163D01*
X0019867Y0132163D01*
X0017367Y0134663D01*
X0019867Y0137163D01*
X0019867Y0142163D01*
X0017367Y0144663D01*
X0012367Y0144663D01*
X0009867Y0142163D01*
X0009867Y0137163D01*
X0012367Y0134663D01*
X0009867Y0132163D01*
X0009867Y0127163D01*
X0012367Y0124663D01*
X0009867Y0122163D01*
X0009867Y0117163D01*
X0012367Y0114663D01*
X0009867Y0112163D01*
X0009867Y0107163D01*
X0012367Y0104663D01*
X0009867Y0102163D01*
X0009867Y0097163D01*
X0012367Y0094663D01*
X0009867Y0092163D01*
X0009867Y0087163D01*
X0012367Y0084663D01*
X0009867Y0082163D01*
X0009867Y0077163D01*
X0012367Y0074663D01*
X0009867Y0072163D01*
X0009867Y0067163D01*
X0012367Y0064663D01*
X0017367Y0064663D01*
X0019867Y0067163D01*
X0194670Y0065785D02*
X0197170Y0063285D01*
X0202170Y0063285D01*
X0204670Y0065785D01*
X0204670Y0070785D01*
X0202170Y0073285D01*
X0204670Y0075785D01*
X0204670Y0080785D01*
X0202170Y0083285D01*
X0204670Y0085785D01*
X0204670Y0090785D01*
X0202170Y0093285D01*
X0204670Y0095785D01*
X0204670Y0100785D01*
X0202170Y0103285D01*
X0204670Y0105785D01*
X0204670Y0110785D01*
X0202170Y0113285D01*
X0204670Y0115785D01*
X0204670Y0120785D01*
X0202170Y0123285D01*
X0204670Y0125785D01*
X0204670Y0130785D01*
X0202170Y0133285D01*
X0204670Y0135785D01*
X0204670Y0140785D01*
X0202170Y0143285D01*
X0197170Y0143285D01*
X0194670Y0140785D01*
X0194670Y0135785D01*
X0197170Y0133285D01*
X0194670Y0130785D01*
X0194670Y0125785D01*
X0197170Y0123285D01*
X0194670Y0120785D01*
X0194670Y0115785D01*
X0197170Y0113285D01*
X0194670Y0110785D01*
X0194670Y0105785D01*
X0197170Y0103285D01*
X0194670Y0100785D01*
X0194670Y0095785D01*
X0197170Y0093285D01*
X0194670Y0090785D01*
X0194670Y0085785D01*
X0197170Y0083285D01*
X0194670Y0080785D01*
X0194670Y0075785D01*
X0197170Y0073285D01*
X0194670Y0070785D01*
X0194670Y0065785D01*
D18*
X0064736Y0150805D03*
X0036336Y0150805D03*
X0104249Y0194584D03*
X0132649Y0194584D03*
X0060799Y0011907D03*
X0032399Y0011907D03*
D19*
X0061717Y0057313D03*
X0061717Y0085713D03*
D20*
X0022229Y0038994D02*
X0022229Y0008994D01*
X0012229Y0008994D01*
X0012229Y0038994D01*
X0022229Y0038994D01*
X0083786Y0169384D02*
X0100278Y0169384D01*
X0100905Y0174884D02*
X0102484Y0174884D01*
X0093159Y0174884D02*
X0090905Y0174884D01*
X0083786Y0169383D02*
X0083633Y0169582D01*
X0083485Y0169784D01*
X0083342Y0169989D01*
X0083204Y0170198D01*
X0083071Y0170410D01*
X0082943Y0170625D01*
X0082821Y0170843D01*
X0082703Y0171064D01*
X0082591Y0171288D01*
X0082484Y0171514D01*
X0082383Y0171743D01*
X0082287Y0171974D01*
X0082196Y0172208D01*
X0082111Y0172443D01*
X0082032Y0172681D01*
X0081959Y0172920D01*
X0081891Y0173161D01*
X0081829Y0173403D01*
X0081773Y0173647D01*
X0081722Y0173893D01*
X0081678Y0174139D01*
X0081639Y0174386D01*
X0081607Y0174634D01*
X0081580Y0174883D01*
X0081580Y0174884D02*
X0083159Y0174884D01*
X0095128Y0185917D02*
X0095370Y0185839D01*
X0095610Y0185755D01*
X0095848Y0185666D01*
X0096084Y0185570D01*
X0096318Y0185469D01*
X0096549Y0185363D01*
X0096777Y0185250D01*
X0097003Y0185133D01*
X0097226Y0185010D01*
X0097445Y0184881D01*
X0097662Y0184747D01*
X0097875Y0184608D01*
X0098085Y0184464D01*
X0098291Y0184315D01*
X0098493Y0184161D01*
X0098692Y0184002D01*
X0098887Y0183838D01*
X0099078Y0183669D01*
X0099264Y0183496D01*
X0099447Y0183319D01*
X0099625Y0183137D01*
X0099798Y0182951D01*
X0099967Y0182760D01*
X0100131Y0182566D01*
X0100291Y0182368D01*
X0100446Y0182166D01*
X0100595Y0181960D01*
X0100740Y0181751D01*
X0100880Y0181538D01*
X0101014Y0181322D01*
X0101143Y0181102D01*
X0101267Y0180880D01*
X0101386Y0180655D01*
X0101498Y0180427D01*
X0101606Y0180196D01*
X0101707Y0179963D01*
X0101803Y0179727D01*
X0101894Y0179489D01*
X0101978Y0179249D01*
X0102057Y0179007D01*
X0102130Y0178763D01*
X0102196Y0178517D01*
X0102257Y0178270D01*
X0102312Y0178022D01*
X0102361Y0177772D01*
X0102404Y0177521D01*
X0102440Y0177269D01*
X0102471Y0177017D01*
X0102495Y0176763D01*
X0102513Y0176510D01*
X0102525Y0176255D01*
X0102531Y0176001D01*
X0102531Y0175746D01*
X0102525Y0175492D01*
X0102512Y0175238D01*
X0102493Y0174984D01*
X0102468Y0174731D01*
X0102437Y0174478D01*
X0102400Y0174226D01*
X0102357Y0173976D01*
X0102308Y0173726D01*
X0102253Y0173477D01*
X0102191Y0173230D01*
X0102124Y0172985D01*
X0102051Y0172741D01*
X0101972Y0172499D01*
X0101887Y0172260D01*
X0101796Y0172022D01*
X0101699Y0171786D01*
X0101597Y0171553D01*
X0101489Y0171323D01*
X0101376Y0171095D01*
X0101257Y0170870D01*
X0101133Y0170648D01*
X0101004Y0170429D01*
X0100869Y0170213D01*
X0100729Y0170000D01*
X0100583Y0169791D01*
X0100433Y0169586D01*
X0100278Y0169384D01*
X0081580Y0174884D02*
X0081558Y0175139D01*
X0081543Y0175395D01*
X0081535Y0175651D01*
X0081532Y0175908D01*
X0081536Y0176164D01*
X0081546Y0176420D01*
X0081562Y0176676D01*
X0081584Y0176931D01*
X0081613Y0177186D01*
X0081648Y0177440D01*
X0081689Y0177693D01*
X0081736Y0177945D01*
X0081790Y0178195D01*
X0081849Y0178444D01*
X0081915Y0178692D01*
X0081986Y0178938D01*
X0082064Y0179183D01*
X0082147Y0179425D01*
X0082236Y0179665D01*
X0082332Y0179903D01*
X0082433Y0180139D01*
X0082539Y0180372D01*
X0082652Y0180602D01*
X0082770Y0180830D01*
X0082893Y0181054D01*
X0083022Y0181276D01*
X0083156Y0181494D01*
X0083296Y0181709D01*
X0083441Y0181920D01*
X0083591Y0182128D01*
X0083745Y0182332D01*
X0083905Y0182533D01*
X0084070Y0182729D01*
X0084239Y0182921D01*
X0084414Y0183110D01*
X0084592Y0183293D01*
X0084775Y0183473D01*
X0084963Y0183648D01*
X0085154Y0183818D01*
X0085350Y0183983D01*
X0085550Y0184144D01*
X0085753Y0184300D01*
X0085960Y0184450D01*
X0086171Y0184596D01*
X0086386Y0184737D01*
X0086603Y0184872D01*
X0086824Y0185002D01*
X0087048Y0185126D01*
X0087275Y0185245D01*
X0087505Y0185358D01*
X0087738Y0185466D01*
X0087973Y0185568D01*
X0088211Y0185664D01*
X0088450Y0185754D01*
X0088692Y0185839D01*
X0088936Y0185917D01*
X0085497Y0189781D02*
X0050064Y0189781D01*
X0050064Y0201592D01*
X0085497Y0201592D01*
X0085497Y0189781D01*
X0155142Y0189191D02*
X0155142Y0199191D01*
X0185142Y0199191D01*
X0185142Y0189191D01*
X0155142Y0189191D01*
M02*
