G75*
%MOIN*%
%OFA0B0*%
%FSLAX25Y25*%
%IPPOS*%
%LPD*%
%AMOC8*
5,1,8,0,0,1.08239X$1,22.5*
%
%ADD10C,0.00000*%
%ADD11OC8,0.05200*%
%ADD12C,0.06300*%
%ADD13OC8,0.06300*%
%ADD14C,0.07400*%
%ADD15C,0.05150*%
%ADD16C,0.11220*%
%ADD17C,0.07600*%
%ADD18C,0.05600*%
%ADD19C,0.05200*%
%ADD20C,0.01600*%
%ADD21R,0.03562X0.03562*%
D10*
X0009001Y0005569D02*
X0009001Y0202419D01*
X0205851Y0202419D01*
X0205851Y0005569D01*
X0009001Y0005569D01*
D11*
X0026599Y0011907D03*
X0058056Y0027419D03*
X0058056Y0037419D03*
X0061717Y0051513D03*
X0078016Y0035136D03*
X0078016Y0025136D03*
X0066599Y0011907D03*
X0061717Y0091513D03*
X0070536Y0150805D03*
X0069670Y0166789D03*
X0069670Y0176789D03*
X0087032Y0175884D03*
X0092032Y0183384D03*
X0097032Y0175884D03*
X0098449Y0194584D03*
X0137111Y0181002D03*
X0137111Y0171002D03*
X0141008Y0156002D03*
X0141008Y0146002D03*
X0156993Y0169584D03*
X0156993Y0179584D03*
X0138449Y0194584D03*
X0135536Y0106080D03*
X0145536Y0106080D03*
X0030536Y0150805D03*
D12*
X0135339Y0075017D03*
X0175772Y0168876D03*
D13*
X0175772Y0178876D03*
X0145339Y0075017D03*
D14*
X0199670Y0078285D03*
X0199670Y0088285D03*
X0199670Y0098285D03*
X0199670Y0108285D03*
X0199670Y0118285D03*
X0199670Y0128285D03*
X0199670Y0138285D03*
X0199945Y0150608D03*
X0199945Y0160608D03*
X0199945Y0170608D03*
X0199945Y0180608D03*
X0199945Y0190608D03*
X0180142Y0194191D03*
X0160142Y0194191D03*
X0078725Y0081986D03*
X0078725Y0071986D03*
X0078725Y0061986D03*
X0017229Y0033994D03*
X0017229Y0013994D03*
X0014867Y0069663D03*
X0014867Y0079663D03*
X0014867Y0089663D03*
X0014867Y0099663D03*
X0014867Y0109663D03*
X0014867Y0119663D03*
X0014867Y0129663D03*
X0014867Y0139663D03*
X0199670Y0068285D03*
D15*
X0042504Y0171632D03*
X0037780Y0174781D03*
X0042504Y0177931D03*
X0037780Y0181080D03*
X0042504Y0184230D03*
D16*
X0022426Y0192301D03*
X0022426Y0163561D03*
D17*
X0052032Y0195687D03*
X0083528Y0195687D03*
D18*
X0075654Y0195687D03*
X0067780Y0195687D03*
X0059906Y0195687D03*
D19*
X0091204Y0156199D02*
X0096404Y0156199D01*
X0096404Y0146199D02*
X0091204Y0146199D01*
X0091204Y0136199D02*
X0096404Y0136199D01*
X0096404Y0126199D02*
X0091204Y0126199D01*
X0091204Y0116199D02*
X0096404Y0116199D01*
X0096404Y0106199D02*
X0091204Y0106199D01*
X0091204Y0096199D02*
X0096404Y0096199D01*
X0096404Y0086199D02*
X0091204Y0086199D01*
X0091204Y0076199D02*
X0096404Y0076199D01*
X0096404Y0066199D02*
X0091204Y0066199D01*
X0091204Y0056199D02*
X0096404Y0056199D01*
X0096404Y0046199D02*
X0091204Y0046199D01*
X0091204Y0036199D02*
X0096404Y0036199D01*
X0096404Y0026199D02*
X0091204Y0026199D01*
X0121204Y0026199D02*
X0126404Y0026199D01*
X0126404Y0036199D02*
X0121204Y0036199D01*
X0121204Y0046199D02*
X0126404Y0046199D01*
X0126404Y0056199D02*
X0121204Y0056199D01*
X0121204Y0066199D02*
X0126404Y0066199D01*
X0126404Y0076199D02*
X0121204Y0076199D01*
X0121204Y0086199D02*
X0126404Y0086199D01*
X0126404Y0096199D02*
X0121204Y0096199D01*
X0121204Y0106199D02*
X0126404Y0106199D01*
X0126404Y0116199D02*
X0121204Y0116199D01*
X0121204Y0126199D02*
X0126404Y0126199D01*
X0126404Y0136199D02*
X0121204Y0136199D01*
X0121204Y0146199D02*
X0126404Y0146199D01*
X0126404Y0156199D02*
X0121204Y0156199D01*
D20*
X0123804Y0156199D02*
X0124001Y0156002D01*
X0141008Y0156002D01*
X0137873Y0152632D02*
X0129342Y0152632D01*
X0129009Y0152299D02*
X0129912Y0153202D01*
X0137303Y0153202D01*
X0139103Y0151402D01*
X0142914Y0151402D01*
X0145608Y0154096D01*
X0145608Y0157907D01*
X0142914Y0160602D01*
X0139103Y0160602D01*
X0137303Y0158802D01*
X0130304Y0158802D01*
X0130303Y0158804D01*
X0129009Y0160098D01*
X0127319Y0160799D01*
X0120289Y0160799D01*
X0118598Y0160098D01*
X0117304Y0158804D01*
X0116604Y0157114D01*
X0116604Y0155284D01*
X0117304Y0153593D01*
X0118598Y0152299D01*
X0120289Y0151599D01*
X0127319Y0151599D01*
X0129009Y0152299D01*
X0128093Y0150276D02*
X0127434Y0150490D01*
X0126750Y0150599D01*
X0123804Y0150599D01*
X0123804Y0146199D01*
X0123804Y0146199D01*
X0130804Y0146199D01*
X0130804Y0146545D01*
X0130695Y0147229D01*
X0130481Y0147888D01*
X0130167Y0148505D01*
X0129760Y0149065D01*
X0129270Y0149555D01*
X0128710Y0149962D01*
X0128093Y0150276D01*
X0129390Y0149435D02*
X0138219Y0149435D01*
X0139186Y0150402D02*
X0136608Y0147824D01*
X0136608Y0146002D01*
X0141008Y0146002D01*
X0141008Y0146002D01*
X0141008Y0150402D01*
X0139186Y0150402D01*
X0141008Y0150402D02*
X0141008Y0146002D01*
X0141008Y0146002D01*
X0136608Y0146002D01*
X0136608Y0144179D01*
X0139186Y0141602D01*
X0141008Y0141602D01*
X0141008Y0146002D01*
X0124001Y0146002D01*
X0123804Y0146199D01*
X0123804Y0146198D01*
X0123804Y0141799D01*
X0126750Y0141799D01*
X0127434Y0141907D01*
X0128093Y0142121D01*
X0128710Y0142435D01*
X0129270Y0142842D01*
X0129760Y0143332D01*
X0130167Y0143892D01*
X0130481Y0144510D01*
X0130695Y0145168D01*
X0130804Y0145852D01*
X0130804Y0146198D01*
X0123804Y0146198D01*
X0123804Y0146198D01*
X0123804Y0141799D01*
X0120857Y0141799D01*
X0120173Y0141907D01*
X0119515Y0142121D01*
X0118898Y0142435D01*
X0118337Y0142842D01*
X0117848Y0143332D01*
X0117440Y0143892D01*
X0117126Y0144510D01*
X0116912Y0145168D01*
X0116804Y0145852D01*
X0116804Y0146198D01*
X0123804Y0146198D01*
X0123804Y0146199D01*
X0123804Y0150599D01*
X0120857Y0150599D01*
X0120173Y0150490D01*
X0119515Y0150276D01*
X0118898Y0149962D01*
X0118337Y0149555D01*
X0117848Y0149065D01*
X0117440Y0148505D01*
X0117126Y0147888D01*
X0116912Y0147229D01*
X0116804Y0146545D01*
X0116804Y0146199D01*
X0123804Y0146199D01*
X0123804Y0146238D02*
X0123804Y0146238D01*
X0123804Y0147836D02*
X0123804Y0147836D01*
X0123804Y0149435D02*
X0123804Y0149435D01*
X0123804Y0144639D02*
X0123804Y0144639D01*
X0123804Y0143041D02*
X0123804Y0143041D01*
X0127319Y0140799D02*
X0120289Y0140799D01*
X0118598Y0140098D01*
X0117304Y0138804D01*
X0116604Y0137114D01*
X0116604Y0135284D01*
X0117304Y0133593D01*
X0118598Y0132299D01*
X0120289Y0131599D01*
X0127319Y0131599D01*
X0129009Y0132299D01*
X0130109Y0133399D01*
X0196572Y0133399D01*
X0196846Y0133285D01*
X0196441Y0133117D01*
X0194838Y0131514D01*
X0193970Y0129419D01*
X0193970Y0128999D01*
X0130109Y0128999D01*
X0129009Y0130098D01*
X0127319Y0130799D01*
X0120289Y0130799D01*
X0118598Y0130098D01*
X0117304Y0128804D01*
X0116604Y0127114D01*
X0116604Y0125284D01*
X0117304Y0123593D01*
X0118598Y0122299D01*
X0120289Y0121599D01*
X0127319Y0121599D01*
X0129009Y0122299D01*
X0130109Y0123399D01*
X0196572Y0123399D01*
X0196846Y0123285D01*
X0196441Y0123117D01*
X0194838Y0121514D01*
X0193970Y0119419D01*
X0193970Y0118999D01*
X0130109Y0118999D01*
X0129009Y0120098D01*
X0127319Y0120799D01*
X0120289Y0120799D01*
X0118598Y0120098D01*
X0117304Y0118804D01*
X0116604Y0117114D01*
X0116604Y0115284D01*
X0117304Y0113593D01*
X0118598Y0112299D01*
X0120289Y0111599D01*
X0127319Y0111599D01*
X0129009Y0112299D01*
X0130109Y0113399D01*
X0196572Y0113399D01*
X0196846Y0113285D01*
X0196441Y0113117D01*
X0194838Y0111514D01*
X0194513Y0110731D01*
X0169861Y0110731D01*
X0168832Y0110305D01*
X0168044Y0109517D01*
X0152296Y0093769D01*
X0151870Y0092740D01*
X0151870Y0071689D01*
X0139179Y0058999D01*
X0130109Y0058999D01*
X0129009Y0060098D01*
X0127319Y0060799D01*
X0120289Y0060799D01*
X0118598Y0060098D01*
X0117304Y0058804D01*
X0116604Y0057114D01*
X0116604Y0055284D01*
X0117304Y0053593D01*
X0118598Y0052299D01*
X0120289Y0051599D01*
X0127319Y0051599D01*
X0129009Y0052299D01*
X0130109Y0053399D01*
X0140896Y0053399D01*
X0141925Y0053825D01*
X0156256Y0068156D01*
X0157044Y0068943D01*
X0157470Y0069972D01*
X0157470Y0091023D01*
X0171578Y0105131D01*
X0194807Y0105131D01*
X0194838Y0105056D01*
X0196441Y0103453D01*
X0196846Y0103285D01*
X0196441Y0103117D01*
X0194838Y0101514D01*
X0194578Y0100888D01*
X0173798Y0100888D01*
X0172769Y0100462D01*
X0171981Y0099674D01*
X0162139Y0089832D01*
X0161712Y0088803D01*
X0161712Y0069721D01*
X0140990Y0048999D01*
X0130109Y0048999D01*
X0129009Y0050098D01*
X0127319Y0050799D01*
X0120289Y0050799D01*
X0118598Y0050098D01*
X0117304Y0048804D01*
X0116604Y0047114D01*
X0116604Y0045284D01*
X0117304Y0043593D01*
X0118598Y0042299D01*
X0120289Y0041599D01*
X0127319Y0041599D01*
X0129009Y0042299D01*
X0130109Y0043399D01*
X0142707Y0043399D01*
X0143736Y0043825D01*
X0166098Y0066187D01*
X0166886Y0066975D01*
X0167312Y0068004D01*
X0167312Y0087086D01*
X0175515Y0095288D01*
X0194741Y0095288D01*
X0194838Y0095056D01*
X0196441Y0093453D01*
X0196846Y0093285D01*
X0196441Y0093117D01*
X0194838Y0091514D01*
X0194644Y0091046D01*
X0177735Y0091046D01*
X0176706Y0090620D01*
X0175918Y0089832D01*
X0170013Y0083926D01*
X0169586Y0082897D01*
X0169586Y0065784D01*
X0142801Y0038999D01*
X0130109Y0038999D01*
X0129009Y0040098D01*
X0127319Y0040799D01*
X0120289Y0040799D01*
X0118598Y0040098D01*
X0117304Y0038804D01*
X0116604Y0037114D01*
X0116604Y0035284D01*
X0117304Y0033593D01*
X0118598Y0032299D01*
X0120289Y0031599D01*
X0127319Y0031599D01*
X0129009Y0032299D01*
X0130109Y0033399D01*
X0144518Y0033399D01*
X0145547Y0033825D01*
X0173972Y0062250D01*
X0173972Y0062250D01*
X0174760Y0063038D01*
X0175186Y0064067D01*
X0175186Y0081180D01*
X0179452Y0085446D01*
X0194676Y0085446D01*
X0194838Y0085056D01*
X0196441Y0083453D01*
X0196846Y0083285D01*
X0196441Y0083117D01*
X0194838Y0081514D01*
X0194709Y0081203D01*
X0183640Y0081203D01*
X0182611Y0080777D01*
X0181824Y0079989D01*
X0177887Y0076052D01*
X0177460Y0075023D01*
X0177460Y0061847D01*
X0144612Y0028999D01*
X0130109Y0028999D01*
X0129009Y0030098D01*
X0127319Y0030799D01*
X0120289Y0030799D01*
X0118598Y0030098D01*
X0117304Y0028804D01*
X0116993Y0028054D01*
X0114491Y0028054D01*
X0112194Y0030350D01*
X0112194Y0177385D01*
X0111768Y0178415D01*
X0110980Y0179202D01*
X0104425Y0185757D01*
X0103396Y0186184D01*
X0095737Y0186184D01*
X0093937Y0187984D01*
X0090127Y0187984D01*
X0088327Y0186184D01*
X0080377Y0186184D01*
X0078730Y0187831D01*
X0078730Y0191974D01*
X0078884Y0192128D01*
X0080243Y0190770D01*
X0082374Y0189887D01*
X0084682Y0189887D01*
X0086814Y0190770D01*
X0088445Y0192401D01*
X0089328Y0194533D01*
X0089328Y0196840D01*
X0088445Y0198972D01*
X0086998Y0200419D01*
X0203851Y0200419D01*
X0203851Y0194763D01*
X0203174Y0195440D01*
X0201079Y0196308D01*
X0198812Y0196308D01*
X0196717Y0195440D01*
X0195113Y0193837D01*
X0194245Y0191742D01*
X0194245Y0191439D01*
X0186853Y0191439D01*
X0185665Y0192628D01*
X0185842Y0193057D01*
X0185842Y0195324D01*
X0184974Y0197419D01*
X0183371Y0199023D01*
X0181276Y0199891D01*
X0179008Y0199891D01*
X0176913Y0199023D01*
X0175310Y0197419D01*
X0174442Y0195324D01*
X0174442Y0193057D01*
X0175310Y0190962D01*
X0176913Y0189358D01*
X0179008Y0188491D01*
X0181276Y0188491D01*
X0181705Y0188668D01*
X0184107Y0186266D01*
X0185136Y0185839D01*
X0196565Y0185839D01*
X0196627Y0185865D01*
X0196717Y0185776D01*
X0197122Y0185608D01*
X0196717Y0185440D01*
X0195113Y0183837D01*
X0194245Y0181742D01*
X0194245Y0179474D01*
X0195113Y0177379D01*
X0196717Y0175776D01*
X0197410Y0175489D01*
X0197063Y0175312D01*
X0196362Y0174803D01*
X0195750Y0174191D01*
X0195241Y0173491D01*
X0194848Y0172719D01*
X0194581Y0171896D01*
X0194445Y0171041D01*
X0194445Y0170808D01*
X0199745Y0170808D01*
X0199745Y0170408D01*
X0194445Y0170408D01*
X0194445Y0170175D01*
X0194581Y0169320D01*
X0194848Y0168497D01*
X0195241Y0167725D01*
X0195750Y0167025D01*
X0196362Y0166413D01*
X0197063Y0165904D01*
X0197410Y0165727D01*
X0196717Y0165440D01*
X0195113Y0163837D01*
X0194245Y0161742D01*
X0194245Y0159474D01*
X0195113Y0157379D01*
X0196717Y0155776D01*
X0197122Y0155608D01*
X0196717Y0155440D01*
X0195113Y0153837D01*
X0194245Y0151742D01*
X0194245Y0149474D01*
X0195113Y0147379D01*
X0196717Y0145776D01*
X0198812Y0144908D01*
X0201079Y0144908D01*
X0203174Y0145776D01*
X0203851Y0146452D01*
X0203851Y0142165D01*
X0202899Y0143117D01*
X0200804Y0143985D01*
X0198536Y0143985D01*
X0196441Y0143117D01*
X0194838Y0141514D01*
X0193970Y0139419D01*
X0193970Y0138999D01*
X0130109Y0138999D01*
X0129009Y0140098D01*
X0127319Y0140799D01*
X0129264Y0139844D02*
X0194146Y0139844D01*
X0194808Y0141442D02*
X0112194Y0141442D01*
X0112194Y0139844D02*
X0118343Y0139844D01*
X0117072Y0138245D02*
X0112194Y0138245D01*
X0112194Y0136647D02*
X0116604Y0136647D01*
X0116701Y0135048D02*
X0112194Y0135048D01*
X0112194Y0133450D02*
X0117447Y0133450D01*
X0119679Y0131851D02*
X0112194Y0131851D01*
X0112194Y0130252D02*
X0118970Y0130252D01*
X0117242Y0128654D02*
X0112194Y0128654D01*
X0112194Y0127055D02*
X0116604Y0127055D01*
X0116604Y0125457D02*
X0112194Y0125457D01*
X0112194Y0123858D02*
X0117194Y0123858D01*
X0118692Y0122260D02*
X0112194Y0122260D01*
X0112194Y0120661D02*
X0119958Y0120661D01*
X0117563Y0119063D02*
X0112194Y0119063D01*
X0112194Y0117464D02*
X0116749Y0117464D01*
X0116604Y0115866D02*
X0112194Y0115866D01*
X0112194Y0114267D02*
X0117025Y0114267D01*
X0118228Y0112669D02*
X0112194Y0112669D01*
X0112194Y0111070D02*
X0194654Y0111070D01*
X0195993Y0112669D02*
X0129379Y0112669D01*
X0129009Y0110098D02*
X0127319Y0110799D01*
X0120289Y0110799D01*
X0118598Y0110098D01*
X0117304Y0108804D01*
X0116604Y0107114D01*
X0116604Y0105284D01*
X0117304Y0103593D01*
X0118598Y0102299D01*
X0120289Y0101599D01*
X0127319Y0101599D01*
X0129009Y0102299D01*
X0130303Y0103593D01*
X0130936Y0105120D01*
X0130936Y0104175D01*
X0133631Y0101480D01*
X0137441Y0101480D01*
X0140136Y0104175D01*
X0140136Y0107986D01*
X0137441Y0110680D01*
X0133631Y0110680D01*
X0130936Y0107986D01*
X0130936Y0107277D01*
X0130303Y0108804D01*
X0129009Y0110098D01*
X0129636Y0109472D02*
X0132422Y0109472D01*
X0130936Y0107873D02*
X0130689Y0107873D01*
X0130752Y0104676D02*
X0130936Y0104676D01*
X0132033Y0103078D02*
X0129788Y0103078D01*
X0129009Y0100098D02*
X0127319Y0100799D01*
X0120289Y0100799D01*
X0118598Y0100098D01*
X0117304Y0098804D01*
X0116604Y0097114D01*
X0116604Y0095284D01*
X0117304Y0093593D01*
X0118598Y0092299D01*
X0120289Y0091599D01*
X0127319Y0091599D01*
X0129009Y0092299D01*
X0130303Y0093593D01*
X0131004Y0095284D01*
X0131004Y0097114D01*
X0130303Y0098804D01*
X0129009Y0100098D01*
X0129227Y0099881D02*
X0158408Y0099881D01*
X0160007Y0101479D02*
X0112194Y0101479D01*
X0112194Y0099881D02*
X0118381Y0099881D01*
X0117088Y0098282D02*
X0112194Y0098282D01*
X0112194Y0096684D02*
X0116604Y0096684D01*
X0116686Y0095085D02*
X0112194Y0095085D01*
X0112194Y0093487D02*
X0117410Y0093487D01*
X0119589Y0091888D02*
X0112194Y0091888D01*
X0112194Y0090290D02*
X0119060Y0090290D01*
X0118598Y0090098D02*
X0117304Y0088804D01*
X0116604Y0087114D01*
X0116604Y0085284D01*
X0117304Y0083593D01*
X0118598Y0082299D01*
X0120289Y0081599D01*
X0127319Y0081599D01*
X0129009Y0082299D01*
X0130303Y0083593D01*
X0131004Y0085284D01*
X0131004Y0087114D01*
X0130303Y0088804D01*
X0129009Y0090098D01*
X0127319Y0090799D01*
X0120289Y0090799D01*
X0118598Y0090098D01*
X0117257Y0088691D02*
X0112194Y0088691D01*
X0112194Y0087093D02*
X0116604Y0087093D01*
X0116604Y0085494D02*
X0112194Y0085494D01*
X0112194Y0083896D02*
X0117179Y0083896D01*
X0118602Y0082297D02*
X0112194Y0082297D01*
X0112194Y0080699D02*
X0120048Y0080699D01*
X0120289Y0080799D02*
X0118598Y0080098D01*
X0117304Y0078804D01*
X0116604Y0077114D01*
X0116604Y0075284D01*
X0117304Y0073593D01*
X0118598Y0072299D01*
X0120289Y0071599D01*
X0127319Y0071599D01*
X0128813Y0072217D01*
X0130925Y0072217D01*
X0130973Y0072100D01*
X0132422Y0070651D01*
X0134315Y0069867D01*
X0136363Y0069867D01*
X0138256Y0070651D01*
X0139705Y0072100D01*
X0140389Y0073752D01*
X0140389Y0072967D01*
X0143289Y0070067D01*
X0145339Y0070067D01*
X0145339Y0075017D01*
X0145339Y0075017D01*
X0145339Y0070067D01*
X0147389Y0070067D01*
X0150289Y0072967D01*
X0150289Y0075017D01*
X0145339Y0075017D01*
X0145339Y0075017D01*
X0150289Y0075017D01*
X0150289Y0077068D01*
X0147389Y0079967D01*
X0145339Y0079967D01*
X0143289Y0079967D01*
X0140389Y0077068D01*
X0140389Y0076283D01*
X0139705Y0077935D01*
X0138256Y0079383D01*
X0136363Y0080167D01*
X0134315Y0080167D01*
X0132422Y0079383D01*
X0130973Y0077935D01*
X0130925Y0077817D01*
X0130712Y0077817D01*
X0130303Y0078804D01*
X0129009Y0080098D01*
X0127319Y0080799D01*
X0120289Y0080799D01*
X0117600Y0079100D02*
X0112194Y0079100D01*
X0112194Y0077502D02*
X0116764Y0077502D01*
X0116604Y0075903D02*
X0112194Y0075903D01*
X0112194Y0074305D02*
X0117009Y0074305D01*
X0118191Y0072706D02*
X0112194Y0072706D01*
X0112194Y0071108D02*
X0131966Y0071108D01*
X0129760Y0069065D02*
X0129270Y0069555D01*
X0128710Y0069962D01*
X0128093Y0070276D01*
X0127434Y0070490D01*
X0126750Y0070599D01*
X0123804Y0070599D01*
X0123804Y0066199D01*
X0123804Y0066199D01*
X0130804Y0066199D01*
X0130804Y0066545D01*
X0130695Y0067229D01*
X0130481Y0067888D01*
X0130167Y0068505D01*
X0129760Y0069065D01*
X0129316Y0069509D02*
X0149690Y0069509D01*
X0148430Y0071108D02*
X0151288Y0071108D01*
X0151870Y0072706D02*
X0150028Y0072706D01*
X0150289Y0074305D02*
X0151870Y0074305D01*
X0151870Y0075903D02*
X0150289Y0075903D01*
X0149855Y0077502D02*
X0151870Y0077502D01*
X0151870Y0079100D02*
X0148257Y0079100D01*
X0145339Y0079100D02*
X0145339Y0079100D01*
X0145339Y0079967D02*
X0145339Y0075018D01*
X0145339Y0079967D01*
X0145339Y0077502D02*
X0145339Y0077502D01*
X0145339Y0075903D02*
X0145339Y0075903D01*
X0145339Y0075018D02*
X0145339Y0075018D01*
X0145339Y0074305D02*
X0145339Y0074305D01*
X0145339Y0072706D02*
X0145339Y0072706D01*
X0145339Y0071108D02*
X0145339Y0071108D01*
X0142249Y0071108D02*
X0138712Y0071108D01*
X0139956Y0072706D02*
X0140650Y0072706D01*
X0140823Y0077502D02*
X0139884Y0077502D01*
X0138540Y0079100D02*
X0142421Y0079100D01*
X0135339Y0075017D02*
X0124985Y0075017D01*
X0123804Y0076199D01*
X0127560Y0080699D02*
X0151870Y0080699D01*
X0151870Y0082297D02*
X0129005Y0082297D01*
X0130429Y0083896D02*
X0151870Y0083896D01*
X0151870Y0085494D02*
X0131004Y0085494D01*
X0131004Y0087093D02*
X0151870Y0087093D01*
X0151870Y0088691D02*
X0130350Y0088691D01*
X0128547Y0090290D02*
X0151870Y0090290D01*
X0151870Y0091888D02*
X0128018Y0091888D01*
X0130197Y0093487D02*
X0152179Y0093487D01*
X0153612Y0095085D02*
X0130922Y0095085D01*
X0131004Y0096684D02*
X0155211Y0096684D01*
X0156809Y0098282D02*
X0130520Y0098282D01*
X0139039Y0103078D02*
X0142316Y0103078D01*
X0141136Y0104258D02*
X0143713Y0101680D01*
X0145536Y0101680D01*
X0147358Y0101680D01*
X0149936Y0104258D01*
X0149936Y0106080D01*
X0145536Y0106080D01*
X0145536Y0101680D01*
X0145536Y0106080D01*
X0145536Y0106080D01*
X0145536Y0106080D01*
X0141136Y0106080D01*
X0141136Y0104258D01*
X0141136Y0104676D02*
X0140136Y0104676D01*
X0140136Y0106275D02*
X0141136Y0106275D01*
X0141136Y0106080D02*
X0145536Y0106080D01*
X0145536Y0106080D01*
X0149936Y0106080D01*
X0149936Y0107903D01*
X0147358Y0110480D01*
X0145536Y0110480D01*
X0145536Y0106081D01*
X0145536Y0106081D01*
X0145536Y0110480D01*
X0143713Y0110480D01*
X0141136Y0107903D01*
X0141136Y0106080D01*
X0141136Y0107873D02*
X0140136Y0107873D01*
X0138650Y0109472D02*
X0142705Y0109472D01*
X0145536Y0109472D02*
X0145536Y0109472D01*
X0145536Y0107873D02*
X0145536Y0107873D01*
X0145536Y0106275D02*
X0145536Y0106275D01*
X0145536Y0104676D02*
X0145536Y0104676D01*
X0145536Y0103078D02*
X0145536Y0103078D01*
X0148756Y0103078D02*
X0161605Y0103078D01*
X0163204Y0104676D02*
X0149936Y0104676D01*
X0149936Y0106275D02*
X0164802Y0106275D01*
X0166401Y0107873D02*
X0149936Y0107873D01*
X0148367Y0109472D02*
X0167999Y0109472D01*
X0170418Y0107931D02*
X0199315Y0107931D01*
X0199670Y0108285D01*
X0195218Y0104676D02*
X0171123Y0104676D01*
X0169525Y0103078D02*
X0196401Y0103078D01*
X0194823Y0101479D02*
X0167926Y0101479D01*
X0166328Y0099881D02*
X0172188Y0099881D01*
X0170589Y0098282D02*
X0164729Y0098282D01*
X0163131Y0096684D02*
X0168991Y0096684D01*
X0167392Y0095085D02*
X0161532Y0095085D01*
X0159934Y0093487D02*
X0165793Y0093487D01*
X0164195Y0091888D02*
X0158335Y0091888D01*
X0157470Y0090290D02*
X0162596Y0090290D01*
X0161712Y0088691D02*
X0157470Y0088691D01*
X0157470Y0087093D02*
X0161712Y0087093D01*
X0161712Y0085494D02*
X0157470Y0085494D01*
X0157470Y0083896D02*
X0161712Y0083896D01*
X0161712Y0082297D02*
X0157470Y0082297D01*
X0157470Y0080699D02*
X0161712Y0080699D01*
X0161712Y0079100D02*
X0157470Y0079100D01*
X0157470Y0077502D02*
X0161712Y0077502D01*
X0161712Y0075903D02*
X0157470Y0075903D01*
X0157470Y0074305D02*
X0161712Y0074305D01*
X0161712Y0072706D02*
X0157470Y0072706D01*
X0157470Y0071108D02*
X0161712Y0071108D01*
X0161501Y0069509D02*
X0157278Y0069509D01*
X0156011Y0067911D02*
X0159902Y0067911D01*
X0158304Y0066312D02*
X0154412Y0066312D01*
X0152814Y0064714D02*
X0156705Y0064714D01*
X0155107Y0063115D02*
X0151215Y0063115D01*
X0149617Y0061517D02*
X0153508Y0061517D01*
X0151910Y0059918D02*
X0148018Y0059918D01*
X0146420Y0058319D02*
X0150311Y0058319D01*
X0148713Y0056721D02*
X0144821Y0056721D01*
X0143223Y0055122D02*
X0147114Y0055122D01*
X0145516Y0053524D02*
X0141199Y0053524D01*
X0140339Y0056199D02*
X0154670Y0070529D01*
X0154670Y0092183D01*
X0170418Y0107931D01*
X0174355Y0098088D02*
X0199473Y0098088D01*
X0199670Y0098285D01*
X0196407Y0093487D02*
X0173713Y0093487D01*
X0175312Y0095085D02*
X0194826Y0095085D01*
X0195212Y0091888D02*
X0172115Y0091888D01*
X0170516Y0090290D02*
X0176376Y0090290D01*
X0174777Y0088691D02*
X0168918Y0088691D01*
X0167319Y0087093D02*
X0173179Y0087093D01*
X0171580Y0085494D02*
X0167312Y0085494D01*
X0167312Y0083896D02*
X0170000Y0083896D01*
X0169586Y0082297D02*
X0167312Y0082297D01*
X0167312Y0080699D02*
X0169586Y0080699D01*
X0169586Y0079100D02*
X0167312Y0079100D01*
X0167312Y0077502D02*
X0169586Y0077502D01*
X0169586Y0075903D02*
X0167312Y0075903D01*
X0167312Y0074305D02*
X0169586Y0074305D01*
X0169586Y0072706D02*
X0167312Y0072706D01*
X0167312Y0071108D02*
X0169586Y0071108D01*
X0169586Y0069509D02*
X0167312Y0069509D01*
X0167274Y0067911D02*
X0169586Y0067911D01*
X0169586Y0066312D02*
X0166223Y0066312D01*
X0164625Y0064714D02*
X0168516Y0064714D01*
X0166918Y0063115D02*
X0163026Y0063115D01*
X0161428Y0061517D02*
X0165319Y0061517D01*
X0163721Y0059918D02*
X0159829Y0059918D01*
X0158231Y0058319D02*
X0162122Y0058319D01*
X0160524Y0056721D02*
X0156632Y0056721D01*
X0155034Y0055122D02*
X0158925Y0055122D01*
X0157327Y0053524D02*
X0153435Y0053524D01*
X0151837Y0051925D02*
X0155728Y0051925D01*
X0154130Y0050327D02*
X0150238Y0050327D01*
X0148640Y0048728D02*
X0152531Y0048728D01*
X0150933Y0047130D02*
X0147041Y0047130D01*
X0145443Y0045531D02*
X0149334Y0045531D01*
X0147736Y0043933D02*
X0143844Y0043933D01*
X0146137Y0042334D02*
X0129045Y0042334D01*
X0127470Y0040736D02*
X0144539Y0040736D01*
X0142940Y0039137D02*
X0129970Y0039137D01*
X0129454Y0032743D02*
X0148357Y0032743D01*
X0146759Y0031145D02*
X0112194Y0031145D01*
X0112194Y0032743D02*
X0118154Y0032743D01*
X0116994Y0034342D02*
X0112194Y0034342D01*
X0112194Y0035940D02*
X0116604Y0035940D01*
X0116780Y0037539D02*
X0112194Y0037539D01*
X0112194Y0039137D02*
X0117637Y0039137D01*
X0120137Y0040736D02*
X0112194Y0040736D01*
X0112194Y0042334D02*
X0118562Y0042334D01*
X0117163Y0043933D02*
X0112194Y0043933D01*
X0112194Y0045531D02*
X0116604Y0045531D01*
X0116610Y0047130D02*
X0112194Y0047130D01*
X0112194Y0048728D02*
X0117273Y0048728D01*
X0119150Y0050327D02*
X0112194Y0050327D01*
X0112194Y0051925D02*
X0119499Y0051925D01*
X0117373Y0053524D02*
X0112194Y0053524D01*
X0112194Y0055122D02*
X0116670Y0055122D01*
X0116604Y0056721D02*
X0112194Y0056721D01*
X0112194Y0058319D02*
X0117103Y0058319D01*
X0118418Y0059918D02*
X0112194Y0059918D01*
X0112194Y0061517D02*
X0141697Y0061517D01*
X0143296Y0063115D02*
X0129543Y0063115D01*
X0129760Y0063332D02*
X0129270Y0062842D01*
X0128710Y0062435D01*
X0128093Y0062121D01*
X0127434Y0061907D01*
X0126750Y0061799D01*
X0123804Y0061799D01*
X0123804Y0066198D01*
X0123804Y0066198D01*
X0123804Y0066199D01*
X0123804Y0070599D01*
X0120857Y0070599D01*
X0120173Y0070490D01*
X0119515Y0070276D01*
X0118898Y0069962D01*
X0118337Y0069555D01*
X0117848Y0069065D01*
X0117440Y0068505D01*
X0117126Y0067888D01*
X0116912Y0067229D01*
X0116804Y0066545D01*
X0116804Y0066199D01*
X0123804Y0066199D01*
X0123804Y0066198D02*
X0130804Y0066198D01*
X0130804Y0065852D01*
X0130695Y0065168D01*
X0130481Y0064510D01*
X0130167Y0063892D01*
X0129760Y0063332D01*
X0130548Y0064714D02*
X0144894Y0064714D01*
X0146493Y0066312D02*
X0130804Y0066312D01*
X0130470Y0067911D02*
X0148091Y0067911D01*
X0140099Y0059918D02*
X0129190Y0059918D01*
X0123804Y0061799D02*
X0123804Y0066198D01*
X0116804Y0066198D01*
X0116804Y0065852D01*
X0116912Y0065168D01*
X0117126Y0064510D01*
X0117440Y0063892D01*
X0117848Y0063332D01*
X0118337Y0062842D01*
X0118898Y0062435D01*
X0119515Y0062121D01*
X0120173Y0061907D01*
X0120857Y0061799D01*
X0123804Y0061799D01*
X0123804Y0063115D02*
X0123804Y0063115D01*
X0123804Y0064714D02*
X0123804Y0064714D01*
X0123804Y0066198D02*
X0123804Y0066199D01*
X0123804Y0066312D02*
X0123804Y0066312D01*
X0123804Y0067911D02*
X0123804Y0067911D01*
X0123804Y0069509D02*
X0123804Y0069509D01*
X0118292Y0069509D02*
X0112194Y0069509D01*
X0112194Y0067911D02*
X0117138Y0067911D01*
X0116804Y0066312D02*
X0112194Y0066312D01*
X0112194Y0064714D02*
X0117060Y0064714D01*
X0118065Y0063115D02*
X0112194Y0063115D01*
X0106594Y0063115D02*
X0099826Y0063115D01*
X0100303Y0063593D02*
X0099009Y0062299D01*
X0097319Y0061599D01*
X0090289Y0061599D01*
X0089148Y0062071D01*
X0088146Y0061069D01*
X0087358Y0060281D01*
X0086329Y0059855D01*
X0084012Y0059855D01*
X0083557Y0058757D01*
X0081954Y0057154D01*
X0079859Y0056286D01*
X0077591Y0056286D01*
X0075496Y0057154D01*
X0073893Y0058757D01*
X0073025Y0060852D01*
X0073025Y0063120D01*
X0073893Y0065215D01*
X0075496Y0066818D01*
X0076189Y0067105D01*
X0075842Y0067282D01*
X0075142Y0067791D01*
X0074530Y0068403D01*
X0074021Y0069103D01*
X0073628Y0069875D01*
X0073360Y0070698D01*
X0073225Y0071553D01*
X0073225Y0071786D01*
X0078525Y0071786D01*
X0078525Y0072186D01*
X0073225Y0072186D01*
X0073225Y0072419D01*
X0073360Y0073274D01*
X0073628Y0074097D01*
X0074021Y0074869D01*
X0074530Y0075569D01*
X0075142Y0076181D01*
X0075842Y0076690D01*
X0076189Y0076867D01*
X0075496Y0077154D01*
X0073893Y0078757D01*
X0073025Y0080852D01*
X0073025Y0083120D01*
X0073893Y0085215D01*
X0075496Y0086818D01*
X0077591Y0087686D01*
X0079859Y0087686D01*
X0081954Y0086818D01*
X0083557Y0085215D01*
X0084412Y0083150D01*
X0085390Y0082745D01*
X0086177Y0081958D01*
X0088317Y0079818D01*
X0088598Y0080098D01*
X0090289Y0080799D01*
X0097319Y0080799D01*
X0099009Y0080098D01*
X0100303Y0078804D01*
X0101004Y0077114D01*
X0101004Y0075284D01*
X0100303Y0073593D01*
X0099009Y0072299D01*
X0097319Y0071599D01*
X0090289Y0071599D01*
X0088598Y0072299D01*
X0087498Y0073399D01*
X0087420Y0073399D01*
X0086391Y0073825D01*
X0082644Y0077572D01*
X0082372Y0077572D01*
X0081954Y0077154D01*
X0081261Y0076867D01*
X0081608Y0076690D01*
X0082308Y0076181D01*
X0082920Y0075569D01*
X0083429Y0074869D01*
X0083822Y0074097D01*
X0084089Y0073274D01*
X0084225Y0072419D01*
X0084225Y0072186D01*
X0078925Y0072186D01*
X0078925Y0071786D01*
X0084225Y0071786D01*
X0084225Y0071553D01*
X0084089Y0070698D01*
X0083822Y0069875D01*
X0083429Y0069103D01*
X0082920Y0068403D01*
X0082308Y0067791D01*
X0081608Y0067282D01*
X0081261Y0067105D01*
X0081954Y0066818D01*
X0083317Y0065455D01*
X0084612Y0065455D01*
X0086839Y0067682D01*
X0087304Y0068804D01*
X0088598Y0070098D01*
X0090289Y0070799D01*
X0097319Y0070799D01*
X0099009Y0070098D01*
X0100303Y0068804D01*
X0101004Y0067114D01*
X0101004Y0065284D01*
X0100303Y0063593D01*
X0100768Y0064714D02*
X0106594Y0064714D01*
X0106594Y0066312D02*
X0101004Y0066312D01*
X0100674Y0067911D02*
X0106594Y0067911D01*
X0106594Y0069509D02*
X0099598Y0069509D01*
X0099417Y0072706D02*
X0106594Y0072706D01*
X0106594Y0071108D02*
X0084154Y0071108D01*
X0084179Y0072706D02*
X0088191Y0072706D01*
X0085911Y0074305D02*
X0083716Y0074305D01*
X0084313Y0075903D02*
X0082586Y0075903D01*
X0082714Y0077502D02*
X0082302Y0077502D01*
X0083804Y0080372D02*
X0080339Y0080372D01*
X0078725Y0081986D01*
X0083804Y0080372D02*
X0087977Y0076199D01*
X0093804Y0076199D01*
X0093804Y0081799D02*
X0090857Y0081799D01*
X0090173Y0081907D01*
X0089515Y0082121D01*
X0088898Y0082435D01*
X0088337Y0082842D01*
X0087848Y0083332D01*
X0087440Y0083892D01*
X0087126Y0084510D01*
X0086912Y0085168D01*
X0086804Y0085852D01*
X0086804Y0086198D01*
X0093804Y0086198D01*
X0093804Y0081799D01*
X0096750Y0081799D01*
X0097434Y0081907D01*
X0098093Y0082121D01*
X0098710Y0082435D01*
X0099270Y0082842D01*
X0099760Y0083332D01*
X0100167Y0083892D01*
X0100481Y0084510D01*
X0100695Y0085168D01*
X0100804Y0085852D01*
X0100804Y0086198D01*
X0093804Y0086198D01*
X0093804Y0086198D01*
X0093804Y0086199D01*
X0093804Y0086199D01*
X0093804Y0090599D01*
X0096750Y0090599D01*
X0097434Y0090490D01*
X0098093Y0090276D01*
X0098710Y0089962D01*
X0099270Y0089555D01*
X0099760Y0089065D01*
X0100167Y0088505D01*
X0100481Y0087888D01*
X0100695Y0087229D01*
X0100804Y0086545D01*
X0100804Y0086199D01*
X0093804Y0086199D01*
X0093804Y0090599D01*
X0090857Y0090599D01*
X0090173Y0090490D01*
X0089515Y0090276D01*
X0088898Y0089962D01*
X0088337Y0089555D01*
X0087848Y0089065D01*
X0087440Y0088505D01*
X0087126Y0087888D01*
X0086912Y0087229D01*
X0086804Y0086545D01*
X0086804Y0086199D01*
X0093804Y0086199D01*
X0093804Y0086198D01*
X0093804Y0081799D01*
X0093804Y0082297D02*
X0093804Y0082297D01*
X0093804Y0083896D02*
X0093804Y0083896D01*
X0093804Y0085494D02*
X0093804Y0085494D01*
X0093804Y0087093D02*
X0093804Y0087093D01*
X0093804Y0088691D02*
X0093804Y0088691D01*
X0093804Y0090290D02*
X0093804Y0090290D01*
X0090289Y0091599D02*
X0097319Y0091599D01*
X0099009Y0092299D01*
X0100303Y0093593D01*
X0101004Y0095284D01*
X0101004Y0097114D01*
X0100303Y0098804D01*
X0099009Y0100098D01*
X0097319Y0100799D01*
X0090289Y0100799D01*
X0088598Y0100098D01*
X0087498Y0098999D01*
X0071105Y0098999D01*
X0058618Y0111485D01*
X0057831Y0112273D01*
X0056802Y0112699D01*
X0019779Y0112699D01*
X0019699Y0112892D01*
X0018095Y0114495D01*
X0017690Y0114663D01*
X0018095Y0114831D01*
X0019699Y0116434D01*
X0019909Y0116942D01*
X0057053Y0116942D01*
X0070170Y0103825D01*
X0071199Y0103399D01*
X0087498Y0103399D01*
X0088598Y0102299D01*
X0090289Y0101599D01*
X0097319Y0101599D01*
X0099009Y0102299D01*
X0100303Y0103593D01*
X0101004Y0105284D01*
X0101004Y0107114D01*
X0100303Y0108804D01*
X0099009Y0110098D01*
X0097319Y0110799D01*
X0090289Y0110799D01*
X0088598Y0110098D01*
X0087498Y0108999D01*
X0072916Y0108999D01*
X0060587Y0121328D01*
X0059799Y0122116D01*
X0058770Y0122542D01*
X0019844Y0122542D01*
X0019699Y0122892D01*
X0018095Y0124495D01*
X0017690Y0124663D01*
X0018095Y0124831D01*
X0019699Y0126434D01*
X0019844Y0126784D01*
X0080424Y0126784D01*
X0081453Y0127211D01*
X0087569Y0133327D01*
X0088598Y0132299D01*
X0090289Y0131599D01*
X0097319Y0131599D01*
X0099009Y0132299D01*
X0100303Y0133593D01*
X0101004Y0135284D01*
X0101004Y0137114D01*
X0100303Y0138804D01*
X0099009Y0140098D01*
X0097319Y0140799D01*
X0090289Y0140799D01*
X0088598Y0140098D01*
X0087498Y0138999D01*
X0085924Y0138999D01*
X0084895Y0138572D01*
X0078707Y0132384D01*
X0019909Y0132384D01*
X0019699Y0132892D01*
X0018095Y0134495D01*
X0017690Y0134663D01*
X0018095Y0134831D01*
X0019699Y0136434D01*
X0019779Y0136627D01*
X0070581Y0136627D01*
X0071610Y0137053D01*
X0077956Y0143399D01*
X0087498Y0143399D01*
X0088598Y0142299D01*
X0090289Y0141599D01*
X0097319Y0141599D01*
X0099009Y0142299D01*
X0100303Y0143593D01*
X0101004Y0145284D01*
X0101004Y0147114D01*
X0100303Y0148804D01*
X0099009Y0150098D01*
X0097319Y0150799D01*
X0090289Y0150799D01*
X0088598Y0150098D01*
X0087498Y0148999D01*
X0076239Y0148999D01*
X0075210Y0148572D01*
X0068864Y0142227D01*
X0019974Y0142227D01*
X0019699Y0142892D01*
X0018095Y0144495D01*
X0016000Y0145363D01*
X0013733Y0145363D01*
X0011638Y0144495D01*
X0011001Y0143858D01*
X0011001Y0200419D01*
X0048562Y0200419D01*
X0047115Y0198972D01*
X0046232Y0196840D01*
X0046232Y0194533D01*
X0047115Y0192401D01*
X0048747Y0190770D01*
X0050878Y0189887D01*
X0053186Y0189887D01*
X0055317Y0190770D01*
X0056676Y0192128D01*
X0057187Y0191617D01*
X0058951Y0190887D01*
X0060861Y0190887D01*
X0062625Y0191617D01*
X0063843Y0192836D01*
X0064099Y0192580D01*
X0059022Y0187502D01*
X0045702Y0187502D01*
X0045096Y0188108D01*
X0043414Y0188805D01*
X0041594Y0188805D01*
X0039913Y0188108D01*
X0038626Y0186821D01*
X0038143Y0185655D01*
X0036870Y0185655D01*
X0035189Y0184959D01*
X0033902Y0183672D01*
X0033205Y0181990D01*
X0033205Y0180170D01*
X0033902Y0178489D01*
X0034460Y0177931D01*
X0033902Y0177373D01*
X0033205Y0175691D01*
X0033205Y0173871D01*
X0033902Y0172190D01*
X0035189Y0170903D01*
X0036870Y0170206D01*
X0038368Y0170206D01*
X0038450Y0169952D01*
X0038763Y0169339D01*
X0039168Y0168782D01*
X0039654Y0168295D01*
X0040212Y0167890D01*
X0040825Y0167577D01*
X0041480Y0167365D01*
X0042160Y0167257D01*
X0042504Y0167257D01*
X0042504Y0171631D01*
X0042505Y0171631D01*
X0042505Y0171632D02*
X0042505Y0171632D01*
X0046879Y0171632D01*
X0046879Y0171976D01*
X0046801Y0172470D01*
X0047539Y0171732D01*
X0047539Y0168608D01*
X0046558Y0167627D01*
X0046558Y0162408D01*
X0047730Y0161236D01*
X0052949Y0161236D01*
X0054120Y0162408D01*
X0054120Y0167627D01*
X0053139Y0168608D01*
X0053139Y0173448D01*
X0052713Y0174478D01*
X0051925Y0175265D01*
X0046886Y0180305D01*
X0046387Y0180511D01*
X0046383Y0180522D01*
X0045825Y0181080D01*
X0046383Y0181639D01*
X0046492Y0181902D01*
X0060739Y0181902D01*
X0061768Y0182329D01*
X0062555Y0183116D01*
X0070154Y0190715D01*
X0070548Y0191666D01*
X0071717Y0192836D01*
X0072935Y0191617D01*
X0073130Y0191537D01*
X0073130Y0187831D01*
X0067296Y0181997D01*
X0066870Y0180968D01*
X0066870Y0180494D01*
X0065070Y0178694D01*
X0065070Y0174884D01*
X0067764Y0172189D01*
X0071575Y0172189D01*
X0074270Y0174884D01*
X0074270Y0178694D01*
X0073091Y0179873D01*
X0075930Y0182711D01*
X0077631Y0181010D01*
X0078660Y0180584D01*
X0088327Y0180584D01*
X0088627Y0180284D01*
X0087032Y0180284D01*
X0085209Y0180284D01*
X0082632Y0177706D01*
X0082632Y0175884D01*
X0087032Y0175884D01*
X0087032Y0180284D01*
X0087032Y0175884D01*
X0087032Y0175884D01*
X0091432Y0175884D01*
X0091432Y0177706D01*
X0090355Y0178784D01*
X0093427Y0178784D01*
X0092432Y0177789D01*
X0092432Y0173978D01*
X0095127Y0171284D01*
X0098937Y0171284D01*
X0101632Y0173978D01*
X0101632Y0177789D01*
X0098937Y0180484D01*
X0095637Y0180484D01*
X0095737Y0180584D01*
X0101679Y0180584D01*
X0106594Y0175669D01*
X0106594Y0028634D01*
X0107020Y0027605D01*
X0110957Y0023668D01*
X0111745Y0022880D01*
X0112774Y0022454D01*
X0118443Y0022454D01*
X0118598Y0022299D01*
X0120289Y0021599D01*
X0127319Y0021599D01*
X0129009Y0022299D01*
X0130109Y0023399D01*
X0146329Y0023399D01*
X0147358Y0023825D01*
X0181846Y0058313D01*
X0182634Y0059101D01*
X0183060Y0060130D01*
X0183060Y0073306D01*
X0185357Y0075603D01*
X0194611Y0075603D01*
X0194838Y0075056D01*
X0196441Y0073453D01*
X0197134Y0073166D01*
X0196787Y0072989D01*
X0196087Y0072480D01*
X0195475Y0071868D01*
X0194966Y0071168D01*
X0194573Y0070396D01*
X0194305Y0069573D01*
X0194170Y0068718D01*
X0194170Y0068485D01*
X0199470Y0068485D01*
X0199470Y0068085D01*
X0199870Y0068085D01*
X0199870Y0062785D01*
X0200103Y0062785D01*
X0200958Y0062921D01*
X0201781Y0063188D01*
X0202552Y0063581D01*
X0203253Y0064090D01*
X0203851Y0064688D01*
X0203851Y0007569D01*
X0068766Y0007569D01*
X0071199Y0010002D01*
X0071199Y0013813D01*
X0069399Y0015613D01*
X0069399Y0019433D01*
X0068973Y0020462D01*
X0062656Y0026779D01*
X0062656Y0029324D01*
X0059961Y0032019D01*
X0056150Y0032019D01*
X0053456Y0029324D01*
X0053456Y0025514D01*
X0056150Y0022819D01*
X0058696Y0022819D01*
X0063799Y0017716D01*
X0063799Y0015613D01*
X0061999Y0013813D01*
X0061999Y0010002D01*
X0064432Y0007569D01*
X0028483Y0007569D01*
X0030999Y0010085D01*
X0030999Y0011907D01*
X0026599Y0011907D01*
X0026599Y0011907D01*
X0030999Y0011907D01*
X0030999Y0013730D01*
X0028421Y0016307D01*
X0026599Y0016307D01*
X0026599Y0011907D01*
X0026599Y0011907D01*
X0026599Y0016307D01*
X0024776Y0016307D01*
X0022929Y0014460D01*
X0022929Y0015128D01*
X0022061Y0017223D01*
X0020458Y0018826D01*
X0018363Y0019694D01*
X0016095Y0019694D01*
X0014000Y0018826D01*
X0012397Y0017223D01*
X0011529Y0015128D01*
X0011529Y0012860D01*
X0012397Y0010765D01*
X0014000Y0009162D01*
X0016095Y0008294D01*
X0018363Y0008294D01*
X0020458Y0009162D01*
X0022061Y0010765D01*
X0022199Y0011098D01*
X0022199Y0010085D01*
X0024715Y0007569D01*
X0011001Y0007569D01*
X0011001Y0065751D01*
X0011284Y0065468D01*
X0011984Y0064959D01*
X0012755Y0064566D01*
X0013579Y0064299D01*
X0014434Y0064163D01*
X0014667Y0064163D01*
X0014667Y0069463D01*
X0015067Y0069463D01*
X0015067Y0069863D01*
X0020367Y0069863D01*
X0020367Y0070096D01*
X0020231Y0070951D01*
X0019964Y0071774D01*
X0019571Y0072546D01*
X0019062Y0073246D01*
X0018450Y0073858D01*
X0017749Y0074367D01*
X0017402Y0074544D01*
X0018095Y0074831D01*
X0019699Y0076434D01*
X0020567Y0078529D01*
X0020567Y0080797D01*
X0019699Y0082892D01*
X0018095Y0084495D01*
X0017690Y0084663D01*
X0018095Y0084831D01*
X0019181Y0085916D01*
X0029823Y0075275D01*
X0029823Y0048319D01*
X0030249Y0047290D01*
X0040091Y0037447D01*
X0040879Y0036659D01*
X0041908Y0036233D01*
X0053456Y0036233D01*
X0053456Y0035514D01*
X0056150Y0032819D01*
X0059961Y0032819D01*
X0061761Y0034619D01*
X0066998Y0034619D01*
X0068028Y0035045D01*
X0075121Y0042139D01*
X0088985Y0042139D01*
X0090289Y0041599D01*
X0097319Y0041599D01*
X0099009Y0042299D01*
X0100303Y0043593D01*
X0101004Y0045284D01*
X0101004Y0047114D01*
X0100303Y0048804D01*
X0099009Y0050098D01*
X0097319Y0050799D01*
X0090289Y0050799D01*
X0088598Y0050098D01*
X0087304Y0048804D01*
X0086863Y0047739D01*
X0073404Y0047739D01*
X0072375Y0047312D01*
X0071587Y0046525D01*
X0065282Y0040219D01*
X0061761Y0040219D01*
X0059961Y0042019D01*
X0056150Y0042019D01*
X0055964Y0041833D01*
X0043625Y0041833D01*
X0035423Y0050035D01*
X0035423Y0076992D01*
X0034996Y0078021D01*
X0034209Y0078808D01*
X0020980Y0092037D01*
X0019951Y0092463D01*
X0019876Y0092463D01*
X0019699Y0092892D01*
X0018095Y0094495D01*
X0017690Y0094663D01*
X0018095Y0094831D01*
X0019699Y0096434D01*
X0019876Y0096863D01*
X0020045Y0096863D01*
X0039665Y0077243D01*
X0039665Y0058161D01*
X0040091Y0057132D01*
X0045997Y0051227D01*
X0046785Y0050439D01*
X0047814Y0050013D01*
X0057117Y0050013D01*
X0057117Y0049608D01*
X0059812Y0046913D01*
X0063622Y0046913D01*
X0064753Y0048044D01*
X0072550Y0048044D01*
X0073579Y0048470D01*
X0074366Y0049258D01*
X0075121Y0050013D01*
X0086329Y0050013D01*
X0087358Y0050439D01*
X0088146Y0051227D01*
X0089036Y0052117D01*
X0090289Y0051599D01*
X0097319Y0051599D01*
X0099009Y0052299D01*
X0100303Y0053593D01*
X0101004Y0055284D01*
X0101004Y0057114D01*
X0100303Y0058804D01*
X0099009Y0060098D01*
X0097319Y0060799D01*
X0090289Y0060799D01*
X0088598Y0060098D01*
X0087304Y0058804D01*
X0086950Y0057951D01*
X0084612Y0055613D01*
X0073404Y0055613D01*
X0072375Y0055186D01*
X0070833Y0053644D01*
X0066092Y0053644D01*
X0063622Y0056113D01*
X0059812Y0056113D01*
X0059311Y0055613D01*
X0049530Y0055613D01*
X0045265Y0059878D01*
X0045265Y0078960D01*
X0044839Y0079989D01*
X0044051Y0080777D01*
X0022791Y0102037D01*
X0021762Y0102463D01*
X0019876Y0102463D01*
X0019699Y0102892D01*
X0018095Y0104495D01*
X0017690Y0104663D01*
X0018095Y0104831D01*
X0019699Y0106434D01*
X0019974Y0107099D01*
X0055085Y0107099D01*
X0068359Y0093825D01*
X0069388Y0093399D01*
X0087498Y0093399D01*
X0088598Y0092299D01*
X0090289Y0091599D01*
X0089589Y0091888D02*
X0066317Y0091888D01*
X0066317Y0093419D02*
X0066317Y0089608D01*
X0063622Y0086913D01*
X0059812Y0086913D01*
X0057117Y0089608D01*
X0057117Y0093419D01*
X0059812Y0096113D01*
X0063622Y0096113D01*
X0066317Y0093419D01*
X0066249Y0093487D02*
X0069175Y0093487D01*
X0067099Y0095085D02*
X0064651Y0095085D01*
X0065500Y0096684D02*
X0028144Y0096684D01*
X0026546Y0098282D02*
X0063902Y0098282D01*
X0062303Y0099881D02*
X0024947Y0099881D01*
X0023349Y0101479D02*
X0060705Y0101479D01*
X0059106Y0103078D02*
X0019513Y0103078D01*
X0017722Y0104676D02*
X0057508Y0104676D01*
X0055909Y0106275D02*
X0019539Y0106275D01*
X0015103Y0109899D02*
X0014867Y0109663D01*
X0015103Y0109899D02*
X0056245Y0109899D01*
X0069945Y0096199D01*
X0093804Y0096199D01*
X0098018Y0091888D02*
X0106594Y0091888D01*
X0106594Y0090290D02*
X0098051Y0090290D01*
X0100031Y0088691D02*
X0106594Y0088691D01*
X0106594Y0087093D02*
X0100717Y0087093D01*
X0100747Y0085494D02*
X0106594Y0085494D01*
X0106594Y0083896D02*
X0100169Y0083896D01*
X0098439Y0082297D02*
X0106594Y0082297D01*
X0106594Y0080699D02*
X0097560Y0080699D01*
X0100007Y0079100D02*
X0106594Y0079100D01*
X0106594Y0077502D02*
X0100843Y0077502D01*
X0101004Y0075903D02*
X0106594Y0075903D01*
X0106594Y0074305D02*
X0100598Y0074305D01*
X0093804Y0066199D02*
X0089315Y0066199D01*
X0085772Y0062655D01*
X0079394Y0062655D01*
X0078725Y0061986D01*
X0073412Y0059918D02*
X0045265Y0059918D01*
X0045265Y0061517D02*
X0073025Y0061517D01*
X0073025Y0063115D02*
X0045265Y0063115D01*
X0045265Y0064714D02*
X0073685Y0064714D01*
X0074990Y0066312D02*
X0045265Y0066312D01*
X0045265Y0067911D02*
X0075022Y0067911D01*
X0073814Y0069509D02*
X0045265Y0069509D01*
X0045265Y0071108D02*
X0073295Y0071108D01*
X0073270Y0072706D02*
X0045265Y0072706D01*
X0045265Y0074305D02*
X0073734Y0074305D01*
X0074864Y0075903D02*
X0045265Y0075903D01*
X0045265Y0077502D02*
X0075148Y0077502D01*
X0073751Y0079100D02*
X0045207Y0079100D01*
X0044129Y0080699D02*
X0073088Y0080699D01*
X0073025Y0082297D02*
X0042531Y0082297D01*
X0040932Y0083896D02*
X0073346Y0083896D01*
X0074172Y0085494D02*
X0039334Y0085494D01*
X0037735Y0087093D02*
X0059632Y0087093D01*
X0058034Y0088691D02*
X0036137Y0088691D01*
X0034538Y0090290D02*
X0057117Y0090290D01*
X0057117Y0091888D02*
X0032940Y0091888D01*
X0031341Y0093487D02*
X0057185Y0093487D01*
X0058783Y0095085D02*
X0029743Y0095085D01*
X0025020Y0091888D02*
X0021129Y0091888D01*
X0022727Y0090290D02*
X0026619Y0090290D01*
X0028217Y0088691D02*
X0024326Y0088691D01*
X0025924Y0087093D02*
X0029816Y0087093D01*
X0031414Y0085494D02*
X0027523Y0085494D01*
X0029121Y0083896D02*
X0033013Y0083896D01*
X0034611Y0082297D02*
X0030720Y0082297D01*
X0032318Y0080699D02*
X0036210Y0080699D01*
X0037808Y0079100D02*
X0033917Y0079100D01*
X0035211Y0077502D02*
X0039407Y0077502D01*
X0039665Y0075903D02*
X0035423Y0075903D01*
X0035423Y0074305D02*
X0039665Y0074305D01*
X0039665Y0072706D02*
X0035423Y0072706D01*
X0035423Y0071108D02*
X0039665Y0071108D01*
X0039665Y0069509D02*
X0035423Y0069509D01*
X0035423Y0067911D02*
X0039665Y0067911D01*
X0039665Y0066312D02*
X0035423Y0066312D01*
X0035423Y0064714D02*
X0039665Y0064714D01*
X0039665Y0063115D02*
X0035423Y0063115D01*
X0035423Y0061517D02*
X0039665Y0061517D01*
X0039665Y0059918D02*
X0035423Y0059918D01*
X0035423Y0058319D02*
X0039665Y0058319D01*
X0040503Y0056721D02*
X0035423Y0056721D01*
X0035423Y0055122D02*
X0042101Y0055122D01*
X0043700Y0053524D02*
X0035423Y0053524D01*
X0035423Y0051925D02*
X0045298Y0051925D01*
X0047055Y0050327D02*
X0035423Y0050327D01*
X0036730Y0048728D02*
X0057997Y0048728D01*
X0059595Y0047130D02*
X0038328Y0047130D01*
X0039927Y0045531D02*
X0070594Y0045531D01*
X0071587Y0046525D02*
X0071587Y0046525D01*
X0072193Y0047130D02*
X0063839Y0047130D01*
X0062386Y0050844D02*
X0061717Y0051513D01*
X0060418Y0052813D01*
X0048371Y0052813D01*
X0042465Y0058718D01*
X0042465Y0078403D01*
X0021205Y0099663D01*
X0014867Y0099663D01*
X0018350Y0095085D02*
X0021823Y0095085D01*
X0020225Y0096684D02*
X0019802Y0096684D01*
X0019104Y0093487D02*
X0023422Y0093487D01*
X0019394Y0089663D02*
X0032623Y0076435D01*
X0032623Y0048876D01*
X0042465Y0039033D01*
X0056441Y0039033D01*
X0058056Y0037419D01*
X0066441Y0037419D01*
X0073961Y0044939D01*
X0092544Y0044939D01*
X0093804Y0046199D01*
X0098457Y0050327D02*
X0106594Y0050327D01*
X0106594Y0051925D02*
X0098108Y0051925D01*
X0100234Y0053524D02*
X0106594Y0053524D01*
X0106594Y0055122D02*
X0100937Y0055122D01*
X0101004Y0056721D02*
X0106594Y0056721D01*
X0106594Y0058319D02*
X0100504Y0058319D01*
X0099190Y0059918D02*
X0106594Y0059918D01*
X0106594Y0061517D02*
X0088593Y0061517D01*
X0088418Y0059918D02*
X0086481Y0059918D01*
X0087103Y0058319D02*
X0083120Y0058319D01*
X0080909Y0056721D02*
X0085721Y0056721D01*
X0089158Y0056199D02*
X0085772Y0052813D01*
X0073961Y0052813D01*
X0071993Y0050844D01*
X0062386Y0050844D01*
X0064613Y0055122D02*
X0072311Y0055122D01*
X0074330Y0058319D02*
X0046824Y0058319D01*
X0048422Y0056721D02*
X0076541Y0056721D01*
X0073837Y0048728D02*
X0087273Y0048728D01*
X0087088Y0050327D02*
X0089150Y0050327D01*
X0088845Y0051925D02*
X0089499Y0051925D01*
X0089158Y0056199D02*
X0093804Y0056199D01*
X0100335Y0048728D02*
X0106594Y0048728D01*
X0106594Y0047130D02*
X0100997Y0047130D01*
X0101004Y0045531D02*
X0106594Y0045531D01*
X0106594Y0043933D02*
X0100444Y0043933D01*
X0099045Y0042334D02*
X0106594Y0042334D01*
X0106594Y0040736D02*
X0097470Y0040736D01*
X0097319Y0040799D02*
X0099009Y0040098D01*
X0100303Y0038804D01*
X0101004Y0037114D01*
X0101004Y0035284D01*
X0100303Y0033593D01*
X0099009Y0032299D01*
X0097319Y0031599D01*
X0090289Y0031599D01*
X0088598Y0032299D01*
X0087304Y0033593D01*
X0086604Y0035284D01*
X0086604Y0037114D01*
X0087304Y0038804D01*
X0088598Y0040098D01*
X0090289Y0040799D01*
X0097319Y0040799D01*
X0099970Y0039137D02*
X0106594Y0039137D01*
X0106594Y0037539D02*
X0100827Y0037539D01*
X0101004Y0035940D02*
X0106594Y0035940D01*
X0106594Y0034342D02*
X0100614Y0034342D01*
X0099454Y0032743D02*
X0106594Y0032743D01*
X0106594Y0031145D02*
X0080531Y0031145D01*
X0079922Y0030536D02*
X0082616Y0033230D01*
X0082616Y0037041D01*
X0079922Y0039736D01*
X0076111Y0039736D01*
X0073416Y0037041D01*
X0073416Y0033230D01*
X0076111Y0030536D01*
X0079922Y0030536D01*
X0079839Y0029536D02*
X0078016Y0029536D01*
X0076194Y0029536D01*
X0073616Y0026958D01*
X0073616Y0025136D01*
X0078016Y0025136D01*
X0078016Y0029536D01*
X0078016Y0025136D01*
X0078016Y0025136D01*
X0078016Y0025135D01*
X0078016Y0025135D01*
X0078016Y0020736D01*
X0076194Y0020736D01*
X0073616Y0023313D01*
X0073616Y0025135D01*
X0078016Y0025135D01*
X0078016Y0020736D01*
X0079839Y0020736D01*
X0082416Y0023313D01*
X0082416Y0025135D01*
X0078016Y0025135D01*
X0078016Y0025136D01*
X0082416Y0025136D01*
X0082416Y0026958D01*
X0079839Y0029536D01*
X0081427Y0027948D02*
X0086949Y0027948D01*
X0086604Y0027114D02*
X0087304Y0028804D01*
X0088598Y0030098D01*
X0090289Y0030799D01*
X0097319Y0030799D01*
X0099009Y0030098D01*
X0100303Y0028804D01*
X0101004Y0027114D01*
X0101004Y0025284D01*
X0100303Y0023593D01*
X0099009Y0022299D01*
X0097319Y0021599D01*
X0090289Y0021599D01*
X0088598Y0022299D01*
X0087304Y0023593D01*
X0086604Y0025284D01*
X0086604Y0027114D01*
X0086604Y0026349D02*
X0082416Y0026349D01*
X0082416Y0024751D02*
X0086824Y0024751D01*
X0087745Y0023152D02*
X0082255Y0023152D01*
X0080657Y0021554D02*
X0203851Y0021554D01*
X0203851Y0023152D02*
X0129863Y0023152D01*
X0123804Y0026199D02*
X0122859Y0025254D01*
X0113331Y0025254D01*
X0109394Y0029191D01*
X0109394Y0176828D01*
X0102839Y0183384D01*
X0092032Y0183384D01*
X0079217Y0183384D01*
X0075930Y0186671D01*
X0075930Y0195411D01*
X0075654Y0195687D01*
X0071958Y0192594D02*
X0071476Y0192594D01*
X0070270Y0190996D02*
X0073130Y0190996D01*
X0073130Y0189397D02*
X0068836Y0189397D01*
X0067238Y0187799D02*
X0073098Y0187799D01*
X0071499Y0186200D02*
X0065639Y0186200D01*
X0064041Y0184602D02*
X0069901Y0184602D01*
X0068302Y0183003D02*
X0062442Y0183003D01*
X0066182Y0179806D02*
X0047384Y0179806D01*
X0046149Y0181405D02*
X0067051Y0181405D01*
X0069670Y0180411D02*
X0075930Y0186671D01*
X0078762Y0187799D02*
X0089942Y0187799D01*
X0088343Y0186200D02*
X0080360Y0186200D01*
X0078730Y0189397D02*
X0135720Y0189397D01*
X0136122Y0189799D02*
X0134737Y0188415D01*
X0134311Y0187385D01*
X0134311Y0184707D01*
X0132511Y0182907D01*
X0132511Y0179096D01*
X0135205Y0176402D01*
X0139016Y0176402D01*
X0141711Y0179096D01*
X0141711Y0182907D01*
X0139911Y0184707D01*
X0139911Y0185669D01*
X0140508Y0186266D01*
X0141295Y0187053D01*
X0141722Y0188083D01*
X0141722Y0191351D01*
X0143049Y0192679D01*
X0143049Y0196490D01*
X0140355Y0199184D01*
X0136544Y0199184D01*
X0133849Y0196490D01*
X0133849Y0192679D01*
X0136122Y0190407D01*
X0136122Y0189799D01*
X0135532Y0190996D02*
X0101083Y0190996D01*
X0100272Y0190184D02*
X0102849Y0192762D01*
X0102849Y0194584D01*
X0098449Y0194584D01*
X0098449Y0194584D01*
X0098449Y0190184D01*
X0096627Y0190184D01*
X0094049Y0192762D01*
X0094049Y0194584D01*
X0098449Y0194584D01*
X0098449Y0194584D01*
X0098449Y0190184D01*
X0100272Y0190184D01*
X0098449Y0190996D02*
X0098449Y0190996D01*
X0098449Y0192594D02*
X0098449Y0192594D01*
X0098449Y0194193D02*
X0098449Y0194193D01*
X0098449Y0194584D02*
X0098449Y0194584D01*
X0094049Y0194584D01*
X0094049Y0196407D01*
X0096627Y0198984D01*
X0098449Y0198984D01*
X0098449Y0194584D01*
X0098449Y0194584D01*
X0102849Y0194584D01*
X0102849Y0196407D01*
X0100272Y0198984D01*
X0098449Y0198984D01*
X0098449Y0194584D01*
X0098449Y0195791D02*
X0098449Y0195791D01*
X0098449Y0197390D02*
X0098449Y0197390D01*
X0095032Y0197390D02*
X0089100Y0197390D01*
X0089328Y0195791D02*
X0094049Y0195791D01*
X0094049Y0194193D02*
X0089187Y0194193D01*
X0088525Y0192594D02*
X0094217Y0192594D01*
X0095815Y0190996D02*
X0087040Y0190996D01*
X0080016Y0190996D02*
X0078730Y0190996D01*
X0077236Y0181405D02*
X0074623Y0181405D01*
X0073158Y0179806D02*
X0084732Y0179806D01*
X0083134Y0178208D02*
X0074270Y0178208D01*
X0074270Y0176609D02*
X0082632Y0176609D01*
X0082632Y0175884D02*
X0082632Y0174061D01*
X0085209Y0171484D01*
X0087032Y0171484D01*
X0088855Y0171484D01*
X0091432Y0174061D01*
X0091432Y0175884D01*
X0087032Y0175884D01*
X0087032Y0175884D01*
X0087032Y0175884D01*
X0082632Y0175884D01*
X0082632Y0175011D02*
X0074270Y0175011D01*
X0072798Y0173412D02*
X0083281Y0173412D01*
X0084879Y0171814D02*
X0053139Y0171814D01*
X0053139Y0173412D02*
X0066541Y0173412D01*
X0065070Y0175011D02*
X0052180Y0175011D01*
X0050581Y0176609D02*
X0065070Y0176609D01*
X0065070Y0178208D02*
X0048982Y0178208D01*
X0045300Y0177931D02*
X0050339Y0172891D01*
X0050339Y0165017D01*
X0046558Y0165420D02*
X0029893Y0165420D01*
X0030036Y0165075D02*
X0028877Y0167872D01*
X0026737Y0170012D01*
X0023939Y0171171D01*
X0020912Y0171171D01*
X0018115Y0170012D01*
X0015974Y0167872D01*
X0014815Y0165075D01*
X0014815Y0162047D01*
X0015974Y0159250D01*
X0018115Y0157109D01*
X0020912Y0155951D01*
X0023939Y0155951D01*
X0026737Y0157109D01*
X0028877Y0159250D01*
X0030036Y0162047D01*
X0030036Y0165075D01*
X0030036Y0163821D02*
X0046558Y0163821D01*
X0046743Y0162223D02*
X0030036Y0162223D01*
X0029447Y0160624D02*
X0089868Y0160624D01*
X0090289Y0160799D02*
X0088598Y0160098D01*
X0087498Y0158999D01*
X0072459Y0158999D01*
X0071430Y0158572D01*
X0070407Y0157549D01*
X0069619Y0156761D01*
X0069193Y0155732D01*
X0069193Y0155405D01*
X0068631Y0155405D01*
X0065936Y0152710D01*
X0065936Y0148899D01*
X0068631Y0146205D01*
X0072441Y0146205D01*
X0075136Y0148899D01*
X0075136Y0152710D01*
X0074793Y0153054D01*
X0074793Y0153399D01*
X0087498Y0153399D01*
X0088598Y0152299D01*
X0090289Y0151599D01*
X0097319Y0151599D01*
X0099009Y0152299D01*
X0100303Y0153593D01*
X0101004Y0155284D01*
X0101004Y0157114D01*
X0100303Y0158804D01*
X0099009Y0160098D01*
X0097319Y0160799D01*
X0090289Y0160799D01*
X0087525Y0159026D02*
X0028653Y0159026D01*
X0027055Y0157427D02*
X0070285Y0157427D01*
X0069233Y0155829D02*
X0011001Y0155829D01*
X0011001Y0157427D02*
X0017797Y0157427D01*
X0016198Y0159026D02*
X0011001Y0159026D01*
X0011001Y0160624D02*
X0015405Y0160624D01*
X0014815Y0162223D02*
X0011001Y0162223D01*
X0011001Y0163821D02*
X0014815Y0163821D01*
X0014958Y0165420D02*
X0011001Y0165420D01*
X0011001Y0167018D02*
X0015621Y0167018D01*
X0016719Y0168617D02*
X0011001Y0168617D01*
X0011001Y0170215D02*
X0018605Y0170215D01*
X0011001Y0171814D02*
X0034278Y0171814D01*
X0033395Y0173412D02*
X0011001Y0173412D01*
X0011001Y0175011D02*
X0033205Y0175011D01*
X0033586Y0176609D02*
X0011001Y0176609D01*
X0011001Y0178208D02*
X0034183Y0178208D01*
X0033356Y0179806D02*
X0011001Y0179806D01*
X0011001Y0181405D02*
X0033205Y0181405D01*
X0033625Y0183003D02*
X0011001Y0183003D01*
X0011001Y0184602D02*
X0034832Y0184602D01*
X0038369Y0186200D02*
X0027088Y0186200D01*
X0026737Y0185849D02*
X0028877Y0187990D01*
X0030036Y0190787D01*
X0030036Y0193815D01*
X0028877Y0196612D01*
X0026737Y0198753D01*
X0023939Y0199911D01*
X0020912Y0199911D01*
X0018115Y0198753D01*
X0015974Y0196612D01*
X0014815Y0193815D01*
X0014815Y0190787D01*
X0015974Y0187990D01*
X0018115Y0185849D01*
X0020912Y0184691D01*
X0023939Y0184691D01*
X0026737Y0185849D01*
X0028686Y0187799D02*
X0039604Y0187799D01*
X0042977Y0184702D02*
X0042504Y0184230D01*
X0042977Y0184702D02*
X0060182Y0184702D01*
X0067780Y0192301D01*
X0067780Y0195687D01*
X0064084Y0192594D02*
X0063602Y0192594D01*
X0062515Y0190996D02*
X0061124Y0190996D01*
X0060917Y0189397D02*
X0029460Y0189397D01*
X0030036Y0190996D02*
X0048520Y0190996D01*
X0047035Y0192594D02*
X0030036Y0192594D01*
X0029879Y0194193D02*
X0046373Y0194193D01*
X0046232Y0195791D02*
X0029217Y0195791D01*
X0028099Y0197390D02*
X0046460Y0197390D01*
X0047131Y0198988D02*
X0026167Y0198988D01*
X0018684Y0198988D02*
X0011001Y0198988D01*
X0011001Y0197390D02*
X0016752Y0197390D01*
X0015634Y0195791D02*
X0011001Y0195791D01*
X0011001Y0194193D02*
X0014972Y0194193D01*
X0014815Y0192594D02*
X0011001Y0192594D01*
X0011001Y0190996D02*
X0014815Y0190996D01*
X0015391Y0189397D02*
X0011001Y0189397D01*
X0011001Y0187799D02*
X0016165Y0187799D01*
X0017764Y0186200D02*
X0011001Y0186200D01*
X0026247Y0170215D02*
X0036849Y0170215D01*
X0039332Y0168617D02*
X0028132Y0168617D01*
X0029231Y0167018D02*
X0046558Y0167018D01*
X0045354Y0168295D02*
X0045841Y0168782D01*
X0046246Y0169339D01*
X0046559Y0169952D01*
X0046772Y0170607D01*
X0046879Y0171287D01*
X0046879Y0171632D01*
X0042505Y0171632D01*
X0042505Y0171631D02*
X0042505Y0167257D01*
X0042849Y0167257D01*
X0043529Y0167365D01*
X0044184Y0167577D01*
X0044797Y0167890D01*
X0045354Y0168295D01*
X0045677Y0168617D02*
X0047539Y0168617D01*
X0047539Y0170215D02*
X0046644Y0170215D01*
X0046879Y0171814D02*
X0047457Y0171814D01*
X0053139Y0170215D02*
X0066873Y0170215D01*
X0067847Y0171189D02*
X0065270Y0168612D01*
X0065270Y0166789D01*
X0065270Y0164967D01*
X0067847Y0162389D01*
X0069670Y0162389D01*
X0071492Y0162389D01*
X0074070Y0164967D01*
X0074070Y0166789D01*
X0069670Y0166789D01*
X0069670Y0166789D01*
X0074070Y0166789D01*
X0074070Y0168612D01*
X0071492Y0171189D01*
X0069670Y0171189D01*
X0069670Y0166789D01*
X0069670Y0162389D01*
X0069670Y0166789D01*
X0069670Y0166789D01*
X0069670Y0166789D01*
X0065270Y0166789D01*
X0069670Y0166789D01*
X0069670Y0166789D01*
X0069670Y0171189D01*
X0067847Y0171189D01*
X0069670Y0170215D02*
X0069670Y0170215D01*
X0069670Y0168617D02*
X0069670Y0168617D01*
X0069670Y0167018D02*
X0069670Y0167018D01*
X0069670Y0165420D02*
X0069670Y0165420D01*
X0069670Y0163821D02*
X0069670Y0163821D01*
X0072924Y0163821D02*
X0106594Y0163821D01*
X0106594Y0162223D02*
X0053935Y0162223D01*
X0054120Y0163821D02*
X0066415Y0163821D01*
X0065270Y0165420D02*
X0054120Y0165420D01*
X0054120Y0167018D02*
X0065270Y0167018D01*
X0065275Y0168617D02*
X0053139Y0168617D01*
X0045300Y0177931D02*
X0042504Y0177931D01*
X0042504Y0170215D02*
X0042505Y0170215D01*
X0042504Y0168617D02*
X0042505Y0168617D01*
X0032441Y0155405D02*
X0028631Y0155405D01*
X0025936Y0152710D01*
X0025936Y0148899D01*
X0028631Y0146205D01*
X0032441Y0146205D01*
X0035136Y0148899D01*
X0035136Y0152710D01*
X0032441Y0155405D01*
X0033616Y0154230D02*
X0067456Y0154230D01*
X0065936Y0152632D02*
X0035136Y0152632D01*
X0035136Y0151033D02*
X0065936Y0151033D01*
X0065936Y0149435D02*
X0035136Y0149435D01*
X0034073Y0147836D02*
X0066999Y0147836D01*
X0068598Y0146238D02*
X0032474Y0146238D01*
X0028598Y0146238D02*
X0011001Y0146238D01*
X0011001Y0147836D02*
X0026999Y0147836D01*
X0025936Y0149435D02*
X0011001Y0149435D01*
X0011001Y0151033D02*
X0025936Y0151033D01*
X0025936Y0152632D02*
X0011001Y0152632D01*
X0011001Y0154230D02*
X0027456Y0154230D01*
X0017748Y0144639D02*
X0071277Y0144639D01*
X0072474Y0146238D02*
X0072875Y0146238D01*
X0074073Y0147836D02*
X0074474Y0147836D01*
X0075136Y0149435D02*
X0087934Y0149435D01*
X0088265Y0152632D02*
X0075136Y0152632D01*
X0075136Y0151033D02*
X0106594Y0151033D01*
X0106594Y0149435D02*
X0099673Y0149435D01*
X0100704Y0147836D02*
X0106594Y0147836D01*
X0106594Y0146238D02*
X0101004Y0146238D01*
X0100737Y0144639D02*
X0106594Y0144639D01*
X0106594Y0143041D02*
X0099751Y0143041D01*
X0099264Y0139844D02*
X0106594Y0139844D01*
X0106594Y0141442D02*
X0075999Y0141442D01*
X0074401Y0139844D02*
X0088343Y0139844D01*
X0087856Y0143041D02*
X0077598Y0143041D01*
X0076796Y0146199D02*
X0070024Y0139427D01*
X0015103Y0139427D01*
X0014867Y0139663D01*
X0011985Y0144639D02*
X0011001Y0144639D01*
X0019550Y0143041D02*
X0069678Y0143041D01*
X0072802Y0138245D02*
X0084568Y0138245D01*
X0082969Y0136647D02*
X0070629Y0136647D01*
X0079772Y0133450D02*
X0019141Y0133450D01*
X0018313Y0135048D02*
X0081371Y0135048D01*
X0086481Y0136199D02*
X0079867Y0129584D01*
X0014945Y0129584D01*
X0014867Y0129663D01*
X0018722Y0125457D02*
X0086604Y0125457D01*
X0086604Y0125284D02*
X0087304Y0123593D01*
X0088598Y0122299D01*
X0090289Y0121599D01*
X0097319Y0121599D01*
X0099009Y0122299D01*
X0100303Y0123593D01*
X0101004Y0125284D01*
X0101004Y0127114D01*
X0100303Y0128804D01*
X0099009Y0130098D01*
X0097319Y0130799D01*
X0090289Y0130799D01*
X0088598Y0130098D01*
X0087304Y0128804D01*
X0086604Y0127114D01*
X0086604Y0125284D01*
X0087194Y0123858D02*
X0018732Y0123858D01*
X0014945Y0119742D02*
X0014867Y0119663D01*
X0014945Y0119742D02*
X0058213Y0119742D01*
X0071756Y0106199D01*
X0093804Y0106199D01*
X0090289Y0111599D02*
X0097319Y0111599D01*
X0099009Y0112299D01*
X0100303Y0113593D01*
X0101004Y0115284D01*
X0101004Y0117114D01*
X0100303Y0118804D01*
X0099009Y0120098D01*
X0097319Y0120799D01*
X0090289Y0120799D01*
X0088598Y0120098D01*
X0087304Y0118804D01*
X0086604Y0117114D01*
X0086604Y0115284D01*
X0087304Y0113593D01*
X0088598Y0112299D01*
X0090289Y0111599D01*
X0088228Y0112669D02*
X0069246Y0112669D01*
X0070844Y0111070D02*
X0106594Y0111070D01*
X0106594Y0109472D02*
X0099636Y0109472D01*
X0100689Y0107873D02*
X0106594Y0107873D01*
X0106594Y0106275D02*
X0101004Y0106275D01*
X0100752Y0104676D02*
X0106594Y0104676D01*
X0106594Y0103078D02*
X0099788Y0103078D01*
X0099227Y0099881D02*
X0106594Y0099881D01*
X0106594Y0101479D02*
X0068624Y0101479D01*
X0067026Y0103078D02*
X0087819Y0103078D01*
X0088381Y0099881D02*
X0070223Y0099881D01*
X0069319Y0104676D02*
X0065427Y0104676D01*
X0063829Y0106275D02*
X0067720Y0106275D01*
X0066122Y0107873D02*
X0062230Y0107873D01*
X0060632Y0109472D02*
X0064523Y0109472D01*
X0062925Y0111070D02*
X0059033Y0111070D01*
X0056875Y0112669D02*
X0061326Y0112669D01*
X0059728Y0114267D02*
X0018323Y0114267D01*
X0019130Y0115866D02*
X0058129Y0115866D01*
X0062852Y0119063D02*
X0087563Y0119063D01*
X0086749Y0117464D02*
X0064450Y0117464D01*
X0066049Y0115866D02*
X0086604Y0115866D01*
X0087025Y0114267D02*
X0067647Y0114267D01*
X0072443Y0109472D02*
X0087972Y0109472D01*
X0089958Y0120661D02*
X0061253Y0120661D01*
X0059451Y0122260D02*
X0088692Y0122260D01*
X0086604Y0127055D02*
X0081078Y0127055D01*
X0082896Y0128654D02*
X0087242Y0128654D01*
X0088970Y0130252D02*
X0084495Y0130252D01*
X0086093Y0131851D02*
X0089679Y0131851D01*
X0086481Y0136199D02*
X0093804Y0136199D01*
X0097928Y0131851D02*
X0106594Y0131851D01*
X0106594Y0130252D02*
X0098637Y0130252D01*
X0100366Y0128654D02*
X0106594Y0128654D01*
X0106594Y0127055D02*
X0101004Y0127055D01*
X0101004Y0125457D02*
X0106594Y0125457D01*
X0106594Y0123858D02*
X0100413Y0123858D01*
X0098915Y0122260D02*
X0106594Y0122260D01*
X0106594Y0120661D02*
X0097650Y0120661D01*
X0100045Y0119063D02*
X0106594Y0119063D01*
X0106594Y0117464D02*
X0100858Y0117464D01*
X0101004Y0115866D02*
X0106594Y0115866D01*
X0106594Y0114267D02*
X0100583Y0114267D01*
X0099379Y0112669D02*
X0106594Y0112669D01*
X0112194Y0109472D02*
X0117972Y0109472D01*
X0116918Y0107873D02*
X0112194Y0107873D01*
X0112194Y0106275D02*
X0116604Y0106275D01*
X0116855Y0104676D02*
X0112194Y0104676D01*
X0112194Y0103078D02*
X0117819Y0103078D01*
X0106594Y0098282D02*
X0100520Y0098282D01*
X0101004Y0096684D02*
X0106594Y0096684D01*
X0106594Y0095085D02*
X0100922Y0095085D01*
X0100197Y0093487D02*
X0106594Y0093487D01*
X0089556Y0090290D02*
X0066317Y0090290D01*
X0065400Y0088691D02*
X0087576Y0088691D01*
X0086890Y0087093D02*
X0081291Y0087093D01*
X0083278Y0085494D02*
X0086860Y0085494D01*
X0087439Y0083896D02*
X0084104Y0083896D01*
X0085838Y0082297D02*
X0089169Y0082297D01*
X0090048Y0080699D02*
X0087437Y0080699D01*
X0088009Y0069509D02*
X0083636Y0069509D01*
X0082428Y0067911D02*
X0086934Y0067911D01*
X0085469Y0066312D02*
X0082460Y0066312D01*
X0076159Y0087093D02*
X0063802Y0087093D01*
X0029823Y0074305D02*
X0017835Y0074305D01*
X0019168Y0075903D02*
X0029194Y0075903D01*
X0027596Y0077502D02*
X0020141Y0077502D01*
X0020567Y0079100D02*
X0025997Y0079100D01*
X0024399Y0080699D02*
X0020567Y0080699D01*
X0019945Y0082297D02*
X0022800Y0082297D01*
X0021202Y0083896D02*
X0018695Y0083896D01*
X0018759Y0085494D02*
X0019603Y0085494D01*
X0019394Y0089663D02*
X0014867Y0089663D01*
X0019454Y0072706D02*
X0029823Y0072706D01*
X0029823Y0071108D02*
X0020180Y0071108D01*
X0020367Y0069463D02*
X0015067Y0069463D01*
X0015067Y0064163D01*
X0015300Y0064163D01*
X0016155Y0064299D01*
X0016978Y0064566D01*
X0017749Y0064959D01*
X0018450Y0065468D01*
X0019062Y0066080D01*
X0019571Y0066780D01*
X0019964Y0067552D01*
X0020231Y0068375D01*
X0020367Y0069230D01*
X0020367Y0069463D01*
X0020080Y0067911D02*
X0029823Y0067911D01*
X0029823Y0069509D02*
X0015067Y0069509D01*
X0015067Y0067911D02*
X0014667Y0067911D01*
X0014667Y0066312D02*
X0015067Y0066312D01*
X0015067Y0064714D02*
X0014667Y0064714D01*
X0012466Y0064714D02*
X0011001Y0064714D01*
X0011001Y0063115D02*
X0029823Y0063115D01*
X0029823Y0061517D02*
X0011001Y0061517D01*
X0011001Y0059918D02*
X0029823Y0059918D01*
X0029823Y0058319D02*
X0011001Y0058319D01*
X0011001Y0056721D02*
X0029823Y0056721D01*
X0029823Y0055122D02*
X0011001Y0055122D01*
X0011001Y0053524D02*
X0029823Y0053524D01*
X0029823Y0051925D02*
X0011001Y0051925D01*
X0011001Y0050327D02*
X0029823Y0050327D01*
X0029823Y0048728D02*
X0011001Y0048728D01*
X0011001Y0047130D02*
X0030409Y0047130D01*
X0032007Y0045531D02*
X0011001Y0045531D01*
X0011001Y0043933D02*
X0033606Y0043933D01*
X0035204Y0042334D02*
X0011001Y0042334D01*
X0011001Y0040736D02*
X0036803Y0040736D01*
X0038401Y0039137D02*
X0019197Y0039137D01*
X0019340Y0039091D02*
X0018517Y0039358D01*
X0017662Y0039494D01*
X0017429Y0039494D01*
X0017429Y0034194D01*
X0017029Y0034194D01*
X0017029Y0039494D01*
X0016796Y0039494D01*
X0015941Y0039358D01*
X0015118Y0039091D01*
X0014346Y0038698D01*
X0013646Y0038189D01*
X0013034Y0037577D01*
X0012525Y0036876D01*
X0012132Y0036105D01*
X0011864Y0035282D01*
X0011729Y0034427D01*
X0011729Y0034194D01*
X0017029Y0034194D01*
X0017029Y0033794D01*
X0011729Y0033794D01*
X0011729Y0033561D01*
X0011864Y0032706D01*
X0012132Y0031883D01*
X0012525Y0031111D01*
X0013034Y0030411D01*
X0013646Y0029799D01*
X0014346Y0029290D01*
X0015118Y0028897D01*
X0015941Y0028629D01*
X0016796Y0028494D01*
X0017029Y0028494D01*
X0017029Y0033794D01*
X0017429Y0033794D01*
X0017429Y0034194D01*
X0022729Y0034194D01*
X0022729Y0034427D01*
X0022593Y0035282D01*
X0022326Y0036105D01*
X0021933Y0036876D01*
X0021424Y0037577D01*
X0020812Y0038189D01*
X0020111Y0038698D01*
X0019340Y0039091D01*
X0017429Y0039137D02*
X0017029Y0039137D01*
X0017029Y0037539D02*
X0017429Y0037539D01*
X0017429Y0035940D02*
X0017029Y0035940D01*
X0017029Y0034342D02*
X0017429Y0034342D01*
X0017429Y0033794D02*
X0022729Y0033794D01*
X0022729Y0033561D01*
X0022593Y0032706D01*
X0022326Y0031883D01*
X0021933Y0031111D01*
X0021424Y0030411D01*
X0020812Y0029799D01*
X0020111Y0029290D01*
X0019340Y0028897D01*
X0018517Y0028629D01*
X0017662Y0028494D01*
X0017429Y0028494D01*
X0017429Y0033794D01*
X0017429Y0032743D02*
X0017029Y0032743D01*
X0017029Y0031145D02*
X0017429Y0031145D01*
X0017429Y0029546D02*
X0017029Y0029546D01*
X0013993Y0029546D02*
X0011001Y0029546D01*
X0011001Y0027948D02*
X0053456Y0027948D01*
X0053456Y0026349D02*
X0011001Y0026349D01*
X0011001Y0024751D02*
X0054219Y0024751D01*
X0055817Y0023152D02*
X0011001Y0023152D01*
X0011001Y0021554D02*
X0059961Y0021554D01*
X0061560Y0019955D02*
X0011001Y0019955D01*
X0011001Y0018357D02*
X0013531Y0018357D01*
X0012204Y0016758D02*
X0011001Y0016758D01*
X0011001Y0015160D02*
X0011542Y0015160D01*
X0011529Y0013561D02*
X0011001Y0013561D01*
X0011001Y0011963D02*
X0011901Y0011963D01*
X0012797Y0010364D02*
X0011001Y0010364D01*
X0011001Y0008766D02*
X0014956Y0008766D01*
X0019502Y0008766D02*
X0023518Y0008766D01*
X0022199Y0010364D02*
X0021660Y0010364D01*
X0026599Y0011963D02*
X0026599Y0011963D01*
X0026599Y0013561D02*
X0026599Y0013561D01*
X0026599Y0015160D02*
X0026599Y0015160D01*
X0029569Y0015160D02*
X0063346Y0015160D01*
X0063799Y0016758D02*
X0022253Y0016758D01*
X0022916Y0015160D02*
X0023629Y0015160D01*
X0020927Y0018357D02*
X0063158Y0018357D01*
X0066599Y0018876D02*
X0058056Y0027419D01*
X0055276Y0031145D02*
X0021950Y0031145D01*
X0022599Y0032743D02*
X0073903Y0032743D01*
X0073416Y0034342D02*
X0061484Y0034342D01*
X0060835Y0031145D02*
X0075502Y0031145D01*
X0074606Y0027948D02*
X0062656Y0027948D01*
X0062434Y0029546D02*
X0088046Y0029546D01*
X0088154Y0032743D02*
X0082129Y0032743D01*
X0082616Y0034342D02*
X0086994Y0034342D01*
X0086604Y0035940D02*
X0082616Y0035940D01*
X0082118Y0037539D02*
X0086780Y0037539D01*
X0087637Y0039137D02*
X0080520Y0039137D01*
X0075513Y0039137D02*
X0072120Y0039137D01*
X0073718Y0040736D02*
X0090137Y0040736D01*
X0099561Y0029546D02*
X0106594Y0029546D01*
X0106878Y0027948D02*
X0100658Y0027948D01*
X0101004Y0026349D02*
X0108276Y0026349D01*
X0109874Y0024751D02*
X0100783Y0024751D01*
X0099863Y0023152D02*
X0111473Y0023152D01*
X0112998Y0029546D02*
X0118046Y0029546D01*
X0123804Y0026199D02*
X0145772Y0026199D01*
X0180260Y0060687D01*
X0180260Y0074466D01*
X0184197Y0078403D01*
X0199552Y0078403D01*
X0199670Y0078285D01*
X0195621Y0082297D02*
X0176303Y0082297D01*
X0175186Y0080699D02*
X0182533Y0080699D01*
X0180934Y0079100D02*
X0175186Y0079100D01*
X0175186Y0077502D02*
X0179336Y0077502D01*
X0177825Y0075903D02*
X0175186Y0075903D01*
X0175186Y0074305D02*
X0177460Y0074305D01*
X0177460Y0072706D02*
X0175186Y0072706D01*
X0175186Y0071108D02*
X0177460Y0071108D01*
X0177460Y0069509D02*
X0175186Y0069509D01*
X0175186Y0067911D02*
X0177460Y0067911D01*
X0177460Y0066312D02*
X0175186Y0066312D01*
X0175186Y0064714D02*
X0177460Y0064714D01*
X0177460Y0063115D02*
X0174792Y0063115D01*
X0173239Y0061517D02*
X0177130Y0061517D01*
X0175532Y0059918D02*
X0171640Y0059918D01*
X0170042Y0058319D02*
X0173933Y0058319D01*
X0172335Y0056721D02*
X0168443Y0056721D01*
X0166845Y0055122D02*
X0170736Y0055122D01*
X0169138Y0053524D02*
X0165246Y0053524D01*
X0163648Y0051925D02*
X0167539Y0051925D01*
X0165941Y0050327D02*
X0162049Y0050327D01*
X0160451Y0048728D02*
X0164342Y0048728D01*
X0162744Y0047130D02*
X0158852Y0047130D01*
X0157254Y0045531D02*
X0161145Y0045531D01*
X0159547Y0043933D02*
X0155655Y0043933D01*
X0154057Y0042334D02*
X0157948Y0042334D01*
X0156350Y0040736D02*
X0152458Y0040736D01*
X0150860Y0039137D02*
X0154751Y0039137D01*
X0153153Y0037539D02*
X0149261Y0037539D01*
X0147663Y0035940D02*
X0151554Y0035940D01*
X0149956Y0034342D02*
X0146064Y0034342D01*
X0143961Y0036199D02*
X0172386Y0064624D01*
X0172386Y0082340D01*
X0178292Y0088246D01*
X0199630Y0088246D01*
X0199670Y0088285D01*
X0195998Y0083896D02*
X0177902Y0083896D01*
X0184059Y0074305D02*
X0195589Y0074305D01*
X0196398Y0072706D02*
X0183060Y0072706D01*
X0183060Y0071108D02*
X0194935Y0071108D01*
X0194295Y0069509D02*
X0183060Y0069509D01*
X0183060Y0067911D02*
X0194170Y0067911D01*
X0194170Y0067852D02*
X0194305Y0066997D01*
X0194573Y0066174D01*
X0194966Y0065403D01*
X0195475Y0064702D01*
X0196087Y0064090D01*
X0196787Y0063581D01*
X0197559Y0063188D01*
X0198382Y0062921D01*
X0199237Y0062785D01*
X0199470Y0062785D01*
X0199470Y0068085D01*
X0194170Y0068085D01*
X0194170Y0067852D01*
X0194528Y0066312D02*
X0183060Y0066312D01*
X0183060Y0064714D02*
X0195466Y0064714D01*
X0197783Y0063115D02*
X0183060Y0063115D01*
X0183060Y0061517D02*
X0203851Y0061517D01*
X0203851Y0063115D02*
X0201556Y0063115D01*
X0199870Y0063115D02*
X0199470Y0063115D01*
X0199470Y0064714D02*
X0199870Y0064714D01*
X0199870Y0066312D02*
X0199470Y0066312D01*
X0199470Y0067911D02*
X0199870Y0067911D01*
X0203851Y0059918D02*
X0182973Y0059918D01*
X0181853Y0058319D02*
X0203851Y0058319D01*
X0203851Y0056721D02*
X0180254Y0056721D01*
X0178656Y0055122D02*
X0203851Y0055122D01*
X0203851Y0053524D02*
X0177057Y0053524D01*
X0175459Y0051925D02*
X0203851Y0051925D01*
X0203851Y0050327D02*
X0173860Y0050327D01*
X0172262Y0048728D02*
X0203851Y0048728D01*
X0203851Y0047130D02*
X0170663Y0047130D01*
X0169065Y0045531D02*
X0203851Y0045531D01*
X0203851Y0043933D02*
X0167466Y0043933D01*
X0165868Y0042334D02*
X0203851Y0042334D01*
X0203851Y0040736D02*
X0164269Y0040736D01*
X0162671Y0039137D02*
X0203851Y0039137D01*
X0203851Y0037539D02*
X0161072Y0037539D01*
X0159474Y0035940D02*
X0203851Y0035940D01*
X0203851Y0034342D02*
X0157875Y0034342D01*
X0156277Y0032743D02*
X0203851Y0032743D01*
X0203851Y0031145D02*
X0154678Y0031145D01*
X0153080Y0029546D02*
X0203851Y0029546D01*
X0203851Y0027948D02*
X0151481Y0027948D01*
X0149883Y0026349D02*
X0203851Y0026349D01*
X0203851Y0024751D02*
X0148284Y0024751D01*
X0145160Y0029546D02*
X0129561Y0029546D01*
X0123804Y0036199D02*
X0143961Y0036199D01*
X0142150Y0046199D02*
X0164512Y0068561D01*
X0164512Y0088246D01*
X0174355Y0098088D01*
X0193970Y0119063D02*
X0130045Y0119063D01*
X0127650Y0120661D02*
X0194484Y0120661D01*
X0195584Y0122260D02*
X0128915Y0122260D01*
X0123804Y0126199D02*
X0197583Y0126199D01*
X0199670Y0128285D01*
X0194315Y0130252D02*
X0128637Y0130252D01*
X0127928Y0131851D02*
X0195175Y0131851D01*
X0197583Y0136199D02*
X0199670Y0138285D01*
X0197583Y0136199D02*
X0123804Y0136199D01*
X0129468Y0143041D02*
X0137747Y0143041D01*
X0136608Y0144639D02*
X0130523Y0144639D01*
X0130804Y0146238D02*
X0136608Y0146238D01*
X0136620Y0147836D02*
X0130498Y0147836D01*
X0141008Y0147836D02*
X0141008Y0147836D01*
X0141008Y0146238D02*
X0141008Y0146238D01*
X0141009Y0146002D02*
X0145408Y0146002D01*
X0145408Y0147824D01*
X0142831Y0150402D01*
X0141008Y0150402D01*
X0141008Y0149435D02*
X0141008Y0149435D01*
X0143798Y0149435D02*
X0194262Y0149435D01*
X0194245Y0151033D02*
X0112194Y0151033D01*
X0112194Y0149435D02*
X0118217Y0149435D01*
X0117109Y0147836D02*
X0112194Y0147836D01*
X0112194Y0146238D02*
X0116804Y0146238D01*
X0117084Y0144639D02*
X0112194Y0144639D01*
X0112194Y0143041D02*
X0118139Y0143041D01*
X0118265Y0152632D02*
X0112194Y0152632D01*
X0112194Y0154230D02*
X0117040Y0154230D01*
X0116604Y0155829D02*
X0112194Y0155829D01*
X0112194Y0157427D02*
X0116734Y0157427D01*
X0117525Y0159026D02*
X0112194Y0159026D01*
X0112194Y0160624D02*
X0119868Y0160624D01*
X0112194Y0162223D02*
X0194445Y0162223D01*
X0194245Y0160624D02*
X0127739Y0160624D01*
X0130082Y0159026D02*
X0137527Y0159026D01*
X0144144Y0152632D02*
X0194614Y0152632D01*
X0195507Y0154230D02*
X0145608Y0154230D01*
X0145608Y0155829D02*
X0196664Y0155829D01*
X0195093Y0157427D02*
X0145608Y0157427D01*
X0144490Y0159026D02*
X0194431Y0159026D01*
X0195107Y0163821D02*
X0177027Y0163821D01*
X0176797Y0163726D02*
X0178689Y0164510D01*
X0180138Y0165958D01*
X0180922Y0167851D01*
X0180922Y0169900D01*
X0180138Y0171793D01*
X0178689Y0173242D01*
X0177038Y0173926D01*
X0177823Y0173926D01*
X0180722Y0176825D01*
X0180722Y0178876D01*
X0180722Y0180926D01*
X0177823Y0183826D01*
X0175772Y0183826D01*
X0173722Y0183826D01*
X0170822Y0180926D01*
X0170822Y0178876D01*
X0175772Y0178876D01*
X0175772Y0183826D01*
X0175772Y0178876D01*
X0175772Y0178876D01*
X0175772Y0178876D01*
X0170822Y0178876D01*
X0170822Y0176825D01*
X0173722Y0173926D01*
X0174506Y0173926D01*
X0172855Y0173242D01*
X0171406Y0171793D01*
X0170622Y0169900D01*
X0170622Y0167851D01*
X0171406Y0165958D01*
X0172855Y0164510D01*
X0174748Y0163726D01*
X0176797Y0163726D01*
X0174517Y0163821D02*
X0112194Y0163821D01*
X0112194Y0165420D02*
X0154652Y0165420D01*
X0155087Y0164984D02*
X0152393Y0167679D01*
X0152393Y0171490D01*
X0155087Y0174184D01*
X0158898Y0174184D01*
X0161593Y0171490D01*
X0161593Y0167679D01*
X0158898Y0164984D01*
X0155087Y0164984D01*
X0153053Y0167018D02*
X0139633Y0167018D01*
X0139016Y0166402D02*
X0141711Y0169096D01*
X0141711Y0172907D01*
X0139016Y0175602D01*
X0135205Y0175602D01*
X0132511Y0172907D01*
X0132511Y0169096D01*
X0135205Y0166402D01*
X0139016Y0166402D01*
X0141231Y0168617D02*
X0152393Y0168617D01*
X0152393Y0170215D02*
X0141711Y0170215D01*
X0141711Y0171814D02*
X0152717Y0171814D01*
X0154315Y0173412D02*
X0141205Y0173412D01*
X0139607Y0175011D02*
X0172637Y0175011D01*
X0173267Y0173412D02*
X0159670Y0173412D01*
X0158815Y0175184D02*
X0161393Y0177762D01*
X0161393Y0179584D01*
X0156993Y0179584D01*
X0156993Y0179584D01*
X0156993Y0175184D01*
X0158815Y0175184D01*
X0156993Y0175184D02*
X0156993Y0179584D01*
X0156993Y0179584D01*
X0161393Y0179584D01*
X0161393Y0181407D01*
X0158815Y0183984D01*
X0156993Y0183984D01*
X0156993Y0179584D01*
X0152593Y0179584D01*
X0152593Y0177762D01*
X0155170Y0175184D01*
X0156993Y0175184D01*
X0156993Y0176609D02*
X0156993Y0176609D01*
X0156993Y0178208D02*
X0156993Y0178208D01*
X0156993Y0179584D02*
X0156993Y0179584D01*
X0156993Y0179584D01*
X0152593Y0179584D01*
X0152593Y0181407D01*
X0155170Y0183984D01*
X0156993Y0183984D01*
X0156993Y0179584D01*
X0156993Y0179806D02*
X0156993Y0179806D01*
X0156993Y0181405D02*
X0156993Y0181405D01*
X0156993Y0183003D02*
X0156993Y0183003D01*
X0154189Y0183003D02*
X0141614Y0183003D01*
X0141711Y0181405D02*
X0152593Y0181405D01*
X0152593Y0179806D02*
X0141711Y0179806D01*
X0140822Y0178208D02*
X0152593Y0178208D01*
X0153745Y0176609D02*
X0139224Y0176609D01*
X0134998Y0176609D02*
X0112194Y0176609D01*
X0112194Y0175011D02*
X0134615Y0175011D01*
X0133016Y0173412D02*
X0112194Y0173412D01*
X0112194Y0171814D02*
X0132511Y0171814D01*
X0132511Y0170215D02*
X0112194Y0170215D01*
X0112194Y0168617D02*
X0132990Y0168617D01*
X0134589Y0167018D02*
X0112194Y0167018D01*
X0106594Y0167018D02*
X0074070Y0167018D01*
X0074070Y0165420D02*
X0106594Y0165420D01*
X0106594Y0168617D02*
X0074065Y0168617D01*
X0072466Y0170215D02*
X0106594Y0170215D01*
X0106594Y0171814D02*
X0099468Y0171814D01*
X0101066Y0173412D02*
X0106594Y0173412D01*
X0106594Y0175011D02*
X0101632Y0175011D01*
X0101632Y0176609D02*
X0105654Y0176609D01*
X0104055Y0178208D02*
X0101213Y0178208D01*
X0102457Y0179806D02*
X0099615Y0179806D01*
X0092851Y0178208D02*
X0090930Y0178208D01*
X0091432Y0176609D02*
X0092432Y0176609D01*
X0092432Y0175011D02*
X0091432Y0175011D01*
X0090783Y0173412D02*
X0092998Y0173412D01*
X0094596Y0171814D02*
X0089185Y0171814D01*
X0087032Y0171814D02*
X0087032Y0171814D01*
X0087032Y0171484D02*
X0087032Y0175883D01*
X0087032Y0175883D01*
X0087032Y0171484D01*
X0087032Y0173412D02*
X0087032Y0173412D01*
X0087032Y0175011D02*
X0087032Y0175011D01*
X0087032Y0176609D02*
X0087032Y0176609D01*
X0087032Y0178208D02*
X0087032Y0178208D01*
X0087032Y0179806D02*
X0087032Y0179806D01*
X0094122Y0187799D02*
X0134482Y0187799D01*
X0134311Y0186200D02*
X0095721Y0186200D01*
X0102682Y0192594D02*
X0133934Y0192594D01*
X0133849Y0194193D02*
X0102849Y0194193D01*
X0102849Y0195791D02*
X0133849Y0195791D01*
X0134750Y0197390D02*
X0101866Y0197390D01*
X0105581Y0184602D02*
X0134206Y0184602D01*
X0132607Y0183003D02*
X0107179Y0183003D01*
X0108778Y0181405D02*
X0132511Y0181405D01*
X0132511Y0179806D02*
X0110376Y0179806D01*
X0111854Y0178208D02*
X0133399Y0178208D01*
X0137111Y0181002D02*
X0137111Y0186828D01*
X0138922Y0188639D01*
X0138922Y0194112D01*
X0138449Y0194584D01*
X0143049Y0194193D02*
X0159942Y0194193D01*
X0159942Y0194391D02*
X0159942Y0193991D01*
X0154642Y0193991D01*
X0154642Y0193758D01*
X0154778Y0192903D01*
X0155045Y0192079D01*
X0155438Y0191308D01*
X0155947Y0190608D01*
X0156559Y0189995D01*
X0157260Y0189487D01*
X0158031Y0189094D01*
X0158854Y0188826D01*
X0159709Y0188691D01*
X0159942Y0188691D01*
X0159942Y0193991D01*
X0160342Y0193991D01*
X0160342Y0194391D01*
X0159942Y0194391D01*
X0159942Y0199691D01*
X0159709Y0199691D01*
X0158854Y0199555D01*
X0158031Y0199288D01*
X0157260Y0198895D01*
X0156559Y0198386D01*
X0155947Y0197774D01*
X0155438Y0197073D01*
X0155045Y0196302D01*
X0154778Y0195479D01*
X0154642Y0194624D01*
X0154642Y0194391D01*
X0159942Y0194391D01*
X0160342Y0194391D02*
X0160342Y0199691D01*
X0160575Y0199691D01*
X0161430Y0199555D01*
X0162254Y0199288D01*
X0163025Y0198895D01*
X0163725Y0198386D01*
X0164337Y0197774D01*
X0164846Y0197073D01*
X0165239Y0196302D01*
X0165507Y0195479D01*
X0165642Y0194624D01*
X0165642Y0194391D01*
X0160342Y0194391D01*
X0160342Y0194193D02*
X0174442Y0194193D01*
X0174634Y0192594D02*
X0165407Y0192594D01*
X0165507Y0192903D02*
X0165642Y0193758D01*
X0165642Y0193991D01*
X0160342Y0193991D01*
X0160342Y0188691D01*
X0160575Y0188691D01*
X0161430Y0188826D01*
X0162254Y0189094D01*
X0163025Y0189487D01*
X0163725Y0189995D01*
X0164337Y0190608D01*
X0164846Y0191308D01*
X0165239Y0192079D01*
X0165507Y0192903D01*
X0164620Y0190996D02*
X0175296Y0190996D01*
X0176874Y0189397D02*
X0162850Y0189397D01*
X0160342Y0189397D02*
X0159942Y0189397D01*
X0159942Y0190996D02*
X0160342Y0190996D01*
X0160342Y0192594D02*
X0159942Y0192594D01*
X0159942Y0195791D02*
X0160342Y0195791D01*
X0160342Y0197390D02*
X0159942Y0197390D01*
X0159942Y0198988D02*
X0160342Y0198988D01*
X0162841Y0198988D02*
X0176879Y0198988D01*
X0175298Y0197390D02*
X0164616Y0197390D01*
X0165405Y0195791D02*
X0174636Y0195791D01*
X0180142Y0194191D02*
X0185693Y0188639D01*
X0196008Y0188639D01*
X0197977Y0190608D01*
X0199945Y0190608D01*
X0194599Y0192594D02*
X0185698Y0192594D01*
X0185842Y0194193D02*
X0195469Y0194193D01*
X0197565Y0195791D02*
X0185649Y0195791D01*
X0184987Y0197390D02*
X0203851Y0197390D01*
X0203851Y0198988D02*
X0183405Y0198988D01*
X0182574Y0187799D02*
X0141604Y0187799D01*
X0141722Y0189397D02*
X0157435Y0189397D01*
X0155665Y0190996D02*
X0141722Y0190996D01*
X0142965Y0192594D02*
X0154878Y0192594D01*
X0154879Y0195791D02*
X0143049Y0195791D01*
X0142149Y0197390D02*
X0155668Y0197390D01*
X0157444Y0198988D02*
X0140551Y0198988D01*
X0136348Y0198988D02*
X0088429Y0198988D01*
X0069670Y0180411D02*
X0069670Y0176789D01*
X0059318Y0187799D02*
X0045405Y0187799D01*
X0055544Y0190996D02*
X0058688Y0190996D01*
X0073016Y0156199D02*
X0071993Y0155175D01*
X0071993Y0152262D01*
X0070536Y0150805D01*
X0073016Y0156199D02*
X0093804Y0156199D01*
X0097739Y0160624D02*
X0106594Y0160624D01*
X0106594Y0159026D02*
X0100082Y0159026D01*
X0100874Y0157427D02*
X0106594Y0157427D01*
X0106594Y0155829D02*
X0101004Y0155829D01*
X0100567Y0154230D02*
X0106594Y0154230D01*
X0106594Y0152632D02*
X0099342Y0152632D01*
X0093804Y0146199D02*
X0076796Y0146199D01*
X0100535Y0138245D02*
X0106594Y0138245D01*
X0106594Y0136647D02*
X0101004Y0136647D01*
X0100906Y0135048D02*
X0106594Y0135048D01*
X0106594Y0133450D02*
X0100160Y0133450D01*
X0123804Y0116199D02*
X0197583Y0116199D01*
X0199670Y0118285D01*
X0202975Y0143041D02*
X0203851Y0143041D01*
X0203851Y0144639D02*
X0145408Y0144639D01*
X0145408Y0144179D02*
X0145408Y0146002D01*
X0141009Y0146002D01*
X0141009Y0146002D01*
X0141008Y0146002D02*
X0141008Y0141602D01*
X0142831Y0141602D01*
X0145408Y0144179D01*
X0144270Y0143041D02*
X0196364Y0143041D01*
X0196255Y0146238D02*
X0145408Y0146238D01*
X0145396Y0147836D02*
X0194924Y0147836D01*
X0203636Y0146238D02*
X0203851Y0146238D01*
X0196696Y0165420D02*
X0179599Y0165420D01*
X0180577Y0167018D02*
X0195757Y0167018D01*
X0194809Y0168617D02*
X0180922Y0168617D01*
X0180792Y0170215D02*
X0194445Y0170215D01*
X0194568Y0171814D02*
X0180117Y0171814D01*
X0178277Y0173412D02*
X0195201Y0173412D01*
X0196648Y0175011D02*
X0178908Y0175011D01*
X0180506Y0176609D02*
X0195883Y0176609D01*
X0194770Y0178208D02*
X0180722Y0178208D01*
X0180722Y0178876D02*
X0175772Y0178876D01*
X0180722Y0178876D01*
X0180722Y0179806D02*
X0194245Y0179806D01*
X0194245Y0181405D02*
X0180243Y0181405D01*
X0178645Y0183003D02*
X0194768Y0183003D01*
X0195878Y0184602D02*
X0140016Y0184602D01*
X0140442Y0186200D02*
X0184265Y0186200D01*
X0175772Y0183003D02*
X0175772Y0183003D01*
X0175772Y0181405D02*
X0175772Y0181405D01*
X0175772Y0179806D02*
X0175772Y0179806D01*
X0175772Y0178876D02*
X0175772Y0178876D01*
X0170822Y0178208D02*
X0161393Y0178208D01*
X0161393Y0179806D02*
X0170822Y0179806D01*
X0171301Y0181405D02*
X0161393Y0181405D01*
X0159796Y0183003D02*
X0172899Y0183003D01*
X0171038Y0176609D02*
X0160240Y0176609D01*
X0161269Y0171814D02*
X0171427Y0171814D01*
X0170753Y0170215D02*
X0161593Y0170215D01*
X0161593Y0168617D02*
X0170622Y0168617D01*
X0170967Y0167018D02*
X0160932Y0167018D01*
X0159333Y0165420D02*
X0171945Y0165420D01*
X0141008Y0146002D02*
X0141008Y0146002D01*
X0141008Y0144639D02*
X0141008Y0144639D01*
X0141008Y0143041D02*
X0141008Y0143041D01*
X0202326Y0195791D02*
X0203851Y0195791D01*
X0132139Y0079100D02*
X0130007Y0079100D01*
X0123804Y0056199D02*
X0140339Y0056199D01*
X0143917Y0051925D02*
X0128108Y0051925D01*
X0128457Y0050327D02*
X0142319Y0050327D01*
X0142150Y0046199D02*
X0123804Y0046199D01*
X0078016Y0027948D02*
X0078016Y0027948D01*
X0078016Y0026349D02*
X0078016Y0026349D01*
X0078016Y0024751D02*
X0078016Y0024751D01*
X0078016Y0023152D02*
X0078016Y0023152D01*
X0078016Y0021554D02*
X0078016Y0021554D01*
X0075376Y0021554D02*
X0067881Y0021554D01*
X0069182Y0019955D02*
X0203851Y0019955D01*
X0203851Y0018357D02*
X0069399Y0018357D01*
X0069399Y0016758D02*
X0203851Y0016758D01*
X0203851Y0015160D02*
X0069852Y0015160D01*
X0071199Y0013561D02*
X0203851Y0013561D01*
X0203851Y0011963D02*
X0071199Y0011963D01*
X0071199Y0010364D02*
X0203851Y0010364D01*
X0203851Y0008766D02*
X0069963Y0008766D01*
X0066599Y0011907D02*
X0066599Y0018876D01*
X0066282Y0023152D02*
X0073777Y0023152D01*
X0073616Y0024751D02*
X0064684Y0024751D01*
X0063085Y0026349D02*
X0073616Y0026349D01*
X0073416Y0035940D02*
X0068923Y0035940D01*
X0070521Y0037539D02*
X0073914Y0037539D01*
X0068996Y0043933D02*
X0041525Y0043933D01*
X0043124Y0042334D02*
X0067397Y0042334D01*
X0065799Y0040736D02*
X0061244Y0040736D01*
X0054627Y0034342D02*
X0022729Y0034342D01*
X0022379Y0035940D02*
X0053456Y0035940D01*
X0053678Y0029546D02*
X0020465Y0029546D01*
X0021452Y0037539D02*
X0040000Y0037539D01*
X0015261Y0039137D02*
X0011001Y0039137D01*
X0011001Y0037539D02*
X0013006Y0037539D01*
X0012078Y0035940D02*
X0011001Y0035940D01*
X0011001Y0034342D02*
X0011729Y0034342D01*
X0011858Y0032743D02*
X0011001Y0032743D01*
X0011001Y0031145D02*
X0012508Y0031145D01*
X0030999Y0013561D02*
X0061999Y0013561D01*
X0061999Y0011963D02*
X0030999Y0011963D01*
X0030999Y0010364D02*
X0061999Y0010364D01*
X0063235Y0008766D02*
X0029680Y0008766D01*
X0029823Y0064714D02*
X0017267Y0064714D01*
X0019230Y0066312D02*
X0029823Y0066312D01*
D21*
X0050339Y0165017D03*
M02*
